ply
format ascii 1.0
element vertex 765
property float x
property float y
property float z
property uchar red
property uchar green
property uchar blue
element face 830
property list uchar int vertex_index
end_header
0.17337 0.29032 0.17173 225 202 170
0.17337 0.29032 -3.8147E-08 225 202 170
0.53795 0.29028 -3.8147E-08 225 202 170
0.53795 0.29028 0.17173 225 202 170
0.5879 0.2325 0.17173 225 202 170
0.5879 0.2325 -3.8147E-08 225 202 170
0.12335 0.23256 -3.8147E-08 225 202 170
0.12335 0.23256 0.17173 225 202 170
0.58812 -0.80596 -3.8147E-08 225 202 170
0.47203 -0.69436 -3.8147E-08 225 202 170
0.58812 -0.80596 0.17173 225 202 170
0.41408 -0.69445 -3.8147E-08 225 202 170
0.29816 -0.69463 -3.8147E-08 225 202 170
0.41424 -0.80622 -3.8147E-08 225 202 170
0.29833 -0.8064 -3.8147E-08 225 202 170
0.29833 -0.8064 0.17173 225 202 170
0.41424 -0.80622 0.17173 225 202 170
0.29816 -0.69463 0.17173 225 202 170
0.2402 -0.69471 0.17173 225 202 170
0.2402 -0.69471 -3.8147E-08 225 202 170
0.12446 -0.80666 -3.8147E-08 225 202 170
0.12446 -0.80666 0.17173 225 202 170
0.24037 -0.80648 -3.8147E-08 225 202 170
0.24037 -0.80648 0.17173 225 202 170
0.2402 -0.69471 0.17173 233 209 176
0.24037 -0.80648 0.17173 233 209 176
0.12446 -0.80666 0.17173 233 209 176
0.12335 0.23256 0.17173 233 209 176
0.29816 -0.69463 0.17173 233 209 176
0.41408 -0.69445 0.17173 233 209 176
0.29833 -0.8064 0.17173 233 209 176
0.41424 -0.80622 0.17173 233 209 176
0.5879 0.2325 0.17173 233 209 176
0.47203 -0.69436 0.17173 233 209 176
0.58812 -0.80596 0.17173 233 209 176
0.4722 -0.80613 -3.8147E-08 225 202 170
0.4722 -0.80613 0.17173 225 202 170
0.47203 -0.69436 0.17173 225 202 170
0.41408 -0.69445 0.17173 225 202 170
0.4722 -0.80613 0.17173 233 209 176
0.14741 -0.64573 0.80492 237 222 189
0.09615 -0.64573 0.80492 237 222 189
0.14741 -0.64573 0.96869 237 222 189
0.09615 -0.64573 0.66342 237 222 189
0.19584 -0.64573 0.66342 237 222 189
0.19584 -0.64573 0.80492 237 222 189
0.04756 -0.64573 0.80492 237 222 189
-0.14741 -0.64573 0.96869 237 222 189
-0.04756 -0.64573 0.80492 237 222 189
0.04756 -0.64573 0.61799 237 222 189
-0.04756 -0.64573 0.61799 237 222 189
-0.09615 -0.64573 0.80492 237 222 189
-0.14741 -0.64573 0.80492 237 222 189
-0.09615 -0.64573 0.66342 237 222 189
-0.19584 -0.64573 0.66342 237 222 189
-0.19584 -0.64573 0.80492 237 222 189
-0.48518 -0.64573 1.12155 237 222 189
-0.19594 -0.64573 0.96869 237 222 189
-0.36433 -0.64573 0.96869 237 222 189
-0.36433 -0.64573 0.85414 237 222 189
-0.19594 -0.64573 0.85414 237 222 189
-0.41068 -0.64573 0.96869 237 222 189
-0.51202 -0.64573 0.80492 237 222 189
-0.46332 -0.64573 0.80492 237 222 189
-0.41068 -0.64573 0.80492 237 222 189
-0.46332 -0.64573 0.66342 237 222 189
-0.36425 -0.64573 0.66342 237 222 189
-0.36425 -0.64573 0.80492 237 222 189
-0.5767 -0.64573 1.12155 237 222 189
-0.5767 -0.64573 0.27866 237 222 189
-0.51202 -0.64573 0.61799 237 222 189
-0.31618 -0.64573 0.61799 237 222 189
-0.24304 -0.64573 0.61799 237 222 189
-0.31618 -0.64573 0.80492 237 222 189
-0.24304 -0.64573 0.80492 237 222 189
0.5767 -0.64573 0.27866 237 222 189
0.24304 -0.64573 0.61799 237 222 189
0.31618 -0.64573 0.61799 237 222 189
0.31618 -0.64573 0.80492 237 222 189
0.24304 -0.64573 0.80492 237 222 189
0.51202 -0.64573 0.61799 237 222 189
-0.52461 -0.64573 0.22972 237 222 189
0.52461 -0.64573 0.22972 237 222 189
0.51202 -0.64573 0.80492 237 222 189
0.5767 -0.64573 1.12155 237 222 189
0.48518 -0.64573 1.12155 237 222 189
0.41068 -0.64573 0.96869 237 222 189
0.36433 -0.64573 0.96869 237 222 189
0.19594 -0.64573 0.96869 237 222 189
0.36433 -0.64573 0.85414 237 222 189
0.19594 -0.64573 0.85414 237 222 189
0.46332 -0.64573 0.80492 237 222 189
0.41068 -0.64573 0.80492 237 222 189
0.46332 -0.64573 0.66342 237 222 189
0.36425 -0.64573 0.66342 237 222 189
0.36425 -0.64573 0.80492 237 222 189
0.49659 -0.72273 1.17312 237 222 189
-0.49659 -0.72273 1.17312 237 222 189
0.30913 -0.72273 1.21748 237 222 189
0.49653 -0.72273 2.00504 237 222 189
0.30913 -0.72273 1.93669 237 222 189
0.21367 -0.72273 1.93669 237 222 189
0.21363 -0.72273 2.00504 237 222 189
-0.30913 -0.72273 1.21748 237 222 189
-0.49653 -0.72273 2.00504 237 222 189
-0.30913 -0.72273 1.93669 237 222 189
-0.21367 -0.72273 1.93669 237 222 189
-0.21363 -0.72273 2.00504 237 222 189
0 -0.80027 1.93669 237 222 189
0.21367 -0.80027 1.93669 237 222 189
0.02929 -0.80027 1.95719 237 222 189
0.05656 -0.80027 1.95719 237 222 189
0.05656 -0.80027 2.01227 237 222 189
0.21363 -0.80027 2.04475 237 222 189
0.02929 -0.80027 2.01227 237 222 189
-0.02929 -0.80027 1.95719 237 222 189
-0.02929 -0.80027 2.01227 237 222 189
0 -0.80027 2.04475 237 222 189
-0.21363 -0.80027 2.04475 237 222 189
-0.05656 -0.80027 2.01227 237 222 189
-0.21367 -0.80027 1.93669 237 222 189
-0.05656 -0.80027 1.95719 237 222 189
0.36425 -0.64573 0.66342 228 213 182
0.31618 -0.64573 0.61799 228 213 182
0.31618 -0.64573 0.80492 228 213 182
0.36425 -0.64573 0.80492 228 213 182
0.51202 -0.64573 0.61799 228 213 182
0.46332 -0.64573 0.66342 228 213 182
0.51202 -0.64573 0.80492 228 213 182
0.46332 -0.64573 0.80492 228 213 182
0.36433 -0.64573 0.85414 228 213 182
0.41068 -0.64573 0.80492 228 213 182
0.36433 -0.64573 0.96869 228 213 182
0.41068 -0.64573 0.96869 228 213 182
0.24304 -0.64573 0.80492 228 213 182
0.19594 -0.64573 0.85414 228 213 182
0.19584 -0.64573 0.80492 228 213 182
0.19584 -0.64573 0.66342 228 213 182
0.24304 -0.64573 0.61799 228 213 182
0.09615 -0.64573 0.66342 228 213 182
0.04756 -0.64573 0.61799 228 213 182
0.04756 -0.64573 0.80492 228 213 182
0.09615 -0.64573 0.80492 228 213 182
0.14741 -0.64573 0.80492 228 213 182
0.14741 -0.64573 0.96869 228 213 182
0.19594 -0.64573 0.96869 228 213 182
-0.09615 -0.64573 0.66342 228 213 182
-0.09615 -0.64573 0.80492 228 213 182
-0.04756 -0.64573 0.80492 228 213 182
-0.04756 -0.64573 0.61799 228 213 182
-0.24304 -0.64573 0.61799 228 213 182
-0.19584 -0.64573 0.66342 228 213 182
-0.24304 -0.64573 0.80492 228 213 182
-0.19584 -0.64573 0.80492 228 213 182
-0.19594 -0.64573 0.85414 228 213 182
-0.14741 -0.64573 0.80492 228 213 182
-0.14741 -0.64573 0.96869 228 213 182
-0.19594 -0.64573 0.96869 228 213 182
-0.36433 -0.64573 0.85414 228 213 182
-0.31618 -0.64573 0.80492 228 213 182
-0.36425 -0.64573 0.80492 228 213 182
-0.36425 -0.64573 0.66342 228 213 182
-0.31618 -0.64573 0.61799 228 213 182
-0.51202 -0.64573 0.61799 228 213 182
-0.46332 -0.64573 0.66342 228 213 182
-0.51202 -0.64573 0.80492 228 213 182
-0.46332 -0.64573 0.80492 228 213 182
-0.41068 -0.64573 0.80492 228 213 182
-0.36433 -0.64573 0.96869 228 213 182
-0.41068 -0.64573 0.96869 228 213 182
-0.77636 -0.23686 2.41468 194 168 131
-1.07806 0.0163 1.92897 194 168 131
-1.07806 0.0163 2.36275 194 168 131
-0.73439 -0.27208 2.36831 194 168 131
-1.03358 -0.02102 1.879 194 168 131
-0.73439 -0.27208 1.92507 194 168 131
-1.04174 -0.01418 2.41468 194 168 131
-0.77663 -0.23663 1.879 194 168 131
-0.66074 -0.33387 2.47779 212 159 68
-0.70198 -0.29927 2.52947 212 159 68
-0.59911 -0.17667 2.52947 212 159 68
-0.55787 -0.21127 2.47779 212 159 68
-1.1517 0.07809 2.52947 212 159 68
-1.04883 0.20069 2.52947 212 159 68
-1.04883 0.20069 2.27629 206 155 66
-0.59911 -0.17667 2.52947 206 155 66
-1.04883 0.20069 2.52947 206 155 66
-1.11554 0.25667 2.52927 206 155 66
-1.11554 0.25667 2.2762 206 155 66
-0.55787 -0.21127 2.47779 206 155 66
-0.55787 -0.21127 1.76421 206 155 66
-1.04883 0.20069 1.81615 206 155 66
-1.1517 0.07809 1.81615 206 155 66
-1.11272 0.04538 1.76421 206 155 66
-1.00985 0.16798 1.76421 206 155 66
-1.1517 0.07809 2.27629 206 155 66
-0.66074 -0.33387 1.76421 206 155 66
-1.13408 0.27223 2.29366 206 155 66
-1.13408 0.27223 2.51181 206 155 66
-1.23695 0.14963 2.29366 206 155 66
-1.23695 0.14963 2.51181 206 155 66
-1.21841 0.13407 2.2762 206 155 66
-0.66074 -0.33387 2.47779 206 155 66
-0.73439 -0.27208 1.92507 206 155 66
-0.77663 -0.23663 1.879 206 155 66
-1.03358 -0.02102 1.879 206 155 66
-1.07806 0.0163 1.92897 206 155 66
-1.07806 0.0163 2.36275 206 155 66
-1.1517 0.07809 2.52947 206 155 66
-1.21841 0.13407 2.52927 206 155 66
-1.04174 -0.01418 2.41468 206 155 66
-0.77636 -0.23686 2.41468 206 155 66
-0.70198 -0.29927 2.52947 206 155 66
-0.73439 -0.27208 2.36831 206 155 66
-1.21841 0.13407 2.52927 212 159 68
-1.11554 0.25667 2.52927 212 159 68
-1.13408 0.27223 2.51181 212 159 68
-1.23695 0.14963 2.51181 212 159 68
-0.17833 -0.71476 1.59305 248 252 247
-0.17833 -0.71476 1.94234 248 252 247
-0.02072 -0.71476 1.74185 248 252 247
-0.02072 -0.71476 1.59305 248 252 247
-0.17833 -0.6312 1.59305 248 252 247
-0.02072 -0.6312 1.59305 248 252 247
-0.17833 -0.6312 1.94234 248 252 247
0.17833 -0.71476 1.94234 248 252 247
0.02072 -0.71476 1.74185 248 252 247
0.17833 -0.71476 1.59305 248 252 247
0.02072 -0.71476 1.59305 248 252 247
0.17833 -0.6312 1.59305 248 252 247
0.02072 -0.6312 1.59305 248 252 247
-0.02072 -0.6312 1.74185 248 252 247
0.02072 -0.6312 1.74185 248 252 247
0.17833 -0.6312 1.94234 248 252 247
-0.02072 -0.71476 1.74185 227 231 226
0.02072 -0.71476 1.74185 227 231 226
0.02072 -0.71476 1.59305 227 231 226
-0.02072 -0.71476 1.59305 227 231 226
0.02072 -0.6312 1.59305 227 231 226
-0.02072 -0.6312 1.59305 227 231 226
0.02072 -0.6312 1.74185 227 231 226
-0.02072 -0.6312 1.74185 227 231 226
0.17833 -0.71476 1.55338 248 252 247
0.17833 -0.71476 1.20409 248 252 247
0.02072 -0.71476 1.40458 248 252 247
0.02072 -0.71476 1.55338 248 252 247
0.17833 -0.6312 1.55338 248 252 247
0.02072 -0.6312 1.55338 248 252 247
0.17833 -0.6312 1.20409 248 252 247
-0.17833 -0.71476 1.20409 248 252 247
-0.02072 -0.71476 1.40458 248 252 247
-0.17833 -0.71476 1.55338 248 252 247
-0.02072 -0.71476 1.55338 248 252 247
-0.17833 -0.6312 1.55338 248 252 247
-0.02072 -0.6312 1.55338 248 252 247
0.02072 -0.6312 1.40458 248 252 247
-0.02072 -0.6312 1.40458 248 252 247
-0.17833 -0.6312 1.20409 248 252 247
0.02072 -0.71476 1.40458 227 231 226
-0.02072 -0.71476 1.40458 227 231 226
-0.02072 -0.71476 1.55338 227 231 226
0.02072 -0.71476 1.55338 227 231 226
-0.02072 -0.6312 1.55338 227 231 226
0.02072 -0.6312 1.55338 227 231 226
-0.02072 -0.6312 1.40458 227 231 226
0.02072 -0.6312 1.40458 227 231 226
0.29159 -0.7062 2.10479 255 255 255
0.29159 -0.7062 2.17316 255 255 255
0.31469 -0.7062 2.10479 255 255 255
0.3378 -0.7062 2.12051 255 255 255
0.3378 -0.7062 2.10479 255 255 255
0.3378 -0.7062 2.17316 255 255 255
0.40712 -0.7062 2.12051 69 60 60
0.40712 -0.7062 2.21309 69 60 60
0.40712 -0.69392 2.21309 69 60 60
0.40712 -0.69392 2.07703 69 60 60
0.3378 -0.7062 2.12051 69 60 60
0.3378 -0.7062 2.17316 69 60 60
0.29159 -0.7062 2.17316 69 60 60
0.20457 -0.7062 2.21309 69 60 60
0.29159 -0.7062 2.10479 69 60 60
0.20457 -0.7062 2.07703 69 60 60
0.31469 -0.7062 2.10479 69 60 60
0.31464 -0.7062 2.07703 69 60 60
0.40712 -0.7062 2.07703 69 60 60
0.31469 -0.7062 2.10479 89 80 78
0.3378 -0.7062 2.10479 89 80 78
0.40712 -0.7062 2.07703 89 80 78
0.31464 -0.7062 2.07703 89 80 78
0.3378 -0.7062 2.12051 89 80 78
0.40712 -0.7062 2.12051 89 80 78
-0.3378 -0.7062 2.12051 255 255 255
-0.3378 -0.7062 2.17316 255 255 255
-0.29159 -0.7062 2.17316 255 255 255
-0.31469 -0.7062 2.10479 255 255 255
-0.3378 -0.7062 2.10479 255 255 255
-0.29159 -0.7062 2.10479 255 255 255
-0.40712 -0.7062 2.07703 69 60 60
-0.40712 -0.69392 2.07703 69 60 60
-0.40712 -0.7062 2.12051 69 60 60
-0.40712 -0.7062 2.21309 69 60 60
-0.3378 -0.7062 2.17316 69 60 60
-0.29159 -0.7062 2.17316 69 60 60
-0.20457 -0.7062 2.21309 69 60 60
-0.29159 -0.7062 2.10479 69 60 60
-0.20457 -0.7062 2.07703 69 60 60
-0.31469 -0.7062 2.10479 69 60 60
-0.31469 -0.7062 2.07703 69 60 60
-0.3378 -0.7062 2.12051 69 60 60
-0.40712 -0.69392 2.21309 69 60 60
-0.40712 -0.7062 2.07703 89 80 78
-0.40712 -0.7062 2.12051 89 80 78
-0.3378 -0.7062 2.12051 89 80 78
-0.3378 -0.7062 2.10479 89 80 78
-0.31469 -0.7062 2.07703 89 80 78
-0.31469 -0.7062 2.10479 89 80 78
-0.2558 -0.60003 1.19688 198 149 178
-0.2558 -0.60003 1.67893 198 149 178
0.2558 -0.60003 1.67893 198 149 178
0.2558 -0.60003 1.19688 198 149 178
0.2558 -0.51101 1.67893 198 149 178
-0.2558 -0.51101 1.67893 198 149 178
0.2558 -0.51101 1.19688 198 149 178
-0.2558 -0.51101 1.19688 198 149 178
0.51149 -0.66648 2.35905 212 159 68
-0.51149 -0.66648 2.35905 212 159 68
-0.59025 -0.59742 2.35905 212 159 68
0.59025 -0.59742 2.35905 212 159 68
-0.59025 0.45173 2.35905 212 159 68
0.59025 0.45173 2.35905 212 159 68
0.61445 -0.52496 0.16141 206 155 66
-0.61445 -0.52496 0.16141 206 155 66
-0.54706 -0.59654 0.16141 206 155 66
0.54706 -0.59654 0.16141 206 155 66
-0.52461 -0.64573 0.22972 206 155 66
0.52461 -0.64573 0.22972 206 155 66
0.66432 -0.56891 0.22972 206 155 66
0.5767 -0.64573 0.27866 206 155 66
0.5767 -0.64573 1.12155 206 155 66
0.66432 -0.56984 1.12155 206 155 66
0.66432 -0.64592 1.17312 206 155 66
0.66433 -0.64778 2.29411 206 155 66
0.5767 -0.72273 1.17312 206 155 66
0.57657 -0.72282 2.29411 206 155 66
0.49659 -0.72273 1.17312 206 155 66
0.48518 -0.64573 1.12155 206 155 66
0.51459 -0.72273 2.0859 206 155 66
0.49653 -0.72273 2.00504 206 155 66
0.21376 -0.72273 2.0859 206 155 66
0.21363 -0.72273 2.00504 206 155 66
0.51459 -0.69781 2.0859 206 155 66
0.51459 -0.69781 2.26566 206 155 66
0.51459 -0.72273 2.26566 206 155 66
0.21376 -0.69781 2.0859 206 155 66
0.21376 -0.80027 2.0859 206 155 66
0.21363 -0.80027 2.04475 206 155 66
0.59025 -0.59742 2.35905 206 155 66
0.51149 -0.66648 2.35905 206 155 66
-0.57657 -0.72282 2.29411 206 155 66
-0.51149 -0.66648 2.35905 206 155 66
-0.59025 -0.59742 2.35905 206 155 66
-0.66433 -0.64778 2.29411 206 155 66
-0.5767 -0.72273 1.17312 206 155 66
-0.66432 -0.64592 1.17312 206 155 66
-0.66432 -0.56984 1.12155 206 155 66
-0.5767 -0.64573 1.12155 206 155 66
-0.49659 -0.72273 1.17312 206 155 66
-0.48518 -0.64573 1.12155 206 155 66
-0.51459 -0.72273 2.0859 206 155 66
-0.49653 -0.72273 2.00504 206 155 66
-0.21376 -0.72273 2.0859 206 155 66
-0.21363 -0.72273 2.00504 206 155 66
-0.51459 -0.69781 2.0859 206 155 66
-0.51459 -0.69781 2.26566 206 155 66
-0.51459 -0.72273 2.26566 206 155 66
-0.21376 -0.69781 2.0859 206 155 66
-0.5767 -0.64573 0.27866 206 155 66
-0.66432 -0.56891 0.22972 206 155 66
-0.21376 -0.80027 2.0859 206 155 66
-0.21363 -0.80027 2.04475 206 155 66
0 -0.80027 2.04475 206 155 66
-0.66432 0.50139 0.22972 206 155 66
-0.61445 0.45743 0.16141 206 155 66
0.61445 0.45743 0.16141 206 155 66
0.5328 0.52902 0.16141 206 155 66
0.5767 0.5782 0.22972 206 155 66
0.66432 0.50139 0.22972 206 155 66
0.66433 0.50208 2.29411 206 155 66
0.57657 0.57712 2.29411 206 155 66
-0.5328 0.52902 0.16141 206 155 66
-0.5767 0.5782 0.22972 206 155 66
-0.57657 0.57712 2.29411 206 155 66
0.51149 0.52078 2.35905 206 155 66
-0.51149 0.52078 2.35905 206 155 66
0.59025 0.45173 2.35905 206 155 66
-0.66433 0.50208 2.29411 206 155 66
-0.59025 0.45173 2.35905 206 155 66
-0.51149 0.52078 2.35905 212 159 68
0.51149 0.52078 2.35905 212 159 68
0.30913 -0.72273 1.21748 166 130 142
0.30913 -0.52122 1.21748 166 130 142
0.30913 -0.52122 1.93669 166 130 142
0.30913 -0.72273 1.93669 166 130 142
0.21367 -0.72273 1.93669 166 130 142
-0.30913 -0.52122 1.21748 166 130 142
-0.30913 -0.52122 1.93669 166 130 142
-0.30913 -0.72273 1.21748 166 130 142
-0.30913 -0.72273 1.93669 166 130 142
-0.21367 -0.72273 1.93669 166 130 142
0.51459 -0.69781 2.0859 255 255 255
0.21376 -0.69781 2.0859 255 255 255
0.51459 -0.69781 2.26566 255 255 255
0.21376 -0.80027 2.0859 212 159 68
-0.21376 -0.80027 2.0859 212 159 68
-0.21376 -0.72273 2.0859 212 159 68
0.21376 -0.72273 2.0859 212 159 68
-0.51459 -0.69781 2.0859 255 255 255
-0.51459 -0.69781 2.26566 255 255 255
-0.21376 -0.69781 2.0859 255 255 255
0.77636 -0.23686 2.41468 194 168 131
1.07806 0.0163 2.36275 194 168 131
1.07806 0.0163 1.92897 194 168 131
0.73439 -0.27208 2.36831 194 168 131
1.03358 -0.02102 1.879 194 168 131
0.73439 -0.27208 1.92507 194 168 131
1.04174 -0.01418 2.41468 194 168 131
0.77663 -0.23663 1.879 194 168 131
0.66074 -0.33387 2.47779 212 159 68
0.55787 -0.21127 2.47779 212 159 68
0.59911 -0.17667 2.52947 212 159 68
0.70198 -0.29927 2.52947 212 159 68
1.1517 0.07809 2.52947 212 159 68
1.04883 0.20069 2.52947 212 159 68
1.04883 0.20069 2.27629 206 155 66
1.04883 0.20069 2.52947 206 155 66
0.59911 -0.17667 2.52947 206 155 66
1.11554 0.25667 2.52927 206 155 66
1.11554 0.25667 2.2762 206 155 66
0.55787 -0.21127 2.47779 206 155 66
0.55787 -0.21127 1.76421 206 155 66
1.04883 0.20069 1.81615 206 155 66
1.1517 0.07809 1.81615 206 155 66
1.11272 0.04538 1.76421 206 155 66
1.00985 0.16798 1.76421 206 155 66
1.1517 0.07809 2.27629 206 155 66
0.66074 -0.33387 1.76421 206 155 66
1.13408 0.27223 2.51181 206 155 66
1.13408 0.27223 2.29366 206 155 66
1.23695 0.14963 2.29366 206 155 66
1.23695 0.14963 2.51181 206 155 66
1.21841 0.13407 2.2762 206 155 66
0.66074 -0.33387 2.47779 206 155 66
0.73439 -0.27208 1.92507 206 155 66
0.77663 -0.23663 1.879 206 155 66
1.03358 -0.02102 1.879 206 155 66
1.07806 0.0163 1.92897 206 155 66
1.07806 0.0163 2.36275 206 155 66
1.1517 0.07809 2.52947 206 155 66
1.21841 0.13407 2.52927 206 155 66
1.04174 -0.01418 2.41468 206 155 66
0.77636 -0.23686 2.41468 206 155 66
0.70198 -0.29927 2.52947 206 155 66
0.73439 -0.27208 2.36831 206 155 66
1.11554 0.25667 2.52927 212 159 68
1.21841 0.13407 2.52927 212 159 68
1.23695 0.14963 2.51181 212 159 68
1.13408 0.27223 2.51181 212 159 68
-0.05656 -0.78724 1.95719 197 185 157
-0.05656 -0.78724 2.01227 197 185 157
-0.02929 -0.78724 2.01227 197 185 157
-0.02929 -0.78724 1.95719 197 185 157
-0.05656 -0.80027 1.95719 197 185 157
-0.02929 -0.80027 1.95719 197 185 157
-0.02929 -0.80027 2.01227 197 185 157
-0.05656 -0.80027 2.01227 197 185 157
0.02929 -0.78724 1.95719 197 185 157
0.02929 -0.78724 2.01227 197 185 157
0.05656 -0.78724 2.01227 197 185 157
0.05656 -0.78724 1.95719 197 185 157
0.02929 -0.80027 1.95719 197 185 157
0.05656 -0.80027 1.95719 197 185 157
0.05656 -0.80027 2.01227 197 185 157
0.02929 -0.80027 2.01227 197 185 157
0.44066 -0.42356 0.7528 206 155 66
0.74626 -0.42356 0.7528 206 155 66
0.74626 -0.42356 0.88499 206 155 66
0.44066 -0.42356 0.88499 206 155 66
0.41022 -0.45476 0.73077 206 155 66
0.41022 -0.45476 0.90702 206 155 66
0.41015 -0.64491 0.73068 206 155 66
0.41015 -0.64491 0.90692 206 155 66
0.77673 -0.64491 0.73068 206 155 66
0.7767 -0.45476 0.73077 206 155 66
0.77673 -0.64491 0.90692 206 155 66
0.7767 -0.45476 0.90702 206 155 66
0.7767 -0.45476 0.90702 212 159 68
0.77673 -0.64491 0.90692 212 159 68
0.68508 -0.64491 0.90692 212 159 68
0.63926 -0.64491 0.90692 212 159 68
0.41022 -0.45476 0.90702 212 159 68
0.54762 -0.64491 0.90692 212 159 68
0.50179 -0.64491 0.90692 212 159 68
0.41015 -0.64491 0.90692 212 159 68
0.44066 -0.42356 0.88499 212 159 68
0.74626 -0.42356 0.88499 212 159 68
0.41015 -0.64491 0.73068 225 202 170
0.41015 -0.73771 0.73068 225 202 170
0.77673 -0.73771 0.73068 225 202 170
0.77673 -0.64491 0.73068 225 202 170
0.77673 -0.64491 0.90692 225 202 170
0.77673 -0.73771 0.90692 225 202 170
0.41015 -0.73771 0.90692 225 202 170
0.41015 -0.64491 0.90692 225 202 170
0.41015 -0.73771 0.96876 225 202 170
0.41015 -0.64491 0.96876 225 202 170
0.50179 -0.64491 0.90692 225 202 170
0.50179 -0.64491 0.96876 225 202 170
0.50179 -0.73771 0.90692 225 202 170
0.50179 -0.73771 0.96876 225 202 170
0.77673 -0.64491 0.96876 225 202 170
0.68508 -0.64491 0.96876 225 202 170
0.68508 -0.64491 0.90692 225 202 170
0.77673 -0.73771 0.96876 225 202 170
0.68508 -0.73771 0.90692 225 202 170
0.68508 -0.73771 0.96876 225 202 170
0.63926 -0.73771 0.90692 225 202 170
0.54762 -0.73771 0.90692 225 202 170
0.63926 -0.73771 0.96876 225 202 170
0.54762 -0.73771 0.96876 225 202 170
0.77673 -0.64491 0.96876 233 209 176
0.77673 -0.73771 0.96876 233 209 176
0.68508 -0.73771 0.96876 233 209 176
0.68508 -0.64491 0.96876 233 209 176
0.50179 -0.73771 0.96876 233 209 176
0.41015 -0.73771 0.96876 233 209 176
0.41015 -0.64491 0.96876 233 209 176
0.50179 -0.64491 0.96876 233 209 176
0.68508 -0.73771 0.90692 233 209 176
0.63926 -0.73771 0.90692 233 209 176
0.63926 -0.64491 0.90692 233 209 176
0.68508 -0.64491 0.90692 233 209 176
0.54762 -0.73771 0.90692 233 209 176
0.50179 -0.73771 0.90692 233 209 176
0.50179 -0.64491 0.90692 233 209 176
0.54762 -0.64491 0.90692 233 209 176
0.63926 -0.73771 0.96876 233 209 176
0.54762 -0.73771 0.96876 233 209 176
0.54762 -0.64491 0.96876 233 209 176
0.63926 -0.64491 0.96876 233 209 176
0.63926 -0.64491 0.96876 225 202 170
0.63926 -0.64491 0.90692 225 202 170
0.54762 -0.64491 0.96876 225 202 170
0.54762 -0.64491 0.90692 225 202 170
-0.44066 -0.42356 0.7528 206 155 66
-0.44066 -0.42356 0.88499 206 155 66
-0.74626 -0.42356 0.88499 206 155 66
-0.74626 -0.42356 0.7528 206 155 66
-0.41022 -0.45476 0.73077 206 155 66
-0.41022 -0.45476 0.90702 206 155 66
-0.41015 -0.64491 0.73068 206 155 66
-0.41015 -0.64491 0.90692 206 155 66
-0.77673 -0.64491 0.73068 206 155 66
-0.7767 -0.45476 0.73077 206 155 66
-0.77673 -0.64491 0.90692 206 155 66
-0.7767 -0.45476 0.90702 206 155 66
-0.7767 -0.45476 0.90702 212 159 68
-0.68508 -0.64491 0.90692 212 159 68
-0.77673 -0.64491 0.90692 212 159 68
-0.63926 -0.64491 0.90692 212 159 68
-0.41022 -0.45476 0.90702 212 159 68
-0.54762 -0.64491 0.90692 212 159 68
-0.50179 -0.64491 0.90692 212 159 68
-0.41015 -0.64491 0.90692 212 159 68
-0.74626 -0.42356 0.88499 212 159 68
-0.44066 -0.42356 0.88499 212 159 68
-0.41015 -0.64491 0.73068 225 202 170
-0.77673 -0.64491 0.73068 225 202 170
-0.77673 -0.73771 0.73068 225 202 170
-0.41015 -0.73771 0.73068 225 202 170
-0.77673 -0.64491 0.90692 225 202 170
-0.77673 -0.73771 0.90692 225 202 170
-0.41015 -0.73771 0.90692 225 202 170
-0.41015 -0.64491 0.90692 225 202 170
-0.41015 -0.73771 0.96876 225 202 170
-0.41015 -0.64491 0.96876 225 202 170
-0.50179 -0.64491 0.90692 225 202 170
-0.50179 -0.64491 0.96876 225 202 170
-0.50179 -0.73771 0.90692 225 202 170
-0.50179 -0.73771 0.96876 225 202 170
-0.68508 -0.64491 0.90692 225 202 170
-0.68508 -0.64491 0.96876 225 202 170
-0.77673 -0.64491 0.96876 225 202 170
-0.77673 -0.73771 0.96876 225 202 170
-0.68508 -0.73771 0.90692 225 202 170
-0.68508 -0.73771 0.96876 225 202 170
-0.63926 -0.73771 0.90692 225 202 170
-0.54762 -0.73771 0.90692 225 202 170
-0.63926 -0.73771 0.96876 225 202 170
-0.54762 -0.73771 0.96876 225 202 170
-0.77673 -0.64491 0.96876 233 209 176
-0.68508 -0.64491 0.96876 233 209 176
-0.68508 -0.73771 0.96876 233 209 176
-0.77673 -0.73771 0.96876 233 209 176
-0.50179 -0.73771 0.96876 233 209 176
-0.50179 -0.64491 0.96876 233 209 176
-0.41015 -0.64491 0.96876 233 209 176
-0.41015 -0.73771 0.96876 233 209 176
-0.68508 -0.73771 0.90692 233 209 176
-0.68508 -0.64491 0.90692 233 209 176
-0.63926 -0.64491 0.90692 233 209 176
-0.63926 -0.73771 0.90692 233 209 176
-0.54762 -0.73771 0.90692 233 209 176
-0.54762 -0.64491 0.90692 233 209 176
-0.50179 -0.64491 0.90692 233 209 176
-0.50179 -0.73771 0.90692 233 209 176
-0.63926 -0.73771 0.96876 233 209 176
-0.63926 -0.64491 0.96876 233 209 176
-0.54762 -0.64491 0.96876 233 209 176
-0.54762 -0.73771 0.96876 233 209 176
-0.63926 -0.64491 0.90692 225 202 170
-0.63926 -0.64491 0.96876 225 202 170
-0.54762 -0.64491 0.96876 225 202 170
-0.54762 -0.64491 0.90692 225 202 170
-0.12598 0.49853 0.25233 225 202 170
-0.12598 0.49853 0.5043 225 202 170
0.12598 0.49853 0.5043 225 202 170
0.12598 0.49853 0.25233 225 202 170
0.12598 0.67942 0.25233 225 202 170
-0.12598 0.67942 0.25233 225 202 170
0.12598 0.67942 0.5043 225 202 170
-0.12598 0.49853 0.5043 234 210 177
-0.12598 0.67942 0.5043 234 210 177
0.12598 0.67942 0.5043 234 210 177
0.12598 0.49853 0.5043 234 210 177
0.12598 1.20494 0.30833 225 202 170
0.12598 1.20494 0.66994 225 202 170
-0.12598 1.20494 0.66994 225 202 170
-0.12598 1.20494 0.30833 225 202 170
0.12598 0.94485 0.56029 225 202 170
0.12598 0.94485 0.66994 225 202 170
-0.12598 0.94485 0.56029 225 202 170
-0.12598 0.94485 0.66994 225 202 170
0.12598 1.15757 0.25233 225 202 170
-0.12598 1.15757 0.25233 225 202 170
-0.12598 0.89243 0.5043 225 202 170
-0.12598 0.82861 0.25233 225 202 170
-0.12598 0.82861 0.5043 225 202 170
0.12598 0.89243 0.5043 225 202 170
0.12598 0.82861 0.5043 225 202 170
0.12598 0.82861 0.25233 225 202 170
-0.10079 0.97086 2.04276 234 210 177
-0.10079 1.17893 2.04276 234 210 177
0.10079 1.17893 2.04276 234 210 177
0.10079 0.97086 2.04276 234 210 177
-0.12598 0.89243 0.5043 234 210 177
-0.12598 0.94485 0.56029 234 210 177
0.12598 0.94485 0.56029 234 210 177
0.12598 0.89243 0.5043 234 210 177
-0.12598 0.82861 0.5043 234 210 177
0.12598 0.82861 0.5043 234 210 177
-0.12598 0.94485 2 225 202 170
-0.10079 0.97086 2.04276 225 202 170
0.10079 0.97086 2.04276 225 202 170
0.12598 0.94485 2 225 202 170
0.10079 1.17893 2.04276 225 202 170
0.12598 1.20494 2 225 202 170
-0.10079 1.17893 2.04276 225 202 170
-0.12598 1.20494 2 225 202 170
0.12598 0.94485 1.80413 225 202 170
0.12598 1.20494 1.80413 225 202 170
-0.12598 1.20494 1.80413 225 202 170
-0.12598 0.94485 1.80413 225 202 170
0.12598 1.20494 1.67339 196 176 148
0.12598 1.20494 1.80413 196 176 148
-0.12598 1.20494 1.80413 196 176 148
-0.12598 1.20494 1.67339 196 176 148
0.12598 0.94485 1.67339 196 176 148
0.12598 0.94485 1.80413 196 176 148
-0.12598 0.94485 1.67339 196 176 148
-0.12598 0.94485 1.80413 196 176 148
0.12598 1.20494 1.48445 225 202 170
0.12598 1.20494 1.67339 225 202 170
-0.12598 1.20494 1.67339 225 202 170
-0.12598 1.20494 1.48445 225 202 170
0.12598 0.94485 1.48445 225 202 170
0.12598 0.94485 1.67339 225 202 170
-0.12598 0.94485 1.48445 225 202 170
-0.12598 0.94485 1.67339 225 202 170
0.12598 1.20494 1.34182 196 176 148
0.12598 1.20494 1.48445 196 176 148
-0.12598 1.20494 1.48445 196 176 148
-0.12598 1.20494 1.34182 196 176 148
0.12598 0.94485 1.34182 196 176 148
0.12598 0.94485 1.48445 196 176 148
-0.12598 0.94485 1.34182 196 176 148
-0.12598 0.94485 1.48445 196 176 148
0.12598 1.20494 0.79526 225 202 170
0.12598 1.20494 1.34182 225 202 170
-0.12598 1.20494 1.34182 225 202 170
-0.12598 1.20494 0.79526 225 202 170
0.12598 0.94485 0.79526 225 202 170
0.12598 0.94485 1.34182 225 202 170
-0.12598 0.94485 0.79526 225 202 170
-0.12598 0.94485 1.34182 225 202 170
0.12598 1.20494 0.66994 196 176 148
0.12598 1.20494 0.79526 196 176 148
-0.12598 1.20494 0.79526 196 176 148
-0.12598 1.20494 0.66994 196 176 148
0.12598 0.94485 0.66994 196 176 148
0.12598 0.94485 0.79526 196 176 148
-0.12598 0.94485 0.66994 196 176 148
-0.12598 0.94485 0.79526 196 176 148
-0.12598 0.67942 0.5043 206 185 156
-0.12598 0.82861 0.5043 206 185 156
0.12598 0.82861 0.5043 206 185 156
0.12598 0.67942 0.5043 206 185 156
0.12598 0.67942 0.25233 196 176 148
0.12598 0.82861 0.25233 196 176 148
-0.12598 0.82861 0.25233 196 176 148
-0.12598 0.67942 0.25233 196 176 148
0.12598 0.67942 0.5043 196 176 148
0.12598 0.82861 0.5043 196 176 148
-0.12598 0.82861 0.5043 196 176 148
-0.12598 0.67942 0.5043 196 176 148
-0.12598 0.67942 0.5043 225 202 170
-0.17337 0.29032 0.17173 225 202 170
-0.53795 0.29028 0.17173 225 202 170
-0.53795 0.29028 -3.8147E-08 225 202 170
-0.17337 0.29032 -3.8147E-08 225 202 170
-0.5879 0.2325 0.17173 225 202 170
-0.5879 0.2325 -3.8147E-08 225 202 170
-0.12335 0.23256 -3.8147E-08 225 202 170
-0.12335 0.23256 0.17173 225 202 170
-0.58812 -0.80596 -3.8147E-08 225 202 170
-0.47203 -0.69436 -3.8147E-08 225 202 170
-0.58812 -0.80596 0.17173 225 202 170
-0.41408 -0.69445 -3.8147E-08 225 202 170
-0.29816 -0.69463 -3.8147E-08 225 202 170
-0.41424 -0.80622 -3.8147E-08 225 202 170
-0.29833 -0.8064 -3.8147E-08 225 202 170
-0.29833 -0.8064 0.17173 225 202 170
-0.41424 -0.80622 0.17173 225 202 170
-0.29816 -0.69463 0.17173 225 202 170
-0.2402 -0.69471 0.17173 225 202 170
-0.2402 -0.69471 -3.8147E-08 225 202 170
-0.12446 -0.80666 -3.8147E-08 225 202 170
-0.12446 -0.80666 0.17173 225 202 170
-0.24037 -0.80648 -3.8147E-08 225 202 170
-0.24037 -0.80648 0.17173 225 202 170
-0.2402 -0.69471 0.17173 233 209 176
-0.12446 -0.80666 0.17173 233 209 176
-0.24037 -0.80648 0.17173 233 209 176
-0.12335 0.23256 0.17173 233 209 176
-0.29816 -0.69463 0.17173 233 209 176
-0.41408 -0.69445 0.17173 233 209 176
-0.29833 -0.8064 0.17173 233 209 176
-0.41424 -0.80622 0.17173 233 209 176
-0.5879 0.2325 0.17173 233 209 176
-0.47203 -0.69436 0.17173 233 209 176
-0.58812 -0.80596 0.17173 233 209 176
-0.4722 -0.80613 0.17173 225 202 170
-0.4722 -0.80613 -3.8147E-08 225 202 170
-0.47203 -0.69436 0.17173 225 202 170
-0.41408 -0.69445 0.17173 225 202 170
-0.4722 -0.80613 0.17173 233 209 176
3 0 2 1
3 0 3 2
3 4 2 3
3 4 5 2
3 5 1 2
3 5 6 1
3 6 0 1
3 6 7 0
3 4 8 5
3 5 8 9
3 4 10 8
3 5 9 11
3 5 11 12
3 12 11 13
3 12 13 14
3 13 15 14
3 13 16 15
3 17 14 15
3 17 12 14
3 12 17 18
3 12 18 19
3 6 12 19
3 5 12 6
3 19 20 6
3 7 6 20
3 7 20 21
3 22 21 20
3 19 22 20
3 22 23 21
3 24 26 25
3 24 27 26
3 27 24 28
3 27 28 29
3 29 28 30
3 29 30 31
3 27 29 32
3 32 29 33
3 32 33 34
3 10 35 8
3 10 36 35
3 37 35 36
3 37 9 35
3 9 8 35
3 9 37 38
3 9 38 11
3 19 23 22
3 19 18 23
3 11 16 13
3 11 38 16
3 34 33 39
3 40 42 41
3 41 43 40
3 40 43 44
3 40 44 45
3 46 41 42
3 46 42 47
3 46 47 48
3 49 46 48
3 49 48 50
3 48 47 51
3 52 51 47
3 51 52 53
3 52 54 53
3 52 55 54
3 42 56 47
3 47 56 57
3 56 58 57
3 57 58 59
3 57 59 60
3 56 61 58
3 61 56 62
3 61 62 63
3 63 64 61
3 64 63 65
3 64 65 66
3 67 64 66
3 62 56 68
3 62 68 69
3 70 62 69
3 71 70 69
3 72 71 69
3 73 71 72
3 73 72 74
3 69 50 72
3 69 49 50
3 69 75 49
3 49 75 76
3 76 75 77
3 78 76 77
3 78 79 76
3 77 75 80
3 75 69 81
3 75 81 82
3 83 80 75
3 84 83 75
3 85 83 84
3 86 83 85
3 85 87 86
3 85 88 87
3 88 89 87
3 88 90 89
3 86 91 83
3 91 86 92
3 92 93 91
3 92 94 93
3 95 94 92
3 42 88 85
3 42 85 56
3 96 56 85
3 96 97 56
3 98 97 96
3 98 96 99
3 98 99 100
3 99 101 100
3 99 102 101
3 98 103 97
3 103 104 97
3 103 105 104
3 104 105 106
3 104 106 107
3 101 108 106
3 109 108 101
3 109 110 108
3 109 111 110
3 109 112 111
3 109 113 112
3 114 112 113
3 115 110 114
3 108 110 115
3 115 114 116
3 114 113 117
3 114 117 116
3 116 117 118
3 116 118 119
3 120 119 118
3 106 108 120
3 120 121 119
3 108 121 120
3 108 115 121
3 106 118 107
3 106 120 118
3 122 124 123
3 122 125 124
3 126 122 123
3 126 127 122
3 128 127 126
3 128 129 127
3 130 124 125
3 131 130 125
3 131 132 130
3 131 133 132
3 130 134 124
3 130 135 134
3 134 135 136
3 134 136 137
3 134 137 138
3 138 137 139
3 138 139 140
3 139 141 140
3 139 142 141
3 135 143 136
3 135 144 143
3 135 145 144
3 146 148 147
3 146 149 148
3 150 149 146
3 150 146 151
3 152 150 151
3 152 151 153
3 152 153 154
3 154 153 155
3 154 155 156
3 154 156 157
3 158 152 154
3 158 159 152
3 158 160 159
3 161 159 160
3 161 162 159
3 163 162 161
3 163 161 164
3 165 163 164
3 165 164 166
3 167 160 158
3 167 158 168
3 167 168 169
3 170 172 171
3 173 170 171
3 173 171 174
3 175 173 174
3 170 176 172
3 177 175 174
3 178 180 179
3 178 181 180
3 180 182 179
3 180 183 182
3 184 186 185
3 184 187 186
3 184 188 187
3 189 184 185
3 189 190 184
3 190 191 184
3 192 184 191
3 193 192 191
3 193 191 194
3 190 193 194
3 190 194 191
3 192 195 184
3 190 196 193
3 187 188 197
3 187 197 198
3 199 198 197
3 188 199 197
3 199 200 198
3 188 201 199
3 196 189 202
3 196 190 189
3 202 203 196
3 203 204 196
3 196 204 205
3 196 205 193
3 205 192 193
3 205 206 192
3 192 206 207
3 192 207 195
3 207 208 195
3 208 201 195
3 195 201 188
3 195 188 184
3 208 209 201
3 207 210 208
3 208 210 211
3 208 211 212
3 211 202 212
3 211 213 202
3 202 213 203
3 201 209 200
3 201 200 199
3 183 214 182
3 183 215 214
3 214 215 216
3 214 216 217
3 218 220 219
3 218 221 220
3 222 221 218
3 222 223 221
3 224 218 219
3 224 222 218
3 225 219 220
3 225 220 226
3 226 227 225
3 226 228 227
3 228 229 227
3 228 230 229
3 231 233 232
3 231 224 233
3 232 233 229
3 227 229 233
3 227 233 225
3 232 229 230
3 224 231 223
3 224 223 222
3 234 236 235
3 234 237 236
3 237 238 236
3 237 239 238
3 239 240 238
3 239 241 240
3 242 244 243
3 242 245 244
3 246 245 242
3 246 247 245
3 248 242 243
3 248 246 242
3 249 243 244
3 249 244 250
3 250 251 249
3 250 252 251
3 252 253 251
3 252 254 253
3 255 257 256
3 255 248 257
3 256 257 253
3 251 253 257
3 251 257 249
3 256 253 254
3 248 255 247
3 248 247 246
3 258 260 259
3 258 261 260
3 261 262 260
3 261 263 262
3 263 264 262
3 263 265 264
3 266 268 267
3 267 268 269
3 269 268 270
3 267 269 271
3 272 274 273
3 272 275 274
3 276 272 273
3 276 273 277
3 273 278 277
3 273 279 278
3 279 280 278
3 279 281 280
3 281 282 280
3 281 283 282
3 284 275 272
3 285 287 286
3 285 288 287
3 287 289 286
3 287 290 289
3 291 293 292
3 294 293 291
3 294 291 295
3 296 293 294
3 297 299 298
3 298 299 300
3 299 301 300
3 300 301 302
3 300 302 303
3 303 302 304
3 303 304 305
3 305 304 306
3 305 306 307
3 299 308 301
3 298 300 309
3 310 312 311
3 310 313 312
3 314 313 310
3 314 315 313
3 316 318 317
3 316 319 318
3 317 318 320
3 319 320 318
3 317 320 321
3 319 322 320
3 323 317 321
3 323 316 317
3 324 326 325
3 324 327 326
3 327 328 326
3 327 329 328
3 330 332 331
3 330 333 332
3 333 334 332
3 333 335 334
3 336 333 330
3 333 336 337
3 333 337 335
3 336 338 337
3 336 339 338
3 340 338 339
3 341 340 339
3 341 342 340
3 340 342 338
3 341 343 342
3 344 338 342
3 343 344 342
3 344 345 338
3 344 343 346
3 344 346 347
3 346 348 347
3 347 348 349
3 348 346 350
3 346 351 350
3 346 352 351
3 352 346 343
3 352 353 351
3 352 348 353
3 348 350 353
3 349 348 354
3 349 354 355
3 343 341 356
3 343 356 357
3 357 358 343
3 357 359 358
3 358 359 360
3 358 360 361
3 361 362 358
3 361 363 362
3 361 364 363
3 363 365 362
3 363 364 365
3 366 362 365
3 366 365 367
3 366 368 362
3 362 368 358
3 368 366 369
3 368 369 370
3 369 371 370
3 370 372 368
3 368 372 373
3 368 373 374
3 374 375 370
3 374 373 375
3 370 375 372
3 364 376 365
3 364 377 376
3 332 376 377
3 371 378 370
3 371 379 378
3 380 378 379
3 374 358 368
3 343 358 374
3 343 374 352
3 352 374 370
3 377 331 332
3 332 334 376
3 380 354 378
3 355 354 380
3 381 331 377
3 381 382 331
3 383 331 382
3 384 383 382
3 385 383 384
3 385 386 383
3 387 386 385
3 387 385 388
3 384 382 389
3 383 330 331
3 386 330 383
3 386 336 330
3 388 385 390
3 390 389 382
3 384 390 385
3 384 389 390
3 388 390 391
3 392 388 391
3 387 388 392
3 392 391 393
3 387 392 394
3 339 336 386
3 339 386 387
3 341 339 387
3 341 387 394
3 341 394 356
3 395 391 390
3 395 393 391
3 395 390 381
3 390 382 381
3 395 396 393
3 329 397 328
3 329 398 397
3 399 401 400
3 399 402 401
3 401 402 403
3 401 404 400
3 401 405 404
3 406 404 405
3 400 406 399
3 400 404 406
3 406 405 407
3 405 408 407
3 401 408 405
3 401 403 408
3 409 411 410
3 412 414 413
3 412 415 414
3 101 113 109
3 101 102 113
3 364 395 381
3 361 395 364
3 361 396 395
3 361 360 396
3 364 381 377
3 416 418 417
3 352 370 348
3 419 421 420
3 422 421 419
3 422 423 421
3 424 423 422
3 419 420 425
3 426 423 424
3 427 429 428
3 427 430 429
3 429 430 431
3 429 431 432
3 433 435 434
3 433 434 436
3 433 436 437
3 438 435 433
3 438 433 439
3 439 433 440
3 441 440 433
3 442 440 441
3 442 443 440
3 439 443 442
3 439 440 443
3 441 433 444
3 439 442 445
3 437 436 446
3 437 446 447
3 448 447 446
3 448 446 449
3 450 447 448
3 450 437 447
3 445 438 439
3 445 451 438
3 451 445 452
3 452 445 453
3 445 454 453
3 445 442 454
3 454 442 441
3 454 441 455
3 441 456 455
3 441 444 456
3 456 444 457
3 457 444 450
3 444 437 450
3 444 433 437
3 457 450 458
3 456 457 459
3 457 460 459
3 457 461 460
3 460 461 451
3 460 451 462
3 451 452 462
3 458 450 448
3 458 448 449
3 432 464 463
3 432 431 464
3 463 464 465
3 463 465 466
3 467 469 468
3 467 470 469
3 471 470 467
3 471 472 470
3 472 469 470
3 472 473 469
3 473 468 469
3 473 474 468
3 474 467 468
3 474 471 467
3 475 477 476
3 475 478 477
3 479 478 475
3 479 480 478
3 480 477 478
3 480 481 477
3 481 476 477
3 481 482 476
3 482 475 476
3 482 479 475
3 483 485 484
3 483 486 485
3 487 486 483
3 487 488 486
3 489 488 487
3 489 490 488
3 491 489 487
3 491 487 492
3 492 483 484
3 492 487 483
3 493 491 492
3 493 492 494
3 494 484 485
3 494 492 484
3 495 497 496
3 495 498 497
3 499 498 495
3 499 500 498
3 499 501 500
3 502 501 499
3 499 504 503
3 499 495 504
3 505 507 506
3 505 508 507
3 507 508 509
3 507 509 510
3 505 506 511
3 505 511 512
3 512 511 513
3 512 513 514
3 515 512 514
3 515 514 516
3 517 515 516
3 517 516 518
3 509 520 519
3 509 521 520
3 510 509 519
3 510 519 522
3 523 510 522
3 510 523 507
3 523 522 524
3 521 523 524
3 521 524 520
3 507 523 525
3 507 525 526
3 526 525 527
3 526 527 528
3 507 526 506
3 506 526 517
3 506 517 511
3 511 517 518
3 511 518 513
3 529 531 530
3 529 532 531
3 533 535 534
3 533 536 535
3 537 539 538
3 537 540 539
3 541 543 542
3 541 544 543
3 545 547 546
3 545 548 547
3 525 549 527
3 525 550 549
3 550 551 549
3 550 552 551
3 552 528 551
3 552 526 528
3 553 555 554
3 553 556 555
3 557 553 554
3 557 554 558
3 559 557 558
3 559 558 560
3 561 557 559
3 561 562 557
3 562 553 557
3 562 556 553
3 563 562 561
3 563 564 562
3 564 556 562
3 564 555 556
3 565 567 566
3 565 566 568
3 569 565 568
3 569 568 570
3 569 570 571
3 572 569 571
3 569 573 565
3 569 574 573
3 575 577 576
3 575 578 577
3 577 579 576
3 577 580 579
3 575 581 578
3 575 582 581
3 582 583 581
3 582 584 583
3 585 584 582
3 585 586 584
3 587 586 585
3 587 588 586
3 579 590 589
3 579 591 590
3 580 591 579
3 580 592 591
3 593 592 580
3 580 577 593
3 593 594 592
3 589 594 593
3 589 590 594
3 577 595 593
3 577 596 595
3 596 597 595
3 596 598 597
3 577 578 596
3 578 587 596
3 578 581 587
3 581 588 587
3 581 583 588
3 599 601 600
3 599 602 601
3 603 605 604
3 603 606 605
3 607 609 608
3 607 610 609
3 611 613 612
3 611 614 613
3 615 617 616
3 615 618 617
3 595 620 619
3 595 597 620
3 619 620 621
3 619 621 622
3 622 621 598
3 622 598 596
3 623 625 624
3 623 626 625
3 623 627 626
3 627 625 626
3 623 628 627
3 627 629 625
3 630 632 631
3 630 633 632
3 634 636 635
3 634 637 636
3 638 634 635
3 638 635 639
3 640 638 639
3 640 639 641
3 638 642 634
3 637 634 642
3 637 642 643
3 640 637 643
3 640 643 644
3 644 643 645
3 644 645 646
3 638 647 642
3 642 647 648
3 642 648 649
3 640 636 637
3 640 641 636
3 649 645 643
3 649 643 642
3 650 652 651
3 650 653 652
3 654 656 655
3 654 657 656
3 658 657 654
3 658 659 657
3 660 662 661
3 660 663 662
3 663 664 662
3 663 665 664
3 665 666 664
3 665 667 666
3 668 665 663
3 668 669 665
3 669 667 665
3 669 670 667
3 671 668 663
3 671 663 660
3 670 660 667
3 670 671 660
3 667 660 661
3 667 661 666
3 672 674 673
3 672 675 674
3 676 672 673
3 676 673 677
3 678 676 677
3 678 677 679
3 675 679 674
3 675 678 679
3 680 682 681
3 680 683 682
3 684 680 681
3 684 681 685
3 686 684 685
3 686 685 687
3 683 687 682
3 683 686 687
3 688 690 689
3 688 691 690
3 692 688 689
3 692 689 693
3 694 692 693
3 694 693 695
3 691 695 690
3 691 694 695
3 696 698 697
3 696 699 698
3 700 696 697
3 700 697 701
3 702 700 701
3 702 701 703
3 699 703 698
3 699 702 703
3 704 706 705
3 704 707 706
3 708 704 705
3 708 705 709
3 710 708 709
3 710 709 711
3 707 710 711
3 707 711 706
3 712 714 713
3 712 715 714
3 716 718 717
3 716 719 718
3 717 720 716
3 717 721 720
3 722 718 719
3 722 719 723
3 724 623 624
3 724 628 623
3 725 727 726
3 725 728 727
3 729 726 727
3 729 727 730
3 730 727 728
3 730 728 731
3 731 728 725
3 731 725 732
3 729 730 733
3 730 734 733
3 729 733 735
3 730 736 734
3 730 737 736
3 737 738 736
3 737 739 738
3 738 739 740
3 738 740 741
3 742 739 737
3 742 740 739
3 737 743 742
3 737 744 743
3 731 744 737
3 730 731 737
3 744 731 745
3 732 745 731
3 732 746 745
3 747 745 746
3 744 745 747
3 747 746 748
3 749 751 750
3 749 750 752
3 752 753 749
3 752 754 753
3 754 755 753
3 754 756 755
3 752 757 754
3 757 758 754
3 757 759 758
3 735 761 760
3 735 733 761
3 762 760 761
3 762 761 734
3 734 761 733
3 734 763 762
3 734 736 763
3 744 748 743
3 744 747 748
3 736 741 763
3 736 738 741
3 759 764 758
