ply
format ascii 1.0
element vertex 761
property float x
property float y
property float z
property uchar red
property uchar green
property uchar blue
element face 830
property list uchar int vertex_index
end_header
0.17337 0.29032 0.17173 225 172 140
0.17337 0.29032 -3.8147E-08 225 172 140
0.53795 0.29028 -3.8147E-08 225 172 140
0.53795 0.29028 0.17173 225 172 140
0.5879 0.2325 0.17173 225 172 140
0.5879 0.2325 -3.8147E-08 225 172 140
0.12335 0.23256 -3.8147E-08 225 172 140
0.12335 0.23256 0.17173 225 172 140
0.58812 -0.80596 -3.8147E-08 225 172 140
0.47203 -0.69436 -3.8147E-08 225 172 140
0.58812 -0.80596 0.17173 225 172 140
0.41408 -0.69445 -3.8147E-08 225 172 140
0.29816 -0.69463 -3.8147E-08 225 172 140
0.41424 -0.80622 -3.8147E-08 225 172 140
0.29833 -0.8064 -3.8147E-08 225 172 140
0.29833 -0.8064 0.17173 225 172 140
0.41424 -0.80622 0.17173 225 172 140
0.29816 -0.69463 0.17173 225 172 140
0.2402 -0.69471 0.17173 225 172 140
0.2402 -0.69471 -3.8147E-08 225 172 140
0.12446 -0.80666 -3.8147E-08 225 172 140
0.12446 -0.80666 0.17173 225 172 140
0.24037 -0.80648 -3.8147E-08 225 172 140
0.24037 -0.80648 0.17173 225 172 140
0.2402 -0.69471 0.17173 233 178 145
0.24037 -0.80648 0.17173 233 178 145
0.12446 -0.80666 0.17173 233 178 145
0.12335 0.23256 0.17173 233 178 145
0.29816 -0.69463 0.17173 233 178 145
0.41408 -0.69445 0.17173 233 178 145
0.29833 -0.8064 0.17173 233 178 145
0.41424 -0.80622 0.17173 233 178 145
0.5879 0.2325 0.17173 233 178 145
0.47203 -0.69436 0.17173 233 178 145
0.58812 -0.80596 0.17173 233 178 145
0.4722 -0.80613 -3.8147E-08 225 172 140
0.4722 -0.80613 0.17173 225 172 140
0.47203 -0.69436 0.17173 225 172 140
0.41408 -0.69445 0.17173 225 172 140
0.4722 -0.80613 0.17173 233 178 145
0.14741 -0.64573 0.80492 239 235 168
0.09615 -0.64573 0.80492 239 235 168
0.14741 -0.64573 0.96869 239 235 168
0.09615 -0.64573 0.66342 239 235 168
0.19584 -0.64573 0.66342 239 235 168
0.19584 -0.64573 0.80492 239 235 168
0.04756 -0.64573 0.80492 239 235 168
-0.14741 -0.64573 0.96869 239 235 168
-0.04756 -0.64573 0.80492 239 235 168
0.04756 -0.64573 0.61799 239 235 168
-0.04756 -0.64573 0.61799 239 235 168
-0.09615 -0.64573 0.80492 239 235 168
-0.14741 -0.64573 0.80492 239 235 168
-0.09615 -0.64573 0.66342 239 235 168
-0.19584 -0.64573 0.66342 239 235 168
-0.19584 -0.64573 0.80492 239 235 168
-0.48518 -0.64573 1.12155 239 235 168
-0.19594 -0.64573 0.96869 239 235 168
-0.36433 -0.64573 0.96869 239 235 168
-0.36433 -0.64573 0.85414 239 235 168
-0.19594 -0.64573 0.85414 239 235 168
-0.41068 -0.64573 0.96869 239 235 168
-0.51202 -0.64573 0.80492 239 235 168
-0.46332 -0.64573 0.80492 239 235 168
-0.5767 -0.64573 1.12155 239 235 168
-0.5767 -0.64573 0.27866 239 235 168
-0.51202 -0.64573 0.61799 239 235 168
-0.31618 -0.64573 0.61799 239 235 168
-0.24304 -0.64573 0.61799 239 235 168
-0.31618 -0.64573 0.80492 239 235 168
-0.24304 -0.64573 0.80492 239 235 168
0.5767 -0.64573 0.27866 239 235 168
0.24304 -0.64573 0.61799 239 235 168
0.31618 -0.64573 0.61799 239 235 168
0.31618 -0.64573 0.80492 239 235 168
0.24304 -0.64573 0.80492 239 235 168
0.51202 -0.64573 0.61799 239 235 168
-0.52461 -0.64573 0.22972 239 235 168
0.52461 -0.64573 0.22972 239 235 168
0.51202 -0.64573 0.80492 239 235 168
0.5767 -0.64573 1.12155 239 235 168
0.48518 -0.64573 1.12155 239 235 168
0.41068 -0.64573 0.96869 239 235 168
0.36433 -0.64573 0.96869 239 235 168
0.19594 -0.64573 0.96869 239 235 168
0.36433 -0.64573 0.85414 239 235 168
0.19594 -0.64573 0.85414 239 235 168
0.46332 -0.64573 0.80492 239 235 168
0.49659 -0.72273 1.17312 239 235 168
-0.49659 -0.72273 1.17312 239 235 168
0.30913 -0.72273 1.21748 239 235 168
0.49653 -0.72273 2.00504 239 235 168
0.30913 -0.72273 1.93669 239 235 168
0.21367 -0.72273 1.93669 239 235 168
0.21363 -0.72273 2.00504 239 235 168
-0.30913 -0.72273 1.21748 239 235 168
-0.49653 -0.72273 2.00504 239 235 168
-0.30913 -0.72273 1.93669 239 235 168
-0.21367 -0.72273 1.93669 239 235 168
-0.21363 -0.72273 2.00504 239 235 168
0 -0.80027 1.93669 239 235 168
0.21367 -0.80027 1.93669 239 235 168
0.02929 -0.80027 1.95719 239 235 168
0.05656 -0.80027 1.95719 239 235 168
0.05656 -0.80027 2.01227 239 235 168
0.21363 -0.80027 2.04475 239 235 168
0.02929 -0.80027 2.01227 239 235 168
-0.02929 -0.80027 1.95719 239 235 168
-0.02929 -0.80027 2.01227 239 235 168
0 -0.80027 2.04475 239 235 168
-0.21363 -0.80027 2.04475 239 235 168
-0.05656 -0.80027 2.01227 239 235 168
-0.21367 -0.80027 1.93669 239 235 168
-0.05656 -0.80027 1.95719 239 235 168
0.36425 -0.64573 0.66342 228 223 146
0.31618 -0.64573 0.61799 228 223 146
0.31618 -0.64573 0.80492 228 223 146
0.36425 -0.64573 0.80492 228 223 146
0.51202 -0.64573 0.61799 228 223 146
0.46332 -0.64573 0.66342 228 223 146
0.51202 -0.64573 0.80492 228 223 146
0.46332 -0.64573 0.80492 228 223 146
0.36433 -0.64573 0.85414 228 223 146
0.41068 -0.64573 0.80492 228 223 146
0.36433 -0.64573 0.96869 228 223 146
0.41068 -0.64573 0.96869 228 223 146
0.24304 -0.64573 0.80492 228 223 146
0.19594 -0.64573 0.85414 228 223 146
0.19584 -0.64573 0.80492 228 223 146
0.19584 -0.64573 0.66342 228 223 146
0.24304 -0.64573 0.61799 228 223 146
0.09615 -0.64573 0.66342 228 223 146
0.04756 -0.64573 0.61799 228 223 146
0.04756 -0.64573 0.80492 228 223 146
0.09615 -0.64573 0.80492 228 223 146
0.14741 -0.64573 0.80492 228 223 146
0.14741 -0.64573 0.96869 228 223 146
0.19594 -0.64573 0.96869 228 223 146
0.41068 -0.64573 0.80492 239 235 168
0.46332 -0.64573 0.66342 239 235 168
0.36425 -0.64573 0.66342 239 235 168
0.36425 -0.64573 0.80492 239 235 168
0.46332 -0.64573 0.80492 224 133 79
0.41068 -0.64573 0.80492 224 133 79
0.41068 -0.64573 0.96869 224 133 79
-0.09615 -0.64573 0.66342 228 223 146
-0.09615 -0.64573 0.80492 228 223 146
-0.04756 -0.64573 0.80492 228 223 146
-0.04756 -0.64573 0.61799 228 223 146
-0.24304 -0.64573 0.61799 228 223 146
-0.19584 -0.64573 0.66342 228 223 146
-0.24304 -0.64573 0.80492 228 223 146
-0.19584 -0.64573 0.80492 228 223 146
-0.19594 -0.64573 0.85414 228 223 146
-0.14741 -0.64573 0.80492 228 223 146
-0.14741 -0.64573 0.96869 228 223 146
-0.19594 -0.64573 0.96869 228 223 146
-0.36433 -0.64573 0.85414 228 223 146
-0.31618 -0.64573 0.80492 228 223 146
-0.36425 -0.64573 0.80492 228 223 146
-0.36425 -0.64573 0.66342 228 223 146
-0.31618 -0.64573 0.61799 228 223 146
-0.51202 -0.64573 0.61799 228 223 146
-0.46332 -0.64573 0.66342 228 223 146
-0.51202 -0.64573 0.80492 228 223 146
-0.46332 -0.64573 0.80492 228 223 146
-0.41068 -0.64573 0.80492 228 223 146
-0.36433 -0.64573 0.96869 228 223 146
-0.41068 -0.64573 0.96869 228 223 146
-0.41068 -0.64573 0.80492 239 235 168
-0.46332 -0.64573 0.66342 239 235 168
-0.36425 -0.64573 0.66342 239 235 168
-0.36425 -0.64573 0.80492 239 235 168
-0.46332 -0.64573 0.80492 224 133 79
-0.41068 -0.64573 0.96869 224 133 79
-0.41068 -0.64573 0.80492 224 133 79
-0.77636 -0.23686 2.41468 201 105 47
-1.07806 0.0163 1.92897 201 105 47
-1.07806 0.0163 2.36275 201 105 47
-0.73439 -0.27208 2.36831 201 105 47
-1.03358 -0.02102 1.879 201 105 47
-0.73439 -0.27208 1.92507 201 105 47
-1.04174 -0.01418 2.41468 201 105 47
-0.77663 -0.23663 1.879 201 105 47
-0.66074 -0.33387 2.47779 231 137 82
-0.70198 -0.29927 2.52947 231 137 82
-0.59911 -0.17667 2.52947 231 137 82
-0.55787 -0.21127 2.47779 231 137 82
-1.1517 0.07809 2.52947 231 137 82
-1.04883 0.20069 2.52947 231 137 82
-1.04883 0.20069 2.27629 224 133 79
-0.59911 -0.17667 2.52947 224 133 79
-1.04883 0.20069 2.52947 224 133 79
-1.11554 0.25667 2.52927 224 133 79
-1.11554 0.25667 2.2762 224 133 79
-0.55787 -0.21127 2.47779 224 133 79
-0.55787 -0.21127 1.76421 224 133 79
-1.04883 0.20069 1.81615 224 133 79
-1.1517 0.07809 1.81615 224 133 79
-1.11272 0.04538 1.76421 224 133 79
-1.00985 0.16798 1.76421 224 133 79
-1.1517 0.07809 2.27629 224 133 79
-0.66074 -0.33387 1.76421 224 133 79
-1.13408 0.27223 2.29366 224 133 79
-1.13408 0.27223 2.51181 224 133 79
-1.23695 0.14963 2.29366 224 133 79
-1.23695 0.14963 2.51181 224 133 79
-1.21841 0.13407 2.2762 224 133 79
-0.66074 -0.33387 2.47779 224 133 79
-0.73439 -0.27208 1.92507 224 133 79
-0.77663 -0.23663 1.879 224 133 79
-1.03358 -0.02102 1.879 224 133 79
-1.07806 0.0163 1.92897 224 133 79
-1.07806 0.0163 2.36275 224 133 79
-1.1517 0.07809 2.52947 224 133 79
-1.21841 0.13407 2.52927 224 133 79
-1.04174 -0.01418 2.41468 224 133 79
-0.77636 -0.23686 2.41468 224 133 79
-0.70198 -0.29927 2.52947 224 133 79
-0.73439 -0.27208 2.36831 224 133 79
-1.21841 0.13407 2.52927 231 137 82
-1.11554 0.25667 2.52927 231 137 82
-1.13408 0.27223 2.51181 231 137 82
-1.23695 0.14963 2.51181 231 137 82
-0.17833 -0.71476 1.59305 248 252 247
-0.17833 -0.71476 1.94234 248 252 247
-0.02072 -0.71476 1.74185 248 252 247
-0.02072 -0.71476 1.59305 248 252 247
-0.17833 -0.6312 1.59305 248 252 247
-0.02072 -0.6312 1.59305 248 252 247
-0.17833 -0.6312 1.94234 248 252 247
0.17833 -0.71476 1.94234 248 252 247
0.02072 -0.71476 1.74185 248 252 247
0.17833 -0.71476 1.59305 248 252 247
0.02072 -0.71476 1.59305 248 252 247
0.17833 -0.6312 1.59305 248 252 247
0.02072 -0.6312 1.59305 248 252 247
-0.02072 -0.6312 1.74185 248 252 247
0.02072 -0.6312 1.74185 248 252 247
0.17833 -0.6312 1.94234 248 252 247
-0.02072 -0.71476 1.74185 227 231 226
0.02072 -0.71476 1.74185 227 231 226
0.02072 -0.71476 1.59305 227 231 226
-0.02072 -0.71476 1.59305 227 231 226
0.02072 -0.6312 1.59305 227 231 226
-0.02072 -0.6312 1.59305 227 231 226
0.02072 -0.6312 1.74185 227 231 226
-0.02072 -0.6312 1.74185 227 231 226
0.17833 -0.71476 1.55338 248 252 247
0.17833 -0.71476 1.20409 248 252 247
0.02072 -0.71476 1.40458 248 252 247
0.02072 -0.71476 1.55338 248 252 247
0.17833 -0.6312 1.55338 248 252 247
0.02072 -0.6312 1.55338 248 252 247
0.17833 -0.6312 1.20409 248 252 247
-0.17833 -0.71476 1.20409 248 252 247
-0.02072 -0.71476 1.40458 248 252 247
-0.17833 -0.71476 1.55338 248 252 247
-0.02072 -0.71476 1.55338 248 252 247
-0.17833 -0.6312 1.55338 248 252 247
-0.02072 -0.6312 1.55338 248 252 247
0.02072 -0.6312 1.40458 248 252 247
-0.02072 -0.6312 1.40458 248 252 247
-0.17833 -0.6312 1.20409 248 252 247
0.02072 -0.71476 1.40458 227 231 226
-0.02072 -0.71476 1.40458 227 231 226
-0.02072 -0.71476 1.55338 227 231 226
0.02072 -0.71476 1.55338 227 231 226
-0.02072 -0.6312 1.55338 227 231 226
0.02072 -0.6312 1.55338 227 231 226
-0.02072 -0.6312 1.40458 227 231 226
0.02072 -0.6312 1.40458 227 231 226
0.29159 -0.7062 2.10479 255 255 255
0.29159 -0.7062 2.17316 255 255 255
0.31469 -0.7062 2.10479 255 255 255
0.3378 -0.7062 2.12051 255 255 255
0.3378 -0.7062 2.10479 255 255 255
0.3378 -0.7062 2.17316 255 255 255
0.40712 -0.7062 2.12051 69 60 60
0.40712 -0.7062 2.21309 69 60 60
0.40712 -0.69392 2.21309 69 60 60
0.40712 -0.69392 2.07703 69 60 60
0.3378 -0.7062 2.12051 69 60 60
0.3378 -0.7062 2.17316 69 60 60
0.29159 -0.7062 2.17316 69 60 60
0.20457 -0.7062 2.21309 69 60 60
0.29159 -0.7062 2.10479 69 60 60
0.20457 -0.7062 2.07703 69 60 60
0.31469 -0.7062 2.10479 69 60 60
0.31464 -0.7062 2.07703 69 60 60
0.40712 -0.7062 2.07703 69 60 60
0.31469 -0.7062 2.10479 89 80 78
0.3378 -0.7062 2.10479 89 80 78
0.40712 -0.7062 2.07703 89 80 78
0.31464 -0.7062 2.07703 89 80 78
0.3378 -0.7062 2.12051 89 80 78
0.40712 -0.7062 2.12051 89 80 78
-0.3378 -0.7062 2.12051 255 255 255
-0.3378 -0.7062 2.17316 255 255 255
-0.29159 -0.7062 2.17316 255 255 255
-0.31469 -0.7062 2.10479 255 255 255
-0.3378 -0.7062 2.10479 255 255 255
-0.29159 -0.7062 2.10479 255 255 255
-0.40712 -0.7062 2.07703 69 60 60
-0.40712 -0.69392 2.07703 69 60 60
-0.40712 -0.7062 2.12051 69 60 60
-0.40712 -0.7062 2.21309 69 60 60
-0.3378 -0.7062 2.17316 69 60 60
-0.29159 -0.7062 2.17316 69 60 60
-0.20457 -0.7062 2.21309 69 60 60
-0.29159 -0.7062 2.10479 69 60 60
-0.20457 -0.7062 2.07703 69 60 60
-0.31469 -0.7062 2.10479 69 60 60
-0.31469 -0.7062 2.07703 69 60 60
-0.3378 -0.7062 2.12051 69 60 60
-0.40712 -0.69392 2.21309 69 60 60
-0.40712 -0.7062 2.07703 89 80 78
-0.40712 -0.7062 2.12051 89 80 78
-0.3378 -0.7062 2.12051 89 80 78
-0.3378 -0.7062 2.10479 89 80 78
-0.31469 -0.7062 2.07703 89 80 78
-0.31469 -0.7062 2.10479 89 80 78
-0.2558 -0.60003 1.19688 198 149 178
-0.2558 -0.60003 1.67893 198 149 178
0.2558 -0.60003 1.67893 198 149 178
0.2558 -0.60003 1.19688 198 149 178
0.2558 -0.51101 1.67893 198 149 178
-0.2558 -0.51101 1.67893 198 149 178
0.2558 -0.51101 1.19688 198 149 178
-0.2558 -0.51101 1.19688 198 149 178
0.51149 -0.66648 2.35905 231 137 82
-0.51149 -0.66648 2.35905 231 137 82
-0.59025 -0.59742 2.35905 231 137 82
0.59025 -0.59742 2.35905 231 137 82
-0.59025 0.45173 2.35905 231 137 82
0.59025 0.45173 2.35905 231 137 82
0.61445 -0.52496 0.16141 224 133 79
-0.61445 -0.52496 0.16141 224 133 79
-0.54706 -0.59654 0.16141 224 133 79
0.54706 -0.59654 0.16141 224 133 79
-0.52461 -0.64573 0.22972 224 133 79
0.52461 -0.64573 0.22972 224 133 79
0.66432 -0.56891 0.22972 224 133 79
0.5767 -0.64573 0.27866 224 133 79
0.5767 -0.64573 1.12155 224 133 79
0.66432 -0.56984 1.12155 224 133 79
0.66432 -0.64592 1.17312 224 133 79
0.66433 -0.64778 2.29411 224 133 79
0.5767 -0.72273 1.17312 224 133 79
0.57657 -0.72282 2.29411 224 133 79
0.49659 -0.72273 1.17312 224 133 79
0.48518 -0.64573 1.12155 224 133 79
0.51459 -0.72273 2.0859 224 133 79
0.49653 -0.72273 2.00504 224 133 79
0.21376 -0.72273 2.0859 224 133 79
0.21363 -0.72273 2.00504 224 133 79
0.51459 -0.69781 2.0859 224 133 79
0.51459 -0.69781 2.26566 224 133 79
0.51459 -0.72273 2.26566 224 133 79
0.21376 -0.69781 2.0859 224 133 79
0.21376 -0.80027 2.0859 224 133 79
0.21363 -0.80027 2.04475 224 133 79
0.59025 -0.59742 2.35905 224 133 79
0.51149 -0.66648 2.35905 224 133 79
-0.57657 -0.72282 2.29411 224 133 79
-0.51149 -0.66648 2.35905 224 133 79
-0.59025 -0.59742 2.35905 224 133 79
-0.66433 -0.64778 2.29411 224 133 79
-0.5767 -0.72273 1.17312 224 133 79
-0.66432 -0.64592 1.17312 224 133 79
-0.66432 -0.56984 1.12155 224 133 79
-0.5767 -0.64573 1.12155 224 133 79
-0.49659 -0.72273 1.17312 224 133 79
-0.48518 -0.64573 1.12155 224 133 79
-0.51459 -0.72273 2.0859 224 133 79
-0.49653 -0.72273 2.00504 224 133 79
-0.21376 -0.72273 2.0859 224 133 79
-0.21363 -0.72273 2.00504 224 133 79
-0.51459 -0.69781 2.0859 224 133 79
-0.51459 -0.69781 2.26566 224 133 79
-0.51459 -0.72273 2.26566 224 133 79
-0.21376 -0.69781 2.0859 224 133 79
-0.5767 -0.64573 0.27866 224 133 79
-0.66432 -0.56891 0.22972 224 133 79
-0.21376 -0.80027 2.0859 224 133 79
-0.21363 -0.80027 2.04475 224 133 79
0 -0.80027 2.04475 224 133 79
-0.66432 0.50139 0.22972 224 133 79
-0.61445 0.45743 0.16141 224 133 79
0.61445 0.45743 0.16141 224 133 79
0.5328 0.52902 0.16141 224 133 79
0.5767 0.5782 0.22972 224 133 79
0.66432 0.50139 0.22972 224 133 79
0.66433 0.50208 2.29411 224 133 79
0.57657 0.57712 2.29411 224 133 79
-0.5328 0.52902 0.16141 224 133 79
-0.5767 0.5782 0.22972 224 133 79
-0.57657 0.57712 2.29411 224 133 79
0.51149 0.52078 2.35905 224 133 79
-0.51149 0.52078 2.35905 224 133 79
0.59025 0.45173 2.35905 224 133 79
-0.66433 0.50208 2.29411 224 133 79
-0.59025 0.45173 2.35905 224 133 79
-0.51149 0.52078 2.35905 231 137 82
0.51149 0.52078 2.35905 231 137 82
0.30913 -0.72273 1.21748 166 130 142
0.30913 -0.52122 1.21748 166 130 142
0.30913 -0.52122 1.93669 166 130 142
0.30913 -0.72273 1.93669 166 130 142
0.21367 -0.72273 1.93669 166 130 142
-0.30913 -0.52122 1.21748 166 130 142
-0.30913 -0.52122 1.93669 166 130 142
-0.30913 -0.72273 1.21748 166 130 142
-0.30913 -0.72273 1.93669 166 130 142
-0.21367 -0.72273 1.93669 166 130 142
0.51459 -0.69781 2.0859 255 255 255
0.21376 -0.69781 2.0859 255 255 255
0.51459 -0.69781 2.26566 255 255 255
0.21376 -0.80027 2.0859 231 137 82
-0.21376 -0.80027 2.0859 231 137 82
-0.21376 -0.72273 2.0859 231 137 82
0.21376 -0.72273 2.0859 231 137 82
-0.51459 -0.69781 2.0859 255 255 255
-0.51459 -0.69781 2.26566 255 255 255
-0.21376 -0.69781 2.0859 255 255 255
0.77636 -0.23686 2.41468 201 105 47
1.07806 0.0163 2.36275 201 105 47
1.07806 0.0163 1.92897 201 105 47
0.73439 -0.27208 2.36831 201 105 47
1.03358 -0.02102 1.879 201 105 47
0.73439 -0.27208 1.92507 201 105 47
1.04174 -0.01418 2.41468 201 105 47
0.77663 -0.23663 1.879 201 105 47
0.66074 -0.33387 2.47779 231 137 82
0.55787 -0.21127 2.47779 231 137 82
0.59911 -0.17667 2.52947 231 137 82
0.70198 -0.29927 2.52947 231 137 82
1.1517 0.07809 2.52947 231 137 82
1.04883 0.20069 2.52947 231 137 82
1.04883 0.20069 2.27629 224 133 79
1.04883 0.20069 2.52947 224 133 79
0.59911 -0.17667 2.52947 224 133 79
1.11554 0.25667 2.52927 224 133 79
1.11554 0.25667 2.2762 224 133 79
0.55787 -0.21127 2.47779 224 133 79
0.55787 -0.21127 1.76421 224 133 79
1.04883 0.20069 1.81615 224 133 79
1.1517 0.07809 1.81615 224 133 79
1.11272 0.04538 1.76421 224 133 79
1.00985 0.16798 1.76421 224 133 79
1.1517 0.07809 2.27629 224 133 79
0.66074 -0.33387 1.76421 224 133 79
1.13408 0.27223 2.51181 224 133 79
1.13408 0.27223 2.29366 224 133 79
1.23695 0.14963 2.29366 224 133 79
1.23695 0.14963 2.51181 224 133 79
1.21841 0.13407 2.2762 224 133 79
0.66074 -0.33387 2.47779 224 133 79
0.73439 -0.27208 1.92507 224 133 79
0.77663 -0.23663 1.879 224 133 79
1.03358 -0.02102 1.879 224 133 79
1.07806 0.0163 1.92897 224 133 79
1.07806 0.0163 2.36275 224 133 79
1.1517 0.07809 2.52947 224 133 79
1.21841 0.13407 2.52927 224 133 79
1.04174 -0.01418 2.41468 224 133 79
0.77636 -0.23686 2.41468 224 133 79
0.70198 -0.29927 2.52947 224 133 79
0.73439 -0.27208 2.36831 224 133 79
1.11554 0.25667 2.52927 231 137 82
1.21841 0.13407 2.52927 231 137 82
1.23695 0.14963 2.51181 231 137 82
1.13408 0.27223 2.51181 231 137 82
-0.05656 -0.78724 1.95719 204 200 143
-0.05656 -0.78724 2.01227 204 200 143
-0.02929 -0.78724 2.01227 204 200 143
-0.02929 -0.78724 1.95719 204 200 143
-0.05656 -0.80027 1.95719 204 200 143
-0.02929 -0.80027 1.95719 204 200 143
-0.02929 -0.80027 2.01227 204 200 143
-0.05656 -0.80027 2.01227 204 200 143
0.02929 -0.78724 1.95719 204 200 143
0.02929 -0.78724 2.01227 204 200 143
0.05656 -0.78724 2.01227 204 200 143
0.05656 -0.78724 1.95719 204 200 143
0.02929 -0.80027 1.95719 204 200 143
0.05656 -0.80027 1.95719 204 200 143
0.05656 -0.80027 2.01227 204 200 143
0.02929 -0.80027 2.01227 204 200 143
0.44066 -0.42356 0.7528 224 133 79
0.74626 -0.42356 0.7528 224 133 79
0.74626 -0.42356 0.88499 224 133 79
0.44066 -0.42356 0.88499 224 133 79
0.41022 -0.45476 0.73077 224 133 79
0.41022 -0.45476 0.90702 224 133 79
0.41015 -0.64491 0.73068 224 133 79
0.41015 -0.64491 0.90692 224 133 79
0.77673 -0.64491 0.73068 224 133 79
0.7767 -0.45476 0.73077 224 133 79
0.77673 -0.64491 0.90692 224 133 79
0.7767 -0.45476 0.90702 224 133 79
0.7767 -0.45476 0.90702 231 137 82
0.77673 -0.64491 0.90692 231 137 82
0.68508 -0.64491 0.90692 231 137 82
0.63926 -0.64491 0.90692 231 137 82
0.41022 -0.45476 0.90702 231 137 82
0.54762 -0.64491 0.90692 231 137 82
0.50179 -0.64491 0.90692 231 137 82
0.41015 -0.64491 0.90692 231 137 82
0.44066 -0.42356 0.88499 231 137 82
0.74626 -0.42356 0.88499 231 137 82
0.41015 -0.64491 0.73068 225 172 140
0.41015 -0.73771 0.73068 225 172 140
0.77673 -0.73771 0.73068 225 172 140
0.77673 -0.64491 0.73068 225 172 140
0.77673 -0.64491 0.90692 225 172 140
0.77673 -0.73771 0.90692 225 172 140
0.41015 -0.73771 0.90692 225 172 140
0.41015 -0.64491 0.90692 225 172 140
0.41015 -0.73771 0.96876 225 172 140
0.41015 -0.64491 0.96876 225 172 140
0.50179 -0.64491 0.90692 225 172 140
0.50179 -0.64491 0.96876 225 172 140
0.50179 -0.73771 0.90692 225 172 140
0.50179 -0.73771 0.96876 225 172 140
0.77673 -0.64491 0.96876 225 172 140
0.68508 -0.64491 0.96876 225 172 140
0.68508 -0.64491 0.90692 225 172 140
0.77673 -0.73771 0.96876 225 172 140
0.68508 -0.73771 0.90692 225 172 140
0.68508 -0.73771 0.96876 225 172 140
0.63926 -0.73771 0.90692 225 172 140
0.54762 -0.73771 0.90692 225 172 140
0.63926 -0.73771 0.96876 225 172 140
0.54762 -0.73771 0.96876 225 172 140
0.77673 -0.64491 0.96876 233 178 145
0.77673 -0.73771 0.96876 233 178 145
0.68508 -0.73771 0.96876 233 178 145
0.68508 -0.64491 0.96876 233 178 145
0.50179 -0.73771 0.96876 233 178 145
0.41015 -0.73771 0.96876 233 178 145
0.41015 -0.64491 0.96876 233 178 145
0.50179 -0.64491 0.96876 233 178 145
0.68508 -0.73771 0.90692 233 178 145
0.63926 -0.73771 0.90692 233 178 145
0.63926 -0.64491 0.90692 233 178 145
0.68508 -0.64491 0.90692 233 178 145
0.54762 -0.73771 0.90692 233 178 145
0.50179 -0.73771 0.90692 233 178 145
0.50179 -0.64491 0.90692 233 178 145
0.54762 -0.64491 0.90692 233 178 145
0.63926 -0.73771 0.96876 233 178 145
0.54762 -0.73771 0.96876 233 178 145
0.54762 -0.64491 0.96876 233 178 145
0.63926 -0.64491 0.96876 233 178 145
0.63926 -0.64491 0.96876 225 172 140
0.63926 -0.64491 0.90692 225 172 140
0.54762 -0.64491 0.96876 225 172 140
0.54762 -0.64491 0.90692 225 172 140
-0.44066 -0.42356 0.7528 224 133 79
-0.44066 -0.42356 0.88499 224 133 79
-0.74626 -0.42356 0.88499 224 133 79
-0.74626 -0.42356 0.7528 224 133 79
-0.41022 -0.45476 0.73077 224 133 79
-0.41022 -0.45476 0.90702 224 133 79
-0.41015 -0.64491 0.73068 224 133 79
-0.41015 -0.64491 0.90692 224 133 79
-0.77673 -0.64491 0.73068 224 133 79
-0.7767 -0.45476 0.73077 224 133 79
-0.77673 -0.64491 0.90692 224 133 79
-0.7767 -0.45476 0.90702 224 133 79
-0.7767 -0.45476 0.90702 231 137 82
-0.68508 -0.64491 0.90692 231 137 82
-0.77673 -0.64491 0.90692 231 137 82
-0.63926 -0.64491 0.90692 231 137 82
-0.41022 -0.45476 0.90702 231 137 82
-0.54762 -0.64491 0.90692 231 137 82
-0.50179 -0.64491 0.90692 231 137 82
-0.41015 -0.64491 0.90692 231 137 82
-0.74626 -0.42356 0.88499 231 137 82
-0.44066 -0.42356 0.88499 231 137 82
-0.41015 -0.64491 0.73068 225 172 140
-0.77673 -0.64491 0.73068 225 172 140
-0.77673 -0.73771 0.73068 225 172 140
-0.41015 -0.73771 0.73068 225 172 140
-0.77673 -0.64491 0.90692 225 172 140
-0.77673 -0.73771 0.90692 225 172 140
-0.41015 -0.73771 0.90692 225 172 140
-0.41015 -0.64491 0.90692 225 172 140
-0.41015 -0.73771 0.96876 225 172 140
-0.41015 -0.64491 0.96876 225 172 140
-0.50179 -0.64491 0.90692 225 172 140
-0.50179 -0.64491 0.96876 225 172 140
-0.50179 -0.73771 0.90692 225 172 140
-0.50179 -0.73771 0.96876 225 172 140
-0.68508 -0.64491 0.90692 225 172 140
-0.68508 -0.64491 0.96876 225 172 140
-0.77673 -0.64491 0.96876 225 172 140
-0.77673 -0.73771 0.96876 225 172 140
-0.68508 -0.73771 0.90692 225 172 140
-0.68508 -0.73771 0.96876 225 172 140
-0.63926 -0.73771 0.90692 225 172 140
-0.54762 -0.73771 0.90692 225 172 140
-0.63926 -0.73771 0.96876 225 172 140
-0.54762 -0.73771 0.96876 225 172 140
-0.77673 -0.64491 0.96876 233 178 145
-0.68508 -0.64491 0.96876 233 178 145
-0.68508 -0.73771 0.96876 233 178 145
-0.77673 -0.73771 0.96876 233 178 145
-0.50179 -0.73771 0.96876 233 178 145
-0.50179 -0.64491 0.96876 233 178 145
-0.41015 -0.64491 0.96876 233 178 145
-0.41015 -0.73771 0.96876 233 178 145
-0.68508 -0.73771 0.90692 233 178 145
-0.68508 -0.64491 0.90692 233 178 145
-0.63926 -0.64491 0.90692 233 178 145
-0.63926 -0.73771 0.90692 233 178 145
-0.54762 -0.73771 0.90692 233 178 145
-0.54762 -0.64491 0.90692 233 178 145
-0.50179 -0.64491 0.90692 233 178 145
-0.50179 -0.73771 0.90692 233 178 145
-0.63926 -0.73771 0.96876 233 178 145
-0.63926 -0.64491 0.96876 233 178 145
-0.54762 -0.64491 0.96876 233 178 145
-0.54762 -0.73771 0.96876 233 178 145
-0.63926 -0.64491 0.90692 225 172 140
-0.63926 -0.64491 0.96876 225 172 140
-0.54762 -0.64491 0.96876 225 172 140
-0.54762 -0.64491 0.90692 225 172 140
-0.12598 0.49853 0.25233 224 133 79
-0.12598 0.49853 0.5043 224 133 79
0.12598 0.49853 0.5043 224 133 79
0.12598 0.49853 0.25233 224 133 79
-0.12598 0.49853 0.5043 225 172 140
-0.12598 0.67942 0.5043 225 172 140
0.12598 0.67942 0.5043 225 172 140
0.12598 0.49853 0.5043 225 172 140
0.12598 0.67942 0.25233 225 172 140
0.12598 0.49853 0.25233 225 172 140
-0.12598 0.49853 0.25233 225 172 140
-0.12598 0.67942 0.25233 225 172 140
0.12598 1.20494 0.30833 225 172 140
0.12598 1.20494 0.66994 225 172 140
-0.12598 1.20494 0.66994 225 172 140
-0.12598 1.20494 0.30833 225 172 140
0.12598 0.94485 0.56029 225 172 140
0.12598 0.94485 0.66994 225 172 140
-0.12598 0.94485 0.56029 225 172 140
-0.12598 0.94485 0.66994 225 172 140
-0.12598 0.89243 0.5043 225 172 140
0.12598 0.89243 0.5043 225 172 140
0.12598 1.15757 0.25233 225 172 140
-0.12598 1.15757 0.25233 225 172 140
0.12598 0.82861 0.5043 225 172 140
0.12598 0.82861 0.25233 225 172 140
-0.12598 0.82861 0.25233 225 172 140
-0.12598 0.82861 0.5043 225 172 140
-0.10079 0.97086 2.04276 233 178 145
-0.10079 1.17893 2.04276 233 178 145
0.10079 1.17893 2.04276 233 178 145
0.10079 0.97086 2.04276 233 178 145
-0.12598 0.94485 2 225 172 140
-0.10079 0.97086 2.04276 225 172 140
0.10079 0.97086 2.04276 225 172 140
0.12598 0.94485 2 225 172 140
0.10079 1.17893 2.04276 225 172 140
0.12598 1.20494 2 225 172 140
-0.10079 1.17893 2.04276 225 172 140
-0.12598 1.20494 2 225 172 140
0.12598 0.94485 1.80413 225 172 140
0.12598 1.20494 1.80413 225 172 140
-0.12598 1.20494 1.80413 225 172 140
-0.12598 0.94485 1.80413 225 172 140
0.12598 1.20494 1.67339 217 152 113
0.12598 1.20494 1.80413 217 152 113
-0.12598 1.20494 1.80413 217 152 113
-0.12598 1.20494 1.67339 217 152 113
0.12598 0.94485 1.67339 217 152 113
0.12598 0.94485 1.80413 217 152 113
-0.12598 0.94485 1.67339 217 152 113
-0.12598 0.94485 1.80413 217 152 113
0.12598 1.20494 1.48445 225 172 140
0.12598 1.20494 1.67339 225 172 140
-0.12598 1.20494 1.67339 225 172 140
-0.12598 1.20494 1.48445 225 172 140
0.12598 0.94485 1.48445 225 172 140
0.12598 0.94485 1.67339 225 172 140
-0.12598 0.94485 1.48445 225 172 140
-0.12598 0.94485 1.67339 225 172 140
0.12598 1.20494 1.34182 217 152 113
0.12598 1.20494 1.48445 217 152 113
-0.12598 1.20494 1.48445 217 152 113
-0.12598 1.20494 1.34182 217 152 113
0.12598 0.94485 1.34182 217 152 113
0.12598 0.94485 1.48445 217 152 113
-0.12598 0.94485 1.34182 217 152 113
-0.12598 0.94485 1.48445 217 152 113
0.12598 1.20494 0.79526 225 172 140
0.12598 1.20494 1.34182 225 172 140
-0.12598 1.20494 1.34182 225 172 140
-0.12598 1.20494 0.79526 225 172 140
0.12598 0.94485 0.79526 225 172 140
0.12598 0.94485 1.34182 225 172 140
-0.12598 0.94485 0.79526 225 172 140
-0.12598 0.94485 1.34182 225 172 140
0.12598 1.20494 0.66994 217 152 113
0.12598 1.20494 0.79526 217 152 113
-0.12598 1.20494 0.79526 217 152 113
-0.12598 1.20494 0.66994 217 152 113
0.12598 0.94485 0.66994 217 152 113
0.12598 0.94485 0.79526 217 152 113
-0.12598 0.94485 0.66994 217 152 113
-0.12598 0.94485 0.79526 217 152 113
-0.12598 0.67942 0.5043 217 152 113
-0.12598 0.82861 0.5043 217 152 113
0.12598 0.82861 0.5043 217 152 113
0.12598 0.67942 0.5043 217 152 113
0.12598 0.82861 0.25233 217 152 113
0.12598 0.67942 0.25233 217 152 113
-0.12598 0.82861 0.25233 217 152 113
-0.12598 0.67942 0.25233 217 152 113
-0.17337 0.29032 0.17173 225 172 140
-0.53795 0.29028 0.17173 225 172 140
-0.53795 0.29028 -3.8147E-08 225 172 140
-0.17337 0.29032 -3.8147E-08 225 172 140
-0.5879 0.2325 0.17173 225 172 140
-0.5879 0.2325 -3.8147E-08 225 172 140
-0.12335 0.23256 -3.8147E-08 225 172 140
-0.12335 0.23256 0.17173 225 172 140
-0.58812 -0.80596 -3.8147E-08 225 172 140
-0.47203 -0.69436 -3.8147E-08 225 172 140
-0.58812 -0.80596 0.17173 225 172 140
-0.41408 -0.69445 -3.8147E-08 225 172 140
-0.29816 -0.69463 -3.8147E-08 225 172 140
-0.41424 -0.80622 -3.8147E-08 225 172 140
-0.29833 -0.8064 -3.8147E-08 225 172 140
-0.29833 -0.8064 0.17173 225 172 140
-0.41424 -0.80622 0.17173 225 172 140
-0.29816 -0.69463 0.17173 225 172 140
-0.2402 -0.69471 0.17173 225 172 140
-0.2402 -0.69471 -3.8147E-08 225 172 140
-0.12446 -0.80666 -3.8147E-08 225 172 140
-0.12446 -0.80666 0.17173 225 172 140
-0.24037 -0.80648 -3.8147E-08 225 172 140
-0.24037 -0.80648 0.17173 225 172 140
-0.2402 -0.69471 0.17173 233 178 145
-0.12446 -0.80666 0.17173 233 178 145
-0.24037 -0.80648 0.17173 233 178 145
-0.12335 0.23256 0.17173 233 178 145
-0.29816 -0.69463 0.17173 233 178 145
-0.41408 -0.69445 0.17173 233 178 145
-0.29833 -0.8064 0.17173 233 178 145
-0.41424 -0.80622 0.17173 233 178 145
-0.5879 0.2325 0.17173 233 178 145
-0.47203 -0.69436 0.17173 233 178 145
-0.58812 -0.80596 0.17173 233 178 145
-0.4722 -0.80613 0.17173 225 172 140
-0.4722 -0.80613 -3.8147E-08 225 172 140
-0.47203 -0.69436 0.17173 225 172 140
-0.41408 -0.69445 0.17173 225 172 140
-0.4722 -0.80613 0.17173 233 178 145
3 0 2 1
3 0 3 2
3 4 2 3
3 4 5 2
3 5 1 2
3 5 6 1
3 6 0 1
3 6 7 0
3 4 8 5
3 5 8 9
3 4 10 8
3 5 9 11
3 5 11 12
3 12 11 13
3 12 13 14
3 13 15 14
3 13 16 15
3 17 14 15
3 17 12 14
3 12 17 18
3 12 18 19
3 6 12 19
3 5 12 6
3 19 20 6
3 7 6 20
3 7 20 21
3 22 21 20
3 19 22 20
3 22 23 21
3 24 26 25
3 24 27 26
3 27 24 28
3 27 28 29
3 29 28 30
3 29 30 31
3 27 29 32
3 32 29 33
3 32 33 34
3 10 35 8
3 10 36 35
3 37 35 36
3 37 9 35
3 9 8 35
3 9 37 38
3 9 38 11
3 19 23 22
3 19 18 23
3 11 16 13
3 11 38 16
3 34 33 39
3 40 42 41
3 41 43 40
3 40 43 44
3 40 44 45
3 46 41 42
3 46 42 47
3 46 47 48
3 49 46 48
3 49 48 50
3 48 47 51
3 52 51 47
3 51 52 53
3 52 54 53
3 52 55 54
3 42 56 47
3 47 56 57
3 56 58 57
3 57 58 59
3 57 59 60
3 56 61 58
3 61 56 62
3 61 62 63
3 62 56 64
3 62 64 65
3 66 62 65
3 67 66 65
3 68 67 65
3 69 67 68
3 69 68 70
3 65 50 68
3 65 49 50
3 65 71 49
3 49 71 72
3 72 71 73
3 74 72 73
3 74 75 72
3 73 71 76
3 71 65 77
3 71 77 78
3 79 76 71
3 80 79 71
3 81 79 80
3 82 79 81
3 81 83 82
3 81 84 83
3 84 85 83
3 84 86 85
3 82 87 79
3 42 84 81
3 42 81 56
3 88 56 81
3 88 89 56
3 90 89 88
3 90 88 91
3 90 91 92
3 91 93 92
3 91 94 93
3 90 95 89
3 95 96 89
3 95 97 96
3 96 97 98
3 96 98 99
3 93 100 98
3 101 100 93
3 101 102 100
3 101 103 102
3 101 104 103
3 101 105 104
3 106 104 105
3 107 102 106
3 100 102 107
3 107 106 108
3 106 105 109
3 106 109 108
3 108 109 110
3 108 110 111
3 112 111 110
3 98 100 112
3 112 113 111
3 100 113 112
3 100 107 113
3 98 110 99
3 98 112 110
3 114 116 115
3 114 117 116
3 118 114 115
3 118 119 114
3 120 119 118
3 120 121 119
3 122 116 117
3 123 122 117
3 123 124 122
3 123 125 124
3 122 126 116
3 122 127 126
3 126 127 128
3 126 128 129
3 126 129 130
3 130 129 131
3 130 131 132
3 131 133 132
3 131 134 133
3 127 135 128
3 127 136 135
3 127 137 136
3 138 139 87
3 138 140 139
3 141 140 138
3 142 144 143
3 145 147 146
3 145 148 147
3 149 148 145
3 149 145 150
3 151 149 150
3 151 150 152
3 151 152 153
3 153 152 154
3 153 154 155
3 153 155 156
3 157 151 153
3 157 158 151
3 157 159 158
3 160 158 159
3 160 161 158
3 162 161 160
3 162 160 163
3 164 162 163
3 164 163 165
3 166 159 157
3 166 157 167
3 166 167 168
3 169 63 170
3 169 170 171
3 172 169 171
3 173 175 174
3 176 178 177
3 179 176 177
3 179 177 180
3 181 179 180
3 176 182 178
3 183 181 180
3 184 186 185
3 184 187 186
3 186 188 185
3 186 189 188
3 190 192 191
3 190 193 192
3 190 194 193
3 195 190 191
3 195 196 190
3 196 197 190
3 198 190 197
3 199 198 197
3 199 197 200
3 196 199 200
3 196 200 197
3 198 201 190
3 196 202 199
3 193 194 203
3 193 203 204
3 205 204 203
3 194 205 203
3 205 206 204
3 194 207 205
3 202 195 208
3 202 196 195
3 208 209 202
3 209 210 202
3 202 210 211
3 202 211 199
3 211 198 199
3 211 212 198
3 198 212 213
3 198 213 201
3 213 214 201
3 214 207 201
3 201 207 194
3 201 194 190
3 214 215 207
3 213 216 214
3 214 216 217
3 214 217 218
3 217 208 218
3 217 219 208
3 208 219 209
3 207 215 206
3 207 206 205
3 189 220 188
3 189 221 220
3 220 221 222
3 220 222 223
3 224 226 225
3 224 227 226
3 228 227 224
3 228 229 227
3 230 224 225
3 230 228 224
3 231 225 226
3 231 226 232
3 232 233 231
3 232 234 233
3 234 235 233
3 234 236 235
3 237 239 238
3 237 230 239
3 238 239 235
3 233 235 239
3 233 239 231
3 238 235 236
3 230 237 229
3 230 229 228
3 240 242 241
3 240 243 242
3 243 244 242
3 243 245 244
3 245 246 244
3 245 247 246
3 248 250 249
3 248 251 250
3 252 251 248
3 252 253 251
3 254 248 249
3 254 252 248
3 255 249 250
3 255 250 256
3 256 257 255
3 256 258 257
3 258 259 257
3 258 260 259
3 261 263 262
3 261 254 263
3 262 263 259
3 257 259 263
3 257 263 255
3 262 259 260
3 254 261 253
3 254 253 252
3 264 266 265
3 264 267 266
3 267 268 266
3 267 269 268
3 269 270 268
3 269 271 270
3 272 274 273
3 273 274 275
3 275 274 276
3 273 275 277
3 278 280 279
3 278 281 280
3 282 278 279
3 282 279 283
3 279 284 283
3 279 285 284
3 285 286 284
3 285 287 286
3 287 288 286
3 287 289 288
3 290 281 278
3 291 293 292
3 291 294 293
3 293 295 292
3 293 296 295
3 297 299 298
3 300 299 297
3 300 297 301
3 302 299 300
3 303 305 304
3 304 305 306
3 305 307 306
3 306 307 308
3 306 308 309
3 309 308 310
3 309 310 311
3 311 310 312
3 311 312 313
3 305 314 307
3 304 306 315
3 316 318 317
3 316 319 318
3 320 319 316
3 320 321 319
3 322 324 323
3 322 325 324
3 323 324 326
3 325 326 324
3 323 326 327
3 325 328 326
3 329 323 327
3 329 322 323
3 330 332 331
3 330 333 332
3 333 334 332
3 333 335 334
3 336 338 337
3 336 339 338
3 339 340 338
3 339 341 340
3 342 339 336
3 339 342 343
3 339 343 341
3 342 344 343
3 342 345 344
3 346 344 345
3 347 346 345
3 347 348 346
3 346 348 344
3 347 349 348
3 350 344 348
3 349 350 348
3 350 351 344
3 350 349 352
3 350 352 353
3 352 354 353
3 353 354 355
3 354 352 356
3 352 357 356
3 352 358 357
3 358 352 349
3 358 359 357
3 358 354 359
3 354 356 359
3 355 354 360
3 355 360 361
3 349 347 362
3 349 362 363
3 363 364 349
3 363 365 364
3 364 365 366
3 364 366 367
3 367 368 364
3 367 369 368
3 367 370 369
3 369 371 368
3 369 370 371
3 372 368 371
3 372 371 373
3 372 374 368
3 368 374 364
3 374 372 375
3 374 375 376
3 375 377 376
3 376 378 374
3 374 378 379
3 374 379 380
3 380 381 376
3 380 379 381
3 376 381 378
3 370 382 371
3 370 383 382
3 338 382 383
3 377 384 376
3 377 385 384
3 386 384 385
3 380 364 374
3 349 364 380
3 349 380 358
3 358 380 376
3 383 337 338
3 338 340 382
3 386 360 384
3 361 360 386
3 387 337 383
3 387 388 337
3 389 337 388
3 390 389 388
3 391 389 390
3 391 392 389
3 393 392 391
3 393 391 394
3 390 388 395
3 389 336 337
3 392 336 389
3 392 342 336
3 394 391 396
3 396 395 388
3 390 396 391
3 390 395 396
3 394 396 397
3 398 394 397
3 393 394 398
3 398 397 399
3 393 398 400
3 345 342 392
3 345 392 393
3 347 345 393
3 347 393 400
3 347 400 362
3 401 397 396
3 401 399 397
3 401 396 387
3 396 388 387
3 401 402 399
3 335 403 334
3 335 404 403
3 405 407 406
3 405 408 407
3 407 408 409
3 407 410 406
3 407 411 410
3 412 410 411
3 406 412 405
3 406 410 412
3 412 411 413
3 411 414 413
3 407 414 411
3 407 409 414
3 415 417 416
3 418 420 419
3 418 421 420
3 93 105 101
3 93 94 105
3 370 401 387
3 367 401 370
3 367 402 401
3 367 366 402
3 370 387 383
3 422 424 423
3 358 376 354
3 425 427 426
3 428 427 425
3 428 429 427
3 430 429 428
3 425 426 431
3 432 429 430
3 433 435 434
3 433 436 435
3 435 436 437
3 435 437 438
3 439 441 440
3 439 440 442
3 439 442 443
3 444 441 439
3 444 439 445
3 445 439 446
3 447 446 439
3 448 446 447
3 448 449 446
3 445 449 448
3 445 446 449
3 447 439 450
3 445 448 451
3 443 442 452
3 443 452 453
3 454 453 452
3 454 452 455
3 456 453 454
3 456 443 453
3 451 444 445
3 451 457 444
3 457 451 458
3 458 451 459
3 451 460 459
3 451 448 460
3 460 448 447
3 460 447 461
3 447 462 461
3 447 450 462
3 462 450 463
3 463 450 456
3 450 443 456
3 450 439 443
3 463 456 464
3 462 463 465
3 463 466 465
3 463 467 466
3 466 467 457
3 466 457 468
3 457 458 468
3 464 456 454
3 464 454 455
3 438 470 469
3 438 437 470
3 469 470 471
3 469 471 472
3 473 475 474
3 473 476 475
3 477 476 473
3 477 478 476
3 478 475 476
3 478 479 475
3 479 474 475
3 479 480 474
3 480 473 474
3 480 477 473
3 481 483 482
3 481 484 483
3 485 484 481
3 485 486 484
3 486 483 484
3 486 487 483
3 487 482 483
3 487 488 482
3 488 481 482
3 488 485 481
3 489 491 490
3 489 492 491
3 493 492 489
3 493 494 492
3 495 494 493
3 495 496 494
3 497 495 493
3 497 493 498
3 498 489 490
3 498 493 489
3 499 497 498
3 499 498 500
3 500 490 491
3 500 498 490
3 501 503 502
3 501 504 503
3 505 504 501
3 505 506 504
3 505 507 506
3 508 507 505
3 505 510 509
3 505 501 510
3 511 513 512
3 511 514 513
3 513 514 515
3 513 515 516
3 511 512 517
3 511 517 518
3 518 517 519
3 518 519 520
3 521 518 520
3 521 520 522
3 523 521 522
3 523 522 524
3 515 526 525
3 515 527 526
3 516 515 525
3 516 525 528
3 529 516 528
3 516 529 513
3 529 528 530
3 527 529 530
3 527 530 526
3 513 529 531
3 513 531 532
3 532 531 533
3 532 533 534
3 513 532 512
3 512 532 523
3 512 523 517
3 517 523 524
3 517 524 519
3 535 537 536
3 535 538 537
3 539 541 540
3 539 542 541
3 543 545 544
3 543 546 545
3 547 549 548
3 547 550 549
3 551 553 552
3 551 554 553
3 531 555 533
3 531 556 555
3 556 557 555
3 556 558 557
3 558 534 557
3 558 532 534
3 559 561 560
3 559 562 561
3 563 559 560
3 563 560 564
3 565 563 564
3 565 564 566
3 567 563 565
3 567 568 563
3 568 559 563
3 568 562 559
3 569 568 567
3 569 570 568
3 570 562 568
3 570 561 562
3 571 573 572
3 571 572 574
3 575 571 574
3 575 574 576
3 575 576 577
3 578 575 577
3 575 579 571
3 575 580 579
3 581 583 582
3 581 584 583
3 583 585 582
3 583 586 585
3 581 587 584
3 581 588 587
3 588 589 587
3 588 590 589
3 591 590 588
3 591 592 590
3 593 592 591
3 593 594 592
3 585 596 595
3 585 597 596
3 586 597 585
3 586 598 597
3 599 598 586
3 586 583 599
3 599 600 598
3 595 600 599
3 595 596 600
3 583 601 599
3 583 602 601
3 602 603 601
3 602 604 603
3 583 584 602
3 584 593 602
3 584 587 593
3 587 594 593
3 587 589 594
3 605 607 606
3 605 608 607
3 609 611 610
3 609 612 611
3 613 615 614
3 613 616 615
3 617 619 618
3 617 620 619
3 621 623 622
3 621 624 623
3 601 626 625
3 601 603 626
3 625 626 627
3 625 627 628
3 628 627 604
3 628 604 602
3 629 631 630
3 629 632 631
3 633 635 634
3 633 636 635
3 637 635 636
3 637 636 638
3 639 637 638
3 639 640 637
3 641 643 642
3 641 644 643
3 645 641 642
3 645 642 646
3 647 645 646
3 647 646 648
3 649 645 647
3 649 650 645
3 645 651 641
3 645 650 651
3 644 641 651
3 644 651 652
3 647 644 652
3 647 652 649
3 651 650 653
3 651 653 654
3 649 652 655
3 649 655 656
3 656 650 649
3 656 653 650
3 647 643 644
3 647 648 643
3 654 655 652
3 654 652 651
3 657 659 658
3 657 660 659
3 661 663 662
3 661 664 663
3 664 665 663
3 664 666 665
3 666 667 665
3 666 668 667
3 669 666 664
3 669 670 666
3 670 668 666
3 670 671 668
3 672 669 664
3 672 664 661
3 671 661 668
3 671 672 661
3 668 661 662
3 668 662 667
3 673 675 674
3 673 676 675
3 677 673 674
3 677 674 678
3 679 677 678
3 679 678 680
3 676 680 675
3 676 679 680
3 681 683 682
3 681 684 683
3 685 681 682
3 685 682 686
3 687 685 686
3 687 686 688
3 684 688 683
3 684 687 688
3 689 691 690
3 689 692 691
3 693 689 690
3 693 690 694
3 695 693 694
3 695 694 696
3 692 696 691
3 692 695 696
3 697 699 698
3 697 700 699
3 701 697 698
3 701 698 702
3 703 701 702
3 703 702 704
3 700 704 699
3 700 703 704
3 705 707 706
3 705 708 707
3 709 705 706
3 709 706 710
3 711 709 710
3 711 710 712
3 708 711 712
3 708 712 707
3 713 715 714
3 713 716 715
3 717 715 716
3 717 716 718
3 718 719 717
3 718 720 719
3 714 719 720
3 714 720 713
3 634 639 633
3 634 640 639
3 721 723 722
3 721 724 723
3 725 722 723
3 725 723 726
3 726 723 724
3 726 724 727
3 727 724 721
3 727 721 728
3 725 726 729
3 726 730 729
3 725 729 731
3 726 732 730
3 726 733 732
3 733 734 732
3 733 735 734
3 734 735 736
3 734 736 737
3 738 735 733
3 738 736 735
3 733 739 738
3 733 740 739
3 727 740 733
3 726 727 733
3 740 727 741
3 728 741 727
3 728 742 741
3 743 741 742
3 740 741 743
3 743 742 744
3 745 747 746
3 745 746 748
3 748 749 745
3 748 750 749
3 750 751 749
3 750 752 751
3 748 753 750
3 753 754 750
3 753 755 754
3 731 757 756
3 731 729 757
3 758 756 757
3 758 757 730
3 730 757 729
3 730 759 758
3 730 732 759
3 740 744 739
3 740 743 744
3 732 737 759
3 732 734 737
3 755 760 754
