ply
format ascii 1.0
element vertex 723
property float x
property float y
property float z
property uchar red
property uchar green
property uchar blue
element face 822
property list uchar int vertex_index
end_header
-0.32431 -0.38293 1.25805 153 76 120
-0.09219 -0.38293 1.25805 153 76 120
-0.32431 -0.38293 1.14593 153 76 120
-0.32431 -0.53897 1.25805 153 76 120
-0.09219 -0.53897 1.25805 153 76 120
-0.03575 -0.38293 1.22349 153 76 120
-0.32431 -0.53897 1.14593 153 76 120
0.32431 -0.38293 1.14593 153 76 120
0.32431 -0.53897 1.14593 153 76 120
0.32431 -0.53897 1.25805 153 76 120
0.32431 -0.38293 1.25805 153 76 120
0.09219 -0.38293 1.25805 153 76 120
0.09219 -0.53897 1.25805 153 76 120
0.03575 -0.53897 1.22405 153 76 120
0.03575 -0.38293 1.2238 153 76 120
-0.03575 -0.53897 1.224 153 76 120
-0.40116 -0.53897 1.05815 131 198 214
-0.43252 -0.50509 1.05815 131 198 214
-0.43261 -0.50509 1.31098 131 198 214
-0.40116 -0.53897 1.31098 131 198 214
-0.32431 -0.53897 1.25805 131 198 214
-0.32431 -0.53897 1.14593 131 198 214
-0.36448 -0.5 1.00845 131 198 214
-0.39337 -0.46465 1.00845 131 198 214
-0.39337 0.17364 1.00846 131 198 214
-0.43264 0.20037 1.05813 131 198 214
-0.35903 -0.52097 1.33956 131 198 214
-0.38647 -0.49256 1.33956 131 198 214
0.40116 -0.53897 1.05815 131 198 214
0.32431 -0.53897 1.14593 131 198 214
-0.43264 -0.41745 1.31098 131 198 214
0.39337 -0.46465 1.00845 131 198 214
0.36448 -0.5 1.00845 131 198 214
0.32431 -0.53897 1.25805 131 198 214
0.40116 -0.53897 1.31098 131 198 214
0.43261 -0.50509 1.31098 131 198 214
0.43252 -0.50509 1.05815 131 198 214
0.39337 0.17364 1.00846 131 198 214
0.43264 0.20037 1.05813 131 198 214
0.35903 -0.52097 1.33956 131 198 214
0.38647 -0.49256 1.33956 131 198 214
0.43264 -0.41745 1.31098 131 198 214
0.09219 -0.53897 1.25805 131 198 214
0 -0.53897 1.31098 131 198 214
0.03919 -0.53897 1.28943 131 198 214
0.0205 -0.53897 1.28943 131 198 214
0 -0.53897 1.25805 131 198 214
-0.0205 -0.53897 1.28943 131 198 214
-0.02053 -0.53897 1.25805 131 198 214
0.02053 -0.53897 1.25805 131 198 214
-0.03575 -0.53897 1.224 131 198 214
-0.03926 -0.53897 1.25805 131 198 214
-0.03919 -0.53897 1.28943 131 198 214
-0.09219 -0.53897 1.25805 131 198 214
0.03926 -0.53897 1.25805 131 198 214
0.03575 -0.53897 1.22405 131 198 214
-0.2564 -0.48987 1.13994 209 132 174
-0.2564 -0.37455 1.13994 209 132 174
-0.2564 -0.37455 1.20305 209 132 174
-0.2564 -0.48987 1.20305 209 132 174
0.2564 -0.37455 1.20305 209 132 174
0.2564 -0.48987 1.20305 209 132 174
0.2564 -0.48987 1.13994 209 132 174
0.2564 -0.37455 1.13994 209 132 174
-0.43264 0.20037 1.74416 131 198 214
-0.35255 0.27945 1.05813 131 198 214
-0.35255 0.27945 1.74416 131 198 214
-0.32543 0.23617 1.7923 131 198 214
-0.37886 0.17809 1.7923 131 198 214
-0.43264 -0.41745 1.74416 131 198 214
-0.37886 -0.3759 1.7923 131 198 214
-0.33568 0.23649 1.00846 131 198 214
0.35255 0.27945 1.05813 131 198 214
0.33568 0.23649 1.00846 131 198 214
0.35255 0.27945 1.74416 131 198 214
0.43264 0.20037 1.74416 131 198 214
0.32543 0.23617 1.7923 131 198 214
0.37886 0.17809 1.7923 131 198 214
0.43264 -0.41745 1.74416 131 198 214
0.37886 -0.3759 1.7923 131 198 214
-0.38558 -0.46321 1.74416 131 198 214
-0.33318 -0.42155 1.7923 131 198 214
-0.38558 -0.46321 1.33956 131 198 214
0.38558 -0.46321 1.74416 131 198 214
0.38558 -0.46321 1.33956 131 198 214
0.33318 -0.42155 1.7923 131 198 214
-0.27772 -0.47758 1.56677 255 255 255
-0.27772 -0.47758 1.40166 255 255 255
-0.31799 -0.47758 1.40166 255 255 255
-0.31799 -0.47758 1.56677 255 255 255
-0.15215 -0.47758 1.56677 255 255 255
-0.15215 -0.46015 1.56677 255 255 255
-0.31799 -0.46015 1.56677 255 255 255
-0.27772 -0.47758 1.33822 255 255 255
-0.31799 -0.47758 1.33822 255 255 255
-0.31799 -0.46015 1.40166 255 255 255
-0.31799 -0.46015 1.33822 255 255 255
-0.15215 -0.46015 1.40166 255 255 255
-0.15215 -0.47758 1.40166 255 255 255
-0.15215 -0.46015 1.33822 255 255 255
-0.15215 -0.47758 1.33822 255 255 255
-0.18507 -0.47758 1.37482 21 28 24
-0.2448 -0.47758 1.37482 21 28 24
-0.2448 -0.47758 1.40166 21 28 24
-0.18507 -0.47758 1.40166 21 28 24
-0.2448 -0.47758 1.52316 21 28 24
-0.18507 -0.47758 1.52316 21 28 24
-0.15215 -0.47758 1.33822 144 82 109
-0.27772 -0.47758 1.33822 144 82 109
-0.2448 -0.47758 1.37482 144 82 109
-0.18507 -0.47758 1.37482 144 82 109
-0.2448 -0.47758 1.40166 144 82 109
-0.27772 -0.47758 1.40166 144 82 109
-0.18507 -0.47758 1.40166 144 82 109
-0.15215 -0.47758 1.40166 144 82 109
-0.27772 -0.47758 1.56677 52 30 42
-0.15215 -0.47758 1.56677 52 30 42
-0.18507 -0.47758 1.52316 52 30 42
-0.2448 -0.47758 1.52316 52 30 42
-0.18507 -0.47758 1.40166 52 30 42
-0.15215 -0.47758 1.40166 52 30 42
-0.2448 -0.47758 1.40166 52 30 42
-0.27772 -0.47758 1.40166 52 30 42
-0.18525 -0.48468 1.50117 255 255 255
-0.24411 -0.48468 1.50117 255 255 255
-0.24411 -0.48468 1.55633 255 255 255
-0.18525 -0.48468 1.55633 255 255 255
-0.24411 -0.47511 1.55633 255 255 255
-0.18525 -0.47511 1.55633 255 255 255
-0.18525 -0.47511 1.50117 255 255 255
-0.24411 -0.47511 1.50117 255 255 255
-0.37886 -0.3759 1.7923 135 204 221
-0.37886 0.17809 1.7923 135 204 221
0.37886 0.17809 1.7923 135 204 221
0.37886 -0.3759 1.7923 135 204 221
0.32543 0.23617 1.7923 135 204 221
-0.32543 0.23617 1.7923 135 204 221
-0.33318 -0.42155 1.7923 135 204 221
0.33318 -0.42155 1.7923 135 204 221
0.27772 -0.47758 1.56677 255 255 255
0.31799 -0.47758 1.56677 255 255 255
0.31799 -0.47758 1.40166 255 255 255
0.27772 -0.47758 1.40166 255 255 255
0.15215 -0.47758 1.56677 255 255 255
0.31799 -0.46015 1.56677 255 255 255
0.15215 -0.46015 1.56677 255 255 255
0.27772 -0.47758 1.33822 255 255 255
0.31799 -0.47758 1.33822 255 255 255
0.31799 -0.46015 1.40166 255 255 255
0.31799 -0.46015 1.33822 255 255 255
0.15215 -0.46015 1.40166 255 255 255
0.15215 -0.47758 1.40166 255 255 255
0.15215 -0.46015 1.33822 255 255 255
0.15215 -0.47758 1.33822 255 255 255
0.18507 -0.47758 1.37482 21 28 24
0.18507 -0.47758 1.40166 21 28 24
0.2448 -0.47758 1.40166 21 28 24
0.2448 -0.47758 1.37482 21 28 24
0.2448 -0.47758 1.52316 21 28 24
0.18507 -0.47758 1.52316 21 28 24
0.15215 -0.47758 1.33822 144 82 109
0.18507 -0.47758 1.37482 144 82 109
0.2448 -0.47758 1.37482 144 82 109
0.27772 -0.47758 1.33822 144 82 109
0.2448 -0.47758 1.40166 144 82 109
0.27772 -0.47758 1.40166 144 82 109
0.18507 -0.47758 1.40166 144 82 109
0.15215 -0.47758 1.40166 144 82 109
0.27772 -0.47758 1.56677 52 30 42
0.2448 -0.47758 1.52316 52 30 42
0.18507 -0.47758 1.52316 52 30 42
0.15215 -0.47758 1.56677 52 30 42
0.18507 -0.47758 1.40166 52 30 42
0.15215 -0.47758 1.40166 52 30 42
0.2448 -0.47758 1.40166 52 30 42
0.27772 -0.47758 1.40166 52 30 42
0.18525 -0.48468 1.50117 255 255 255
0.18525 -0.48468 1.55633 255 255 255
0.24411 -0.48468 1.55633 255 255 255
0.24411 -0.48468 1.50117 255 255 255
0.24411 -0.47511 1.55633 255 255 255
0.18525 -0.47511 1.55633 255 255 255
0.18525 -0.47511 1.50117 255 255 255
0.24411 -0.47511 1.50117 255 255 255
-0.35903 -0.52097 1.33956 135 204 221
-0.38647 -0.49256 1.33956 135 204 221
0.38647 -0.49256 1.33956 135 204 221
0.35903 -0.52097 1.33956 135 204 221
0.38558 -0.46321 1.33956 135 204 221
-0.38558 -0.46321 1.33956 135 204 221
0.30159 0.50819 0.3799 156 128 120
0.36049 0.45046 0.34394 156 128 120
0.36049 0.45046 0.50425 156 128 120
0.30159 0.50819 0.50425 156 128 120
0.30045 0.45046 0.28849 156 128 120
0.271 0.50819 0.34524 156 128 120
0.20704 0.50819 0.44883 156 128 120
0.20704 0.50819 0.50425 156 128 120
0.36049 0.14408 0.50425 156 128 120
0.36049 0.14408 0.34394 156 128 120
0.30045 0.14408 0.28849 156 128 120
0.02879 0.45046 0.28849 156 128 120
0.02879 0.14408 0.28849 156 128 120
0.02879 0.50819 0.34524 156 128 120
0.02879 0.50819 0.44883 156 128 120
0.30159 0.50819 0.81017 156 128 120
0.36049 0.45046 0.81017 156 128 120
0.36049 0.45046 0.97853 156 128 120
0.30159 0.50819 0.93424 156 128 120
0.20704 0.50819 0.86642 156 128 120
0.20704 0.50819 0.81017 156 128 120
0.36049 0.14408 0.97853 156 128 120
0.36049 0.14408 0.81017 156 128 120
0.26604 0.50819 0.97851 156 128 120
0.02879 0.50819 0.86642 156 128 120
0.02879 0.50819 0.97851 156 128 120
0.30159 0.50819 0.74153 120 99 93
0.36049 0.45046 0.74153 120 99 93
0.36049 0.45046 0.81017 120 99 93
0.30159 0.50819 0.81017 120 99 93
0.20704 0.50819 0.81017 120 99 93
0.20704 0.50819 0.74153 120 99 93
0.15411 0.50819 0.81004 120 99 93
0.20704 0.50819 0.86642 120 99 93
0.20704 0.50819 0.56213 120 99 93
0.15411 0.50819 0.50399 120 99 93
0.20704 0.50819 0.50425 120 99 93
0.30159 0.50819 0.50425 120 99 93
0.30159 0.50819 0.56213 120 99 93
0.36049 0.45046 0.56213 120 99 93
0.36049 0.45046 0.50425 120 99 93
0.20704 0.50819 0.44883 120 99 93
0.02879 0.50819 0.44883 120 99 93
0.02879 0.50819 0.86642 120 99 93
-0.02879 0.50819 0.86642 120 99 93
-0.02879 0.50819 0.97851 120 99 93
0.02879 0.50819 0.97851 120 99 93
-0.15411 0.50819 0.81004 120 99 93
-0.20704 0.50819 0.86642 120 99 93
-0.20704 0.50819 0.81017 120 99 93
-0.20704 0.50819 0.74153 120 99 93
-0.30159 0.50819 0.74153 120 99 93
-0.30159 0.50819 0.81017 120 99 93
-0.36049 0.45046 0.81017 120 99 93
-0.36049 0.45046 0.74153 120 99 93
-0.20704 0.50819 0.56213 120 99 93
-0.15411 0.50819 0.50399 120 99 93
-0.20704 0.50819 0.50425 120 99 93
-0.30159 0.50819 0.50425 120 99 93
-0.30159 0.50819 0.56213 120 99 93
-0.36049 0.45046 0.56213 120 99 93
-0.36049 0.45046 0.50425 120 99 93
-0.20704 0.50819 0.44883 120 99 93
-0.02879 0.50819 0.44883 120 99 93
0.02879 0.50819 0.34524 120 99 93
-0.02879 0.50819 0.34524 120 99 93
-0.02879 0.45046 0.28849 120 99 93
0.02879 0.45046 0.28849 120 99 93
0.02879 0.14408 0.28849 120 99 93
-0.02879 0.14408 0.28849 120 99 93
-0.36049 0.14408 0.50425 120 99 93
-0.36049 0.14408 0.56213 120 99 93
0.30159 0.50819 0.56213 156 128 120
0.36049 0.45046 0.56213 156 128 120
0.36049 0.45046 0.74153 156 128 120
0.30159 0.50819 0.74153 156 128 120
0.20704 0.50819 0.74153 156 128 120
0.20704 0.50819 0.56213 156 128 120
0.36049 0.14408 0.74153 156 128 120
0.36049 0.14408 0.56213 156 128 120
0.36049 0.14408 0.97853 167 137 129
0.29549 0.14408 1.0323 167 137 129
0.29549 0.45046 1.0323 167 137 129
0.36049 0.45046 0.97853 167 137 129
0.26604 0.50819 0.97851 167 137 129
0.02879 0.45046 1.0323 167 137 129
0.02879 0.50819 0.97851 167 137 129
0.02879 0.14408 1.0323 167 137 129
-0.02879 0.14408 1.0323 120 99 93
-0.02879 0.45046 1.0323 120 99 93
0.02879 0.45046 1.0323 120 99 93
0.02879 0.14408 1.0323 120 99 93
0.15411 0.50819 0.81004 156 128 120
-0.15411 0.50819 0.81004 156 128 120
-0.15411 0.50819 0.50399 156 128 120
0.15411 0.50819 0.50399 156 128 120
-0.30159 0.50819 0.3799 156 128 120
-0.30159 0.50819 0.50425 156 128 120
-0.36049 0.45046 0.50425 156 128 120
-0.36049 0.45046 0.34394 156 128 120
-0.20704 0.50819 0.44883 156 128 120
-0.27059 0.50819 0.34524 156 128 120
-0.20704 0.50819 0.50425 156 128 120
-0.36049 0.14408 0.34394 156 128 120
-0.36049 0.14408 0.50425 156 128 120
-0.30004 0.14408 0.28849 156 128 120
-0.30004 0.45046 0.28849 156 128 120
-0.02879 0.50819 0.34524 156 128 120
-0.02879 0.45046 0.28849 156 128 120
-0.02879 0.14408 0.28849 156 128 120
-0.02879 0.50819 0.44883 156 128 120
-0.30159 0.50819 0.81017 156 128 120
-0.30159 0.50819 0.93424 156 128 120
-0.36049 0.45046 0.97853 156 128 120
-0.36049 0.45046 0.81017 156 128 120
-0.20704 0.50819 0.86642 156 128 120
-0.20704 0.50819 0.81017 156 128 120
-0.2722 0.50819 0.97851 156 128 120
-0.36049 0.14408 0.81017 156 128 120
-0.36049 0.14408 0.97853 156 128 120
-0.02879 0.50819 0.97851 156 128 120
-0.02879 0.50819 0.86642 156 128 120
-0.30159 0.50819 0.56213 156 128 120
-0.30159 0.50819 0.74153 156 128 120
-0.36049 0.45046 0.74153 156 128 120
-0.36049 0.45046 0.56213 156 128 120
-0.20704 0.50819 0.74153 156 128 120
-0.20704 0.50819 0.56213 156 128 120
-0.36049 0.14408 0.56213 156 128 120
-0.36049 0.14408 0.74153 156 128 120
-0.30165 0.45046 1.0323 167 137 129
-0.02879 0.45046 1.0323 167 137 129
-0.02879 0.14408 1.0323 167 137 129
-0.30165 0.14408 1.0323 167 137 129
-0.2722 0.50819 0.97851 167 137 129
-0.02879 0.50819 0.97851 167 137 129
-0.36049 0.45046 0.97853 167 137 129
-0.36049 0.14408 0.97853 167 137 129
0.36049 0.14408 0.74153 120 99 93
0.36049 0.14408 0.81017 120 99 93
0.36049 0.14408 0.50425 120 99 93
0.36049 0.14408 0.56213 120 99 93
-0.36049 0.14408 0.81017 120 99 93
-0.36049 0.14408 0.74153 120 99 93
-0.11477 -0.13067 0.26299 131 198 214
-0.11477 0.54915 0.26378 131 198 214
0.11477 0.54915 0.26378 131 198 214
0.11477 -0.13067 0.26299 131 198 214
0.11477 -0.13067 0.11435 131 198 214
-0.11477 -0.13067 0.11435 131 198 214
-0.11477 -0.08058 0.0724 131 198 214
0.11477 -0.08058 0.0724 131 198 214
0.11477 0.73152 0.13482 131 198 214
0.11477 0.73152 0.35318 131 198 214
0.11477 0.54915 0.44114 131 198 214
-0.11477 0.54915 0.44114 131 198 214
-0.11477 0.73152 0.35318 131 198 214
-0.11477 0.606 0.49079 131 198 214
-0.11477 0.73152 0.13482 131 198 214
-0.11477 0.91471 0.0724 131 198 214
0.11477 0.91471 0.0724 131 198 214
0.11477 0.97423 0.13482 131 198 214
-0.11477 0.97423 0.13482 131 198 214
0.11477 0.606 0.49079 131 198 214
0.11477 0.78958 0.35318 131 198 214
0.11477 0.91471 0.49079 131 198 214
0.11477 0.97423 0.43782 131 198 214
0.11477 0.97423 0.19414 131 198 214
-0.11477 0.97423 0.43782 131 198 214
-0.11477 0.97423 0.19414 131 198 214
-0.11477 0.78958 0.35318 131 198 214
-0.11477 0.78958 0.19414 131 198 214
0.11477 0.78958 0.19414 131 198 214
-0.11477 0.91471 0.49079 131 198 214
-0.11477 0.54915 0.44114 135 204 221
-0.11477 0.606 0.49079 135 204 221
0.11477 0.606 0.49079 135 204 221
0.11477 0.54915 0.44114 135 204 221
0.11477 0.91471 0.49079 135 204 221
-0.11477 0.91471 0.49079 135 204 221
-0.11477 0.97423 0.43782 135 204 221
0.11477 0.97423 0.43782 135 204 221
0.11477 0.97423 0.13482 98 187 208
0.11477 0.97423 0.19414 98 187 208
-0.11477 0.97423 0.19414 98 187 208
-0.11477 0.97423 0.13482 98 187 208
0.11477 0.78958 0.19414 98 187 208
0.11477 0.73152 0.13482 98 187 208
0.11477 0.73152 0.35318 98 187 208
0.11477 0.78958 0.35318 98 187 208
-0.11477 0.78958 0.19414 98 187 208
-0.11477 0.78958 0.35318 98 187 208
-0.11477 0.73152 0.35318 98 187 208
-0.11477 0.73152 0.13482 98 187 208
-0.02053 -0.52884 1.25805 111 167 181
-0.03926 -0.52884 1.25805 111 167 181
-0.03919 -0.52884 1.28943 111 167 181
-0.0205 -0.52884 1.28943 111 167 181
-0.02053 -0.53897 1.25805 111 167 181
-0.0205 -0.53897 1.28943 111 167 181
-0.03919 -0.53897 1.28943 111 167 181
-0.03926 -0.53897 1.25805 111 167 181
0.03926 -0.52884 1.25805 111 167 181
0.02053 -0.52884 1.25805 111 167 181
0.0205 -0.52884 1.28943 111 167 181
0.03919 -0.52884 1.28943 111 167 181
0.03926 -0.53897 1.25805 111 167 181
0.03919 -0.53897 1.28943 111 167 181
0.0205 -0.53897 1.28943 111 167 181
0.02053 -0.53897 1.25805 111 167 181
0.20713 -0.25713 0.45679 135 204 221
0.20713 -0.08522 0.45679 135 204 221
0.42439 -0.08522 0.45679 135 204 221
0.42439 -0.25713 0.45679 135 204 221
0.21853 -0.01683 0.41409 131 198 214
0.21853 -0.03873 0.26582 131 198 214
0.41299 -0.03873 0.26582 131 198 214
0.41299 -0.01683 0.41409 131 198 214
0.23798 -0.04706 0.45677 131 198 214
0.39354 -0.04706 0.45677 131 198 214
0.41299 -0.03937 0.22355 131 198 214
0.21853 -0.03937 0.22355 131 198 214
0.41299 0.00206 0.08275 131 198 214
0.21853 0.00206 0.08275 131 198 214
0.41299 0.00206 7.62939E-08 131 198 214
0.21853 0.00206 7.62939E-08 131 198 214
0.45154 -0.05806 0.41407 131 198 214
0.45154 -0.08349 0.28198 131 198 214
0.17998 -0.08349 0.28198 131 198 214
0.17998 -0.05806 0.41407 131 198 214
0.20713 -0.08522 0.45679 131 198 214
0.42439 -0.08522 0.45679 131 198 214
0.45154 -0.08349 0.20496 131 198 214
0.45154 -0.04172 0.07579 131 198 214
0.17998 -0.04172 0.07579 131 198 214
0.17998 -0.08349 0.20496 131 198 214
0.45154 -0.04172 7.62939E-08 131 198 214
0.17998 -0.04172 7.62939E-08 131 198 214
0.17998 -0.26794 7.62939E-08 131 198 214
0.45154 -0.26794 7.62939E-08 131 198 214
0.45154 -0.26794 0.07579 131 198 214
0.17998 -0.26794 0.07579 131 198 214
0.45154 -0.30971 0.20496 131 198 214
0.17998 -0.30971 0.20496 131 198 214
0.45154 -0.30971 0.28198 131 198 214
0.17998 -0.30971 0.28198 131 198 214
0.45154 -0.28429 0.41407 131 198 214
0.17998 -0.28429 0.41407 131 198 214
0.42439 -0.25713 0.45679 131 198 214
0.20713 -0.25713 0.45679 131 198 214
0.43576 -0.31009 0.07579 131 198 214
0.43576 -0.31009 7.62939E-08 131 198 214
0.19627 -0.31009 7.62939E-08 131 198 214
0.19627 -0.31009 0.07579 131 198 214
0.19627 -0.31009 0.07579 135 204 221
0.17998 -0.26794 0.07579 135 204 221
0.45154 -0.26794 0.07579 135 204 221
0.43576 -0.31009 0.07579 135 204 221
0.23798 -0.04706 0.45677 135 204 221
0.39354 -0.04706 0.45677 135 204 221
-0.20713 -0.25713 0.45679 135 204 221
-0.42439 -0.25713 0.45679 135 204 221
-0.42439 -0.08522 0.45679 135 204 221
-0.20713 -0.08522 0.45679 135 204 221
-0.21853 -0.01683 0.41409 131 198 214
-0.41299 -0.01683 0.41409 131 198 214
-0.41299 -0.03873 0.26582 131 198 214
-0.21853 -0.03873 0.26582 131 198 214
-0.23798 -0.04706 0.45677 131 198 214
-0.39354 -0.04706 0.45677 131 198 214
-0.41299 -0.03937 0.22355 131 198 214
-0.21853 -0.03937 0.22355 131 198 214
-0.41299 0.00206 0.08275 131 198 214
-0.21853 0.00206 0.08275 131 198 214
-0.41299 0.00206 7.62939E-08 131 198 214
-0.21853 0.00206 7.62939E-08 131 198 214
-0.45154 -0.05806 0.41407 131 198 214
-0.45154 -0.08349 0.28198 131 198 214
-0.17998 -0.08349 0.28198 131 198 214
-0.17998 -0.05806 0.41407 131 198 214
-0.20713 -0.08522 0.45679 131 198 214
-0.42439 -0.08522 0.45679 131 198 214
-0.45154 -0.08349 0.20496 131 198 214
-0.45154 -0.04172 0.07579 131 198 214
-0.17998 -0.04172 0.07579 131 198 214
-0.17998 -0.08349 0.20496 131 198 214
-0.45154 -0.04172 7.62939E-08 131 198 214
-0.17998 -0.04172 7.62939E-08 131 198 214
-0.45154 -0.26794 7.62939E-08 131 198 214
-0.17998 -0.26794 7.62939E-08 131 198 214
-0.45154 -0.26794 0.07579 131 198 214
-0.17998 -0.26794 0.07579 131 198 214
-0.45154 -0.30971 0.20496 131 198 214
-0.17998 -0.30971 0.20496 131 198 214
-0.45154 -0.30971 0.28198 131 198 214
-0.17998 -0.30971 0.28198 131 198 214
-0.45154 -0.28429 0.41407 131 198 214
-0.17998 -0.28429 0.41407 131 198 214
-0.42439 -0.25713 0.45679 131 198 214
-0.20713 -0.25713 0.45679 131 198 214
-0.43576 -0.31009 0.07579 131 198 214
-0.43576 -0.31009 7.62939E-08 131 198 214
-0.19627 -0.31009 7.62939E-08 131 198 214
-0.19627 -0.31009 0.07579 131 198 214
-0.19627 -0.31009 0.07579 135 204 221
-0.43576 -0.31009 0.07579 135 204 221
-0.45154 -0.26794 0.07579 135 204 221
-0.17998 -0.26794 0.07579 135 204 221
-0.39354 -0.04706 0.45677 135 204 221
-0.23798 -0.04706 0.45677 135 204 221
0.56383 0.01038 0.95511 131 198 214
0.564 0.00998 0.70469 131 198 214
0.56388 -0.51256 0.70564 131 198 214
0.56348 -0.51239 0.95606 131 198 214
0.33655 -0.51295 0.70519 131 198 214
0.3367 0.00956 0.70449 131 198 214
0.5396 -0.547 0.72648 131 198 214
0.36091 -0.54732 0.72612 131 198 214
0.36058 -0.54718 0.93484 131 198 214
0.53927 -0.54686 0.93521 131 198 214
0.33614 -0.51279 0.95561 131 198 214
0.53387 0.04173 0.92814 131 198 214
0.36842 0.04188 0.92799 131 198 214
0.36855 0.04157 0.73126 131 198 214
0.534 0.04143 0.73141 131 198 214
0.33653 0.00997 0.95491 131 198 214
0.33653 0.00997 0.95491 135 204 221
0.56383 0.01038 0.95511 135 204 221
0.56348 -0.51239 0.95606 135 204 221
0.33614 -0.51279 0.95561 135 204 221
0.53387 0.04173 0.92814 135 204 221
0.36842 0.04188 0.92799 135 204 221
0.53927 -0.54686 0.93521 135 204 221
0.36058 -0.54718 0.93484 135 204 221
-0.56383 0.01038 0.95511 131 198 214
-0.56348 -0.51239 0.95606 131 198 214
-0.56388 -0.51256 0.70564 131 198 214
-0.564 0.00998 0.70469 131 198 214
-0.33655 -0.51295 0.70519 131 198 214
-0.3367 0.00956 0.70449 131 198 214
-0.5396 -0.547 0.72648 131 198 214
-0.36091 -0.54732 0.72612 131 198 214
-0.36058 -0.54718 0.93484 131 198 214
-0.53927 -0.54686 0.93521 131 198 214
-0.33614 -0.51279 0.95561 131 198 214
-0.53387 0.04173 0.92814 131 198 214
-0.534 0.04143 0.73141 131 198 214
-0.36855 0.04157 0.73126 131 198 214
-0.36842 0.04188 0.92799 131 198 214
-0.33653 0.00997 0.95491 131 198 214
-0.33653 0.00997 0.95491 135 204 221
-0.33614 -0.51279 0.95561 135 204 221
-0.56348 -0.51239 0.95606 135 204 221
-0.56383 0.01038 0.95511 135 204 221
-0.53387 0.04173 0.92814 135 204 221
-0.36842 0.04188 0.92799 135 204 221
-0.36058 -0.54718 0.93484 135 204 221
-0.53927 -0.54686 0.93521 135 204 221
0.22582 0.03925 0.24058 224 209 176
0.22582 -0.09321 0.24058 224 209 176
0.33741 -0.09326 0.24058 224 209 176
0.33741 0.03925 0.24058 224 209 176
0.36965 0.03925 0.28046 224 209 176
0.36965 -0.09326 0.28046 224 209 176
0.36965 -0.09322 0.83709 224 209 176
0.36965 0.03925 0.83709 224 209 176
0.35783 0.17477 0.22244 227 240 247
0 0.03925 0.22244 227 240 247
0.35783 0.03925 0.22244 227 240 247
0.39499 0.17477 0.25921 227 240 247
0.39499 0.03925 0.25921 227 240 247
0.39499 0.03925 1.12092 227 240 247
0.39499 0.17477 1.12092 227 240 247
0.36965 0.03925 0.28046 227 240 247
0.33741 0.03925 0.24058 227 240 247
0.22582 0.03925 0.24058 227 240 247
0.36965 0.03925 0.83709 227 240 247
0.36965 0.03925 0.89347 227 240 247
0.36965 0.03925 1.10765 227 240 247
0.18204 0.03925 0.24058 227 240 247
-0.18204 0.03925 0.24058 227 240 247
-0.35783 0.03925 0.22244 227 240 247
-0.22582 0.03925 0.24058 227 240 247
-0.33741 0.03925 0.24058 227 240 247
-0.36965 0.03925 0.28046 227 240 247
-0.39499 0.03925 0.25921 227 240 247
-0.36965 0.03925 0.83709 227 240 247
-0.39499 0.03925 1.12092 227 240 247
-0.36965 0.03925 0.89347 227 240 247
-0.36965 0.03925 1.10765 227 240 247
-0.35783 0.17477 0.22244 227 240 247
-0.39499 0.17477 1.12092 227 240 247
-0.39499 0.17477 0.25921 227 240 247
0.33658 -0.37241 0.89347 194 181 152
0.33658 -0.37241 0.83709 194 181 152
0.02967 -0.37241 0.83709 194 181 152
0.02967 -0.37241 0.89347 194 181 152
-0.02967 -0.37241 0.89347 194 181 152
-0.02967 -0.37241 0.83709 194 181 152
0.02967 -0.37241 0.59771 194 181 152
-0.02967 -0.37241 0.59771 194 181 152
0.02967 -0.37241 0.55158 194 181 152
0.33658 -0.37241 0.59771 194 181 152
0.33658 -0.37241 0.55158 194 181 152
-0.02967 -0.37241 0.55158 194 181 152
0.02967 -0.37241 0.34488 194 181 152
-0.02967 -0.37241 0.34488 194 181 152
0.36965 -0.33269 0.83709 194 181 152
0.36965 -0.33269 0.89347 194 181 152
0.36965 -0.15652 0.83709 194 181 152
0.36965 -0.09322 0.83709 194 181 152
0.36965 -0.15664 0.59771 194 181 152
0.36965 0.03925 0.89347 194 181 152
0.36965 0.03925 0.83709 194 181 152
0.36965 -0.33269 0.55158 194 181 152
0.36965 -0.33269 0.59771 194 181 152
0.36965 -0.15658 0.55158 194 181 152
0.36965 -0.09326 0.28046 194 181 152
0.36965 -0.15669 0.28046 194 181 152
0.33741 -0.15663 0.24058 194 181 152
0.33741 -0.09326 0.24058 194 181 152
0.22582 -0.15673 0.24058 194 181 152
0.22582 -0.09321 0.24058 194 181 152
0.18204 0.03925 0.24058 194 181 152
0.22582 0.03925 0.24058 194 181 152
0.18204 -0.33269 0.24058 194 181 152
0.22582 -0.33269 0.24058 194 181 152
0.22582 -0.37241 0.28046 194 181 152
0.18204 -0.37241 0.28046 194 181 152
0.22582 -0.37241 0.3452 194 181 152
0.18204 -0.37241 0.30233 194 181 152
-0.18204 -0.37241 0.30233 194 181 152
-0.22582 -0.37241 0.3452 194 181 152
-0.18204 -0.37241 0.28046 194 181 152
-0.22582 -0.37241 0.28046 194 181 152
-0.18204 -0.33269 0.24058 194 181 152
-0.22582 -0.33269 0.24058 194 181 152
-0.22582 -0.15673 0.24058 194 181 152
-0.18204 0.03925 0.24058 194 181 152
-0.22582 -0.09321 0.24058 194 181 152
-0.22582 0.03925 0.24058 194 181 152
-0.33741 -0.09326 0.24058 194 181 152
-0.33741 -0.15663 0.24058 194 181 152
-0.36965 -0.09326 0.28046 194 181 152
-0.36965 -0.15669 0.28046 194 181 152
-0.36965 -0.15658 0.55158 194 181 152
-0.36965 -0.09322 0.83709 194 181 152
-0.36965 -0.15664 0.59771 194 181 152
-0.36965 -0.15652 0.83709 194 181 152
-0.36965 -0.33269 0.89347 194 181 152
-0.36965 -0.33269 0.83709 194 181 152
-0.36965 0.03925 0.89347 194 181 152
-0.36965 0.03925 0.83709 194 181 152
-0.33658 -0.37241 0.89347 194 181 152
-0.33658 -0.37241 0.83709 194 181 152
-0.36965 -0.33269 0.55158 194 181 152
-0.36965 -0.33269 0.59771 194 181 152
-0.33658 -0.37241 0.59771 194 181 152
-0.33658 -0.37241 0.55158 194 181 152
0.36965 -0.33269 0.89347 224 209 176
0.36965 -0.33269 1.10765 224 209 176
0.36965 0.03925 1.10765 224 209 176
0.36965 0.03925 0.89347 224 209 176
0.33658 -0.37241 1.10765 224 209 176
0.33658 -0.37241 0.89347 224 209 176
0.02967 -0.37241 0.89347 224 209 176
-0.33658 -0.37241 1.10765 224 209 176
-0.02967 -0.37241 0.89347 224 209 176
-0.33658 -0.37241 0.89347 224 209 176
-0.36965 -0.33269 0.89347 224 209 176
-0.36965 -0.33269 1.10765 224 209 176
-0.36965 0.03925 1.10765 224 209 176
-0.36965 0.03925 0.89347 224 209 176
0.33658 -0.37241 0.83709 224 209 176
0.33658 -0.37241 0.59771 224 209 176
0.02967 -0.37241 0.59771 224 209 176
0.02967 -0.37241 0.83709 224 209 176
0.36965 -0.33269 0.59771 224 209 176
0.36965 -0.33269 0.83709 224 209 176
0.36965 -0.15652 0.83709 224 209 176
0.36965 -0.15664 0.59771 224 209 176
0.33658 -0.37241 0.55158 224 209 176
0.02967 -0.37241 0.34488 224 209 176
0.02967 -0.37241 0.55158 224 209 176
0.22582 -0.37241 0.3452 224 209 176
0.33658 -0.37241 0.28046 224 209 176
0.36965 -0.33269 0.28046 224 209 176
0.36965 -0.33269 0.55158 224 209 176
0.36965 -0.15669 0.28046 224 209 176
0.33741 -0.33269 0.24058 224 209 176
0.33741 -0.15663 0.24058 224 209 176
0.22582 -0.33269 0.24058 224 209 176
0.22582 -0.37241 0.28046 224 209 176
0.36965 -0.15658 0.55158 224 209 176
0.22582 -0.15673 0.24058 224 209 176
0.18204 0.03925 0.24058 224 209 176
-0.18204 0.03925 0.24058 224 209 176
-0.18204 -0.33269 0.24058 224 209 176
0.18204 -0.33269 0.24058 224 209 176
0.18204 -0.37241 0.28046 224 209 176
-0.18204 -0.37241 0.28046 224 209 176
0.18204 -0.37241 0.30233 224 209 176
-0.18204 -0.37241 0.30233 224 209 176
-0.22582 0.03925 0.24058 224 209 176
-0.33741 0.03925 0.24058 224 209 176
-0.33741 -0.09326 0.24058 224 209 176
-0.22582 -0.09321 0.24058 224 209 176
-0.36965 0.03925 0.28046 224 209 176
-0.36965 -0.09326 0.28046 224 209 176
-0.36965 -0.09322 0.83709 224 209 176
-0.36965 0.03925 0.83709 224 209 176
-0.33658 -0.37241 0.83709 224 209 176
-0.02967 -0.37241 0.83709 224 209 176
-0.02967 -0.37241 0.59771 224 209 176
-0.33658 -0.37241 0.59771 224 209 176
-0.36965 -0.33269 0.59771 224 209 176
-0.36965 -0.33269 0.83709 224 209 176
-0.36965 -0.15652 0.83709 224 209 176
-0.36965 -0.15664 0.59771 224 209 176
-0.33658 -0.37241 0.55158 224 209 176
-0.02967 -0.37241 0.55158 224 209 176
-0.02967 -0.37241 0.34488 224 209 176
-0.22582 -0.37241 0.3452 224 209 176
-0.33658 -0.37241 0.28046 224 209 176
-0.36965 -0.33269 0.28046 224 209 176
-0.36965 -0.33269 0.55158 224 209 176
-0.36965 -0.15669 0.28046 224 209 176
-0.33741 -0.33269 0.24058 224 209 176
-0.33741 -0.15663 0.24058 224 209 176
-0.22582 -0.33269 0.24058 224 209 176
-0.22582 -0.37241 0.28046 224 209 176
-0.36965 -0.15658 0.55158 224 209 176
-0.22582 -0.15673 0.24058 224 209 176
3 0 2 1
3 1 3 0
3 2 0 3
3 1 4 3
3 2 5 1
3 5 4 1
3 2 3 6
3 6 7 2
3 7 5 2
3 6 8 7
3 7 8 9
3 7 9 10
3 10 11 7
3 11 10 9
3 11 9 12
3 13 11 12
3 13 14 11
3 7 11 14
3 5 14 13
3 7 14 5
3 5 15 4
3 5 13 15
3 16 18 17
3 16 19 18
3 16 20 19
3 16 21 20
3 17 22 16
3 17 23 22
3 24 23 17
3 24 17 25
3 18 19 26
3 18 26 27
3 21 16 28
3 22 28 16
3 21 28 29
3 30 25 17
3 30 17 18
3 22 23 31
3 22 31 32
3 22 32 28
3 28 33 29
3 28 34 33
3 28 35 34
3 28 36 35
3 36 32 31
3 36 28 32
3 37 36 31
3 37 38 36
3 35 39 34
3 35 40 39
3 41 36 38
3 41 35 36
3 34 42 33
3 39 43 34
3 44 34 43
3 44 42 34
3 44 43 45
3 46 45 43
3 46 43 47
3 46 47 48
3 46 49 45
3 50 46 48
3 50 48 51
3 26 43 39
3 19 43 26
3 52 43 19
3 52 47 43
3 52 19 53
3 52 53 51
3 50 51 53
3 53 19 20
3 44 54 42
3 54 55 42
3 49 55 54
3 46 55 49
3 50 55 46
3 56 58 57
3 56 59 58
3 59 60 58
3 59 61 60
3 56 61 59
3 56 62 61
3 62 60 61
3 62 63 60
3 64 65 25
3 64 66 65
3 64 67 66
3 64 68 67
3 69 68 64
3 69 70 68
3 65 24 25
3 65 71 24
3 30 64 25
3 30 69 64
3 71 65 72
3 66 72 65
3 71 72 73
3 24 71 73
3 24 73 37
3 72 37 73
3 23 24 37
3 23 37 31
3 66 74 72
3 67 74 66
3 75 72 74
3 75 38 72
3 72 38 37
3 75 74 76
3 67 76 74
3 75 76 77
3 78 75 77
3 78 77 79
3 41 75 78
3 41 38 75
3 80 70 69
3 80 81 70
3 82 80 69
3 82 69 30
3 82 83 80
3 82 84 83
3 80 85 81
3 80 83 85
3 83 79 85
3 83 78 79
3 84 78 83
3 84 41 78
3 86 88 87
3 86 89 88
3 90 89 86
3 91 89 90
3 89 91 92
3 88 89 92
3 88 93 87
3 88 94 93
3 94 88 95
3 88 92 95
3 94 95 96
3 97 91 90
3 97 90 98
3 99 97 98
3 99 98 100
3 101 103 102
3 101 104 103
3 104 105 103
3 104 106 105
3 107 109 108
3 107 110 109
3 108 109 111
3 108 111 112
3 113 110 107
3 113 107 114
3 115 117 116
3 115 118 117
3 116 117 119
3 116 119 120
3 121 118 115
3 121 115 122
3 123 125 124
3 123 126 125
3 126 127 125
3 124 125 127
3 126 128 127
3 129 123 124
3 129 126 123
3 129 128 126
3 129 124 130
3 124 127 130
3 30 27 82
3 30 18 27
3 131 133 132
3 131 134 133
3 132 133 135
3 132 135 136
3 137 134 131
3 137 138 134
3 139 141 140
3 139 142 141
3 140 143 139
3 144 143 140
3 141 144 140
3 143 144 145
3 141 142 146
3 141 146 147
3 147 148 141
3 141 148 144
3 147 149 148
3 150 143 145
3 150 151 143
3 152 151 150
3 152 153 151
3 154 156 155
3 154 157 156
3 155 156 158
3 155 158 159
3 160 162 161
3 160 163 162
3 163 164 162
3 163 165 164
3 166 160 161
3 166 167 160
3 168 170 169
3 168 171 170
3 171 172 170
3 171 173 172
3 174 168 169
3 174 175 168
3 176 178 177
3 176 179 178
3 177 178 180
3 179 180 178
3 177 180 181
3 182 179 176
3 182 177 181
3 182 176 177
3 182 183 179
3 179 183 180
3 184 186 185
3 184 187 186
3 185 186 188
3 185 188 189
3 41 40 35
3 41 84 40
3 190 192 191
3 190 193 192
3 190 191 194
3 190 194 195
3 196 190 195
3 196 193 190
3 196 197 193
3 191 192 198
3 191 198 199
3 200 191 199
3 200 194 191
3 201 194 200
3 195 194 201
3 201 200 202
3 195 201 203
3 196 195 203
3 196 203 204
3 205 207 206
3 205 208 207
3 205 209 208
3 205 210 209
3 206 207 211
3 206 211 212
3 208 209 213
3 213 207 208
3 213 209 214
3 213 214 215
3 216 218 217
3 216 219 218
3 220 219 216
3 220 216 221
3 222 220 221
3 223 220 222
3 222 221 224
3 222 224 225
3 224 226 225
3 224 227 226
3 224 228 227
3 227 228 229
3 227 229 230
3 225 226 231
3 225 231 232
3 222 233 223
3 222 234 233
3 233 234 235
3 233 235 236
3 222 237 234
3 234 237 238
3 238 237 239
3 237 240 239
3 239 240 241
3 239 241 242
3 241 243 242
3 241 244 243
3 237 245 240
3 237 246 245
3 245 246 247
3 245 247 248
3 245 248 249
3 248 250 249
3 248 251 250
3 246 252 247
3 246 253 252
3 225 253 246
3 225 232 253
3 254 253 232
3 254 255 253
3 254 256 255
3 254 257 256
3 256 257 258
3 256 258 259
3 250 251 260
3 250 260 261
3 262 264 263
3 262 265 264
3 266 265 262
3 266 262 267
3 263 264 268
3 263 268 269
3 270 272 271
3 270 273 272
3 274 272 273
3 275 272 274
3 271 272 275
3 275 274 276
3 271 275 277
3 278 280 279
3 278 281 280
3 279 280 236
3 279 236 235
3 282 284 283
3 282 285 284
3 286 288 287
3 286 289 288
3 290 286 287
3 290 291 286
3 290 287 292
3 288 289 293
3 288 293 294
3 289 295 293
3 289 296 295
3 286 296 289
3 286 291 296
3 296 291 297
3 290 297 291
3 296 297 298
3 295 296 298
3 295 298 299
3 290 300 297
3 301 303 302
3 301 304 303
3 301 302 305
3 301 305 306
3 302 307 305
3 303 307 302
3 303 304 308
3 303 308 309
3 305 307 310
3 305 310 311
3 312 314 313
3 312 315 314
3 316 312 313
3 316 317 312
3 314 315 318
3 314 318 319
3 320 322 321
3 320 323 322
3 324 320 321
3 324 321 325
3 326 320 324
3 327 320 326
3 327 323 320
3 217 329 328
3 217 218 329
3 230 331 330
3 230 229 331
3 243 333 332
3 243 244 333
3 334 336 335
3 334 337 336
3 337 338 336
3 337 339 338
3 337 334 339
3 338 339 340
3 338 340 341
3 336 338 341
3 342 336 341
3 343 336 342
3 343 344 336
3 335 336 344
3 335 344 345
3 335 345 346
3 347 346 345
3 335 346 348
3 348 340 335
3 339 335 340
3 341 340 349
3 348 349 340
3 341 349 350
3 342 341 350
3 342 350 351
3 350 352 351
3 350 349 352
3 348 352 349
3 343 353 344
3 354 353 343
3 354 355 353
3 354 356 355
3 354 357 356
3 357 358 356
3 357 359 358
3 360 358 359
3 361 360 359
3 362 357 354
3 360 363 358
3 360 347 363
3 360 346 347
3 364 366 365
3 364 367 366
3 365 366 368
3 365 368 369
3 369 371 370
3 369 368 371
3 372 374 373
3 372 375 374
3 376 372 373
3 376 377 372
3 376 378 377
3 376 379 378
3 380 382 381
3 380 383 382
3 383 380 374
3 383 374 375
3 334 335 339
3 384 386 385
3 384 387 386
3 388 387 384
3 388 389 387
3 389 386 387
3 389 390 386
3 390 385 386
3 390 391 385
3 391 384 385
3 391 388 384
3 392 394 393
3 392 395 394
3 396 395 392
3 396 397 395
3 397 394 395
3 397 398 394
3 398 393 394
3 398 399 393
3 399 392 393
3 399 396 392
3 400 402 401
3 400 403 402
3 404 406 405
3 404 407 406
3 407 404 408
3 407 408 409
3 405 406 410
3 405 410 411
3 411 410 412
3 411 412 413
3 413 412 414
3 413 414 415
3 416 406 407
3 416 417 406
3 417 410 406
3 418 404 405
3 418 419 404
3 419 408 404
3 419 420 408
3 421 407 409
3 421 416 407
3 417 422 410
3 422 412 410
3 422 423 412
3 423 414 412
3 424 411 413
3 424 425 411
3 425 405 411
3 425 418 405
3 423 426 414
3 426 415 414
3 426 427 415
3 427 413 415
3 427 424 413
3 427 429 428
3 427 426 429
3 429 426 423
3 429 423 430
3 427 428 431
3 427 431 424
3 432 431 430
3 432 433 431
3 424 431 433
3 433 432 434
3 433 434 435
3 435 434 436
3 435 436 437
3 437 436 438
3 437 438 439
3 436 421 438
3 436 416 421
3 434 416 436
3 419 437 439
3 419 439 420
3 434 417 416
3 432 417 434
3 418 437 419
3 418 435 437
3 432 422 417
3 425 435 418
3 425 433 435
3 430 422 432
3 430 423 422
3 424 433 425
3 429 430 440
3 429 440 441
3 442 441 440
3 442 429 441
3 442 440 443
3 431 442 443
3 431 428 442
3 442 428 429
3 444 446 445
3 444 447 446
3 401 449 448
3 401 402 449
3 450 452 451
3 450 453 452
3 454 456 455
3 454 457 456
3 455 458 454
3 455 459 458
3 457 460 456
3 457 461 460
3 461 462 460
3 461 463 462
3 463 464 462
3 463 465 464
3 466 455 456
3 466 456 467
3 467 456 460
3 468 457 454
3 468 454 469
3 469 454 458
3 469 458 470
3 471 455 466
3 471 459 455
3 467 460 472
3 472 460 462
3 472 462 473
3 473 462 464
3 474 463 461
3 474 461 475
3 475 457 468
3 475 461 457
3 473 464 476
3 476 464 465
3 476 465 477
3 477 463 474
3 477 465 463
3 477 478 476
3 477 479 478
3 478 473 476
3 478 480 473
3 477 481 479
3 477 474 481
3 482 480 481
3 482 481 483
3 474 483 481
3 483 484 482
3 483 485 484
3 485 486 484
3 485 487 486
3 487 488 486
3 487 489 488
3 486 488 471
3 486 471 466
3 484 486 466
3 469 489 487
3 469 470 489
3 484 466 467
3 482 484 467
3 468 487 485
3 468 469 487
3 482 467 472
3 475 485 483
3 475 468 485
3 480 482 472
3 480 472 473
3 474 475 483
3 478 490 480
3 478 491 490
3 492 490 491
3 492 491 478
3 492 493 490
3 481 493 492
3 481 492 479
3 492 478 479
3 494 496 495
3 494 497 496
3 453 498 452
3 453 499 498
3 500 502 501
3 500 503 502
3 501 502 504
3 501 504 505
3 504 502 506
3 504 506 507
3 508 507 506
3 508 506 509
3 502 509 506
3 502 503 509
3 510 507 508
3 510 504 507
3 511 513 512
3 511 514 513
3 500 514 511
3 500 501 514
3 501 513 514
3 501 505 513
3 505 512 513
3 505 515 512
3 515 505 504
3 515 504 510
3 516 518 517
3 516 519 518
3 516 517 520
3 516 520 521
3 518 523 522
3 518 519 523
3 524 526 525
3 524 527 526
3 527 528 526
3 527 529 528
3 528 530 526
3 528 531 530
3 532 530 531
3 532 533 530
3 526 533 525
3 526 530 533
3 534 531 528
3 534 532 531
3 535 537 536
3 535 538 537
3 524 535 536
3 524 536 527
3 527 536 537
3 527 537 529
3 529 537 538
3 529 538 539
3 539 528 529
3 539 534 528
3 540 542 541
3 540 543 542
3 540 544 543
3 540 545 544
3 542 546 541
3 542 547 546
3 548 550 549
3 548 551 550
3 550 551 552
3 550 552 553
3 552 554 553
3 552 555 554
3 556 558 557
3 559 558 556
3 559 560 558
3 561 560 559
3 561 559 562
3 558 560 563
3 558 563 564
3 564 565 558
3 561 566 560
3 560 566 563
3 561 567 566
3 568 567 561
3 569 558 565
3 569 557 558
3 569 570 557
3 570 571 557
3 570 572 571
3 573 571 572
3 571 573 574
3 571 574 575
3 575 574 576
3 577 575 576
3 577 576 578
3 579 577 578
3 580 557 571
3 581 559 582
3 581 562 559
3 577 581 582
3 577 582 575
3 582 571 575
3 582 580 571
3 556 582 559
3 556 580 582
3 556 557 580
3 583 585 584
3 583 586 585
3 585 586 587
3 585 587 588
3 589 585 588
3 589 588 590
3 591 589 590
3 592 589 591
3 592 591 593
3 591 590 594
3 595 591 594
3 595 594 596
3 597 583 584
3 597 598 583
3 597 599 598
3 598 599 600
3 601 600 599
3 598 600 602
3 602 600 603
3 604 592 593
3 604 605 592
3 604 601 605
3 604 606 601
3 606 600 601
3 606 607 600
3 606 608 607
3 607 608 609
3 607 609 610
3 610 609 611
3 610 611 612
3 613 612 611
3 613 614 612
3 613 611 615
3 615 611 616
3 615 616 617
3 615 617 618
3 618 617 619
3 618 619 620
3 620 619 595
3 620 595 596
3 620 596 621
3 621 596 622
3 623 621 622
3 623 622 624
3 625 623 624
3 625 624 626
3 625 626 627
3 628 625 627
3 628 627 629
3 628 629 630
3 631 629 627
3 631 627 632
3 633 631 632
3 633 632 634
3 635 633 634
3 635 636 633
3 635 637 636
3 637 638 636
3 639 636 638
3 640 639 638
3 639 641 636
3 641 642 636
3 640 643 639
3 640 644 643
3 643 644 588
3 643 588 587
3 645 637 635
3 645 646 637
3 645 647 646
3 645 648 647
3 647 648 594
3 647 594 590
3 649 651 650
3 649 652 651
3 649 650 653
3 649 653 654
3 653 655 654
3 655 653 656
3 655 656 657
3 656 658 657
3 659 658 656
3 659 656 660
3 659 660 661
3 659 661 662
3 663 665 664
3 663 666 665
3 667 663 664
3 667 668 663
3 667 669 668
3 667 670 669
3 671 673 672
3 671 672 674
3 671 674 675
3 676 671 675
3 676 677 671
3 677 676 678
3 678 676 679
3 679 676 675
3 678 679 680
3 681 679 675
3 681 675 682
3 675 674 682
3 677 678 683
3 679 684 680
3 679 681 684
3 685 687 686
3 685 688 687
3 689 687 688
3 689 690 687
3 691 690 689
3 691 692 690
3 693 695 694
3 693 696 695
3 695 697 694
3 695 698 697
3 697 698 699
3 697 699 700
3 701 703 702
3 701 704 703
3 705 704 701
3 705 701 706
3 705 706 707
3 705 707 708
3 709 711 710
3 709 712 711
3 709 713 712
3 714 713 709
3 714 709 715
3 715 716 714
3 716 717 714
3 717 713 714
3 716 718 717
3 719 713 717
3 719 720 713
3 713 720 712
3 715 721 716
3 717 722 719
3 717 718 722
