ply
format ascii 1.0
element vertex 721
property float x
property float y
property float z
property uchar red
property uchar green
property uchar blue
element face 822
property list uchar int vertex_index
end_header
-0.32431 -0.38293 1.25805 153 76 120
-0.09219 -0.38293 1.25805 153 76 120
-0.32431 -0.38293 1.14593 153 76 120
-0.32431 -0.53897 1.25805 153 76 120
-0.09219 -0.53897 1.25805 153 76 120
-0.03575 -0.38293 1.22349 153 76 120
-0.32431 -0.53897 1.14593 153 76 120
0.32431 -0.38293 1.14593 153 76 120
0.32431 -0.53897 1.14593 153 76 120
0.32431 -0.53897 1.25805 153 76 120
0.32431 -0.38293 1.25805 153 76 120
0.09219 -0.38293 1.25805 153 76 120
0.09219 -0.53897 1.25805 153 76 120
0.03575 -0.53897 1.22405 153 76 120
0.03575 -0.38293 1.2238 153 76 120
-0.03575 -0.53897 1.224 153 76 120
-0.40116 -0.53897 1.05815 159 192 255
-0.43252 -0.50509 1.05815 159 192 255
-0.43261 -0.50509 1.31098 159 192 255
-0.40116 -0.53897 1.31098 159 192 255
-0.32431 -0.53897 1.25805 159 192 255
-0.32431 -0.53897 1.14593 159 192 255
-0.36448 -0.5 1.00845 159 192 255
-0.39337 -0.46465 1.00845 159 192 255
-0.39337 0.17364 1.00846 159 192 255
-0.43264 0.20037 1.05813 159 192 255
-0.35903 -0.52097 1.33956 159 192 255
-0.38647 -0.49256 1.33956 159 192 255
0.40116 -0.53897 1.05815 159 192 255
0.32431 -0.53897 1.14593 159 192 255
-0.43264 -0.41745 1.31098 159 192 255
0.39337 -0.46465 1.00845 159 192 255
0.36448 -0.5 1.00845 159 192 255
0.32431 -0.53897 1.25805 159 192 255
0.40116 -0.53897 1.31098 159 192 255
0.43261 -0.50509 1.31098 159 192 255
0.43252 -0.50509 1.05815 159 192 255
0.39337 0.17364 1.00846 159 192 255
0.43264 0.20037 1.05813 159 192 255
0.35903 -0.52097 1.33956 159 192 255
0.38647 -0.49256 1.33956 159 192 255
0.43264 -0.41745 1.31098 159 192 255
0.09219 -0.53897 1.25805 159 192 255
0 -0.53897 1.31098 159 192 255
0.03919 -0.53897 1.28943 159 192 255
0.0205 -0.53897 1.28943 159 192 255
0 -0.53897 1.25805 159 192 255
-0.0205 -0.53897 1.28943 159 192 255
-0.02053 -0.53897 1.25805 159 192 255
0.02053 -0.53897 1.25805 159 192 255
-0.03575 -0.53897 1.224 159 192 255
-0.03926 -0.53897 1.25805 159 192 255
-0.03919 -0.53897 1.28943 159 192 255
-0.09219 -0.53897 1.25805 159 192 255
0.03926 -0.53897 1.25805 159 192 255
0.03575 -0.53897 1.22405 159 192 255
-0.2564 -0.48987 1.13994 209 132 174
-0.2564 -0.37455 1.13994 209 132 174
-0.2564 -0.37455 1.20305 209 132 174
-0.2564 -0.48987 1.20305 209 132 174
0.2564 -0.37455 1.20305 209 132 174
0.2564 -0.48987 1.20305 209 132 174
0.2564 -0.48987 1.13994 209 132 174
0.2564 -0.37455 1.13994 209 132 174
-0.43264 0.20037 1.74416 159 192 255
-0.35255 0.27945 1.05813 159 192 255
-0.35255 0.27945 1.74416 159 192 255
-0.32543 0.23617 1.7923 159 192 255
-0.37886 0.17809 1.7923 159 192 255
-0.43264 -0.41745 1.74416 159 192 255
-0.37886 -0.3759 1.7923 159 192 255
-0.33568 0.23649 1.00846 159 192 255
0.35255 0.27945 1.05813 159 192 255
0.33568 0.23649 1.00846 159 192 255
0.35255 0.27945 1.74416 159 192 255
0.43264 0.20037 1.74416 159 192 255
0.32543 0.23617 1.7923 159 192 255
0.37886 0.17809 1.7923 159 192 255
0.43264 -0.41745 1.74416 159 192 255
0.37886 -0.3759 1.7923 159 192 255
-0.38558 -0.46321 1.74416 159 192 255
-0.33318 -0.42155 1.7923 159 192 255
-0.38558 -0.46321 1.33956 159 192 255
0.38558 -0.46321 1.74416 159 192 255
0.38558 -0.46321 1.33956 159 192 255
0.33318 -0.42155 1.7923 159 192 255
-0.27772 -0.47758 1.56677 255 255 255
-0.27772 -0.47758 1.40166 255 255 255
-0.31799 -0.47758 1.40166 255 255 255
-0.31799 -0.47758 1.56677 255 255 255
-0.15215 -0.47758 1.56677 255 255 255
-0.15215 -0.46015 1.56677 255 255 255
-0.31799 -0.46015 1.56677 255 255 255
-0.27772 -0.47758 1.33822 255 255 255
-0.31799 -0.47758 1.33822 255 255 255
-0.31799 -0.46015 1.40166 255 255 255
-0.31799 -0.46015 1.33822 255 255 255
-0.15215 -0.46015 1.40166 255 255 255
-0.15215 -0.47758 1.40166 255 255 255
-0.15215 -0.46015 1.33822 255 255 255
-0.15215 -0.47758 1.33822 255 255 255
-0.18507 -0.47758 1.37482 21 28 24
-0.2448 -0.47758 1.37482 21 28 24
-0.2448 -0.47758 1.40166 21 28 24
-0.18507 -0.47758 1.40166 21 28 24
-0.2448 -0.47758 1.52316 21 28 24
-0.18507 -0.47758 1.52316 21 28 24
-0.15215 -0.47758 1.33822 198 80 144
-0.27772 -0.47758 1.33822 198 80 144
-0.2448 -0.47758 1.37482 198 80 144
-0.18507 -0.47758 1.37482 198 80 144
-0.2448 -0.47758 1.40166 198 80 144
-0.27772 -0.47758 1.40166 198 80 144
-0.18507 -0.47758 1.40166 198 80 144
-0.15215 -0.47758 1.40166 198 80 144
-0.27772 -0.47758 1.56677 52 30 42
-0.15215 -0.47758 1.56677 52 30 42
-0.18507 -0.47758 1.52316 52 30 42
-0.2448 -0.47758 1.52316 52 30 42
-0.18507 -0.47758 1.40166 52 30 42
-0.15215 -0.47758 1.40166 52 30 42
-0.2448 -0.47758 1.40166 52 30 42
-0.27772 -0.47758 1.40166 52 30 42
-0.18525 -0.48468 1.50117 255 255 255
-0.24411 -0.48468 1.50117 255 255 255
-0.24411 -0.48468 1.55633 255 255 255
-0.18525 -0.48468 1.55633 255 255 255
-0.24411 -0.47511 1.55633 255 255 255
-0.18525 -0.47511 1.55633 255 255 255
-0.18525 -0.47511 1.50117 255 255 255
-0.24411 -0.47511 1.50117 255 255 255
-0.37886 -0.3759 1.7923 168 197 255
-0.37886 0.17809 1.7923 168 197 255
0.37886 0.17809 1.7923 168 197 255
0.37886 -0.3759 1.7923 168 197 255
0.32543 0.23617 1.7923 168 197 255
-0.32543 0.23617 1.7923 168 197 255
-0.33318 -0.42155 1.7923 168 197 255
0.33318 -0.42155 1.7923 168 197 255
0.27772 -0.47758 1.56677 255 255 255
0.31799 -0.47758 1.56677 255 255 255
0.31799 -0.47758 1.40166 255 255 255
0.27772 -0.47758 1.40166 255 255 255
0.15215 -0.47758 1.56677 255 255 255
0.31799 -0.46015 1.56677 255 255 255
0.15215 -0.46015 1.56677 255 255 255
0.27772 -0.47758 1.33822 255 255 255
0.31799 -0.47758 1.33822 255 255 255
0.31799 -0.46015 1.40166 255 255 255
0.31799 -0.46015 1.33822 255 255 255
0.15215 -0.46015 1.40166 255 255 255
0.15215 -0.47758 1.40166 255 255 255
0.15215 -0.46015 1.33822 255 255 255
0.15215 -0.47758 1.33822 255 255 255
0.18507 -0.47758 1.37482 21 28 24
0.18507 -0.47758 1.40166 21 28 24
0.2448 -0.47758 1.40166 21 28 24
0.2448 -0.47758 1.37482 21 28 24
0.2448 -0.47758 1.52316 21 28 24
0.18507 -0.47758 1.52316 21 28 24
0.15215 -0.47758 1.33822 198 80 144
0.18507 -0.47758 1.37482 198 80 144
0.2448 -0.47758 1.37482 198 80 144
0.27772 -0.47758 1.33822 198 80 144
0.2448 -0.47758 1.40166 198 80 144
0.27772 -0.47758 1.40166 198 80 144
0.18507 -0.47758 1.40166 198 80 144
0.15215 -0.47758 1.40166 198 80 144
0.27772 -0.47758 1.56677 52 30 42
0.2448 -0.47758 1.52316 52 30 42
0.18507 -0.47758 1.52316 52 30 42
0.15215 -0.47758 1.56677 52 30 42
0.18507 -0.47758 1.40166 52 30 42
0.15215 -0.47758 1.40166 52 30 42
0.2448 -0.47758 1.40166 52 30 42
0.27772 -0.47758 1.40166 52 30 42
0.18525 -0.48468 1.50117 255 255 255
0.18525 -0.48468 1.55633 255 255 255
0.24411 -0.48468 1.55633 255 255 255
0.24411 -0.48468 1.50117 255 255 255
0.24411 -0.47511 1.55633 255 255 255
0.18525 -0.47511 1.55633 255 255 255
0.18525 -0.47511 1.50117 255 255 255
0.24411 -0.47511 1.50117 255 255 255
-0.35903 -0.52097 1.33956 168 197 255
-0.38647 -0.49256 1.33956 168 197 255
0.38647 -0.49256 1.33956 168 197 255
0.35903 -0.52097 1.33956 168 197 255
0.38558 -0.46321 1.33956 168 197 255
-0.38558 -0.46321 1.33956 168 197 255
0.30159 0.50819 0.3799 126 193 86
0.36049 0.45046 0.34394 126 193 86
0.36049 0.45046 0.50425 126 193 86
0.30159 0.50819 0.50425 126 193 86
0.30045 0.45046 0.28849 126 193 86
0.271 0.50819 0.34524 126 193 86
0.20704 0.50819 0.44883 126 193 86
0.20704 0.50819 0.50425 126 193 86
0.36049 0.14408 0.50425 126 193 86
0.36049 0.14408 0.34394 126 193 86
0.30045 0.14408 0.28849 126 193 86
0.02879 0.45046 0.28849 126 193 86
0.02879 0.14408 0.28849 126 193 86
-0.02879 0.45046 0.28849 126 193 86
0.02879 0.50819 0.34524 126 193 86
-0.02879 0.50819 0.34524 126 193 86
-0.30004 0.45046 0.28849 126 193 86
-0.27059 0.50819 0.34524 126 193 86
-0.02879 0.50819 0.44883 126 193 86
0.02879 0.50819 0.44883 126 193 86
-0.02879 0.14408 0.28849 126 193 86
-0.30004 0.14408 0.28849 126 193 86
-0.36049 0.45046 0.34394 126 193 86
-0.36049 0.14408 0.34394 126 193 86
-0.36049 0.45046 0.50425 126 193 86
-0.30159 0.50819 0.3799 126 193 86
-0.30159 0.50819 0.50425 126 193 86
-0.20704 0.50819 0.44883 126 193 86
-0.20704 0.50819 0.50425 126 193 86
-0.36049 0.14408 0.50425 126 193 86
0.30159 0.50819 0.81017 126 193 86
0.36049 0.45046 0.81017 126 193 86
0.36049 0.45046 0.97853 126 193 86
0.30159 0.50819 0.93424 126 193 86
0.20704 0.50819 0.86642 126 193 86
0.20704 0.50819 0.81017 126 193 86
0.36049 0.14408 0.97853 126 193 86
0.36049 0.14408 0.81017 126 193 86
0.26604 0.50819 0.97851 126 193 86
0.02879 0.50819 0.86642 126 193 86
0.02879 0.50819 0.97851 126 193 86
0.30159 0.50819 0.74153 108 166 74
0.36049 0.45046 0.74153 108 166 74
0.36049 0.45046 0.81017 108 166 74
0.30159 0.50819 0.81017 108 166 74
0.20704 0.50819 0.81017 108 166 74
0.20704 0.50819 0.74153 108 166 74
0.15411 0.50819 0.81004 108 166 74
0.20704 0.50819 0.86642 108 166 74
0.20704 0.50819 0.56213 108 166 74
0.15411 0.50819 0.50399 108 166 74
0.20704 0.50819 0.50425 108 166 74
0.30159 0.50819 0.50425 108 166 74
0.30159 0.50819 0.56213 108 166 74
0.36049 0.45046 0.56213 108 166 74
0.36049 0.45046 0.50425 108 166 74
0.20704 0.50819 0.44883 108 166 74
0.02879 0.50819 0.44883 108 166 74
0.02879 0.50819 0.86642 108 166 74
-0.02879 0.50819 0.86642 108 166 74
-0.02879 0.50819 0.97851 108 166 74
0.02879 0.50819 0.97851 108 166 74
-0.15411 0.50819 0.81004 108 166 74
-0.20704 0.50819 0.86642 108 166 74
-0.20704 0.50819 0.81017 108 166 74
-0.20704 0.50819 0.74153 108 166 74
-0.30159 0.50819 0.74153 108 166 74
-0.30159 0.50819 0.81017 108 166 74
-0.36049 0.45046 0.81017 108 166 74
-0.36049 0.45046 0.74153 108 166 74
-0.20704 0.50819 0.56213 108 166 74
-0.15411 0.50819 0.50399 108 166 74
-0.20704 0.50819 0.50425 108 166 74
-0.30159 0.50819 0.50425 108 166 74
-0.30159 0.50819 0.56213 108 166 74
-0.36049 0.45046 0.56213 108 166 74
-0.36049 0.45046 0.50425 108 166 74
-0.20704 0.50819 0.44883 108 166 74
-0.02879 0.50819 0.44883 108 166 74
-0.36049 0.14408 0.74153 108 166 74
-0.36049 0.14408 0.81017 108 166 74
-0.36049 0.14408 0.50425 108 166 74
-0.36049 0.14408 0.56213 108 166 74
0.30159 0.50819 0.56213 126 193 86
0.36049 0.45046 0.56213 126 193 86
0.36049 0.45046 0.74153 126 193 86
0.30159 0.50819 0.74153 126 193 86
0.20704 0.50819 0.74153 126 193 86
0.20704 0.50819 0.56213 126 193 86
0.36049 0.14408 0.74153 126 193 86
0.36049 0.14408 0.56213 126 193 86
0.36049 0.14408 0.97853 132 202 90
0.29549 0.14408 1.0323 132 202 90
0.29549 0.45046 1.0323 132 202 90
0.36049 0.45046 0.97853 132 202 90
0.26604 0.50819 0.97851 132 202 90
0.02879 0.45046 1.0323 132 202 90
0.02879 0.50819 0.97851 132 202 90
0.02879 0.14408 1.0323 132 202 90
-0.02879 0.14408 1.0323 108 166 74
-0.02879 0.45046 1.0323 108 166 74
0.02879 0.45046 1.0323 108 166 74
0.02879 0.14408 1.0323 108 166 74
0.15411 0.50819 0.81004 126 193 86
-0.15411 0.50819 0.81004 126 193 86
-0.15411 0.50819 0.50399 126 193 86
0.15411 0.50819 0.50399 126 193 86
-0.30159 0.50819 0.81017 126 193 86
-0.30159 0.50819 0.93424 126 193 86
-0.36049 0.45046 0.97853 126 193 86
-0.36049 0.45046 0.81017 126 193 86
-0.20704 0.50819 0.86642 126 193 86
-0.20704 0.50819 0.81017 126 193 86
-0.2722 0.50819 0.97851 126 193 86
-0.36049 0.14408 0.81017 126 193 86
-0.36049 0.14408 0.97853 126 193 86
-0.02879 0.50819 0.97851 126 193 86
-0.02879 0.50819 0.86642 126 193 86
-0.30159 0.50819 0.56213 126 193 86
-0.30159 0.50819 0.74153 126 193 86
-0.36049 0.45046 0.74153 126 193 86
-0.36049 0.45046 0.56213 126 193 86
-0.20704 0.50819 0.74153 126 193 86
-0.20704 0.50819 0.56213 126 193 86
-0.36049 0.14408 0.56213 126 193 86
-0.36049 0.14408 0.74153 126 193 86
-0.30165 0.45046 1.0323 132 202 90
-0.02879 0.45046 1.0323 132 202 90
-0.02879 0.14408 1.0323 132 202 90
-0.30165 0.14408 1.0323 132 202 90
-0.2722 0.50819 0.97851 132 202 90
-0.02879 0.50819 0.97851 132 202 90
-0.36049 0.45046 0.97853 132 202 90
-0.36049 0.14408 0.97853 132 202 90
0.36049 0.14408 0.74153 108 166 74
0.36049 0.14408 0.81017 108 166 74
0.36049 0.14408 0.50425 108 166 74
0.36049 0.14408 0.56213 108 166 74
-0.11477 -0.13067 0.26299 159 192 255
-0.11477 0.54915 0.26378 159 192 255
0.11477 0.54915 0.26378 159 192 255
0.11477 -0.13067 0.26299 159 192 255
0.11477 -0.13067 0.11435 159 192 255
-0.11477 -0.13067 0.11435 159 192 255
-0.11477 -0.08058 0.0724 159 192 255
0.11477 -0.08058 0.0724 159 192 255
0.11477 0.73152 0.13482 159 192 255
0.11477 0.73152 0.35318 159 192 255
0.11477 0.54915 0.44114 159 192 255
-0.11477 0.54915 0.44114 159 192 255
-0.11477 0.73152 0.35318 159 192 255
-0.11477 0.606 0.49079 159 192 255
-0.11477 0.73152 0.13482 159 192 255
-0.11477 0.91471 0.0724 159 192 255
0.11477 0.91471 0.0724 159 192 255
0.11477 0.97423 0.13482 159 192 255
-0.11477 0.97423 0.13482 159 192 255
0.11477 0.606 0.49079 159 192 255
0.11477 0.78958 0.35318 159 192 255
0.11477 0.91471 0.49079 159 192 255
0.11477 0.97423 0.43782 159 192 255
0.11477 0.97423 0.19414 159 192 255
-0.11477 0.97423 0.43782 159 192 255
-0.11477 0.97423 0.19414 159 192 255
-0.11477 0.78958 0.35318 159 192 255
-0.11477 0.78958 0.19414 159 192 255
0.11477 0.78958 0.19414 159 192 255
-0.11477 0.91471 0.49079 159 192 255
-0.11477 0.54915 0.44114 168 197 255
-0.11477 0.606 0.49079 168 197 255
0.11477 0.606 0.49079 168 197 255
0.11477 0.54915 0.44114 168 197 255
0.11477 0.91471 0.49079 168 197 255
-0.11477 0.91471 0.49079 168 197 255
-0.11477 0.97423 0.43782 168 197 255
0.11477 0.97423 0.43782 168 197 255
0.11477 0.97423 0.13482 137 174 247
0.11477 0.97423 0.19414 137 174 247
-0.11477 0.97423 0.19414 137 174 247
-0.11477 0.97423 0.13482 137 174 247
0.11477 0.78958 0.19414 137 174 247
0.11477 0.73152 0.13482 137 174 247
0.11477 0.73152 0.35318 137 174 247
0.11477 0.78958 0.35318 137 174 247
-0.11477 0.78958 0.19414 137 174 247
-0.11477 0.78958 0.35318 137 174 247
-0.11477 0.73152 0.35318 137 174 247
-0.11477 0.73152 0.13482 137 174 247
-0.02053 -0.52884 1.25805 135 162 216
-0.03926 -0.52884 1.25805 135 162 216
-0.03919 -0.52884 1.28943 135 162 216
-0.0205 -0.52884 1.28943 135 162 216
-0.02053 -0.53897 1.25805 135 162 216
-0.0205 -0.53897 1.28943 135 162 216
-0.03919 -0.53897 1.28943 135 162 216
-0.03926 -0.53897 1.25805 135 162 216
0.03926 -0.52884 1.25805 135 162 216
0.02053 -0.52884 1.25805 135 162 216
0.0205 -0.52884 1.28943 135 162 216
0.03919 -0.52884 1.28943 135 162 216
0.03926 -0.53897 1.25805 135 162 216
0.03919 -0.53897 1.28943 135 162 216
0.0205 -0.53897 1.28943 135 162 216
0.02053 -0.53897 1.25805 135 162 216
0.20713 -0.25713 0.45679 168 197 255
0.20713 -0.08522 0.45679 168 197 255
0.42439 -0.08522 0.45679 168 197 255
0.42439 -0.25713 0.45679 168 197 255
0.21853 -0.01683 0.41409 159 192 255
0.21853 -0.03873 0.26582 159 192 255
0.41299 -0.03873 0.26582 159 192 255
0.41299 -0.01683 0.41409 159 192 255
0.23798 -0.04706 0.45677 159 192 255
0.39354 -0.04706 0.45677 159 192 255
0.41299 -0.03937 0.22355 159 192 255
0.21853 -0.03937 0.22355 159 192 255
0.41299 0.00206 0.08275 159 192 255
0.21853 0.00206 0.08275 159 192 255
0.41299 0.00206 7.62939E-08 159 192 255
0.21853 0.00206 7.62939E-08 159 192 255
0.45154 -0.05806 0.41407 159 192 255
0.45154 -0.08349 0.28198 159 192 255
0.17998 -0.08349 0.28198 159 192 255
0.17998 -0.05806 0.41407 159 192 255
0.20713 -0.08522 0.45679 159 192 255
0.42439 -0.08522 0.45679 159 192 255
0.45154 -0.08349 0.20496 159 192 255
0.45154 -0.04172 0.07579 159 192 255
0.17998 -0.04172 0.07579 159 192 255
0.17998 -0.08349 0.20496 159 192 255
0.45154 -0.04172 7.62939E-08 159 192 255
0.17998 -0.04172 7.62939E-08 159 192 255
0.17998 -0.26794 7.62939E-08 159 192 255
0.45154 -0.26794 7.62939E-08 159 192 255
0.45154 -0.26794 0.07579 159 192 255
0.17998 -0.26794 0.07579 159 192 255
0.45154 -0.30971 0.20496 159 192 255
0.17998 -0.30971 0.20496 159 192 255
0.45154 -0.30971 0.28198 159 192 255
0.17998 -0.30971 0.28198 159 192 255
0.45154 -0.28429 0.41407 159 192 255
0.17998 -0.28429 0.41407 159 192 255
0.42439 -0.25713 0.45679 159 192 255
0.20713 -0.25713 0.45679 159 192 255
0.43576 -0.31009 0.07579 159 192 255
0.43576 -0.31009 7.62939E-08 159 192 255
0.19627 -0.31009 7.62939E-08 159 192 255
0.19627 -0.31009 0.07579 159 192 255
0.19627 -0.31009 0.07579 168 197 255
0.17998 -0.26794 0.07579 168 197 255
0.45154 -0.26794 0.07579 168 197 255
0.43576 -0.31009 0.07579 168 197 255
-0.20713 -0.25713 0.45679 168 197 255
-0.42439 -0.25713 0.45679 168 197 255
-0.42439 -0.08522 0.45679 168 197 255
-0.20713 -0.08522 0.45679 168 197 255
-0.21853 -0.01683 0.41409 159 192 255
-0.41299 -0.01683 0.41409 159 192 255
-0.41299 -0.03873 0.26582 159 192 255
-0.21853 -0.03873 0.26582 159 192 255
-0.23798 -0.04706 0.45677 159 192 255
-0.39354 -0.04706 0.45677 159 192 255
-0.41299 -0.03937 0.22355 159 192 255
-0.21853 -0.03937 0.22355 159 192 255
-0.41299 0.00206 0.08275 159 192 255
-0.21853 0.00206 0.08275 159 192 255
-0.41299 0.00206 7.62939E-08 159 192 255
-0.21853 0.00206 7.62939E-08 159 192 255
-0.45154 -0.05806 0.41407 159 192 255
-0.45154 -0.08349 0.28198 159 192 255
-0.17998 -0.08349 0.28198 159 192 255
-0.17998 -0.05806 0.41407 159 192 255
-0.20713 -0.08522 0.45679 159 192 255
-0.42439 -0.08522 0.45679 159 192 255
-0.45154 -0.08349 0.20496 159 192 255
-0.45154 -0.04172 0.07579 159 192 255
-0.17998 -0.04172 0.07579 159 192 255
-0.17998 -0.08349 0.20496 159 192 255
-0.45154 -0.04172 7.62939E-08 159 192 255
-0.17998 -0.04172 7.62939E-08 159 192 255
-0.45154 -0.26794 7.62939E-08 159 192 255
-0.17998 -0.26794 7.62939E-08 159 192 255
-0.45154 -0.26794 0.07579 159 192 255
-0.17998 -0.26794 0.07579 159 192 255
-0.45154 -0.30971 0.20496 159 192 255
-0.17998 -0.30971 0.20496 159 192 255
-0.45154 -0.30971 0.28198 159 192 255
-0.17998 -0.30971 0.28198 159 192 255
-0.45154 -0.28429 0.41407 159 192 255
-0.17998 -0.28429 0.41407 159 192 255
-0.42439 -0.25713 0.45679 159 192 255
-0.20713 -0.25713 0.45679 159 192 255
-0.43576 -0.31009 0.07579 159 192 255
-0.43576 -0.31009 7.62939E-08 159 192 255
-0.19627 -0.31009 7.62939E-08 159 192 255
-0.19627 -0.31009 0.07579 159 192 255
-0.19627 -0.31009 0.07579 168 197 255
-0.43576 -0.31009 0.07579 168 197 255
-0.45154 -0.26794 0.07579 168 197 255
-0.17998 -0.26794 0.07579 168 197 255
0.56383 0.01038 0.95511 159 192 255
0.564 0.00998 0.70469 159 192 255
0.56388 -0.51256 0.70564 159 192 255
0.56348 -0.51239 0.95606 159 192 255
0.33655 -0.51295 0.70519 159 192 255
0.3367 0.00956 0.70449 159 192 255
0.5396 -0.547 0.72648 159 192 255
0.36091 -0.54732 0.72612 159 192 255
0.36058 -0.54718 0.93484 159 192 255
0.53927 -0.54686 0.93521 159 192 255
0.33614 -0.51279 0.95561 159 192 255
0.53387 0.04173 0.92814 159 192 255
0.36842 0.04188 0.92799 159 192 255
0.36855 0.04157 0.73126 159 192 255
0.534 0.04143 0.73141 159 192 255
0.33653 0.00997 0.95491 159 192 255
0.33653 0.00997 0.95491 168 197 255
0.56383 0.01038 0.95511 168 197 255
0.56348 -0.51239 0.95606 168 197 255
0.33614 -0.51279 0.95561 168 197 255
0.53387 0.04173 0.92814 168 197 255
0.36842 0.04188 0.92799 168 197 255
0.53927 -0.54686 0.93521 168 197 255
0.36058 -0.54718 0.93484 168 197 255
-0.56383 0.01038 0.95511 159 192 255
-0.56348 -0.51239 0.95606 159 192 255
-0.56388 -0.51256 0.70564 159 192 255
-0.564 0.00998 0.70469 159 192 255
-0.33655 -0.51295 0.70519 159 192 255
-0.3367 0.00956 0.70449 159 192 255
-0.5396 -0.547 0.72648 159 192 255
-0.36091 -0.54732 0.72612 159 192 255
-0.36058 -0.54718 0.93484 159 192 255
-0.53927 -0.54686 0.93521 159 192 255
-0.33614 -0.51279 0.95561 159 192 255
-0.53387 0.04173 0.92814 159 192 255
-0.534 0.04143 0.73141 159 192 255
-0.36855 0.04157 0.73126 159 192 255
-0.36842 0.04188 0.92799 159 192 255
-0.33653 0.00997 0.95491 159 192 255
-0.33653 0.00997 0.95491 168 197 255
-0.33614 -0.51279 0.95561 168 197 255
-0.56348 -0.51239 0.95606 168 197 255
-0.56383 0.01038 0.95511 168 197 255
-0.53387 0.04173 0.92814 168 197 255
-0.36842 0.04188 0.92799 168 197 255
-0.36058 -0.54718 0.93484 168 197 255
-0.53927 -0.54686 0.93521 168 197 255
0.22582 0.03925 0.24058 224 215 152
0.22582 -0.09321 0.24058 224 215 152
0.33741 -0.09326 0.24058 224 215 152
0.33741 0.03925 0.24058 224 215 152
0.18204 0.03925 0.24058 224 215 152
0.36965 0.03925 0.28046 224 215 152
0.36965 -0.09326 0.28046 224 215 152
0.36965 -0.09322 0.83709 224 215 152
0.36965 0.03925 0.83709 224 215 152
0.36965 0.03925 0.89347 224 215 152
0.22582 -0.15673 0.24058 224 215 152
0.18204 -0.33269 0.24058 224 215 152
-0.18204 -0.33269 0.24058 224 215 152
-0.18204 0.03925 0.24058 224 215 152
0.18204 -0.37241 0.28046 224 215 152
-0.18204 -0.37241 0.28046 224 215 152
0.18204 -0.37241 0.30233 224 215 152
-0.18204 -0.37241 0.30233 224 215 152
-0.22582 -0.15673 0.24058 224 215 152
-0.22582 -0.09321 0.24058 224 215 152
-0.22582 0.03925 0.24058 224 215 152
-0.33741 -0.09326 0.24058 224 215 152
-0.33741 0.03925 0.24058 224 215 152
-0.36965 0.03925 0.28046 224 215 152
-0.36965 -0.09326 0.28046 224 215 152
-0.36965 -0.09322 0.83709 224 215 152
-0.36965 0.03925 0.83709 224 215 152
-0.36965 0.03925 0.89347 224 215 152
-0.36965 -0.33269 0.89347 224 215 152
-0.36965 0.03925 1.10765 224 215 152
-0.36965 -0.33269 1.10765 224 215 152
-0.33658 -0.37241 1.10765 224 215 152
-0.33658 -0.37241 0.89347 224 215 152
-0.02967 -0.37241 0.89347 224 215 152
0.02967 -0.37241 0.89347 224 215 152
0.33658 -0.37241 1.10765 224 215 152
0.33658 -0.37241 0.89347 224 215 152
0.36965 -0.33269 0.89347 224 215 152
0.36965 -0.33269 1.10765 224 215 152
0.36965 0.03925 1.10765 224 215 152
0.35783 0.17477 0.22244 227 240 247
0 0.03925 0.22244 227 240 247
0.35783 0.03925 0.22244 227 240 247
0.39499 0.17477 0.25921 227 240 247
0.39499 0.03925 0.25921 227 240 247
0.39499 0.03925 1.12092 227 240 247
0.39499 0.17477 1.12092 227 240 247
0.36965 0.03925 0.28046 227 240 247
0.33741 0.03925 0.24058 227 240 247
0.22582 0.03925 0.24058 227 240 247
0.36965 0.03925 0.83709 227 240 247
0.36965 0.03925 0.89347 227 240 247
0.36965 0.03925 1.10765 227 240 247
0.18204 0.03925 0.24058 227 240 247
-0.18204 0.03925 0.24058 227 240 247
-0.35783 0.03925 0.22244 227 240 247
-0.22582 0.03925 0.24058 227 240 247
-0.33741 0.03925 0.24058 227 240 247
-0.36965 0.03925 0.28046 227 240 247
-0.39499 0.03925 0.25921 227 240 247
-0.36965 0.03925 0.83709 227 240 247
-0.39499 0.03925 1.12092 227 240 247
-0.36965 0.03925 0.89347 227 240 247
-0.36965 0.03925 1.10765 227 240 247
-0.35783 0.17477 0.22244 227 240 247
-0.39499 0.17477 1.12092 227 240 247
-0.39499 0.17477 0.25921 227 240 247
0.33658 -0.37241 0.89347 193 182 105
0.33658 -0.37241 0.83709 193 182 105
0.02967 -0.37241 0.83709 193 182 105
0.02967 -0.37241 0.89347 193 182 105
-0.02967 -0.37241 0.89347 193 182 105
-0.02967 -0.37241 0.83709 193 182 105
0.02967 -0.37241 0.59771 193 182 105
-0.02967 -0.37241 0.59771 193 182 105
0.02967 -0.37241 0.55158 193 182 105
0.33658 -0.37241 0.59771 193 182 105
0.33658 -0.37241 0.55158 193 182 105
-0.02967 -0.37241 0.55158 193 182 105
0.02967 -0.37241 0.34488 193 182 105
-0.02967 -0.37241 0.34488 193 182 105
0.36965 -0.33269 0.55158 193 182 105
0.36965 -0.33269 0.59771 193 182 105
0.36965 -0.15664 0.59771 193 182 105
0.36965 -0.15658 0.55158 193 182 105
0.36965 -0.09322 0.83709 193 182 105
0.36965 -0.15652 0.83709 193 182 105
0.36965 -0.09326 0.28046 193 182 105
0.36965 -0.15669 0.28046 193 182 105
-0.33658 -0.37241 0.59771 193 182 105
-0.33658 -0.37241 0.55158 193 182 105
-0.36965 -0.33269 0.55158 193 182 105
-0.36965 -0.33269 0.59771 193 182 105
-0.36965 -0.15664 0.59771 193 182 105
-0.36965 -0.15658 0.55158 193 182 105
-0.36965 -0.09322 0.83709 193 182 105
-0.36965 -0.15652 0.83709 193 182 105
-0.36965 -0.09326 0.28046 193 182 105
-0.36965 -0.15669 0.28046 193 182 105
0.36965 -0.33269 0.83709 159 192 255
0.36965 -0.33269 0.89347 159 192 255
0.36965 -0.15652 0.83709 159 192 255
0.36965 -0.09322 0.83709 159 192 255
0.36965 0.03925 0.89347 159 192 255
0.33658 -0.37241 0.89347 159 192 255
0.33658 -0.37241 0.83709 159 192 255
0.33658 -0.37241 0.83709 224 215 152
0.33658 -0.37241 0.59771 224 215 152
0.02967 -0.37241 0.59771 224 215 152
0.02967 -0.37241 0.83709 224 215 152
0.36965 -0.33269 0.59771 224 215 152
0.36965 -0.33269 0.83709 224 215 152
0.36965 -0.15652 0.83709 224 215 152
0.36965 -0.15664 0.59771 224 215 152
0.33658 -0.37241 0.55158 224 215 152
0.02967 -0.37241 0.34488 224 215 152
0.02967 -0.37241 0.55158 224 215 152
0.22582 -0.37241 0.3452 224 215 152
0.33658 -0.37241 0.28046 224 215 152
0.36965 -0.33269 0.28046 224 215 152
0.36965 -0.33269 0.55158 224 215 152
0.36965 -0.15669 0.28046 224 215 152
0.33741 -0.33269 0.24058 224 215 152
0.33741 -0.15663 0.24058 224 215 152
0.22582 -0.33269 0.24058 224 215 152
0.22582 -0.37241 0.28046 224 215 152
0.36965 -0.15658 0.55158 224 215 152
0.18204 -0.37241 0.30233 193 182 105
0.22582 -0.37241 0.3452 193 182 105
0.18204 -0.37241 0.28046 193 182 105
0.22582 -0.37241 0.28046 193 182 105
0.18204 -0.33269 0.24058 193 182 105
0.22582 -0.33269 0.24058 193 182 105
0.22582 -0.15673 0.24058 193 182 105
-0.18204 -0.37241 0.30233 193 182 105
-0.22582 -0.37241 0.3452 193 182 105
-0.18204 -0.37241 0.28046 193 182 105
-0.22582 -0.37241 0.28046 193 182 105
-0.18204 -0.33269 0.24058 193 182 105
-0.22582 -0.33269 0.24058 193 182 105
-0.22582 -0.15673 0.24058 193 182 105
0.36965 -0.09326 0.28046 159 192 255
0.33741 -0.09326 0.24058 159 192 255
0.33741 -0.15663 0.24058 159 192 255
0.36965 -0.15669 0.28046 159 192 255
0.22582 -0.15673 0.24058 159 192 255
0.22582 -0.09321 0.24058 159 192 255
-0.33658 -0.37241 0.89347 193 182 105
-0.33658 -0.37241 0.83709 193 182 105
-0.36965 -0.33269 0.83709 159 192 255
-0.36965 -0.15652 0.83709 159 192 255
-0.36965 -0.33269 0.89347 159 192 255
-0.36965 -0.09322 0.83709 159 192 255
-0.36965 0.03925 0.89347 159 192 255
-0.33658 -0.37241 0.89347 159 192 255
-0.33658 -0.37241 0.83709 159 192 255
-0.33658 -0.37241 0.83709 224 215 152
-0.02967 -0.37241 0.83709 224 215 152
-0.02967 -0.37241 0.59771 224 215 152
-0.33658 -0.37241 0.59771 224 215 152
-0.36965 -0.33269 0.59771 224 215 152
-0.36965 -0.33269 0.83709 224 215 152
-0.36965 -0.15652 0.83709 224 215 152
-0.36965 -0.15664 0.59771 224 215 152
-0.33658 -0.37241 0.55158 224 215 152
-0.02967 -0.37241 0.55158 224 215 152
-0.02967 -0.37241 0.34488 224 215 152
-0.22582 -0.37241 0.3452 224 215 152
-0.33658 -0.37241 0.28046 224 215 152
-0.36965 -0.33269 0.28046 224 215 152
-0.36965 -0.33269 0.55158 224 215 152
-0.36965 -0.15669 0.28046 224 215 152
-0.33741 -0.33269 0.24058 224 215 152
-0.33741 -0.15663 0.24058 224 215 152
-0.22582 -0.33269 0.24058 224 215 152
-0.22582 -0.37241 0.28046 224 215 152
-0.36965 -0.15658 0.55158 224 215 152
-0.36965 -0.09326 0.28046 159 192 255
-0.36965 -0.15669 0.28046 159 192 255
-0.33741 -0.15663 0.24058 159 192 255
-0.33741 -0.09326 0.24058 159 192 255
-0.22582 -0.15673 0.24058 159 192 255
-0.22582 -0.09321 0.24058 159 192 255
3 0 2 1
3 1 3 0
3 2 0 3
3 1 4 3
3 2 5 1
3 5 4 1
3 2 3 6
3 6 7 2
3 7 5 2
3 6 8 7
3 7 8 9
3 7 9 10
3 10 11 7
3 11 10 9
3 11 9 12
3 13 11 12
3 13 14 11
3 7 11 14
3 5 14 13
3 7 14 5
3 5 15 4
3 5 13 15
3 16 18 17
3 16 19 18
3 16 20 19
3 16 21 20
3 17 22 16
3 17 23 22
3 24 23 17
3 24 17 25
3 18 19 26
3 18 26 27
3 21 16 28
3 22 28 16
3 21 28 29
3 30 25 17
3 30 17 18
3 22 23 31
3 22 31 32
3 22 32 28
3 28 33 29
3 28 34 33
3 28 35 34
3 28 36 35
3 36 32 31
3 36 28 32
3 37 36 31
3 37 38 36
3 35 39 34
3 35 40 39
3 41 36 38
3 41 35 36
3 34 42 33
3 39 43 34
3 44 34 43
3 44 42 34
3 44 43 45
3 46 45 43
3 46 43 47
3 46 47 48
3 46 49 45
3 50 46 48
3 50 48 51
3 26 43 39
3 19 43 26
3 52 43 19
3 52 47 43
3 52 19 53
3 52 53 51
3 50 51 53
3 53 19 20
3 44 54 42
3 54 55 42
3 49 55 54
3 46 55 49
3 50 55 46
3 56 58 57
3 56 59 58
3 59 60 58
3 59 61 60
3 56 61 59
3 56 62 61
3 62 60 61
3 62 63 60
3 64 65 25
3 64 66 65
3 64 67 66
3 64 68 67
3 69 68 64
3 69 70 68
3 65 24 25
3 65 71 24
3 30 64 25
3 30 69 64
3 71 65 72
3 66 72 65
3 71 72 73
3 24 71 73
3 24 73 37
3 72 37 73
3 23 24 37
3 23 37 31
3 66 74 72
3 67 74 66
3 75 72 74
3 75 38 72
3 72 38 37
3 75 74 76
3 67 76 74
3 75 76 77
3 78 75 77
3 78 77 79
3 41 75 78
3 41 38 75
3 80 70 69
3 80 81 70
3 82 80 69
3 82 69 30
3 82 83 80
3 82 84 83
3 80 85 81
3 80 83 85
3 83 79 85
3 83 78 79
3 84 78 83
3 84 41 78
3 86 88 87
3 86 89 88
3 90 89 86
3 91 89 90
3 89 91 92
3 88 89 92
3 88 93 87
3 88 94 93
3 94 88 95
3 88 92 95
3 94 95 96
3 97 91 90
3 97 90 98
3 99 97 98
3 99 98 100
3 101 103 102
3 101 104 103
3 104 105 103
3 104 106 105
3 107 109 108
3 107 110 109
3 108 109 111
3 108 111 112
3 113 110 107
3 113 107 114
3 115 117 116
3 115 118 117
3 116 117 119
3 116 119 120
3 121 118 115
3 121 115 122
3 123 125 124
3 123 126 125
3 126 127 125
3 124 125 127
3 126 128 127
3 129 123 124
3 129 126 123
3 129 128 126
3 129 124 130
3 124 127 130
3 30 27 82
3 30 18 27
3 131 133 132
3 131 134 133
3 132 133 135
3 132 135 136
3 137 134 131
3 137 138 134
3 139 141 140
3 139 142 141
3 140 143 139
3 144 143 140
3 141 144 140
3 143 144 145
3 141 142 146
3 141 146 147
3 147 148 141
3 141 148 144
3 147 149 148
3 150 143 145
3 150 151 143
3 152 151 150
3 152 153 151
3 154 156 155
3 154 157 156
3 155 156 158
3 155 158 159
3 160 162 161
3 160 163 162
3 163 164 162
3 163 165 164
3 166 160 161
3 166 167 160
3 168 170 169
3 168 171 170
3 171 172 170
3 171 173 172
3 174 168 169
3 174 175 168
3 176 178 177
3 176 179 178
3 177 178 180
3 179 180 178
3 177 180 181
3 182 179 176
3 182 177 181
3 182 176 177
3 182 183 179
3 179 183 180
3 184 186 185
3 184 187 186
3 185 186 188
3 185 188 189
3 41 40 35
3 41 84 40
3 190 192 191
3 190 193 192
3 190 191 194
3 190 194 195
3 196 190 195
3 196 193 190
3 196 197 193
3 191 192 198
3 191 198 199
3 200 191 199
3 200 194 191
3 201 194 200
3 195 194 201
3 201 200 202
3 203 201 202
3 204 201 203
3 195 201 204
3 196 195 204
3 204 203 205
3 206 205 203
3 206 207 205
3 204 205 208
3 204 208 209
3 196 204 209
3 203 202 210
3 211 203 210
3 211 206 203
3 212 206 211
3 212 211 213
3 214 212 213
3 215 212 214
3 215 206 212
3 215 207 206
3 215 214 216
3 217 207 215
3 217 215 216
3 217 205 207
3 217 208 205
3 217 216 218
3 214 213 219
3 220 222 221
3 220 223 222
3 220 224 223
3 220 225 224
3 221 222 226
3 221 226 227
3 223 224 228
3 228 222 223
3 228 224 229
3 228 229 230
3 231 233 232
3 231 234 233
3 235 234 231
3 235 231 236
3 237 235 236
3 238 235 237
3 237 236 239
3 237 239 240
3 239 241 240
3 239 242 241
3 239 243 242
3 242 243 244
3 242 244 245
3 240 241 246
3 240 246 247
3 237 248 238
3 237 249 248
3 248 249 250
3 248 250 251
3 237 252 249
3 249 252 253
3 253 252 254
3 252 255 254
3 254 255 256
3 254 256 257
3 256 258 257
3 256 259 258
3 252 260 255
3 252 261 260
3 260 261 262
3 260 262 263
3 260 263 264
3 263 265 264
3 263 266 265
3 261 267 262
3 261 268 267
3 240 268 261
3 240 247 268
3 258 259 269
3 258 269 270
3 265 266 271
3 265 271 272
3 273 275 274
3 273 276 275
3 277 276 273
3 277 273 278
3 274 275 279
3 274 279 280
3 281 283 282
3 281 284 283
3 285 283 284
3 286 283 285
3 282 283 286
3 286 285 287
3 282 286 288
3 289 291 290
3 289 292 291
3 290 291 251
3 290 251 250
3 293 295 294
3 293 296 295
3 297 299 298
3 297 300 299
3 297 298 301
3 297 301 302
3 298 303 301
3 299 303 298
3 299 300 304
3 299 304 305
3 301 303 306
3 301 306 307
3 308 310 309
3 308 311 310
3 312 308 309
3 312 313 308
3 310 311 314
3 310 314 315
3 316 318 317
3 316 319 318
3 320 316 317
3 320 317 321
3 322 316 320
3 323 316 322
3 323 319 316
3 232 325 324
3 232 233 325
3 245 327 326
3 245 244 327
3 328 330 329
3 328 331 330
3 331 332 330
3 331 333 332
3 331 328 333
3 332 333 334
3 332 334 335
3 330 332 335
3 336 330 335
3 337 330 336
3 337 338 330
3 329 330 338
3 329 338 339
3 329 339 340
3 341 340 339
3 329 340 342
3 342 334 329
3 333 329 334
3 335 334 343
3 342 343 334
3 335 343 344
3 336 335 344
3 336 344 345
3 344 346 345
3 344 343 346
3 342 346 343
3 337 347 338
3 348 347 337
3 348 349 347
3 348 350 349
3 348 351 350
3 351 352 350
3 351 353 352
3 354 352 353
3 355 354 353
3 356 351 348
3 354 357 352
3 354 341 357
3 354 340 341
3 358 360 359
3 358 361 360
3 359 360 362
3 359 362 363
3 363 365 364
3 363 362 365
3 366 368 367
3 366 369 368
3 370 366 367
3 370 371 366
3 370 372 371
3 370 373 372
3 374 376 375
3 374 377 376
3 377 374 368
3 377 368 369
3 328 329 333
3 378 380 379
3 378 381 380
3 382 381 378
3 382 383 381
3 383 380 381
3 383 384 380
3 384 379 380
3 384 385 379
3 385 378 379
3 385 382 378
3 386 388 387
3 386 389 388
3 390 389 386
3 390 391 389
3 391 388 389
3 391 392 388
3 392 387 388
3 392 393 387
3 393 386 387
3 393 390 386
3 394 396 395
3 394 397 396
3 398 400 399
3 398 401 400
3 401 398 402
3 401 402 403
3 399 400 404
3 399 404 405
3 405 404 406
3 405 406 407
3 407 406 408
3 407 408 409
3 410 400 401
3 410 411 400
3 411 404 400
3 412 398 399
3 412 413 398
3 413 402 398
3 413 414 402
3 414 403 402
3 414 415 403
3 415 401 403
3 415 410 401
3 411 416 404
3 416 406 404
3 416 417 406
3 417 408 406
3 418 405 407
3 418 419 405
3 419 399 405
3 419 412 399
3 417 420 408
3 420 409 408
3 420 421 409
3 421 407 409
3 421 418 407
3 421 423 422
3 421 420 423
3 423 420 417
3 423 417 424
3 421 422 425
3 421 425 418
3 426 425 424
3 426 427 425
3 418 425 427
3 427 426 428
3 427 428 429
3 429 428 430
3 429 430 431
3 431 430 432
3 431 432 433
3 430 415 432
3 430 410 415
3 428 410 430
3 413 431 433
3 413 433 414
3 428 411 410
3 426 411 428
3 412 431 413
3 412 429 431
3 426 416 411
3 419 429 412
3 419 427 429
3 424 416 426
3 424 417 416
3 418 427 419
3 423 424 434
3 423 434 435
3 436 435 434
3 436 423 435
3 436 434 437
3 425 436 437
3 425 422 436
3 436 422 423
3 438 440 439
3 438 441 440
3 442 444 443
3 442 445 444
3 446 448 447
3 446 449 448
3 447 450 446
3 447 451 450
3 449 452 448
3 449 453 452
3 453 454 452
3 453 455 454
3 455 456 454
3 455 457 456
3 458 447 448
3 458 448 459
3 459 448 452
3 460 449 446
3 460 446 461
3 461 446 450
3 461 450 462
3 462 450 451
3 462 451 463
3 463 447 458
3 463 451 447
3 459 452 464
3 464 452 454
3 464 454 465
3 465 454 456
3 466 455 453
3 466 453 467
3 467 449 460
3 467 453 449
3 465 456 468
3 468 456 457
3 468 457 469
3 469 455 466
3 469 457 455
3 469 470 468
3 469 471 470
3 470 465 468
3 470 472 465
3 469 473 471
3 469 466 473
3 474 472 473
3 474 473 475
3 466 475 473
3 475 476 474
3 475 477 476
3 477 478 476
3 477 479 478
3 479 480 478
3 479 481 480
3 478 480 463
3 478 463 458
3 476 478 458
3 461 481 479
3 461 462 481
3 476 458 459
3 474 476 459
3 460 479 477
3 460 461 479
3 474 459 464
3 467 477 475
3 467 460 477
3 472 474 464
3 472 464 465
3 466 467 475
3 470 482 472
3 470 483 482
3 484 482 483
3 484 483 470
3 484 485 482
3 473 485 484
3 473 484 471
3 484 470 471
3 486 488 487
3 486 489 488
3 490 492 491
3 490 493 492
3 491 492 494
3 491 494 495
3 494 492 496
3 494 496 497
3 498 497 496
3 498 496 499
3 492 499 496
3 492 493 499
3 500 497 498
3 500 494 497
3 501 503 502
3 501 504 503
3 490 504 501
3 490 491 504
3 491 503 504
3 491 495 503
3 495 502 503
3 495 505 502
3 505 495 494
3 505 494 500
3 506 508 507
3 506 509 508
3 506 507 510
3 506 510 511
3 508 513 512
3 508 509 513
3 514 516 515
3 514 517 516
3 517 518 516
3 517 519 518
3 518 520 516
3 518 521 520
3 522 520 521
3 522 523 520
3 516 523 515
3 516 520 523
3 524 521 518
3 524 522 521
3 525 527 526
3 525 528 527
3 514 525 526
3 514 526 517
3 517 526 527
3 517 527 519
3 519 527 528
3 519 528 529
3 529 518 519
3 529 524 518
3 530 532 531
3 530 533 532
3 530 534 533
3 530 535 534
3 532 536 531
3 532 537 536
3 538 540 539
3 538 541 540
3 542 538 539
3 540 541 543
3 540 543 544
3 543 545 544
3 543 546 545
3 547 545 546
3 542 539 548
3 542 548 549
3 542 549 550
3 542 550 551
3 552 550 549
3 552 553 550
3 554 553 552
3 554 555 553
3 551 550 556
3 551 556 557
3 551 557 558
3 558 557 559
3 558 559 560
3 559 561 560
3 559 562 561
3 561 562 563
3 561 563 564
3 565 564 563
3 566 567 565
3 566 568 567
3 566 569 568
3 566 570 569
3 569 570 571
3 572 569 571
3 572 573 569
3 573 572 574
3 575 573 574
3 575 576 573
3 575 577 576
3 575 547 577
3 578 580 579
3 581 580 578
3 581 582 580
3 583 582 581
3 583 581 584
3 580 582 585
3 580 585 586
3 586 587 580
3 583 588 582
3 582 588 585
3 583 589 588
3 590 589 583
3 591 580 587
3 591 579 580
3 591 592 579
3 592 593 579
3 592 594 593
3 595 593 594
3 593 595 596
3 593 596 597
3 597 596 598
3 599 597 598
3 599 598 600
3 601 599 600
3 602 579 593
3 603 581 604
3 603 584 581
3 599 603 604
3 599 604 597
3 604 593 597
3 604 602 593
3 578 604 581
3 578 602 604
3 578 579 602
3 605 607 606
3 605 608 607
3 607 608 609
3 607 609 610
3 611 607 610
3 611 610 612
3 613 611 612
3 614 611 613
3 614 613 615
3 613 612 616
3 617 613 616
3 617 616 618
3 619 614 615
3 619 620 614
3 619 621 620
3 619 622 621
3 622 623 621
3 621 623 624
3 622 625 623
3 622 626 625
3 627 616 612
3 627 628 616
3 629 628 627
3 629 627 630
3 629 630 631
3 629 631 632
3 632 631 633
3 631 634 633
3 632 633 635
3 632 635 636
3 637 639 638
3 638 639 640
3 638 640 641
3 637 638 642
3 637 642 643
3 644 646 645
3 644 647 646
3 648 644 645
3 648 649 644
3 648 650 649
3 648 651 650
3 652 654 653
3 652 653 655
3 652 655 656
3 657 652 656
3 657 658 652
3 658 657 659
3 659 657 660
3 660 657 656
3 659 660 661
3 662 660 656
3 662 656 663
3 656 655 663
3 658 659 664
3 660 548 661
3 660 662 548
3 665 666 617
3 667 666 665
3 667 668 666
3 669 668 667
3 669 670 668
3 669 671 670
3 665 617 618
3 665 618 672
3 672 618 673
3 674 672 673
3 674 673 675
3 676 674 675
3 676 675 677
3 676 677 678
3 679 681 680
3 679 682 681
3 680 681 683
3 680 683 684
3 685 610 609
3 685 686 610
3 687 689 688
3 689 690 688
3 689 691 690
3 687 692 689
3 687 693 692
3 694 696 695
3 694 697 696
3 698 697 694
3 698 694 699
3 698 699 700
3 698 700 701
3 702 704 703
3 702 705 704
3 702 706 705
3 707 706 702
3 707 702 708
3 708 709 707
3 709 710 707
3 710 706 707
3 709 711 710
3 712 706 710
3 712 713 706
3 706 713 705
3 708 714 709
3 710 556 712
3 710 711 556
3 715 717 716
3 715 718 717
3 718 719 717
3 718 720 719
