ply
format ascii 1.0
element vertex 547
property float x
property float y
property float z
property uchar red
property uchar green
property uchar blue
element face 612
property list uchar int vertex_index
end_header
0.30501 -0.81943 0.96318 162 78 84
0.305 -0.81943 1.07834 162 78 84
0.305 -0.81041 1.07834 162 78 84
0.30501 -0.81041 0.96318 162 78 84
0.24094 -0.81943 0.96315 162 78 84
0.24094 -0.81943 1.02974 162 78 84
0.30502 -0.81943 0.92652 162 78 84
0.30502 -0.81041 0.92652 162 78 84
0.20984 -0.81943 0.96315 184 89 96
0.24094 -0.81943 0.96315 184 89 96
0.30502 -0.81943 0.92652 184 89 96
0.20983 -0.81943 0.92652 184 89 96
0.30501 -0.81943 0.96318 184 89 96
0.20984 -0.81943 0.96315 255 246 255
0.20057 -0.81943 0.96315 255 246 255
0.2006 -0.81943 0.99928 255 246 255
0.24094 -0.81943 1.02974 255 246 255
0.24094 -0.81943 0.96315 255 246 255
0.20057 -0.81943 0.96315 162 78 84
0.10259 -0.81943 0.92652 162 78 84
0.2006 -0.81943 0.99928 162 78 84
0.20983 -0.81943 0.92652 162 78 84
0.20984 -0.81943 0.96315 162 78 84
0.33545 0.4259 0.13327 229 215 187
0.36705 0.45623 0.13327 229 215 187
0.36705 0.45623 0.01056 229 215 187
0.33545 0.4259 0.01056 229 215 187
0.36758 0.51539 0.01056 229 215 187
0.36758 0.51539 0.13327 229 215 187
0.36758 0.74899 0.13327 229 215 187
0.36758 0.74899 0.01056 229 215 187
0.12739 0.74899 0.01056 229 215 187
0.12739 0.51539 0.01056 229 215 187
0.12739 0.51539 0.13327 229 215 187
0.12739 0.74899 0.13327 229 215 187
0.12749 0.45623 0.01056 229 215 187
0.15574 0.4259 0.01056 229 215 187
0.15574 0.4259 0.13327 229 215 187
0.12749 0.45623 0.13327 229 215 187
0.17208 0.79984 0.36227 171 139 189
0.17208 0.79984 0.13327 171 139 189
0.32289 0.79984 0.13327 171 139 189
0.32289 0.79984 0.36227 171 139 189
0.36758 0.74899 0.36227 171 139 189
0.36758 0.74899 0.13327 171 139 189
0.12739 0.74899 0.13327 171 139 189
0.12739 0.74899 0.36227 171 139 189
0.12739 0.51539 0.36227 171 139 189
0.36758 0.51539 0.36227 171 139 189
0.36758 0.51539 0.13327 171 139 189
0.12739 0.51539 0.13327 171 139 189
0.17208 0.79984 0.13327 229 215 187
0.17208 0.79984 0.01056 229 215 187
0.32289 0.79984 0.01056 229 215 187
0.32289 0.79984 0.13327 229 215 187
0.33545 0.4259 0.13327 235 221 192
0.15574 0.4259 0.13327 235 221 192
0.12749 0.45623 0.13327 235 221 192
0.36705 0.45623 0.13327 235 221 192
0.36758 0.51539 0.13327 235 221 192
0.12739 0.51539 0.13327 235 221 192
0.33545 -0.41126 0.13327 229 215 187
0.36705 -0.38092 0.13327 229 215 187
0.36705 -0.38092 0.01056 229 215 187
0.33545 -0.41126 0.01056 229 215 187
0.36758 -0.32176 0.01056 229 215 187
0.36758 -0.32176 0.13327 229 215 187
0.36758 -0.08816 0.13327 229 215 187
0.36758 -0.08816 0.01056 229 215 187
0.12739 -0.08816 0.01056 229 215 187
0.12739 -0.32176 0.01056 229 215 187
0.12739 -0.32176 0.13327 229 215 187
0.12739 -0.08816 0.13327 229 215 187
0.12749 -0.38092 0.01056 229 215 187
0.12749 -0.38092 0.13327 229 215 187
0.15574 -0.41126 0.13327 229 215 187
0.15574 -0.41126 0.01056 229 215 187
0.17208 -0.03731 0.36227 171 139 189
0.17208 -0.03731 0.13327 171 139 189
0.32289 -0.03731 0.13327 171 139 189
0.32289 -0.03731 0.36227 171 139 189
0.36758 -0.08816 0.36227 171 139 189
0.36758 -0.08816 0.13327 171 139 189
0.12739 -0.08816 0.13327 171 139 189
0.12739 -0.08816 0.36227 171 139 189
0.12739 -0.32176 0.36227 171 139 189
0.36758 -0.32176 0.36227 171 139 189
0.36758 -0.32176 0.13327 171 139 189
0.12739 -0.32176 0.13327 171 139 189
0.17208 -0.03731 0.13327 229 215 187
0.17208 -0.03731 0.01056 229 215 187
0.32289 -0.03731 0.01056 229 215 187
0.32289 -0.03731 0.13327 229 215 187
0.12749 -0.38092 0.13327 235 221 192
0.12739 -0.32176 0.13327 235 221 192
0.36758 -0.32176 0.13327 235 221 192
0.36705 -0.38092 0.13327 235 221 192
0.33545 -0.41126 0.13327 235 221 192
0.15574 -0.41126 0.13327 235 221 192
0.32842 -0.96059 0.34109 229 215 187
-0.32842 -0.96059 0.34109 229 215 187
-0.37561 -0.99908 0.39645 229 215 187
0.37561 -0.99908 0.39645 229 215 187
0.44256 -0.95339 0.39628 229 215 187
0.37709 -0.92601 0.34103 229 215 187
0.37517 -0.99936 0.80256 229 215 187
0.44269 -0.95336 0.8025 229 215 187
-0.22265 -0.99908 0.41821 229 215 187
0.22265 -0.99908 0.41821 229 215 187
0.22265 -0.99936 0.71156 229 215 187
0.04085 -0.99936 0.80256 229 215 187
-0.44256 -0.95339 0.39628 229 215 187
-0.37709 -0.92601 0.34103 229 215 187
-0.37517 -0.99936 0.80256 229 215 187
-0.44269 -0.95336 0.8025 229 215 187
-0.22265 -0.99936 0.71156 229 215 187
-0.04085 -0.99936 0.80256 229 215 187
0 -0.99936 0.71156 229 215 187
-0.01626 -0.99936 0.80256 229 215 187
0.01626 -0.99936 0.80256 229 215 187
0.37709 -0.45003 0.34109 229 215 187
0.44251 -0.44982 0.39632 229 215 187
0.22071 -0.45003 0.34112 229 215 187
-0.22071 -0.45003 0.34112 229 215 187
-0.37709 -0.45003 0.34109 229 215 187
-0.44251 -0.44982 0.39632 229 215 187
-0.44251 -0.60859 0.80196 229 215 187
-0.44251 -0.44982 0.77787 229 215 187
-0.44251 -0.47827 0.80195 229 215 187
0.44251 -0.60859 0.80196 229 215 187
0.44251 -0.44982 0.77787 229 215 187
0.44251 -0.47827 0.80195 229 215 187
0.44251 -0.76737 0.8777 171 139 189
0.44251 -0.44982 0.87767 171 139 189
0.44251 -0.47827 0.80195 171 139 189
0.44251 -0.60859 0.80196 171 139 189
0.44269 -0.95336 0.8025 171 139 189
0.44269 -0.95336 0.8777 171 139 189
0.44251 -0.76737 1.16714 171 139 189
0.44251 -0.44982 0.77787 171 139 189
0.44251 -0.13226 1.16714 171 139 189
0.44251 -0.13226 0.98826 171 139 189
0.37563 -0.06386 1.16714 171 139 189
0.33102 -0.11516 1.22299 171 139 189
-0.37563 -0.06386 1.16714 171 139 189
-0.33102 -0.11516 1.22299 171 139 189
0.39121 -0.17672 1.22299 171 139 189
0.37563 -0.06386 1.04206 171 139 189
0.44175 0.81232 0.98826 171 139 189
0.44251 -0.44982 0.39632 171 139 189
0.44175 0.81232 0.39416 171 139 189
0.37477 0.76516 1.04206 171 139 189
0.37476 0.86652 0.98831 171 139 189
0.32353 0.81232 1.04206 171 139 189
0.37471 0.86652 0.39427 171 139 189
0.37471 0.81232 0.34082 171 139 189
0.37709 -0.45003 0.34109 171 139 189
0.21952 0.81232 0.34082 171 139 189
0.21952 0.86652 0.39433 171 139 189
-0.44251 -0.13226 1.16714 171 139 189
-0.39121 -0.17672 1.22299 171 139 189
-0.44251 -0.13226 0.98826 171 139 189
-0.37563 -0.06386 1.04206 171 139 189
-0.44175 0.81232 0.98826 171 139 189
-0.44251 -0.44982 0.39632 171 139 189
-0.44175 0.81232 0.39416 171 139 189
-0.44251 -0.44982 0.77787 171 139 189
-0.37477 0.76516 1.04206 171 139 189
-0.37476 0.86652 0.98831 171 139 189
-0.32353 0.81232 1.04206 171 139 189
-0.37471 0.86652 0.39427 171 139 189
-0.37471 0.81232 0.34082 171 139 189
-0.37709 -0.45003 0.34109 171 139 189
-0.21952 0.81232 0.34082 171 139 189
-0.21952 0.86652 0.39433 171 139 189
0.19454 0.86652 0.76787 171 139 189
0.21953 0.86652 0.74195 171 139 189
-0.19454 0.86652 0.76787 171 139 189
-0.21953 0.86652 0.74195 171 139 189
0.22265 -0.99908 0.41821 153 110 133
-0.22265 -0.99908 0.41821 153 110 133
-0.22265 -0.76737 0.41821 153 110 133
0.22265 -0.76737 0.41821 153 110 133
-0.22265 -0.76737 0.71156 153 110 133
0.22265 -0.76737 0.71156 153 110 133
0.22265 -0.99936 0.71156 153 110 133
0 -0.99936 0.71156 153 110 133
-0.22265 -0.99936 0.71156 153 110 133
-0.09648 0.85728 0.82453 171 139 189
-0.09648 0.85728 1.46206 171 139 189
0.09648 0.85728 1.46206 171 139 189
0.09648 0.85728 0.82453 171 139 189
-0.09648 1.00512 0.82453 171 139 189
0.09648 1.00512 0.82453 171 139 189
0.09648 1.00512 1.81958 171 139 189
0.09648 0.85728 1.70375 171 139 189
-0.09648 0.85728 1.70375 171 139 189
-0.09648 1.00512 1.81958 171 139 189
-0.0664 0.85728 0.79405 171 139 189
0.0664 0.85728 0.79405 171 139 189
0.0664 1.00512 0.79405 171 139 189
0.09648 0.96675 1.86099 171 139 189
-0.09648 0.96675 1.86099 171 139 189
-0.09648 0.71534 1.70375 171 139 189
-0.09648 0.63138 1.86099 171 139 189
0.09648 0.63138 1.86099 171 139 189
0.09648 0.71534 1.70375 171 139 189
0.09648 0.58103 1.81533 171 139 189
0.09648 0.58103 1.49919 171 139 189
-0.09648 0.58103 1.49919 171 139 189
-0.09648 0.58103 1.81533 171 139 189
-0.09648 0.71534 1.64797 171 139 189
0.09648 0.71534 1.64797 171 139 189
-0.09648 0.62288 1.46206 171 139 189
0.09648 0.62288 1.46206 171 139 189
-0.09648 0.80739 1.46206 171 139 189
0.09648 0.80739 1.46206 171 139 189
0.09648 0.80739 1.64797 171 139 189
-0.09648 0.80739 1.64797 171 139 189
0.09648 0.96675 1.86099 177 144 195
-0.09648 0.96675 1.86099 177 144 195
-0.09648 1.00512 1.81958 177 144 195
0.09648 1.00512 1.81958 177 144 195
-0.09648 0.63138 1.86099 177 144 195
0.09648 0.63138 1.86099 177 144 195
-0.0664 1.00512 0.79405 171 139 189
-0.09648 0.85728 1.46206 160 130 177
-0.09648 0.80739 1.46206 160 130 177
0.09648 0.80739 1.46206 160 130 177
0.09648 0.85728 1.46206 160 130 177
0.09648 0.80739 1.64797 160 130 177
0.09648 0.85728 1.70375 160 130 177
-0.09648 0.80739 1.64797 160 130 177
-0.09648 0.85728 1.70375 160 130 177
-0.09648 0.71534 1.64797 160 130 177
-0.09648 0.71534 1.70375 160 130 177
0.09648 0.71534 1.70375 160 130 177
0.09648 0.71534 1.64797 160 130 177
0.09648 0.58103 1.81533 177 144 195
-0.09648 0.58103 1.81533 177 144 195
-0.19959 -0.86877 0.41058 208 171 179
-0.19959 -0.86877 0.57084 208 171 179
0.19959 -0.86877 0.57084 208 171 179
0.19959 -0.86877 0.41058 208 171 179
0.19959 -0.76374 0.57084 208 171 179
-0.19959 -0.76374 0.57084 208 171 179
0.19959 -0.76374 0.41058 208 171 179
-0.19959 -0.76374 0.41058 208 171 179
-0.12217 -0.98812 0.53778 248 252 247
-0.12217 -0.98812 0.72018 248 252 247
-0.01525 -0.98812 0.65057 248 252 247
-0.01525 -0.98812 0.53778 248 252 247
-0.12217 -0.90872 0.53778 248 252 247
-0.01525 -0.90872 0.53778 248 252 247
-0.12217 -0.90872 0.72018 248 252 247
0.12217 -0.98812 0.72018 248 252 247
0.01589 -0.98812 0.65057 248 252 247
0.12217 -0.98812 0.53778 248 252 247
0.01589 -0.98812 0.53778 248 252 247
0.01589 -0.90872 0.65057 248 252 247
0.12217 -0.90872 0.72018 248 252 247
-0.01525 -0.90872 0.65057 248 252 247
0.01589 -0.90872 0.53778 248 252 247
0.12217 -0.90872 0.53778 248 252 247
-0.01525 -0.90872 0.53778 227 231 226
0.01589 -0.90872 0.53778 227 231 226
0.01589 -0.90872 0.65057 227 231 226
-0.01525 -0.90872 0.65057 227 231 226
-0.01525 -0.98812 0.53778 227 231 226
0.01589 -0.98812 0.53778 227 231 226
0.01589 -0.98812 0.65057 227 231 226
-0.01525 -0.98812 0.65057 227 231 226
0.33813 -0.35401 1.40683 228 202 189
0.67075 -0.35401 1.40683 228 202 189
0.71045 -0.35401 1.3711 228 202 189
0.29904 -0.35401 1.3711 228 202 189
0.29904 -0.35401 1.04181 228 202 189
0.71045 -0.35401 1.04181 228 202 189
0.33813 -0.35401 1.00609 228 202 189
0.67075 -0.35401 1.00609 228 202 189
0.23049 -0.35401 1.42598 177 144 195
0.23049 -0.21724 1.42598 177 144 195
0.28261 -0.21724 1.47362 177 144 195
0.28261 -0.35401 1.47362 177 144 195
0.7261 -0.35401 1.47362 177 144 195
0.7261 -0.21724 1.47362 177 144 195
0.77903 -0.35401 1.42598 177 144 195
0.77903 -0.21724 1.42598 177 144 195
0.23049 -0.21724 1.42598 171 139 189
0.23049 -0.21724 0.98693 171 139 189
0.28261 -0.21724 0.93929 171 139 189
0.28261 -0.21724 1.47362 171 139 189
0.28261 -0.35401 0.93929 171 139 189
0.23049 -0.35401 0.98693 171 139 189
0.23049 -0.35401 1.42598 171 139 189
0.7261 -0.21724 1.47362 171 139 189
0.7261 -0.21724 0.93929 171 139 189
0.77903 -0.21724 1.42598 171 139 189
0.77903 -0.21724 0.98693 171 139 189
0.77903 -0.35401 0.98693 171 139 189
0.77903 -0.35401 1.42598 171 139 189
0.7261 -0.35401 0.93929 171 139 189
0.28261 -0.35401 1.47362 171 139 189
0.33813 -0.35401 1.40683 171 139 189
0.29904 -0.35401 1.3711 171 139 189
0.29904 -0.35401 1.04181 171 139 189
0.33813 -0.35401 1.00609 171 139 189
0.67075 -0.35401 1.00609 171 139 189
0.71045 -0.35401 1.04181 171 139 189
0.71045 -0.35401 1.3711 171 139 189
0.67075 -0.35401 1.40683 171 139 189
0.7261 -0.35401 1.47362 171 139 189
-0.33813 -0.35401 1.40683 228 202 189
-0.29904 -0.35401 1.3711 228 202 189
-0.71045 -0.35401 1.3711 228 202 189
-0.67075 -0.35401 1.40683 228 202 189
-0.29904 -0.35401 1.04181 228 202 189
-0.71045 -0.35401 1.04181 228 202 189
-0.33813 -0.35401 1.00609 228 202 189
-0.67075 -0.35401 1.00609 228 202 189
-0.23049 -0.35401 1.42598 177 144 195
-0.28261 -0.35401 1.47362 177 144 195
-0.28261 -0.21724 1.47362 177 144 195
-0.23049 -0.21724 1.42598 177 144 195
-0.7261 -0.35401 1.47362 177 144 195
-0.7261 -0.21724 1.47362 177 144 195
-0.77903 -0.35401 1.42598 177 144 195
-0.77903 -0.21724 1.42598 177 144 195
-0.23049 -0.21724 1.42598 171 139 189
-0.28261 -0.21724 1.47362 171 139 189
-0.28261 -0.21724 0.93929 171 139 189
-0.23049 -0.21724 0.98693 171 139 189
-0.28261 -0.35401 0.93929 171 139 189
-0.23049 -0.35401 0.98693 171 139 189
-0.23049 -0.35401 1.42598 171 139 189
-0.7261 -0.21724 1.47362 171 139 189
-0.7261 -0.21724 0.93929 171 139 189
-0.77903 -0.21724 1.42598 171 139 189
-0.77903 -0.21724 0.98693 171 139 189
-0.77903 -0.35401 0.98693 171 139 189
-0.77903 -0.35401 1.42598 171 139 189
-0.7261 -0.35401 0.93929 171 139 189
-0.28261 -0.35401 1.47362 171 139 189
-0.29904 -0.35401 1.3711 171 139 189
-0.33813 -0.35401 1.40683 171 139 189
-0.29904 -0.35401 1.04181 171 139 189
-0.33813 -0.35401 1.00609 171 139 189
-0.67075 -0.35401 1.00609 171 139 189
-0.71045 -0.35401 1.04181 171 139 189
-0.71045 -0.35401 1.3711 171 139 189
-0.67075 -0.35401 1.40683 171 139 189
-0.7261 -0.35401 1.47362 171 139 189
-0.39121 -0.72291 1.22299 177 144 195
-0.39121 -0.17672 1.22299 177 144 195
0.39121 -0.17672 1.22299 177 144 195
0.39121 -0.72291 1.22299 177 144 195
0.33102 -0.78447 1.22299 177 144 195
-0.33102 -0.78447 1.22299 177 144 195
0.33102 -0.11516 1.22299 177 144 195
-0.33102 -0.11516 1.22299 177 144 195
0.39121 -0.72291 1.22299 171 139 189
0.37563 -0.83578 1.16714 171 139 189
0.37563 -0.83578 1.11875 171 139 189
0.37563 -0.83578 0.9299 171 139 189
0.33102 -0.78447 1.22299 171 139 189
0.37517 -0.95352 0.9299 171 139 189
0.37517 -0.99936 0.87782 171 139 189
0.37517 -0.99936 0.80256 171 139 189
-0.37563 -0.83578 1.16714 171 139 189
-0.33102 -0.78447 1.22299 171 139 189
-0.39121 -0.72291 1.22299 171 139 189
-0.44251 -0.76737 1.16714 171 139 189
-0.37563 -0.83578 1.11875 171 139 189
-0.37563 -0.83578 0.9299 171 139 189
-0.44251 -0.76737 0.8777 171 139 189
-0.44251 -0.44982 0.87767 171 139 189
-0.37517 -0.95352 0.9299 171 139 189
-0.44269 -0.95336 0.8777 171 139 189
-0.37517 -0.99936 0.87782 171 139 189
0 -0.99936 0.87782 171 139 189
-0.37517 -0.99936 0.80256 171 139 189
-0.44269 -0.95336 0.8025 171 139 189
-0.04085 -0.99936 0.84459 171 139 189
-0.04085 -0.99936 0.80256 171 139 189
-0.01626 -0.99936 0.84459 171 139 189
0.01626 -0.99936 0.84459 171 139 189
-0.01626 -0.99936 0.80256 171 139 189
0.01626 -0.99936 0.80256 171 139 189
0.04085 -0.99936 0.84459 171 139 189
0.04085 -0.99936 0.80256 171 139 189
0.37517 -0.95352 0.9299 177 144 195
0.12386 -0.83578 0.9299 177 144 195
0.37563 -0.83578 0.9299 177 144 195
0.37563 -0.81303 0.9299 177 144 195
0.12386 -0.81303 0.9299 177 144 195
-0.12386 -0.83578 0.9299 177 144 195
-0.37517 -0.95352 0.9299 177 144 195
-0.37563 -0.83578 0.9299 177 144 195
-0.37563 -0.81303 0.9299 177 144 195
-0.12386 -0.81303 0.9299 177 144 195
0.22071 -0.45003 0.34112 171 139 189
0.21952 0.81232 0.34082 229 215 187
-0.21952 0.81232 0.34082 229 215 187
0.37563 -0.81303 0.9299 255 246 255
0.12386 -0.81303 0.9299 255 246 255
0.37567 -0.81303 1.11882 255 246 255
0.37563 -0.81303 0.9299 171 139 189
0.37567 -0.81303 1.11882 171 139 189
0.12386 -0.81303 0.9299 171 139 189
0.12386 -0.83578 0.9299 171 139 189
-0.12386 -0.83578 0.9299 171 139 189
-0.12386 -0.81303 0.9299 171 139 189
-0.37567 -0.81303 1.11882 171 139 189
-0.37563 -0.81303 0.9299 171 139 189
-0.44251 -0.60859 0.80196 171 139 189
-0.44251 -0.47827 0.80195 171 139 189
-0.22071 -0.45003 0.34112 171 139 189
0.37477 0.76516 1.04206 177 144 195
0.37563 -0.06386 1.04206 177 144 195
-0.37563 -0.06386 1.04206 177 144 195
-0.37477 0.76516 1.04206 177 144 195
0.32353 0.81232 1.04206 177 144 195
-0.32353 0.81232 1.04206 177 144 195
0.21952 0.86652 0.39433 229 215 187
-0.21952 0.86652 0.39433 229 215 187
-0.21953 0.86652 0.74195 229 215 187
0.21953 0.86652 0.74195 229 215 187
-0.19454 0.86652 0.76787 229 215 187
0.19454 0.86652 0.76787 229 215 187
-0.37563 -0.81303 0.9299 255 246 255
-0.37567 -0.81303 1.11882 255 246 255
-0.12386 -0.81303 0.9299 255 246 255
-0.01626 -0.98521 0.80256 105 85 116
-0.04085 -0.98521 0.80256 105 85 116
-0.04085 -0.98521 0.84459 105 85 116
-0.01626 -0.98521 0.84459 105 85 116
-0.01626 -0.99936 0.80256 105 85 116
-0.01626 -0.99936 0.84459 105 85 116
-0.04085 -0.99936 0.84459 105 85 116
-0.04085 -0.99936 0.80256 105 85 116
0.04085 -0.98521 0.80256 105 85 116
0.01626 -0.98521 0.80256 105 85 116
0.01626 -0.98521 0.84459 105 85 116
0.04085 -0.98521 0.84459 105 85 116
0.04085 -0.99936 0.80256 105 85 116
0.04085 -0.99936 0.84459 105 85 116
0.01626 -0.99936 0.84459 105 85 116
0.01626 -0.99936 0.80256 105 85 116
-0.33545 0.4259 0.13327 229 215 187
-0.33545 0.4259 0.01056 229 215 187
-0.36705 0.45623 0.01056 229 215 187
-0.36705 0.45623 0.13327 229 215 187
-0.36758 0.51539 0.01056 229 215 187
-0.36758 0.51539 0.13327 229 215 187
-0.36758 0.74899 0.13327 229 215 187
-0.36758 0.74899 0.01056 229 215 187
-0.12739 0.74899 0.01056 229 215 187
-0.12739 0.51539 0.01056 229 215 187
-0.12739 0.51539 0.13327 229 215 187
-0.12739 0.74899 0.13327 229 215 187
-0.12749 0.45623 0.01056 229 215 187
-0.15574 0.4259 0.01056 229 215 187
-0.15574 0.4259 0.13327 229 215 187
-0.12749 0.45623 0.13327 229 215 187
-0.17208 0.79984 0.36227 171 139 189
-0.32289 0.79984 0.36227 171 139 189
-0.32289 0.79984 0.13327 171 139 189
-0.17208 0.79984 0.13327 171 139 189
-0.36758 0.74899 0.36227 171 139 189
-0.36758 0.74899 0.13327 171 139 189
-0.12739 0.74899 0.13327 171 139 189
-0.12739 0.74899 0.36227 171 139 189
-0.12739 0.51539 0.36227 171 139 189
-0.12739 0.51539 0.13327 171 139 189
-0.36758 0.51539 0.13327 171 139 189
-0.36758 0.51539 0.36227 171 139 189
-0.17208 0.79984 0.13327 229 215 187
-0.32289 0.79984 0.13327 229 215 187
-0.32289 0.79984 0.01056 229 215 187
-0.17208 0.79984 0.01056 229 215 187
-0.33545 0.4259 0.13327 235 221 192
-0.36705 0.45623 0.13327 235 221 192
-0.12749 0.45623 0.13327 235 221 192
-0.15574 0.4259 0.13327 235 221 192
-0.36758 0.51539 0.13327 235 221 192
-0.12739 0.51539 0.13327 235 221 192
-0.33545 -0.41126 0.13327 229 215 187
-0.33545 -0.41126 0.01056 229 215 187
-0.36705 -0.38092 0.01056 229 215 187
-0.36705 -0.38092 0.13327 229 215 187
-0.36758 -0.32176 0.01056 229 215 187
-0.36758 -0.32176 0.13327 229 215 187
-0.36758 -0.08816 0.13327 229 215 187
-0.36758 -0.08816 0.01056 229 215 187
-0.12739 -0.08816 0.01056 229 215 187
-0.12739 -0.32176 0.01056 229 215 187
-0.12739 -0.32176 0.13327 229 215 187
-0.12739 -0.08816 0.13327 229 215 187
-0.12749 -0.38092 0.01056 229 215 187
-0.12749 -0.38092 0.13327 229 215 187
-0.15574 -0.41126 0.13327 229 215 187
-0.15574 -0.41126 0.01056 229 215 187
-0.17208 -0.03731 0.36227 171 139 189
-0.32289 -0.03731 0.36227 171 139 189
-0.32289 -0.03731 0.13327 171 139 189
-0.17208 -0.03731 0.13327 171 139 189
-0.36758 -0.08816 0.36227 171 139 189
-0.36758 -0.08816 0.13327 171 139 189
-0.12739 -0.08816 0.13327 171 139 189
-0.12739 -0.08816 0.36227 171 139 189
-0.12739 -0.32176 0.36227 171 139 189
-0.12739 -0.32176 0.13327 171 139 189
-0.36758 -0.32176 0.13327 171 139 189
-0.36758 -0.32176 0.36227 171 139 189
-0.17208 -0.03731 0.13327 229 215 187
-0.32289 -0.03731 0.13327 229 215 187
-0.32289 -0.03731 0.01056 229 215 187
-0.17208 -0.03731 0.01056 229 215 187
-0.12749 -0.38092 0.13327 235 221 192
-0.36705 -0.38092 0.13327 235 221 192
-0.36758 -0.32176 0.13327 235 221 192
-0.12739 -0.32176 0.13327 235 221 192
-0.33545 -0.41126 0.13327 235 221 192
-0.15574 -0.41126 0.13327 235 221 192
-0.30501 -0.81943 0.96318 162 78 84
-0.30501 -0.81041 0.96318 162 78 84
-0.305 -0.81041 1.07834 162 78 84
-0.305 -0.81943 1.07834 162 78 84
-0.24094 -0.81943 0.96315 162 78 84
-0.24094 -0.81943 1.02974 162 78 84
-0.30502 -0.81943 0.92652 162 78 84
-0.30502 -0.81041 0.92652 162 78 84
-0.20984 -0.81943 0.96315 184 89 96
-0.20983 -0.81943 0.92652 184 89 96
-0.30502 -0.81943 0.92652 184 89 96
-0.24094 -0.81943 0.96315 184 89 96
-0.30501 -0.81943 0.96318 184 89 96
-0.20984 -0.81943 0.96315 255 246 255
-0.2006 -0.81943 0.99928 255 246 255
-0.20057 -0.81943 0.96315 255 246 255
-0.24094 -0.81943 1.02974 255 246 255
-0.24094 -0.81943 0.96315 255 246 255
-0.20057 -0.81943 0.96315 162 78 84
-0.2006 -0.81943 0.99928 162 78 84
-0.10259 -0.81943 0.92652 162 78 84
-0.20983 -0.81943 0.92652 162 78 84
-0.20984 -0.81943 0.96315 162 78 84
3 0 2 1
3 0 3 2
3 4 0 1
3 4 1 5
3 6 3 0
3 6 7 3
3 8 10 9
3 8 11 10
3 9 10 12
3 13 15 14
3 13 16 15
3 17 16 13
3 18 20 19
3 18 19 21
3 18 21 22
3 23 25 24
3 23 26 25
3 27 24 25
3 27 28 24
3 27 29 28
3 27 30 29
3 31 30 27
3 31 27 32
3 25 32 27
3 31 32 33
3 31 33 34
3 26 35 25
3 33 32 35
3 25 35 32
3 26 36 35
3 35 36 37
3 37 26 23
3 37 36 26
3 35 37 38
3 33 35 38
3 39 41 40
3 39 42 41
3 43 41 42
3 43 44 41
3 45 39 40
3 45 46 39
3 47 49 48
3 47 50 49
3 49 43 48
3 49 44 43
3 45 50 47
3 45 47 46
3 51 53 52
3 51 54 53
3 29 53 54
3 29 30 53
3 30 52 53
3 30 31 52
3 31 51 52
3 31 34 51
3 55 57 56
3 55 58 57
3 57 58 59
3 57 59 60
3 61 63 62
3 61 64 63
3 65 62 63
3 65 66 62
3 65 67 66
3 65 68 67
3 69 68 65
3 69 65 70
3 63 70 65
3 69 70 71
3 69 71 72
3 63 73 70
3 71 70 73
3 64 73 63
3 71 73 74
3 73 75 74
3 75 64 61
3 73 76 75
3 75 76 64
3 64 76 73
3 77 79 78
3 77 80 79
3 81 79 80
3 81 82 79
3 83 77 78
3 83 84 77
3 85 87 86
3 85 88 87
3 87 81 86
3 87 82 81
3 83 88 85
3 83 85 84
3 89 91 90
3 89 92 91
3 67 91 92
3 67 68 91
3 68 90 91
3 68 69 90
3 69 89 90
3 69 72 89
3 93 95 94
3 93 96 95
3 97 96 93
3 97 93 98
3 99 101 100
3 99 102 101
3 103 102 99
3 103 99 104
3 103 105 102
3 103 106 105
3 102 107 101
3 102 108 107
3 102 109 108
3 102 105 109
3 109 105 110
3 111 100 101
3 111 112 100
3 99 112 104
3 99 100 112
3 111 101 113
3 111 113 114
3 101 115 113
3 101 107 115
3 115 116 113
3 117 116 115
3 117 118 116
3 117 119 118
3 109 119 117
3 109 110 119
3 120 103 104
3 120 121 103
3 122 120 104
3 123 122 104
3 123 104 112
3 121 106 103
3 123 112 124
3 124 112 111
3 124 111 125
3 125 111 114
3 114 126 125
3 126 127 125
3 126 128 127
3 129 106 121
3 130 129 121
3 130 131 129
3 132 134 133
3 132 135 134
3 132 136 135
3 136 132 137
3 132 133 138
3 133 134 139
3 140 133 139
3 140 139 141
3 141 142 140
3 140 142 143
3 143 142 144
3 143 144 145
3 140 143 146
3 141 147 142
3 147 144 142
3 148 147 141
3 149 148 141
3 141 139 149
3 149 150 148
3 148 151 147
3 151 148 152
3 150 152 148
3 151 152 153
3 150 154 152
3 150 155 154
3 156 155 150
3 156 150 149
3 157 154 155
3 157 158 154
3 159 145 144
3 159 160 145
3 161 159 144
3 161 144 162
3 147 162 144
3 163 161 162
3 164 161 163
3 164 163 165
3 166 161 164
3 159 161 166
3 163 162 167
3 167 168 163
3 165 163 168
3 167 169 168
3 165 168 170
3 165 170 171
3 172 165 171
3 172 164 165
3 173 171 170
3 173 170 174
3 168 174 170
3 152 168 169
3 175 168 152
3 175 152 176
3 175 177 168
3 177 178 168
3 168 178 174
3 152 169 153
3 176 152 154
3 176 154 158
3 179 181 180
3 179 182 181
3 182 183 181
3 183 180 181
3 182 184 183
3 184 182 179
3 184 179 185
3 184 185 186
3 184 186 183
3 183 187 180
3 183 186 187
3 188 190 189
3 188 191 190
3 192 188 189
3 190 191 193
3 190 193 194
3 190 194 195
3 192 189 196
3 192 196 197
3 191 188 198
3 191 198 199
3 193 191 199
3 193 199 200
3 192 193 200
3 192 194 193
3 192 197 194
3 195 194 201
3 197 196 202
3 202 196 203
3 202 203 204
3 195 201 205
3 195 205 206
3 207 206 205
3 208 206 207
3 209 208 207
3 209 207 210
3 204 203 210
3 210 211 209
3 210 203 211
3 208 212 206
3 209 211 213
3 209 214 208
3 209 213 214
3 214 212 208
3 215 214 213
3 215 216 214
3 216 212 214
3 216 217 212
3 213 218 215
3 213 211 218
3 219 221 220
3 219 222 221
3 219 220 223
3 219 223 224
3 225 199 198
3 225 200 199
3 192 200 225
3 226 228 227
3 226 229 228
3 230 228 229
3 230 229 231
3 232 226 227
3 232 233 226
3 233 232 234
3 233 234 235
3 230 231 236
3 230 236 237
3 238 223 239
3 238 224 223
3 240 242 241
3 240 243 242
3 241 242 244
3 243 244 242
3 241 244 245
3 243 246 244
3 247 241 245
3 247 240 241
3 248 250 249
3 248 251 250
3 252 251 248
3 252 253 251
3 254 248 249
3 254 252 248
3 255 249 250
3 255 250 256
3 257 255 256
3 257 256 258
3 259 254 260
3 259 261 254
3 260 262 259
3 260 263 262
3 257 263 260
3 257 260 255
3 258 263 257
3 258 262 263
3 254 261 253
3 254 253 252
3 264 266 265
3 264 267 266
3 268 265 269
3 268 264 265
3 270 268 269
3 270 271 268
3 272 274 273
3 272 275 274
3 274 275 276
3 274 276 277
3 277 276 278
3 277 278 279
3 280 282 281
3 280 283 282
3 282 283 284
3 282 284 285
3 285 284 286
3 285 286 287
3 288 290 289
3 288 291 290
3 289 290 292
3 289 292 293
3 289 294 288
3 289 293 294
3 290 291 295
3 290 295 296
3 292 290 296
3 296 295 297
3 296 297 298
3 299 298 297
3 299 297 300
3 301 298 299
3 301 296 298
3 292 296 301
3 302 304 303
3 302 294 304
3 294 305 304
3 294 293 305
3 293 306 305
3 293 292 306
3 292 307 306
3 292 301 307
3 301 308 307
3 301 299 308
3 299 309 308
3 299 300 309
3 300 310 309
3 300 311 310
3 311 303 310
3 311 302 303
3 312 314 313
3 312 315 314
3 314 316 313
3 314 317 316
3 317 318 316
3 317 319 318
3 320 322 321
3 320 323 322
3 322 324 321
3 322 325 324
3 325 326 324
3 325 327 326
3 328 330 329
3 328 331 330
3 331 332 330
3 331 333 332
3 331 334 333
3 331 328 334
3 330 335 329
3 330 336 335
3 332 336 330
3 336 337 335
3 336 338 337
3 339 337 338
3 339 340 337
3 341 338 336
3 341 339 338
3 332 341 336
3 342 343 334
3 342 344 343
3 334 343 345
3 334 345 333
3 333 345 346
3 333 346 332
3 332 346 347
3 332 347 341
3 341 347 348
3 341 348 339
3 339 348 349
3 339 349 340
3 340 349 350
3 340 350 351
3 351 344 342
3 351 350 344
3 352 354 353
3 352 355 354
3 356 355 352
3 356 352 357
3 353 354 358
3 353 358 359
3 133 140 138
3 138 140 146
3 138 146 360
3 361 138 360
3 362 138 361
3 363 138 362
3 138 363 132
3 361 360 364
3 132 363 365
3 132 365 137
3 137 365 366
3 137 366 367
3 137 367 136
3 364 368 361
3 364 369 368
3 368 369 370
3 368 370 371
3 371 372 368
3 361 372 362
3 361 368 372
3 371 373 372
3 373 371 374
3 371 370 160
3 371 160 159
3 375 371 159
3 374 371 375
3 374 376 373
3 374 377 376
3 377 378 376
3 379 376 378
3 377 380 378
3 377 381 380
3 382 378 380
3 382 380 383
3 384 378 382
3 384 379 378
3 385 379 384
3 386 385 384
3 386 387 385
3 388 379 385
3 388 366 379
3 388 367 366
3 388 389 367
3 365 379 366
3 365 376 379
3 390 392 391
3 391 392 393
3 391 393 394
3 390 391 395
3 390 395 396
3 396 395 397
3 395 398 397
3 395 399 398
3 156 157 155
3 156 400 157
3 401 123 402
3 401 122 123
3 403 405 404
3 363 407 406
3 363 362 407
3 362 408 407
3 362 409 408
3 362 410 409
3 362 372 410
3 372 411 410
3 372 412 411
3 373 412 372
3 373 413 412
3 381 377 374
3 374 414 381
3 374 415 414
3 374 375 415
3 415 375 166
3 159 166 375
3 172 173 416
3 172 171 173
3 417 419 418
3 417 420 419
3 421 420 417
3 421 422 420
3 401 424 423
3 401 402 424
3 423 424 425
3 423 425 426
3 426 425 427
3 426 427 428
3 429 431 430
3 188 225 198
3 188 192 225
3 432 434 433
3 432 435 434
3 436 435 432
3 436 437 435
3 437 434 435
3 437 438 434
3 438 433 434
3 438 439 433
3 439 432 433
3 439 436 432
3 440 442 441
3 440 443 442
3 444 443 440
3 444 445 443
3 445 442 443
3 445 446 442
3 446 441 442
3 446 447 441
3 447 440 441
3 447 444 440
3 448 450 449
3 448 451 450
3 452 450 451
3 452 451 453
3 452 453 454
3 452 454 455
3 456 452 455
3 456 457 452
3 450 452 457
3 456 458 457
3 456 459 458
3 449 450 460
3 458 460 457
3 450 457 460
3 449 460 461
3 460 462 461
3 462 449 461
3 462 448 449
3 460 463 462
3 458 463 460
3 464 466 465
3 464 467 466
3 468 465 466
3 468 466 469
3 470 467 464
3 470 464 471
3 472 474 473
3 472 475 474
3 474 475 468
3 474 468 469
3 470 472 473
3 470 471 472
3 476 478 477
3 476 479 478
3 454 477 478
3 454 478 455
3 455 478 479
3 455 479 456
3 456 479 476
3 456 476 459
3 480 482 481
3 480 483 482
3 482 484 481
3 482 485 484
3 486 488 487
3 486 489 488
3 490 488 489
3 490 489 491
3 490 491 492
3 490 492 493
3 494 490 493
3 494 495 490
3 488 490 495
3 494 496 495
3 494 497 496
3 488 495 498
3 496 498 495
3 487 488 498
3 496 499 498
3 498 499 500
3 500 486 487
3 498 500 501
3 500 487 501
3 487 498 501
3 502 504 503
3 502 505 504
3 506 503 504
3 506 504 507
3 508 505 502
3 508 502 509
3 510 512 511
3 510 513 512
3 512 513 506
3 512 506 507
3 508 510 511
3 508 509 510
3 514 516 515
3 514 517 516
3 492 515 516
3 492 516 493
3 493 516 517
3 493 517 494
3 494 517 514
3 494 514 497
3 518 520 519
3 518 521 520
3 522 518 519
3 522 523 518
3 524 526 525
3 524 527 526
3 528 527 524
3 528 529 527
3 530 524 525
3 530 525 531
3 532 534 533
3 532 535 534
3 535 536 534
3 537 539 538
3 537 538 540
3 541 537 540
3 542 544 543
3 542 545 544
3 542 546 545
