ply
format ascii 1.0
element vertex 543
property float x
property float y
property float z
property uchar red
property uchar green
property uchar blue
element face 612
property list uchar int vertex_index
end_header
0.30501 -0.81943 0.96318 103 117 166
0.305 -0.81943 1.07834 103 117 166
0.305 -0.81041 1.07834 103 117 166
0.30501 -0.81041 0.96318 103 117 166
0.24094 -0.81943 0.96315 103 117 166
0.24094 -0.81943 1.02974 103 117 166
0.30502 -0.81943 0.92652 103 117 166
0.30502 -0.81041 0.92652 103 117 166
0.20984 -0.81943 0.96315 114 134 202
0.24094 -0.81943 0.96315 114 134 202
0.30502 -0.81943 0.92652 114 134 202
0.20983 -0.81943 0.92652 114 134 202
0.30501 -0.81943 0.96318 114 134 202
0.20984 -0.81943 0.96315 255 255 255
0.20057 -0.81943 0.96315 255 255 255
0.2006 -0.81943 0.99928 255 255 255
0.24094 -0.81943 1.02974 255 255 255
0.24094 -0.81943 0.96315 255 255 255
0.20057 -0.81943 0.96315 103 117 166
0.10259 -0.81943 0.92652 103 117 166
0.2006 -0.81943 0.99928 103 117 166
0.20983 -0.81943 0.92652 103 117 166
0.20984 -0.81943 0.96315 103 117 166
0.33545 0.4259 0.13327 232 222 168
0.36705 0.45623 0.13327 232 222 168
0.36705 0.45623 0.01056 232 222 168
0.33545 0.4259 0.01056 232 222 168
0.36758 0.51539 0.01056 232 222 168
0.36758 0.51539 0.13327 232 222 168
0.36758 0.74899 0.13327 232 222 168
0.36758 0.74899 0.01056 232 222 168
0.12739 0.74899 0.01056 232 222 168
0.12739 0.51539 0.01056 232 222 168
0.12739 0.51539 0.13327 232 222 168
0.12739 0.74899 0.13327 232 222 168
0.12749 0.45623 0.01056 232 222 168
0.15574 0.4259 0.01056 232 222 168
0.15574 0.4259 0.13327 232 222 168
0.12749 0.45623 0.13327 232 222 168
0.17208 0.79984 0.36227 207 207 124
0.17208 0.79984 0.13327 207 207 124
0.32289 0.79984 0.13327 207 207 124
0.32289 0.79984 0.36227 207 207 124
0.36758 0.74899 0.36227 207 207 124
0.36758 0.74899 0.13327 207 207 124
0.12739 0.74899 0.13327 207 207 124
0.12739 0.74899 0.36227 207 207 124
0.12739 0.51539 0.36227 207 207 124
0.36758 0.51539 0.36227 207 207 124
0.36758 0.51539 0.13327 207 207 124
0.12739 0.51539 0.13327 207 207 124
0.17208 0.79984 0.13327 232 222 168
0.17208 0.79984 0.01056 232 222 168
0.32289 0.79984 0.01056 232 222 168
0.32289 0.79984 0.13327 232 222 168
0.33545 0.4259 0.13327 238 228 172
0.15574 0.4259 0.13327 238 228 172
0.12749 0.45623 0.13327 238 228 172
0.36705 0.45623 0.13327 238 228 172
0.36758 0.51539 0.13327 238 228 172
0.12739 0.51539 0.13327 238 228 172
0.33545 -0.41126 0.13327 232 222 168
0.36705 -0.38092 0.13327 232 222 168
0.36705 -0.38092 0.01056 232 222 168
0.33545 -0.41126 0.01056 232 222 168
0.36758 -0.32176 0.01056 232 222 168
0.36758 -0.32176 0.13327 232 222 168
0.36758 -0.08816 0.13327 232 222 168
0.36758 -0.08816 0.01056 232 222 168
0.12739 -0.08816 0.01056 232 222 168
0.12739 -0.32176 0.01056 232 222 168
0.12739 -0.32176 0.13327 232 222 168
0.12739 -0.08816 0.13327 232 222 168
0.12749 -0.38092 0.01056 232 222 168
0.12749 -0.38092 0.13327 232 222 168
0.15574 -0.41126 0.13327 232 222 168
0.15574 -0.41126 0.01056 232 222 168
0.17208 -0.03731 0.36227 207 207 124
0.17208 -0.03731 0.13327 207 207 124
0.32289 -0.03731 0.13327 207 207 124
0.32289 -0.03731 0.36227 207 207 124
0.36758 -0.08816 0.36227 207 207 124
0.36758 -0.08816 0.13327 207 207 124
0.12739 -0.08816 0.13327 207 207 124
0.12739 -0.08816 0.36227 207 207 124
0.12739 -0.32176 0.36227 207 207 124
0.36758 -0.32176 0.36227 207 207 124
0.36758 -0.32176 0.13327 207 207 124
0.12739 -0.32176 0.13327 207 207 124
0.17208 -0.03731 0.13327 232 222 168
0.17208 -0.03731 0.01056 232 222 168
0.32289 -0.03731 0.01056 232 222 168
0.32289 -0.03731 0.13327 232 222 168
0.12749 -0.38092 0.13327 238 228 172
0.12739 -0.32176 0.13327 238 228 172
0.36758 -0.32176 0.13327 238 228 172
0.36705 -0.38092 0.13327 238 228 172
0.33545 -0.41126 0.13327 238 228 172
0.15574 -0.41126 0.13327 238 228 172
0.32842 -0.96059 0.34109 232 222 168
-0.32842 -0.96059 0.34109 232 222 168
-0.37561 -0.99908 0.39645 232 222 168
0.37561 -0.99908 0.39645 232 222 168
0.44256 -0.95339 0.39628 232 222 168
0.37709 -0.92601 0.34103 232 222 168
0.37517 -0.99936 0.80256 232 222 168
0.44269 -0.95336 0.8025 232 222 168
-0.22265 -0.99908 0.41821 232 222 168
0.22265 -0.99908 0.41821 232 222 168
0.22265 -0.99936 0.71156 232 222 168
0.04085 -0.99936 0.80256 232 222 168
-0.44256 -0.95339 0.39628 232 222 168
-0.37709 -0.92601 0.34103 232 222 168
-0.37517 -0.99936 0.80256 232 222 168
-0.44269 -0.95336 0.8025 232 222 168
-0.22265 -0.99936 0.71156 232 222 168
-0.04085 -0.99936 0.80256 232 222 168
0 -0.99936 0.71156 232 222 168
-0.01626 -0.99936 0.80256 232 222 168
0.01626 -0.99936 0.80256 232 222 168
0.37709 -0.45003 0.34109 232 222 168
0.44251 -0.44982 0.39632 232 222 168
0.22071 -0.45003 0.34112 232 222 168
-0.22071 -0.45003 0.34112 232 222 168
-0.37709 -0.45003 0.34109 232 222 168
-0.44251 -0.44982 0.39632 232 222 168
-0.44251 -0.60859 0.80196 232 222 168
-0.44251 -0.44982 0.77787 232 222 168
-0.44251 -0.47827 0.80195 232 222 168
0.44251 -0.60859 0.80196 232 222 168
0.44251 -0.44982 0.77787 232 222 168
0.44251 -0.47827 0.80195 232 222 168
0.44251 -0.76737 0.8777 207 207 124
0.44251 -0.44982 0.87767 207 207 124
0.44251 -0.47827 0.80195 207 207 124
0.44251 -0.60859 0.80196 207 207 124
0.44269 -0.95336 0.8025 207 207 124
0.44269 -0.95336 0.8777 207 207 124
0.44251 -0.76737 1.16714 207 207 124
0.44251 -0.44982 0.77787 207 207 124
0.44251 -0.13226 1.16714 207 207 124
0.44251 -0.13226 0.98826 207 207 124
0.37563 -0.06386 1.16714 207 207 124
0.33102 -0.11516 1.22299 207 207 124
-0.37563 -0.06386 1.16714 207 207 124
-0.33102 -0.11516 1.22299 207 207 124
0.39121 -0.17672 1.22299 207 207 124
0.37563 -0.06386 1.04206 207 207 124
0.44175 0.81232 0.98826 207 207 124
0.44251 -0.44982 0.39632 207 207 124
0.44175 0.81232 0.39416 207 207 124
0.37477 0.76516 1.04206 207 207 124
0.37476 0.86652 0.98831 207 207 124
0.32353 0.81232 1.04206 207 207 124
0.37471 0.86652 0.39427 207 207 124
0.37471 0.81232 0.34082 207 207 124
0.37709 -0.45003 0.34109 207 207 124
0.21952 0.81232 0.34082 207 207 124
0.21952 0.86652 0.39433 207 207 124
-0.44251 -0.13226 1.16714 207 207 124
-0.39121 -0.17672 1.22299 207 207 124
-0.44251 -0.13226 0.98826 207 207 124
-0.37563 -0.06386 1.04206 207 207 124
-0.44175 0.81232 0.98826 207 207 124
-0.44251 -0.44982 0.39632 207 207 124
-0.44175 0.81232 0.39416 207 207 124
-0.44251 -0.44982 0.77787 207 207 124
-0.37477 0.76516 1.04206 207 207 124
-0.37476 0.86652 0.98831 207 207 124
-0.32353 0.81232 1.04206 207 207 124
-0.37471 0.86652 0.39427 207 207 124
-0.37471 0.81232 0.34082 207 207 124
-0.37709 -0.45003 0.34109 207 207 124
-0.21952 0.81232 0.34082 207 207 124
-0.21952 0.86652 0.39433 207 207 124
0.19454 0.86652 0.76787 207 207 124
0.21953 0.86652 0.74195 207 207 124
-0.19454 0.86652 0.76787 207 207 124
-0.21953 0.86652 0.74195 207 207 124
0.22265 -0.99908 0.41821 116 110 153
-0.22265 -0.99908 0.41821 116 110 153
-0.22265 -0.76737 0.41821 116 110 153
0.22265 -0.76737 0.41821 116 110 153
-0.22265 -0.76737 0.71156 116 110 153
0.22265 -0.76737 0.71156 116 110 153
0.22265 -0.99936 0.71156 116 110 153
0 -0.99936 0.71156 116 110 153
-0.22265 -0.99936 0.71156 116 110 153
-0.09648 0.85728 0.82453 207 207 124
-0.09648 0.85728 1.46206 207 207 124
0.09648 0.85728 1.46206 207 207 124
0.09648 0.85728 0.82453 207 207 124
-0.09648 1.00512 0.82453 207 207 124
0.09648 1.00512 0.82453 207 207 124
0.09648 1.00512 1.81958 207 207 124
0.09648 0.85728 1.70375 207 207 124
-0.09648 0.85728 1.70375 207 207 124
-0.09648 1.00512 1.81958 207 207 124
-0.0664 0.85728 0.79405 207 207 124
0.0664 0.85728 0.79405 207 207 124
0.0664 1.00512 0.79405 207 207 124
0.09648 0.96675 1.86099 207 207 124
-0.09648 0.96675 1.86099 207 207 124
-0.09648 0.71534 1.70375 207 207 124
-0.09648 0.63138 1.86099 207 207 124
0.09648 0.63138 1.86099 207 207 124
0.09648 0.71534 1.70375 207 207 124
0.09648 0.58103 1.81533 207 207 124
0.09648 0.58103 1.49919 207 207 124
-0.09648 0.58103 1.49919 207 207 124
-0.09648 0.58103 1.81533 207 207 124
-0.09648 0.71534 1.64797 207 207 124
0.09648 0.71534 1.64797 207 207 124
-0.09648 0.62288 1.46206 207 207 124
0.09648 0.62288 1.46206 207 207 124
-0.09648 0.80739 1.46206 207 207 124
0.09648 0.80739 1.46206 207 207 124
0.09648 0.80739 1.64797 207 207 124
-0.09648 0.80739 1.64797 207 207 124
0.09648 0.96675 1.86099 212 212 127
-0.09648 0.96675 1.86099 212 212 127
-0.09648 1.00512 1.81958 212 212 127
0.09648 1.00512 1.81958 212 212 127
-0.09648 0.63138 1.86099 212 212 127
0.09648 0.63138 1.86099 212 212 127
-0.0664 1.00512 0.79405 207 207 124
-0.09648 0.85728 1.46206 193 193 116
-0.09648 0.80739 1.46206 193 193 116
0.09648 0.80739 1.46206 193 193 116
0.09648 0.85728 1.46206 193 193 116
0.09648 0.80739 1.64797 193 193 116
0.09648 0.85728 1.70375 193 193 116
-0.09648 0.80739 1.64797 193 193 116
-0.09648 0.85728 1.70375 193 193 116
-0.09648 0.71534 1.64797 193 193 116
-0.09648 0.71534 1.70375 193 193 116
0.09648 0.71534 1.70375 193 193 116
0.09648 0.71534 1.64797 193 193 116
0.09648 0.58103 1.81533 212 212 127
-0.09648 0.58103 1.81533 212 212 127
-0.19959 -0.86877 0.41058 144 141 186
-0.19959 -0.86877 0.57084 144 141 186
0.19959 -0.86877 0.57084 144 141 186
0.19959 -0.86877 0.41058 144 141 186
0.19959 -0.76374 0.57084 144 141 186
-0.19959 -0.76374 0.57084 144 141 186
0.19959 -0.76374 0.41058 144 141 186
-0.19959 -0.76374 0.41058 144 141 186
-0.12217 -0.98812 0.53778 248 252 247
-0.12217 -0.98812 0.72018 248 252 247
-0.01525 -0.98812 0.65057 248 252 247
-0.01525 -0.98812 0.53778 248 252 247
-0.12217 -0.90872 0.53778 248 252 247
-0.01525 -0.90872 0.53778 248 252 247
-0.12217 -0.90872 0.72018 248 252 247
0.12217 -0.98812 0.72018 248 252 247
0.01589 -0.98812 0.65057 248 252 247
0.12217 -0.98812 0.53778 248 252 247
0.01589 -0.98812 0.53778 248 252 247
0.01589 -0.90872 0.65057 248 252 247
0.12217 -0.90872 0.72018 248 252 247
-0.01525 -0.90872 0.65057 248 252 247
0.01589 -0.90872 0.53778 248 252 247
0.12217 -0.90872 0.53778 248 252 247
-0.01525 -0.90872 0.53778 227 231 226
0.01589 -0.90872 0.53778 227 231 226
0.01589 -0.90872 0.65057 227 231 226
-0.01525 -0.90872 0.65057 227 231 226
-0.01525 -0.98812 0.53778 227 231 226
0.01589 -0.98812 0.53778 227 231 226
0.01589 -0.98812 0.65057 227 231 226
-0.01525 -0.98812 0.65057 227 231 226
0.33813 -0.35401 1.40683 236 219 127
0.67075 -0.35401 1.40683 236 219 127
0.71045 -0.35401 1.3711 236 219 127
0.29904 -0.35401 1.3711 236 219 127
0.29904 -0.35401 1.04181 236 219 127
0.71045 -0.35401 1.04181 236 219 127
0.33813 -0.35401 1.00609 236 219 127
0.67075 -0.35401 1.00609 236 219 127
0.23049 -0.35401 1.42598 212 212 127
0.23049 -0.21724 1.42598 212 212 127
0.28261 -0.21724 1.47362 212 212 127
0.28261 -0.35401 1.47362 212 212 127
0.7261 -0.35401 1.47362 212 212 127
0.7261 -0.21724 1.47362 212 212 127
0.77903 -0.35401 1.42598 212 212 127
0.77903 -0.21724 1.42598 212 212 127
0.23049 -0.21724 1.42598 207 207 124
0.23049 -0.21724 0.98693 207 207 124
0.28261 -0.21724 0.93929 207 207 124
0.28261 -0.21724 1.47362 207 207 124
0.28261 -0.35401 0.93929 207 207 124
0.23049 -0.35401 0.98693 207 207 124
0.23049 -0.35401 1.42598 207 207 124
0.7261 -0.21724 1.47362 207 207 124
0.7261 -0.21724 0.93929 207 207 124
0.77903 -0.21724 1.42598 207 207 124
0.77903 -0.21724 0.98693 207 207 124
0.77903 -0.35401 0.98693 207 207 124
0.77903 -0.35401 1.42598 207 207 124
0.7261 -0.35401 0.93929 207 207 124
0.28261 -0.35401 1.47362 207 207 124
0.33813 -0.35401 1.40683 207 207 124
0.29904 -0.35401 1.3711 207 207 124
0.29904 -0.35401 1.04181 207 207 124
0.33813 -0.35401 1.00609 207 207 124
0.67075 -0.35401 1.00609 207 207 124
0.71045 -0.35401 1.04181 207 207 124
0.71045 -0.35401 1.3711 207 207 124
0.67075 -0.35401 1.40683 207 207 124
0.7261 -0.35401 1.47362 207 207 124
-0.33813 -0.35401 1.40683 236 219 127
-0.29904 -0.35401 1.3711 236 219 127
-0.71045 -0.35401 1.3711 236 219 127
-0.67075 -0.35401 1.40683 236 219 127
-0.29904 -0.35401 1.04181 236 219 127
-0.71045 -0.35401 1.04181 236 219 127
-0.33813 -0.35401 1.00609 236 219 127
-0.67075 -0.35401 1.00609 236 219 127
-0.23049 -0.35401 1.42598 212 212 127
-0.28261 -0.35401 1.47362 212 212 127
-0.28261 -0.21724 1.47362 212 212 127
-0.23049 -0.21724 1.42598 212 212 127
-0.7261 -0.35401 1.47362 212 212 127
-0.7261 -0.21724 1.47362 212 212 127
-0.77903 -0.35401 1.42598 212 212 127
-0.77903 -0.21724 1.42598 212 212 127
-0.23049 -0.21724 1.42598 207 207 124
-0.28261 -0.21724 1.47362 207 207 124
-0.28261 -0.21724 0.93929 207 207 124
-0.23049 -0.21724 0.98693 207 207 124
-0.28261 -0.35401 0.93929 207 207 124
-0.23049 -0.35401 0.98693 207 207 124
-0.23049 -0.35401 1.42598 207 207 124
-0.7261 -0.21724 1.47362 207 207 124
-0.7261 -0.21724 0.93929 207 207 124
-0.77903 -0.21724 1.42598 207 207 124
-0.77903 -0.21724 0.98693 207 207 124
-0.77903 -0.35401 0.98693 207 207 124
-0.77903 -0.35401 1.42598 207 207 124
-0.7261 -0.35401 0.93929 207 207 124
-0.28261 -0.35401 1.47362 207 207 124
-0.29904 -0.35401 1.3711 207 207 124
-0.33813 -0.35401 1.40683 207 207 124
-0.29904 -0.35401 1.04181 207 207 124
-0.33813 -0.35401 1.00609 207 207 124
-0.67075 -0.35401 1.00609 207 207 124
-0.71045 -0.35401 1.04181 207 207 124
-0.71045 -0.35401 1.3711 207 207 124
-0.67075 -0.35401 1.40683 207 207 124
-0.7261 -0.35401 1.47362 207 207 124
-0.39121 -0.72291 1.22299 212 212 127
-0.39121 -0.17672 1.22299 212 212 127
0.39121 -0.17672 1.22299 212 212 127
0.39121 -0.72291 1.22299 212 212 127
0.33102 -0.78447 1.22299 212 212 127
-0.33102 -0.78447 1.22299 212 212 127
0.33102 -0.11516 1.22299 212 212 127
-0.33102 -0.11516 1.22299 212 212 127
0.39121 -0.72291 1.22299 207 207 124
0.37563 -0.83578 1.16714 207 207 124
0.37563 -0.83578 1.11875 207 207 124
0.37563 -0.83578 0.9299 207 207 124
0.33102 -0.78447 1.22299 207 207 124
0.37517 -0.95352 0.9299 207 207 124
0.37517 -0.99936 0.87782 207 207 124
0.37517 -0.99936 0.80256 207 207 124
-0.37563 -0.83578 1.16714 207 207 124
-0.33102 -0.78447 1.22299 207 207 124
-0.39121 -0.72291 1.22299 207 207 124
-0.44251 -0.76737 1.16714 207 207 124
-0.37563 -0.83578 1.11875 207 207 124
-0.37563 -0.83578 0.9299 207 207 124
-0.44251 -0.76737 0.8777 207 207 124
-0.44251 -0.44982 0.87767 207 207 124
-0.37517 -0.95352 0.9299 207 207 124
-0.44269 -0.95336 0.8777 207 207 124
-0.37517 -0.99936 0.87782 207 207 124
0 -0.99936 0.87782 207 207 124
-0.37517 -0.99936 0.80256 207 207 124
-0.44269 -0.95336 0.8025 207 207 124
-0.04085 -0.99936 0.84459 207 207 124
-0.04085 -0.99936 0.80256 207 207 124
-0.01626 -0.99936 0.84459 207 207 124
0.01626 -0.99936 0.84459 207 207 124
-0.01626 -0.99936 0.80256 207 207 124
0.01626 -0.99936 0.80256 207 207 124
0.04085 -0.99936 0.84459 207 207 124
0.04085 -0.99936 0.80256 207 207 124
0.37517 -0.95352 0.9299 212 212 127
0.12386 -0.83578 0.9299 212 212 127
0.37563 -0.83578 0.9299 212 212 127
-0.12386 -0.83578 0.9299 212 212 127
-0.37517 -0.95352 0.9299 212 212 127
-0.37563 -0.83578 0.9299 212 212 127
0.22071 -0.45003 0.34112 207 207 124
0.21952 0.81232 0.34082 232 222 168
-0.21952 0.81232 0.34082 232 222 168
0.37563 -0.81303 0.9299 255 255 255
0.12386 -0.81303 0.9299 255 255 255
0.37567 -0.81303 1.11882 255 255 255
0.37563 -0.81303 0.9299 207 207 124
0.37567 -0.81303 1.11882 207 207 124
0.12386 -0.81303 0.9299 207 207 124
0.12386 -0.83578 0.9299 207 207 124
-0.12386 -0.83578 0.9299 207 207 124
-0.12386 -0.81303 0.9299 207 207 124
-0.37567 -0.81303 1.11882 207 207 124
-0.37563 -0.81303 0.9299 207 207 124
-0.44251 -0.60859 0.80196 207 207 124
-0.44251 -0.47827 0.80195 207 207 124
-0.22071 -0.45003 0.34112 207 207 124
0.37477 0.76516 1.04206 212 212 127
0.37563 -0.06386 1.04206 212 212 127
-0.37563 -0.06386 1.04206 212 212 127
-0.37477 0.76516 1.04206 212 212 127
0.32353 0.81232 1.04206 212 212 127
-0.32353 0.81232 1.04206 212 212 127
0.21952 0.86652 0.39433 232 222 168
-0.21952 0.86652 0.39433 232 222 168
-0.21953 0.86652 0.74195 232 222 168
0.21953 0.86652 0.74195 232 222 168
-0.19454 0.86652 0.76787 232 222 168
0.19454 0.86652 0.76787 232 222 168
-0.37563 -0.81303 0.9299 255 255 255
-0.37567 -0.81303 1.11882 255 255 255
-0.12386 -0.81303 0.9299 255 255 255
-0.01626 -0.98521 0.80256 119 119 71
-0.04085 -0.98521 0.80256 119 119 71
-0.04085 -0.98521 0.84459 119 119 71
-0.01626 -0.98521 0.84459 119 119 71
-0.01626 -0.99936 0.80256 119 119 71
-0.01626 -0.99936 0.84459 119 119 71
-0.04085 -0.99936 0.84459 119 119 71
-0.04085 -0.99936 0.80256 119 119 71
0.04085 -0.98521 0.80256 119 119 71
0.01626 -0.98521 0.80256 119 119 71
0.01626 -0.98521 0.84459 119 119 71
0.04085 -0.98521 0.84459 119 119 71
0.04085 -0.99936 0.80256 119 119 71
0.04085 -0.99936 0.84459 119 119 71
0.01626 -0.99936 0.84459 119 119 71
0.01626 -0.99936 0.80256 119 119 71
-0.33545 0.4259 0.13327 232 222 168
-0.33545 0.4259 0.01056 232 222 168
-0.36705 0.45623 0.01056 232 222 168
-0.36705 0.45623 0.13327 232 222 168
-0.36758 0.51539 0.01056 232 222 168
-0.36758 0.51539 0.13327 232 222 168
-0.36758 0.74899 0.13327 232 222 168
-0.36758 0.74899 0.01056 232 222 168
-0.12739 0.74899 0.01056 232 222 168
-0.12739 0.51539 0.01056 232 222 168
-0.12739 0.51539 0.13327 232 222 168
-0.12739 0.74899 0.13327 232 222 168
-0.12749 0.45623 0.01056 232 222 168
-0.15574 0.4259 0.01056 232 222 168
-0.15574 0.4259 0.13327 232 222 168
-0.12749 0.45623 0.13327 232 222 168
-0.17208 0.79984 0.36227 207 207 124
-0.32289 0.79984 0.36227 207 207 124
-0.32289 0.79984 0.13327 207 207 124
-0.17208 0.79984 0.13327 207 207 124
-0.36758 0.74899 0.36227 207 207 124
-0.36758 0.74899 0.13327 207 207 124
-0.12739 0.74899 0.13327 207 207 124
-0.12739 0.74899 0.36227 207 207 124
-0.12739 0.51539 0.36227 207 207 124
-0.12739 0.51539 0.13327 207 207 124
-0.36758 0.51539 0.13327 207 207 124
-0.36758 0.51539 0.36227 207 207 124
-0.17208 0.79984 0.13327 232 222 168
-0.32289 0.79984 0.13327 232 222 168
-0.32289 0.79984 0.01056 232 222 168
-0.17208 0.79984 0.01056 232 222 168
-0.33545 0.4259 0.13327 238 228 172
-0.36705 0.45623 0.13327 238 228 172
-0.12749 0.45623 0.13327 238 228 172
-0.15574 0.4259 0.13327 238 228 172
-0.36758 0.51539 0.13327 238 228 172
-0.12739 0.51539 0.13327 238 228 172
-0.33545 -0.41126 0.13327 232 222 168
-0.33545 -0.41126 0.01056 232 222 168
-0.36705 -0.38092 0.01056 232 222 168
-0.36705 -0.38092 0.13327 232 222 168
-0.36758 -0.32176 0.01056 232 222 168
-0.36758 -0.32176 0.13327 232 222 168
-0.36758 -0.08816 0.13327 232 222 168
-0.36758 -0.08816 0.01056 232 222 168
-0.12739 -0.08816 0.01056 232 222 168
-0.12739 -0.32176 0.01056 232 222 168
-0.12739 -0.32176 0.13327 232 222 168
-0.12739 -0.08816 0.13327 232 222 168
-0.12749 -0.38092 0.01056 232 222 168
-0.12749 -0.38092 0.13327 232 222 168
-0.15574 -0.41126 0.13327 232 222 168
-0.15574 -0.41126 0.01056 232 222 168
-0.17208 -0.03731 0.36227 207 207 124
-0.32289 -0.03731 0.36227 207 207 124
-0.32289 -0.03731 0.13327 207 207 124
-0.17208 -0.03731 0.13327 207 207 124
-0.36758 -0.08816 0.36227 207 207 124
-0.36758 -0.08816 0.13327 207 207 124
-0.12739 -0.08816 0.13327 207 207 124
-0.12739 -0.08816 0.36227 207 207 124
-0.12739 -0.32176 0.36227 207 207 124
-0.12739 -0.32176 0.13327 207 207 124
-0.36758 -0.32176 0.13327 207 207 124
-0.36758 -0.32176 0.36227 207 207 124
-0.17208 -0.03731 0.13327 232 222 168
-0.32289 -0.03731 0.13327 232 222 168
-0.32289 -0.03731 0.01056 232 222 168
-0.17208 -0.03731 0.01056 232 222 168
-0.12749 -0.38092 0.13327 238 228 172
-0.36705 -0.38092 0.13327 238 228 172
-0.36758 -0.32176 0.13327 238 228 172
-0.12739 -0.32176 0.13327 238 228 172
-0.33545 -0.41126 0.13327 238 228 172
-0.15574 -0.41126 0.13327 238 228 172
-0.30501 -0.81943 0.96318 103 117 166
-0.30501 -0.81041 0.96318 103 117 166
-0.305 -0.81041 1.07834 103 117 166
-0.305 -0.81943 1.07834 103 117 166
-0.24094 -0.81943 0.96315 103 117 166
-0.24094 -0.81943 1.02974 103 117 166
-0.30502 -0.81943 0.92652 103 117 166
-0.30502 -0.81041 0.92652 103 117 166
-0.20984 -0.81943 0.96315 114 134 202
-0.20983 -0.81943 0.92652 114 134 202
-0.30502 -0.81943 0.92652 114 134 202
-0.24094 -0.81943 0.96315 114 134 202
-0.30501 -0.81943 0.96318 114 134 202
-0.20984 -0.81943 0.96315 255 255 255
-0.2006 -0.81943 0.99928 255 255 255
-0.20057 -0.81943 0.96315 255 255 255
-0.24094 -0.81943 1.02974 255 255 255
-0.24094 -0.81943 0.96315 255 255 255
-0.20057 -0.81943 0.96315 103 117 166
-0.2006 -0.81943 0.99928 103 117 166
-0.10259 -0.81943 0.92652 103 117 166
-0.20983 -0.81943 0.92652 103 117 166
-0.20984 -0.81943 0.96315 103 117 166
3 0 2 1
3 0 3 2
3 4 0 1
3 4 1 5
3 6 3 0
3 6 7 3
3 8 10 9
3 8 11 10
3 9 10 12
3 13 15 14
3 13 16 15
3 17 16 13
3 18 20 19
3 18 19 21
3 18 21 22
3 23 25 24
3 23 26 25
3 27 24 25
3 27 28 24
3 27 29 28
3 27 30 29
3 31 30 27
3 31 27 32
3 25 32 27
3 31 32 33
3 31 33 34
3 26 35 25
3 33 32 35
3 25 35 32
3 26 36 35
3 35 36 37
3 37 26 23
3 37 36 26
3 35 37 38
3 33 35 38
3 39 41 40
3 39 42 41
3 43 41 42
3 43 44 41
3 45 39 40
3 45 46 39
3 47 49 48
3 47 50 49
3 49 43 48
3 49 44 43
3 45 50 47
3 45 47 46
3 51 53 52
3 51 54 53
3 29 53 54
3 29 30 53
3 30 52 53
3 30 31 52
3 31 51 52
3 31 34 51
3 55 57 56
3 55 58 57
3 57 58 59
3 57 59 60
3 61 63 62
3 61 64 63
3 65 62 63
3 65 66 62
3 65 67 66
3 65 68 67
3 69 68 65
3 69 65 70
3 63 70 65
3 69 70 71
3 69 71 72
3 63 73 70
3 71 70 73
3 64 73 63
3 71 73 74
3 73 75 74
3 75 64 61
3 73 76 75
3 75 76 64
3 64 76 73
3 77 79 78
3 77 80 79
3 81 79 80
3 81 82 79
3 83 77 78
3 83 84 77
3 85 87 86
3 85 88 87
3 87 81 86
3 87 82 81
3 83 88 85
3 83 85 84
3 89 91 90
3 89 92 91
3 67 91 92
3 67 68 91
3 68 90 91
3 68 69 90
3 69 89 90
3 69 72 89
3 93 95 94
3 93 96 95
3 97 96 93
3 97 93 98
3 99 101 100
3 99 102 101
3 103 102 99
3 103 99 104
3 103 105 102
3 103 106 105
3 102 107 101
3 102 108 107
3 102 109 108
3 102 105 109
3 109 105 110
3 111 100 101
3 111 112 100
3 99 112 104
3 99 100 112
3 111 101 113
3 111 113 114
3 101 115 113
3 101 107 115
3 115 116 113
3 117 116 115
3 117 118 116
3 117 119 118
3 109 119 117
3 109 110 119
3 120 103 104
3 120 121 103
3 122 120 104
3 123 122 104
3 123 104 112
3 121 106 103
3 123 112 124
3 124 112 111
3 124 111 125
3 125 111 114
3 114 126 125
3 126 127 125
3 126 128 127
3 129 106 121
3 130 129 121
3 130 131 129
3 132 134 133
3 132 135 134
3 132 136 135
3 136 132 137
3 132 133 138
3 133 134 139
3 140 133 139
3 140 139 141
3 141 142 140
3 140 142 143
3 143 142 144
3 143 144 145
3 140 143 146
3 141 147 142
3 147 144 142
3 148 147 141
3 149 148 141
3 141 139 149
3 149 150 148
3 148 151 147
3 151 148 152
3 150 152 148
3 151 152 153
3 150 154 152
3 150 155 154
3 156 155 150
3 156 150 149
3 157 154 155
3 157 158 154
3 159 145 144
3 159 160 145
3 161 159 144
3 161 144 162
3 147 162 144
3 163 161 162
3 164 161 163
3 164 163 165
3 166 161 164
3 159 161 166
3 163 162 167
3 167 168 163
3 165 163 168
3 167 169 168
3 165 168 170
3 165 170 171
3 172 165 171
3 172 164 165
3 173 171 170
3 173 170 174
3 168 174 170
3 152 168 169
3 175 168 152
3 175 152 176
3 175 177 168
3 177 178 168
3 168 178 174
3 152 169 153
3 176 152 154
3 176 154 158
3 179 181 180
3 179 182 181
3 182 183 181
3 183 180 181
3 182 184 183
3 184 182 179
3 184 179 185
3 184 185 186
3 184 186 183
3 183 187 180
3 183 186 187
3 188 190 189
3 188 191 190
3 192 188 189
3 190 191 193
3 190 193 194
3 190 194 195
3 192 189 196
3 192 196 197
3 191 188 198
3 191 198 199
3 193 191 199
3 193 199 200
3 192 193 200
3 192 194 193
3 192 197 194
3 195 194 201
3 197 196 202
3 202 196 203
3 202 203 204
3 195 201 205
3 195 205 206
3 207 206 205
3 208 206 207
3 209 208 207
3 209 207 210
3 204 203 210
3 210 211 209
3 210 203 211
3 208 212 206
3 209 211 213
3 209 214 208
3 209 213 214
3 214 212 208
3 215 214 213
3 215 216 214
3 216 212 214
3 216 217 212
3 213 218 215
3 213 211 218
3 219 221 220
3 219 222 221
3 219 220 223
3 219 223 224
3 225 199 198
3 225 200 199
3 192 200 225
3 226 228 227
3 226 229 228
3 230 228 229
3 230 229 231
3 232 226 227
3 232 233 226
3 233 232 234
3 233 234 235
3 230 231 236
3 230 236 237
3 238 223 239
3 238 224 223
3 240 242 241
3 240 243 242
3 241 242 244
3 243 244 242
3 241 244 245
3 243 246 244
3 247 241 245
3 247 240 241
3 248 250 249
3 248 251 250
3 252 251 248
3 252 253 251
3 254 248 249
3 254 252 248
3 255 249 250
3 255 250 256
3 257 255 256
3 257 256 258
3 259 254 260
3 259 261 254
3 260 262 259
3 260 263 262
3 257 263 260
3 257 260 255
3 258 263 257
3 258 262 263
3 254 261 253
3 254 253 252
3 264 266 265
3 264 267 266
3 268 265 269
3 268 264 265
3 270 268 269
3 270 271 268
3 272 274 273
3 272 275 274
3 274 275 276
3 274 276 277
3 277 276 278
3 277 278 279
3 280 282 281
3 280 283 282
3 282 283 284
3 282 284 285
3 285 284 286
3 285 286 287
3 288 290 289
3 288 291 290
3 289 290 292
3 289 292 293
3 289 294 288
3 289 293 294
3 290 291 295
3 290 295 296
3 292 290 296
3 296 295 297
3 296 297 298
3 299 298 297
3 299 297 300
3 301 298 299
3 301 296 298
3 292 296 301
3 302 304 303
3 302 294 304
3 294 305 304
3 294 293 305
3 293 306 305
3 293 292 306
3 292 307 306
3 292 301 307
3 301 308 307
3 301 299 308
3 299 309 308
3 299 300 309
3 300 310 309
3 300 311 310
3 311 303 310
3 311 302 303
3 312 314 313
3 312 315 314
3 314 316 313
3 314 317 316
3 317 318 316
3 317 319 318
3 320 322 321
3 320 323 322
3 322 324 321
3 322 325 324
3 325 326 324
3 325 327 326
3 328 330 329
3 328 331 330
3 331 332 330
3 331 333 332
3 331 334 333
3 331 328 334
3 330 335 329
3 330 336 335
3 332 336 330
3 336 337 335
3 336 338 337
3 339 337 338
3 339 340 337
3 341 338 336
3 341 339 338
3 332 341 336
3 342 343 334
3 342 344 343
3 334 343 345
3 334 345 333
3 333 345 346
3 333 346 332
3 332 346 347
3 332 347 341
3 341 347 348
3 341 348 339
3 339 348 349
3 339 349 340
3 340 349 350
3 340 350 351
3 351 344 342
3 351 350 344
3 352 354 353
3 352 355 354
3 356 355 352
3 356 352 357
3 353 354 358
3 353 358 359
3 133 140 138
3 138 140 146
3 138 146 360
3 361 138 360
3 362 138 361
3 363 138 362
3 138 363 132
3 361 360 364
3 132 363 365
3 132 365 137
3 137 365 366
3 137 366 367
3 137 367 136
3 364 368 361
3 364 369 368
3 368 369 370
3 368 370 371
3 371 372 368
3 361 372 362
3 361 368 372
3 371 373 372
3 373 371 374
3 371 370 160
3 371 160 159
3 375 371 159
3 374 371 375
3 374 376 373
3 374 377 376
3 377 378 376
3 379 376 378
3 377 380 378
3 377 381 380
3 382 378 380
3 382 380 383
3 384 378 382
3 384 379 378
3 385 379 384
3 386 385 384
3 386 387 385
3 388 379 385
3 388 366 379
3 388 367 366
3 388 389 367
3 365 379 366
3 365 376 379
3 390 392 391
3 390 391 393
3 390 393 394
3 394 393 395
3 156 157 155
3 156 396 157
3 397 123 398
3 397 122 123
3 399 401 400
3 363 403 402
3 363 362 403
3 362 404 403
3 362 405 404
3 405 363 402
3 405 402 404
3 362 406 405
3 362 372 406
3 372 407 406
3 372 408 407
3 373 408 372
3 373 409 408
3 406 409 373
3 406 407 409
3 381 377 374
3 374 410 381
3 374 411 410
3 374 375 411
3 411 375 166
3 159 166 375
3 172 173 412
3 172 171 173
3 413 415 414
3 413 416 415
3 417 416 413
3 417 418 416
3 397 420 419
3 397 398 420
3 419 420 421
3 419 421 422
3 422 421 423
3 422 423 424
3 425 427 426
3 188 225 198
3 188 192 225
3 428 430 429
3 428 431 430
3 432 431 428
3 432 433 431
3 433 430 431
3 433 434 430
3 434 429 430
3 434 435 429
3 435 428 429
3 435 432 428
3 436 438 437
3 436 439 438
3 440 439 436
3 440 441 439
3 441 438 439
3 441 442 438
3 442 437 438
3 442 443 437
3 443 436 437
3 443 440 436
3 444 446 445
3 444 447 446
3 448 446 447
3 448 447 449
3 448 449 450
3 448 450 451
3 452 448 451
3 452 453 448
3 446 448 453
3 452 454 453
3 452 455 454
3 445 446 456
3 454 456 453
3 446 453 456
3 445 456 457
3 456 458 457
3 458 445 457
3 458 444 445
3 456 459 458
3 454 459 456
3 460 462 461
3 460 463 462
3 464 461 462
3 464 462 465
3 466 463 460
3 466 460 467
3 468 470 469
3 468 471 470
3 470 471 464
3 470 464 465
3 466 468 469
3 466 467 468
3 472 474 473
3 472 475 474
3 450 473 474
3 450 474 451
3 451 474 475
3 451 475 452
3 452 475 472
3 452 472 455
3 476 478 477
3 476 479 478
3 478 480 477
3 478 481 480
3 482 484 483
3 482 485 484
3 486 484 485
3 486 485 487
3 486 487 488
3 486 488 489
3 490 486 489
3 490 491 486
3 484 486 491
3 490 492 491
3 490 493 492
3 484 491 494
3 492 494 491
3 483 484 494
3 492 495 494
3 494 495 496
3 496 482 483
3 494 496 497
3 496 483 497
3 483 494 497
3 498 500 499
3 498 501 500
3 502 499 500
3 502 500 503
3 504 501 498
3 504 498 505
3 506 508 507
3 506 509 508
3 508 509 502
3 508 502 503
3 504 506 507
3 504 505 506
3 510 512 511
3 510 513 512
3 488 511 512
3 488 512 489
3 489 512 513
3 489 513 490
3 490 513 510
3 490 510 493
3 514 516 515
3 514 517 516
3 518 514 515
3 518 519 514
3 520 522 521
3 520 523 522
3 524 523 520
3 524 525 523
3 526 520 521
3 526 521 527
3 528 530 529
3 528 531 530
3 531 532 530
3 533 535 534
3 533 534 536
3 537 533 536
3 538 540 539
3 538 541 540
3 538 542 541
