ply
format ascii 1.0
element vertex 779
property float x
property float y
property float z
property uchar red
property uchar green
property uchar blue
element face 926
property list uchar int vertex_index
end_header
-0.18927 0.6924 1.3242 255 226 108
-0.18927 0.6924 1.49023 255 226 108
0.18822 0.69341 1.49023 255 226 108
0.18822 0.69341 1.3242 255 226 108
-0.18999 1.13875 1.3242 255 226 108
0.1875 1.13975 1.3242 255 226 108
0.21689 1.10908 1.3242 255 226 108
0.21751 0.72423 1.3242 255 226 108
0.21751 0.72423 1.49023 255 226 108
-0.21866 0.72307 1.3242 255 226 108
-0.21928 1.10792 1.3242 255 226 108
-0.21866 0.72307 1.49023 255 226 108
-0.21928 1.10792 1.49023 255 226 108
-0.05106 0.9409 2.16701 252 104 63
-0.03162 0.96584 2.16701 252 104 63
0.02974 0.96606 2.16701 252 104 63
0.04919 0.94112 2.16701 252 104 63
-0.05096 0.89103 2.16701 252 104 63
0.04929 0.89125 2.16701 252 104 63
-0.03151 0.86609 2.16701 252 104 63
0.02985 0.86632 2.16701 252 104 63
-0.18999 1.13875 1.82488 242 100 60
-0.18999 1.13875 1.49023 242 100 60
0.1875 1.13975 1.49023 242 100 60
0.1875 1.13975 1.82488 242 100 60
0.21689 1.10908 1.82488 242 100 60
0.21689 1.10908 1.49023 242 100 60
0.21751 0.72423 1.49023 242 100 60
0.21751 0.72423 1.82488 242 100 60
-0.21928 1.10792 1.49023 242 100 60
-0.21928 1.10792 1.82488 242 100 60
0.21689 1.10908 1.49023 255 226 108
0.1875 1.13975 1.49023 255 226 108
-0.18999 1.13875 1.49023 255 226 108
-0.18927 0.6924 1.82488 252 104 63
-0.09322 0.79305 1.82488 252 104 63
0.0918 0.79361 1.82488 252 104 63
0.18822 0.69341 1.82488 252 104 63
-0.12413 0.8293 1.82488 252 104 63
-0.21866 0.72307 1.82488 252 104 63
0.21751 0.72423 1.82488 252 104 63
0.1226 0.83008 1.82488 252 104 63
-0.12437 1.00207 1.82488 252 104 63
-0.21928 1.10792 1.82488 252 104 63
0.1875 1.13975 1.82488 252 104 63
0.21689 1.10908 1.82488 252 104 63
0.12236 1.00285 1.82488 252 104 63
0.09145 1.0391 1.82488 252 104 63
-0.09358 1.03854 1.82488 252 104 63
-0.18999 1.13875 1.82488 252 104 63
-0.09322 0.79305 1.82488 242 100 60
-0.09322 0.79305 2.00097 242 100 60
0.0918 0.79361 2.00097 242 100 60
0.0918 0.79361 1.82488 242 100 60
-0.12413 0.8293 2.00097 242 100 60
-0.12413 0.8293 1.82488 242 100 60
-0.12437 1.00207 1.82488 242 100 60
-0.12437 1.00207 2.00097 242 100 60
0.1226 0.83008 2.00097 242 100 60
0.1226 0.83008 1.82488 242 100 60
0.12236 1.00285 2.00097 242 100 60
0.09145 1.0391 2.00097 242 100 60
0.09145 1.0391 1.82488 242 100 60
0.12236 1.00285 1.82488 242 100 60
-0.09358 1.03854 2.00097 242 100 60
-0.09358 1.03854 1.82488 242 100 60
-0.18927 0.6924 1.49023 242 100 60
-0.18927 0.6924 1.82488 242 100 60
0.18822 0.69341 1.82488 242 100 60
0.18822 0.69341 1.49023 242 100 60
-0.21866 0.72307 1.82488 242 100 60
-0.21866 0.72307 1.49023 242 100 60
-0.09322 0.79305 2.00097 252 104 63
-0.03857 0.85456 2.00097 252 104 63
0.03694 0.85484 2.00097 252 104 63
0.0918 0.79361 2.00097 252 104 63
-0.06251 0.88525 2.00097 252 104 63
-0.12413 0.8293 2.00097 252 104 63
0.06086 0.88553 2.00097 252 104 63
0.1226 0.83008 2.00097 252 104 63
-0.06263 0.94662 2.00097 252 104 63
-0.12437 1.00207 2.00097 252 104 63
0.06074 0.9469 2.00097 252 104 63
0.0368 0.97759 2.00097 252 104 63
0.09145 1.0391 2.00097 252 104 63
0.12236 1.00285 2.00097 252 104 63
-0.03871 0.97731 2.00097 252 104 63
-0.09358 1.03854 2.00097 252 104 63
-0.03857 0.85456 2.00097 242 100 60
-0.03857 0.85456 2.1507 242 100 60
0.03694 0.85484 2.1507 242 100 60
0.03694 0.85484 2.00097 242 100 60
-0.06251 0.88525 2.1507 242 100 60
-0.06251 0.88525 2.00097 242 100 60
-0.06263 0.94662 2.00097 242 100 60
-0.06263 0.94662 2.1507 242 100 60
0.06086 0.88553 2.1507 242 100 60
0.06086 0.88553 2.00097 242 100 60
0.02985 0.86632 2.16701 242 100 60
-0.03151 0.86609 2.16701 242 100 60
0.04929 0.89125 2.16701 242 100 60
-0.05096 0.89103 2.16701 242 100 60
-0.05106 0.9409 2.16701 242 100 60
0.06074 0.9469 2.1507 242 100 60
0.0368 0.97759 2.1507 242 100 60
0.0368 0.97759 2.00097 242 100 60
0.06074 0.9469 2.00097 242 100 60
-0.03871 0.97731 2.1507 242 100 60
-0.03871 0.97731 2.00097 242 100 60
0.04919 0.94112 2.16701 242 100 60
0.02974 0.96606 2.16701 242 100 60
-0.03162 0.96584 2.16701 242 100 60
-0.21434 1.0531 1.43939 255 226 108
-0.21434 1.0531 1.586 255 226 108
-0.24714 1.05303 1.586 255 226 108
-0.24714 1.05303 1.43939 255 226 108
-0.24684 0.90642 1.586 255 226 108
-0.21404 0.90649 1.586 255 226 108
-0.21404 0.90649 1.43939 255 226 108
-0.24684 0.90642 1.43939 255 226 108
0.17151 0.70976 1.5777 255 226 108
0.17164 0.64199 1.5777 255 226 108
0.02503 0.64166 1.5777 255 226 108
0.0249 0.70943 1.5777 255 226 108
0.02503 0.64166 1.43109 255 226 108
0.17164 0.64199 1.43109 255 226 108
0.0249 0.70943 1.43109 255 226 108
0.17151 0.70976 1.43109 255 226 108
0.24797 0.94103 1.44673 255 226 108
0.24797 0.94103 1.59334 255 226 108
0.20963 0.94096 1.59334 255 226 108
0.20963 0.94096 1.44673 255 226 108
0.20994 0.79435 1.59334 255 226 108
0.24828 0.79443 1.59334 255 226 108
0.24828 0.79443 1.44673 255 226 108
0.20994 0.79435 1.44673 255 226 108
0.13902 1.1763 1.40937 255 226 108
0.13902 1.1763 1.55597 255 226 108
-0.00759 1.17597 1.55597 255 226 108
-0.00759 1.17597 1.40937 255 226 108
-0.00751 1.13183 1.55597 255 226 108
0.1391 1.13216 1.55597 255 226 108
0.1391 1.13216 1.40937 255 226 108
-0.00751 1.13183 1.40937 255 226 108
0.0955 1.16042 1.59949 255 226 108
0.0955 1.16042 1.71657 255 226 108
0.0176 1.16024 1.71657 255 226 108
0.0176 1.16024 1.59949 255 226 108
0.01765 1.13493 1.71657 255 226 108
0.09555 1.13511 1.71657 255 226 108
0.09555 1.13511 1.59949 255 226 108
0.01765 1.13493 1.59949 255 226 108
-0.214 0.94144 1.62975 255 226 108
-0.214 0.94144 1.74683 255 226 108
-0.23241 0.9414 1.74683 255 226 108
-0.23241 0.9414 1.62975 255 226 108
-0.23224 0.86351 1.74683 255 226 108
-0.21384 0.86354 1.74683 255 226 108
-0.21384 0.86354 1.62975 255 226 108
-0.23224 0.86351 1.62975 255 226 108
-0.10627 0.69961 1.53916 255 226 108
-0.10622 0.67553 1.53916 255 226 108
-0.18412 0.67535 1.53916 255 226 108
-0.18417 0.69944 1.53916 255 226 108
-0.18412 0.67535 1.46126 255 226 108
-0.10622 0.67553 1.46126 255 226 108
-0.18417 0.69944 1.46126 255 226 108
-0.10627 0.69961 1.46126 255 226 108
0.23175 1.05774 1.6142 255 226 108
0.23175 1.05774 1.73128 255 226 108
0.21131 1.0577 1.73128 255 226 108
0.21131 1.0577 1.6142 255 226 108
0.21148 0.9798 1.73128 255 226 108
0.23191 0.97984 1.73128 255 226 108
0.23191 0.97984 1.6142 255 226 108
0.21148 0.9798 1.6142 255 226 108
0.25238 1.06174 1.45922 255 226 108
0.25238 1.06174 1.54502 255 226 108
0.2102 1.06165 1.54502 255 226 108
0.2102 1.06165 1.45922 255 226 108
0.21038 0.97585 1.54502 255 226 108
0.25256 0.97593 1.54502 255 226 108
0.25256 0.97593 1.45922 255 226 108
0.21038 0.97585 1.45922 255 226 108
-0.00047 0.69773 1.52427 255 226 108
-0.0004 0.66064 1.52427 255 226 108
-0.0862 0.66044 1.52427 255 226 108
-0.08628 0.69754 1.52427 255 226 108
-0.0862 0.66044 1.43847 255 226 108
-0.0004 0.66064 1.43847 255 226 108
-0.08628 0.69754 1.43847 255 226 108
-0.00047 0.69773 1.43847 255 226 108
-0.2137 0.85204 1.45875 255 226 108
-0.2137 0.85204 1.54973 255 226 108
-0.2329 0.852 1.54973 255 226 108
-0.2329 0.852 1.45875 255 226 108
-0.23271 0.76102 1.54973 255 226 108
-0.21351 0.76106 1.54973 255 226 108
-0.21351 0.76106 1.45875 255 226 108
-0.23271 0.76102 1.45875 255 226 108
-0.10966 1.15788 1.45107 255 226 108
-0.10966 1.15788 1.51872 255 226 108
-0.1773 1.15773 1.51872 255 226 108
-0.1773 1.15773 1.45107 255 226 108
-0.17726 1.13385 1.51872 255 226 108
-0.10961 1.13401 1.51872 255 226 108
-0.10961 1.13401 1.45107 255 226 108
-0.17726 1.13385 1.45107 255 226 108
-0.06938 1.15215 1.55914 255 226 108
-0.06938 1.15215 1.60057 255 226 108
-0.11082 1.15205 1.60057 255 226 108
-0.11082 1.15205 1.55914 255 226 108
-0.11079 1.137 1.60057 255 226 108
-0.06936 1.13709 1.60057 255 226 108
-0.06936 1.13709 1.55914 255 226 108
-0.11079 1.137 1.55914 255 226 108
-0.0608 0.69819 1.72975 255 226 108
-0.06077 0.68028 1.72975 255 226 108
-0.1022 0.68019 1.72975 255 226 108
-0.10223 0.69809 1.72975 255 226 108
-0.1022 0.68019 1.64914 255 226 108
-0.06077 0.68028 1.64914 255 226 108
-0.10223 0.69809 1.64914 255 226 108
-0.0608 0.69819 1.64914 255 226 108
0.23202 -0.42996 1.13193 255 227 77
0.35182 -0.42996 1.35305 255 227 77
0.27624 -0.42996 1.08191 255 227 77
0.27635 -0.42996 0.34156 255 227 77
0.35182 -0.42996 0.34156 255 227 77
0.35182 -0.39139 0.29544 255 227 77
0.4054 -0.39113 0.34155 255 227 77
0.4054 0.27108 0.34155 255 227 77
0.4054 0.27108 1.35305 255 227 77
0.4054 -0.39113 1.35305 255 227 77
0.35182 0.27126 0.29544 255 227 77
0.27637 -0.39139 0.29544 255 227 77
0.25 0.27126 0.29544 255 227 77
-0.35182 -0.42996 1.35305 255 227 77
-0.23202 -0.42996 1.13193 255 227 77
-0.27624 -0.42996 1.08191 255 227 77
-0.27635 -0.42996 0.34156 255 227 77
-0.35182 -0.42996 0.34156 255 227 77
-0.35182 -0.39139 0.29544 255 227 77
-0.4054 -0.39113 0.34155 255 227 77
-0.4054 0.27108 0.34155 255 227 77
-0.4054 0.27108 1.35305 255 227 77
-0.4054 -0.39113 1.35305 255 227 77
-0.35182 0.27126 0.29544 255 227 77
-0.27637 -0.39139 0.29544 255 227 77
-0.25 0.27126 0.29544 255 227 77
0.25 0.30991 0.74991 255 227 77
0.25 0.30991 0.34156 255 227 77
0.35182 0.30991 0.34156 255 227 77
0.35182 0.30991 1.35305 255 227 77
-0.35182 0.30991 1.35305 255 227 77
-0.25 0.30991 0.74991 255 227 77
-0.35182 0.30991 0.34156 255 227 77
-0.25 0.30991 0.34156 255 227 77
-0.25 0.97081 0.29545 255 227 77
0.25 0.97081 0.29545 255 227 77
-0.25 0.64379 0.74927 255 227 77
0.25 0.64379 0.74927 255 227 77
0.25 0.71085 0.80001 255 227 77
0.25 1.02796 0.35206 255 227 77
-0.25 0.71085 0.80001 255 227 77
-0.25 1.02796 0.35206 255 227 77
0.2092 -0.54824 1.8703 16 35 34
0.2092 -0.54824 1.88118 16 35 34
0.27522 -0.54824 1.88118 16 35 34
0.27522 -0.54824 1.8703 16 35 34
0.2092 -0.54824 1.97072 16 35 34
0.27522 -0.54824 1.97072 16 35 34
0.32839 -0.54824 1.83872 51 111 115
0.32839 -0.54824 1.88118 51 111 115
0.32839 -0.53131 1.88118 51 111 115
0.32839 -0.53131 1.83872 51 111 115
0.27522 -0.54824 1.88118 51 111 115
0.27522 -0.54824 1.8703 51 111 115
0.13427 -0.54824 1.83872 51 111 115
0.2092 -0.54824 1.8703 51 111 115
0.13427 -0.54824 1.88118 51 111 115
0.2092 -0.54824 1.88118 51 111 115
0.32839 -0.54824 2.02451 255 227 77
0.27522 -0.54824 1.97072 255 227 77
0.2092 -0.54824 1.97072 255 227 77
0.13427 -0.54824 2.02451 255 227 77
0.13427 -0.54824 2.02451 28 62 61
0.2092 -0.54824 1.97072 28 62 61
0.2092 -0.54824 1.88118 28 62 61
0.13427 -0.54824 1.88118 28 62 61
0.25915 -0.55317 1.91589 225 225 225
0.25915 -0.55317 1.99464 225 225 225
0.30279 -0.55317 1.99464 225 225 225
0.30279 -0.55317 1.91589 225 225 225
0.25915 -0.54676 1.91589 225 225 225
0.30279 -0.54676 1.91589 225 225 225
0.30279 -0.54676 1.99464 225 225 225
0.25915 -0.54676 1.99464 225 225 225
0.33217 -0.47695 1.43066 226 138 128
0.33217 -0.62865 1.43066 226 138 128
0.33217 -0.62865 1.54343 226 138 128
0.33217 -0.47695 1.54343 226 138 128
-0.33217 -0.47695 1.54343 226 138 128
-0.33217 -0.62865 1.54343 226 138 128
-0.33217 -0.62865 1.43066 226 138 128
-0.33217 -0.47695 1.43066 226 138 128
0.36818 -0.76541 1.66116 255 255 255
0.36818 -0.76541 1.58508 255 255 255
0.28672 -0.76541 1.58508 255 255 255
0.28672 -0.76541 1.66116 255 255 255
0.28672 -0.69695 1.58508 255 255 255
0.36818 -0.69695 1.58508 255 255 255
0.28672 -0.69695 1.66116 255 255 255
0.36818 -0.69695 1.66116 255 255 255
0.2126 -0.71035 1.43202 255 255 255
0.2126 -0.71035 1.49087 255 255 255
0.27145 -0.71035 1.49087 255 255 255
0.27145 -0.71035 1.43202 255 255 255
0.27145 -0.6515 1.49087 255 255 255
0.2126 -0.6515 1.49087 255 255 255
0.27145 -0.6515 1.43202 255 255 255
0.2126 -0.6515 1.43202 255 255 255
0.44295 -0.56419 2.19563 255 227 77
0.50196 -0.48286 2.19563 255 227 77
0.50196 -0.48286 1.8011 255 227 77
0.44295 -0.56419 1.84466 255 227 77
0.44725 -0.43629 2.2674 255 227 77
0.39769 -0.50948 2.2674 255 227 77
0.44725 0.30075 2.2674 255 227 77
0.50196 0.34732 2.19563 255 227 77
0.44286 -0.70513 1.84466 255 227 77
0.50195 -0.7174 1.8011 255 227 77
0.39756 -0.75402 1.84466 255 227 77
0.42554 -0.81082 1.8011 255 227 77
0.42554 -0.81082 1.65716 255 227 77
0.50195 -0.7174 1.65716 255 227 77
0.125 -0.81082 1.65716 255 227 77
0.50195 -0.48289 1.65716 255 227 77
0.40396 -0.56419 2.07668 255 227 77
0.40396 -0.56419 1.84466 255 227 77
0.40396 -0.53349 2.07668 255 227 77
0.40396 -0.53349 1.84466 255 227 77
0.14071 -0.53349 1.84466 255 227 77
0.14071 -0.56419 1.84466 255 227 77
0 -0.75402 1.84466 255 227 77
0 -0.81082 1.8011 255 227 77
0.07711 -0.56419 1.96725 255 227 77
0.07711 -0.56419 1.84466 255 227 77
0 -0.56419 2.07668 255 227 77
0.05876 -0.56419 1.96725 255 227 77
0.05876 -0.56419 1.84466 255 227 77
0 -0.56419 1.84466 255 227 77
-0.42554 -0.81082 1.8011 255 227 77
-0.39756 -0.75402 1.84466 255 227 77
-0.50195 -0.7174 1.8011 255 227 77
-0.42554 -0.81082 1.65716 255 227 77
-0.50195 -0.7174 1.65716 255 227 77
-0.125 -0.81082 1.65716 255 227 77
-0.44286 -0.70513 1.84466 255 227 77
-0.50196 -0.48286 1.8011 255 227 77
-0.44295 -0.56419 1.84466 255 227 77
-0.44295 -0.56419 2.19563 255 227 77
-0.50196 -0.48286 2.19563 255 227 77
-0.44725 -0.43629 2.2674 255 227 77
-0.39769 -0.50948 2.2674 255 227 77
-0.44725 0.30075 2.2674 255 227 77
-0.50196 0.34732 2.19563 255 227 77
-0.50195 -0.48289 1.65716 255 227 77
-0.40396 -0.56419 2.07668 255 227 77
-0.40396 -0.56419 1.84466 255 227 77
-0.40396 -0.53349 2.07668 255 227 77
-0.40396 -0.53349 1.84466 255 227 77
-0.14071 -0.56419 1.84466 255 227 77
-0.14071 -0.53349 1.84466 255 227 77
-0.50196 0.34732 1.39041 255 227 77
-0.07711 -0.56419 1.96725 255 227 77
-0.07711 -0.56419 1.84466 255 227 77
-0.05876 -0.56419 1.96725 255 227 77
-0.05876 -0.56419 1.84466 255 227 77
0.4075 0.42865 2.19563 255 227 77
0.4075 0.42865 1.39041 255 227 77
0.50196 0.34732 1.39041 255 227 77
0.36224 0.37394 2.2674 255 227 77
0.1751 0.37394 2.2674 255 227 77
0.1751 0.42865 2.19563 255 227 77
0.44725 0.30075 1.31864 255 227 77
0.39178 0.37394 1.31864 255 227 77
0.12225 0.71012 2.62784 255 227 77
0.1751 0.30075 2.2674 255 227 77
0.12225 0.53493 2.75033 255 227 77
0.1751 0.0848 2.2674 255 227 77
-0.39178 0.37394 1.31864 255 227 77
-0.44725 0.30075 1.31864 255 227 77
-0.4075 0.42865 1.39041 255 227 77
-0.4075 0.42865 2.19563 255 227 77
-0.36224 0.37394 2.2674 255 227 77
-0.1751 0.37394 2.2674 255 227 77
-0.1751 0.42865 2.19563 255 227 77
-0.12225 0.71012 2.62784 255 227 77
-0.1751 0.30075 2.2674 255 227 77
-0.12225 0.53493 2.75033 255 227 77
-0.1751 0.0848 2.2674 255 227 77
-0.0978 0.70821 2.66241 255 227 77
0.0978 0.70821 2.66241 255 227 77
-0.0978 0.56806 2.76041 255 227 77
0.0978 0.56806 2.76041 255 227 77
0.44295 -0.60632 1.31855 255 227 77
0.50195 -0.65015 1.39038 255 227 77
0.36546 -0.68621 1.31855 255 227 77
0.42554 -0.74357 1.39038 255 227 77
0.50195 -0.65015 1.43428 255 227 77
0.42554 -0.74357 1.43428 255 227 77
0.39829 -0.69066 1.43428 255 227 77
0.4494 -0.62257 1.43428 255 227 77
0.50195 -0.48295 1.43428 255 227 77
0.4494 -0.48295 1.43428 255 227 77
0.4494 -0.48289 1.65716 255 227 77
-0.36546 -0.68621 1.31855 255 227 77
-0.42554 -0.74357 1.39038 255 227 77
-0.50195 -0.65015 1.39038 255 227 77
-0.44295 -0.60632 1.31855 255 227 77
-0.50195 -0.65015 1.43428 255 227 77
-0.42554 -0.74357 1.43428 255 227 77
-0.39829 -0.69066 1.43428 255 227 77
-0.4494 -0.62257 1.43428 255 227 77
-0.50195 -0.48295 1.43428 255 227 77
-0.4494 -0.48295 1.43428 255 227 77
-0.4494 -0.48289 1.65716 255 227 77
0.36224 0.37394 2.2674 255 231 105
0.44725 0.30075 2.2674 255 231 105
0.1751 0.30075 2.2674 255 231 105
0.1751 0.37394 2.2674 255 231 105
0.1751 0.0848 2.2674 255 231 105
0.44725 -0.43629 2.2674 255 231 105
-0.44725 -0.43629 2.2674 255 231 105
-0.39769 -0.50948 2.2674 255 231 105
0.39769 -0.50948 2.2674 255 231 105
-0.1751 0.0848 2.2674 255 231 105
-0.44725 0.30075 2.2674 255 231 105
-0.1751 0.30075 2.2674 255 231 105
-0.36224 0.37394 2.2674 255 231 105
-0.1751 0.37394 2.2674 255 231 105
0.12225 0.53493 2.75033 255 231 105
-0.12225 0.53493 2.75033 255 231 105
0.0978 0.56806 2.76041 255 231 105
-0.0978 0.56806 2.76041 255 231 105
0.4494 -0.68978 1.65716 255 227 77
0.39829 -0.75788 1.65716 255 227 77
0.125 -0.75788 1.65716 255 227 77
0.10259 -0.81082 1.60053 255 227 77
0.10259 -0.75788 1.60054 255 227 77
-0.10259 -0.75788 1.60054 255 227 77
-0.10259 -0.81082 1.60053 255 227 77
-0.125 -0.75788 1.65716 255 227 77
-0.39829 -0.75788 1.65716 255 227 77
-0.4494 -0.68978 1.65716 255 227 77
0.125 -0.75788 1.65716 187 115 87
0.39829 -0.75788 1.65716 187 115 87
0.4494 -0.68978 1.65716 187 115 87
-0.4494 -0.68978 1.65716 187 115 87
-0.4494 -0.48289 1.65716 187 115 87
0.4494 -0.48289 1.65716 187 115 87
-0.125 -0.75788 1.65716 187 115 87
-0.39829 -0.75788 1.65716 187 115 87
0.44295 -0.56419 1.84466 255 231 105
0.44286 -0.70513 1.84466 255 231 105
0.40396 -0.56419 1.84466 255 231 105
0.14071 -0.56419 1.84466 255 231 105
0.07711 -0.56419 1.84466 255 231 105
0 -0.70513 1.84466 255 231 105
0.39756 -0.75402 1.84466 255 231 105
0 -0.75402 1.84466 255 231 105
0.05876 -0.56419 1.84466 255 231 105
0 -0.56419 1.84466 255 231 105
-0.39756 -0.75402 1.84466 255 231 105
-0.44286 -0.70513 1.84466 255 231 105
-0.05876 -0.56419 1.84466 255 231 105
-0.07711 -0.56419 1.84466 255 231 105
-0.14071 -0.56419 1.84466 255 231 105
-0.40396 -0.56419 1.84466 255 231 105
-0.44295 -0.56419 1.84466 255 231 105
0.40396 -0.53349 1.84466 225 225 225
0.14071 -0.53349 1.84466 225 225 225
0.40396 -0.53349 2.07668 225 225 225
0.32839 -0.53131 1.88118 28 62 61
0.32839 -0.54824 1.88118 28 62 61
0.32839 -0.54824 2.02451 28 62 61
0.32839 -0.53131 2.02451 28 62 61
0.27522 -0.54824 1.97072 28 62 61
0.27522 -0.54824 1.88118 28 62 61
0.06275 -0.81082 1.64903 255 227 77
0.06275 -0.81082 1.6973 255 227 77
0.04095 -0.81082 1.64903 255 227 77
0.04095 -0.81082 1.6973 255 227 77
-0.04095 -0.81082 1.64903 255 227 77
-0.04095 -0.81082 1.6973 255 227 77
-0.06275 -0.81082 1.64903 255 227 77
-0.06275 -0.81082 1.6973 255 227 77
0.27637 -0.39139 0.29544 255 253 156
-0.27637 -0.39139 0.29544 255 253 156
-0.27635 -0.42996 0.34156 255 253 156
0.27635 -0.42996 0.34156 255 253 156
-0.25 0.27126 0.29544 255 253 156
0.25 0.27126 0.29544 255 253 156
-0.27624 -0.42996 1.08191 255 253 156
0.27624 -0.42996 1.08191 255 253 156
0.23202 -0.42996 1.13193 255 253 156
-0.23202 -0.42996 1.13193 255 253 156
0.05876 -0.56419 1.96725 225 200 68
0.07711 -0.56419 1.96725 225 200 68
0.07711 -0.56419 1.84466 225 200 68
0.05876 -0.56419 1.84466 225 200 68
0.04095 -0.80054 1.6973 225 200 68
0.06275 -0.80054 1.6973 225 200 68
0.06275 -0.80054 1.64903 225 200 68
0.04095 -0.80054 1.64903 225 200 68
0.04095 -0.81082 1.6973 225 200 68
0.06275 -0.81082 1.6973 225 200 68
0.06275 -0.81082 1.64903 225 200 68
0.04095 -0.81082 1.64903 225 200 68
-0.2092 -0.54824 1.8703 16 35 34
-0.27522 -0.54824 1.8703 16 35 34
-0.27522 -0.54824 1.88118 16 35 34
-0.2092 -0.54824 1.88118 16 35 34
-0.2092 -0.54824 1.97072 16 35 34
-0.27522 -0.54824 1.97072 16 35 34
-0.32839 -0.54824 1.83872 51 111 115
-0.32839 -0.53131 1.83872 51 111 115
-0.32839 -0.53131 1.88118 51 111 115
-0.32839 -0.54824 1.88118 51 111 115
-0.27522 -0.54824 1.88118 51 111 115
-0.27522 -0.54824 1.8703 51 111 115
-0.13427 -0.54824 1.83872 51 111 115
-0.2092 -0.54824 1.8703 51 111 115
-0.13427 -0.54824 1.88118 51 111 115
-0.2092 -0.54824 1.88118 51 111 115
-0.32839 -0.54824 2.02451 255 227 77
-0.13427 -0.54824 2.02451 255 227 77
-0.2092 -0.54824 1.97072 255 227 77
-0.27522 -0.54824 1.97072 255 227 77
-0.13427 -0.54824 2.02451 28 62 61
-0.13427 -0.54824 1.88118 28 62 61
-0.2092 -0.54824 1.88118 28 62 61
-0.2092 -0.54824 1.97072 28 62 61
-0.25915 -0.55317 1.91589 225 225 225
-0.30279 -0.55317 1.91589 225 225 225
-0.30279 -0.55317 1.99464 225 225 225
-0.25915 -0.55317 1.99464 225 225 225
-0.25915 -0.54676 1.91589 225 225 225
-0.30279 -0.54676 1.91589 225 225 225
-0.30279 -0.54676 1.99464 225 225 225
-0.25915 -0.54676 1.99464 225 225 225
-0.36818 -0.76541 1.66116 255 255 255
-0.28672 -0.76541 1.66116 255 255 255
-0.28672 -0.76541 1.58508 255 255 255
-0.36818 -0.76541 1.58508 255 255 255
-0.28672 -0.69695 1.58508 255 255 255
-0.36818 -0.69695 1.58508 255 255 255
-0.28672 -0.69695 1.66116 255 255 255
-0.36818 -0.69695 1.66116 255 255 255
-0.2126 -0.71035 1.43202 255 255 255
-0.27145 -0.71035 1.43202 255 255 255
-0.27145 -0.71035 1.49087 255 255 255
-0.2126 -0.71035 1.49087 255 255 255
-0.27145 -0.6515 1.49087 255 255 255
-0.2126 -0.6515 1.49087 255 255 255
-0.27145 -0.6515 1.43202 255 255 255
-0.2126 -0.6515 1.43202 255 255 255
-0.40396 -0.53349 1.84466 225 225 225
-0.40396 -0.53349 2.07668 225 225 225
-0.14071 -0.53349 1.84466 225 225 225
-0.32839 -0.53131 1.88118 28 62 61
-0.32839 -0.53131 2.02451 28 62 61
-0.32839 -0.54824 2.02451 28 62 61
-0.32839 -0.54824 1.88118 28 62 61
-0.27522 -0.54824 1.97072 28 62 61
-0.27522 -0.54824 1.88118 28 62 61
0.4494 -0.48295 1.43428 187 115 87
-0.4494 -0.48295 1.43428 187 115 87
-0.4494 -0.62257 1.43428 187 115 87
0.4494 -0.62257 1.43428 187 115 87
-0.39829 -0.69066 1.43428 187 115 87
0.39829 -0.69066 1.43428 187 115 87
-0.05876 -0.56419 1.96725 225 200 68
-0.05876 -0.56419 1.84466 225 200 68
-0.07711 -0.56419 1.84466 225 200 68
-0.07711 -0.56419 1.96725 225 200 68
-0.04095 -0.80054 1.6973 225 200 68
-0.04095 -0.80054 1.64903 225 200 68
-0.06275 -0.80054 1.64903 225 200 68
-0.06275 -0.80054 1.6973 225 200 68
-0.04095 -0.81082 1.6973 225 200 68
-0.06275 -0.81082 1.6973 225 200 68
-0.06275 -0.81082 1.64903 225 200 68
-0.04095 -0.81082 1.64903 225 200 68
0.25 0.97081 0.29545 255 253 156
-0.25 0.97081 0.29545 255 253 156
0.25 1.02796 0.35206 255 253 156
-0.25 1.02796 0.35206 255 253 156
-0.25 1.02796 0.80074 255 253 156
0.25 1.02796 0.80074 255 253 156
-0.145 1.02796 1.34417 255 253 156
0.14397 1.02796 1.34417 255 253 156
0.14397 0.79847 1.34417 255 227 77
-0.145 0.79847 1.34417 255 227 77
-0.25 1.02796 0.80074 255 227 77
-0.145 1.02796 1.34417 255 227 77
0.14397 1.02796 1.34417 255 227 77
0.25 1.02796 0.80074 255 227 77
0.26434 0.11891 0.00475 255 227 77
0.51851 0.11866 0.00475 255 227 77
0.51851 0.03949 0.31294 255 227 77
0.26434 0.03976 0.31303 255 227 77
0.51851 0.09447 0.65295 255 227 77
0.26434 0.09447 0.65301 255 227 77
0.28151 0.03936 0.71735 255 227 77
0.4911 0.03918 0.71733 255 227 77
0.20073 0.07306 0.00483 255 227 77
0.20073 -0.00742 0.31292 255 227 77
0.57284 -0.00747 0.31292 255 227 77
0.57284 0.07311 0.00483 255 227 77
0.20073 0.05121 0.65304 255 227 77
0.57284 0.05101 0.65304 255 227 77
0.24747 -0.00059 0.7174 255 227 77
0.52647 -0.00018 0.7174 255 227 77
0.52625 -0.20777 0.7174 255 227 77
0.24759 -0.20786 0.7174 255 227 77
0.20073 -0.25938 0.65304 255 227 77
0.20073 -0.34704 0.35874 255 227 77
0.57284 -0.25957 0.65304 255 227 77
0.57284 -0.34723 0.35874 255 227 77
0.20073 -0.34768 0.25898 255 227 77
0.20073 -0.23744 0.00483 255 227 77
0.28751 -0.17664 0.00483 255 227 77
0.29063 0.03027 0.00483 255 227 77
0.57284 -0.3474 0.25898 255 227 77
0.57284 -0.23771 0.00483 255 227 77
0.49182 0.02906 0.00483 255 227 77
0.49815 -0.17913 0.00483 255 227 77
0.29063 0.03027 0.00483 255 253 156
0.28751 -0.17664 0.00483 255 253 156
0.49815 -0.17913 0.00483 255 253 156
0.49182 0.02906 0.00483 255 253 156
0.26297 -0.30967 0.00845 255 248 211
0.26297 -0.30967 0.06698 255 248 211
0.51192 -0.3095 0.06698 255 248 211
0.51192 -0.3095 0.00845 255 248 211
0.23477 -0.22944 0.00845 255 248 211
0.54651 -0.22937 0.00845 255 248 211
0.54651 -0.22937 0.06698 255 248 211
0.23477 -0.22944 0.06698 255 248 211
0.26297 -0.30967 0.06698 255 251 229
0.23477 -0.22944 0.06698 255 251 229
0.54651 -0.22937 0.06698 255 251 229
0.51192 -0.3095 0.06698 255 251 229
-0.26434 0.11891 0.00475 255 227 77
-0.26434 0.03976 0.31303 255 227 77
-0.51851 0.03949 0.31294 255 227 77
-0.51851 0.11866 0.00475 255 227 77
-0.51851 0.09447 0.65295 255 227 77
-0.26434 0.09447 0.65301 255 227 77
-0.28151 0.03936 0.71735 255 227 77
-0.4911 0.03918 0.71733 255 227 77
-0.20073 0.07306 0.00483 255 227 77
-0.20073 -0.00742 0.31292 255 227 77
-0.57284 -0.00747 0.31292 255 227 77
-0.57284 0.07311 0.00483 255 227 77
-0.20073 0.05121 0.65304 255 227 77
-0.57284 0.05101 0.65304 255 227 77
-0.24747 -0.00059 0.7174 255 227 77
-0.52647 -0.00018 0.7174 255 227 77
-0.24759 -0.20786 0.7174 255 227 77
-0.52625 -0.20777 0.7174 255 227 77
-0.20073 -0.25938 0.65304 255 227 77
-0.20073 -0.34704 0.35874 255 227 77
-0.57284 -0.25957 0.65304 255 227 77
-0.57284 -0.34723 0.35874 255 227 77
-0.20073 -0.34768 0.25898 255 227 77
-0.20073 -0.23744 0.00483 255 227 77
-0.28751 -0.17664 0.00483 255 227 77
-0.29063 0.03027 0.00483 255 227 77
-0.57284 -0.3474 0.25898 255 227 77
-0.57284 -0.23771 0.00483 255 227 77
-0.49182 0.02906 0.00483 255 227 77
-0.49815 -0.17913 0.00483 255 227 77
-0.29063 0.03027 0.00483 255 253 156
-0.49182 0.02906 0.00483 255 253 156
-0.49815 -0.17913 0.00483 255 253 156
-0.28751 -0.17664 0.00483 255 253 156
-0.26297 -0.30967 0.00845 255 248 211
-0.51192 -0.3095 0.00845 255 248 211
-0.51192 -0.3095 0.06698 255 248 211
-0.26297 -0.30967 0.06698 255 248 211
-0.23477 -0.22944 0.00845 255 248 211
-0.54651 -0.22937 0.00845 255 248 211
-0.54651 -0.22937 0.06698 255 248 211
-0.23477 -0.22944 0.06698 255 248 211
-0.26297 -0.30967 0.06698 255 251 229
-0.51192 -0.3095 0.06698 255 251 229
-0.54651 -0.22937 0.06698 255 251 229
-0.23477 -0.22944 0.06698 255 251 229
0.37015 -0.10551 0.85867 255 227 77
0.37014 -0.25406 1.13476 255 227 77
0.4997 -0.25269 1.13549 255 227 77
0.49956 -0.10437 0.85928 255 227 77
0.37014 -0.25406 1.13476 255 231 105
0.36988 0.0146 1.27915 255 231 105
0.71807 0.01468 1.2792 255 231 105
0.4997 -0.25269 1.13549 255 231 105
0.80221 -0.05411 1.24222 255 231 105
0.49928 -0.61577 0.94029 255 231 105
0.80304 -0.61557 0.94039 255 231 105
0.53245 -0.64616 0.88768 255 231 105
0.76409 -0.64608 0.88772 255 231 105
0.36988 0.0146 1.27915 255 227 77
0.36989 0.16295 1.00296 255 227 77
0.71812 0.16324 1.00312 255 227 77
0.71807 0.01468 1.2792 255 227 77
0.80221 -0.05411 1.24222 255 227 77
0.80212 0.09445 0.96614 255 227 77
0.80304 -0.61557 0.94039 255 227 77
0.80303 -0.46707 0.66428 255 227 77
0.49927 -0.46726 0.66418 255 227 77
0.49928 -0.61577 0.94029 255 227 77
0.53234 -0.53328 0.6777 255 227 77
0.53245 -0.64616 0.88768 255 227 77
0.76409 -0.64608 0.88772 255 227 77
0.76415 -0.53344 0.67761 255 227 77
0.53517 -0.68919 0.85135 255 248 211
0.75917 -0.68952 0.85186 255 248 211
0.75933 -0.66348 0.80143 255 248 211
0.53533 -0.66315 0.80092 255 248 211
0.53458 -0.60291 0.83204 255 248 211
0.53456 -0.62982 0.882 255 248 211
0.75856 -0.63015 0.88251 255 251 229
0.75917 -0.68952 0.85186 255 251 229
0.53517 -0.68919 0.85135 255 251 229
0.53456 -0.62982 0.882 255 251 229
0.75858 -0.60324 0.83255 255 248 211
0.75856 -0.63015 0.88251 255 248 211
-0.37015 -0.10551 0.85867 255 227 77
-0.49956 -0.10437 0.85928 255 227 77
-0.4997 -0.25269 1.13549 255 227 77
-0.37014 -0.25406 1.13476 255 227 77
-0.37014 -0.25406 1.13476 255 231 105
-0.4997 -0.25269 1.13549 255 231 105
-0.71807 0.01468 1.2792 255 231 105
-0.36988 0.0146 1.27915 255 231 105
-0.80221 -0.05411 1.24222 255 231 105
-0.49928 -0.61577 0.94029 255 231 105
-0.80304 -0.61557 0.94039 255 231 105
-0.53245 -0.64616 0.88768 255 231 105
-0.76409 -0.64608 0.88772 255 231 105
-0.36988 0.0146 1.27915 255 227 77
-0.71807 0.01468 1.2792 255 227 77
-0.71812 0.16324 1.00312 255 227 77
-0.36989 0.16295 1.00296 255 227 77
-0.80221 -0.05411 1.24222 255 227 77
-0.80212 0.09445 0.96614 255 227 77
-0.80304 -0.61557 0.94039 255 227 77
-0.80303 -0.46707 0.66428 255 227 77
-0.49927 -0.46726 0.66418 255 227 77
-0.49928 -0.61577 0.94029 255 227 77
-0.53234 -0.53328 0.6777 255 227 77
-0.76415 -0.53344 0.67761 255 227 77
-0.76409 -0.64608 0.88772 255 227 77
-0.53245 -0.64616 0.88768 255 227 77
-0.53517 -0.68919 0.85135 255 248 211
-0.53533 -0.66315 0.80092 255 248 211
-0.75933 -0.66348 0.80143 255 248 211
-0.75917 -0.68952 0.85186 255 248 211
-0.53458 -0.60291 0.83204 255 248 211
-0.53456 -0.62982 0.882 255 248 211
-0.75856 -0.63015 0.88251 255 251 229
-0.53456 -0.62982 0.882 255 251 229
-0.53517 -0.68919 0.85135 255 251 229
-0.75917 -0.68952 0.85186 255 251 229
-0.75858 -0.60324 0.83255 255 248 211
-0.75856 -0.63015 0.88251 255 248 211
3 0 2 1
3 0 3 2
3 4 3 0
3 4 5 3
3 3 5 6
3 3 6 7
3 2 3 7
3 2 7 8
3 4 0 9
3 4 9 10
3 10 9 11
3 0 11 9
3 0 1 11
3 10 11 12
3 13 15 14
3 13 16 15
3 17 16 13
3 17 18 16
3 19 18 17
3 19 20 18
3 21 23 22
3 21 24 23
3 23 24 25
3 23 25 26
3 27 26 25
3 27 25 28
3 21 22 29
3 21 29 30
3 7 31 8
3 7 6 31
3 5 31 6
3 5 32 31
3 33 32 5
3 33 5 4
3 33 4 10
3 33 10 12
3 34 36 35
3 34 37 36
3 38 34 35
3 38 39 34
3 40 36 37
3 40 41 36
3 42 39 38
3 42 43 39
3 44 46 45
3 44 47 46
3 44 48 47
3 44 49 48
3 45 46 41
3 45 41 40
3 49 42 48
3 49 43 42
3 50 52 51
3 50 53 52
3 54 50 51
3 54 55 50
3 56 55 54
3 56 54 57
3 53 58 52
3 53 59 58
3 60 62 61
3 60 63 62
3 62 64 61
3 62 65 64
3 65 57 64
3 65 56 57
3 63 60 58
3 63 58 59
3 66 68 67
3 66 69 68
3 68 69 27
3 68 27 28
3 66 67 70
3 66 70 71
3 29 71 70
3 29 70 30
3 72 74 73
3 72 75 74
3 76 72 73
3 76 77 72
3 75 78 74
3 75 79 78
3 80 77 76
3 80 81 77
3 82 84 83
3 82 85 84
3 84 86 83
3 84 87 86
3 78 85 82
3 78 79 85
3 87 80 86
3 87 81 80
3 88 90 89
3 88 91 90
3 92 88 89
3 92 93 88
3 94 93 92
3 94 92 95
3 91 96 90
3 91 97 96
3 89 90 98
3 89 98 99
3 92 89 99
3 90 100 98
3 90 96 100
3 95 92 101
3 92 99 101
3 95 101 102
3 103 105 104
3 103 106 105
3 105 107 104
3 105 108 107
3 108 95 107
3 108 94 95
3 106 103 96
3 106 96 97
3 96 103 109
3 96 109 100
3 103 110 109
3 103 104 110
3 104 111 110
3 104 107 111
3 107 102 111
3 107 95 102
3 112 114 113
3 112 115 114
3 113 114 116
3 113 116 117
3 118 115 112
3 118 119 115
3 117 119 118
3 117 116 119
3 115 119 116
3 115 116 114
3 120 122 121
3 120 123 122
3 121 122 124
3 121 124 125
3 125 124 126
3 126 122 123
3 126 124 122
3 125 126 127
3 125 120 121
3 125 127 120
3 128 130 129
3 128 131 130
3 129 130 132
3 129 132 133
3 134 131 128
3 134 129 133
3 134 128 129
3 134 135 131
3 133 135 134
3 133 132 135
3 136 138 137
3 136 139 138
3 137 138 140
3 137 140 141
3 142 139 136
3 142 137 141
3 142 136 137
3 142 143 139
3 139 140 138
3 139 143 140
3 144 146 145
3 144 147 146
3 145 146 148
3 145 148 149
3 150 147 144
3 150 145 149
3 150 144 145
3 150 151 147
3 147 148 146
3 147 151 148
3 152 154 153
3 152 155 154
3 153 154 156
3 153 156 157
3 158 155 152
3 158 159 155
3 157 159 158
3 157 156 159
3 155 159 156
3 155 156 154
3 160 162 161
3 160 163 162
3 161 162 164
3 161 164 165
3 165 164 166
3 166 162 163
3 166 164 162
3 165 166 167
3 165 160 161
3 165 167 160
3 168 170 169
3 168 171 170
3 169 170 172
3 169 172 173
3 174 171 168
3 174 169 173
3 174 168 169
3 174 175 171
3 173 175 174
3 173 172 175
3 176 178 177
3 176 179 178
3 177 178 180
3 177 180 181
3 182 179 176
3 182 177 181
3 182 176 177
3 182 183 179
3 181 183 182
3 181 180 183
3 184 186 185
3 184 187 186
3 185 186 188
3 185 188 189
3 189 188 190
3 190 186 187
3 190 188 186
3 189 190 191
3 189 184 185
3 189 191 184
3 192 194 193
3 192 195 194
3 193 194 196
3 193 196 197
3 198 195 192
3 198 199 195
3 197 199 198
3 197 196 199
3 195 199 196
3 195 196 194
3 200 202 201
3 200 203 202
3 201 202 204
3 201 204 205
3 206 203 200
3 206 201 205
3 206 200 201
3 206 207 203
3 203 204 202
3 203 207 204
3 208 210 209
3 208 211 210
3 209 210 212
3 209 212 213
3 214 211 208
3 214 209 213
3 214 208 209
3 214 215 211
3 211 212 210
3 211 215 212
3 216 218 217
3 216 219 218
3 217 218 220
3 217 220 221
3 221 220 222
3 222 218 219
3 222 220 218
3 221 222 223
3 221 216 217
3 221 223 216
3 224 226 225
3 227 225 226
3 227 228 225
3 229 228 227
3 230 228 229
3 231 230 229
3 232 230 231
3 232 233 230
3 233 228 230
3 233 225 228
3 231 229 234
3 234 229 235
3 229 227 235
3 234 235 236
3 224 225 237
3 224 237 238
3 238 237 239
3 240 239 237
3 240 237 241
3 242 240 241
3 243 242 241
3 244 242 243
3 245 244 243
3 245 243 246
3 246 241 237
3 246 243 241
3 244 247 242
3 247 248 242
3 242 248 240
3 247 249 248
3 250 252 251
3 250 253 252
3 231 252 253
3 231 253 232
3 234 252 231
3 251 252 234
3 251 234 236
3 250 254 253
3 250 255 254
3 255 256 254
3 255 257 256
3 244 254 256
3 244 245 254
3 247 244 256
3 257 247 256
3 257 249 247
3 249 257 258
3 236 259 251
3 260 257 255
3 258 257 260
3 255 261 260
3 255 250 261
3 259 262 261
3 259 263 262
3 251 259 261
3 251 261 250
3 258 260 264
3 258 264 265
3 266 268 267
3 266 269 268
3 268 270 267
3 268 271 270
3 272 274 273
3 272 275 274
3 272 273 276
3 272 276 277
3 278 272 277
3 278 277 279
3 280 278 279
3 280 279 281
3 282 284 283
3 282 285 284
3 286 288 287
3 286 289 288
3 290 292 291
3 290 293 292
3 294 293 290
3 294 290 291
3 294 295 293
3 293 296 292
3 293 295 296
3 294 291 297
3 298 300 299
3 298 301 300
3 300 301 302
3 300 302 303
3 300 304 299
3 300 303 304
3 305 303 302
3 305 304 303
3 306 308 307
3 306 309 308
3 307 308 310
3 309 310 308
3 307 310 311
3 309 312 310
3 313 307 311
3 313 306 307
3 311 312 313
3 311 310 312
3 314 316 315
3 314 317 316
3 315 316 318
3 317 318 316
3 315 318 319
3 317 320 318
3 321 315 319
3 321 314 315
3 319 320 321
3 319 318 320
3 322 324 323
3 322 325 324
3 322 323 326
3 322 326 327
3 323 328 326
3 323 329 328
3 324 329 323
3 324 325 330
3 324 330 331
3 331 330 332
3 331 332 333
3 331 333 334
3 331 334 335
3 324 331 335
3 333 336 334
3 324 335 337
3 325 322 338
3 325 338 339
3 339 338 340
3 339 340 341
3 338 342 340
3 338 343 342
3 343 341 342
3 343 339 341
3 333 332 344
3 333 344 345
3 343 338 346
3 343 346 347
3 348 346 338
3 322 348 338
3 348 349 346
3 348 350 349
3 348 351 350
3 352 345 344
3 352 344 353
3 354 352 353
3 354 355 352
3 354 356 355
3 352 355 357
3 354 353 358
3 359 354 358
3 359 356 354
3 359 358 360
3 361 359 360
3 361 362 359
3 361 363 362
3 361 364 363
3 362 363 365
3 362 365 366
3 359 362 366
3 359 367 356
3 360 368 361
3 360 369 368
3 369 370 368
3 369 371 370
3 372 371 369
3 372 373 371
3 359 374 367
3 359 366 374
3 327 364 361
3 327 361 322
3 348 361 368
3 322 361 348
3 348 368 375
3 372 375 368
3 372 376 375
3 348 375 377
3 348 377 378
3 348 378 351
3 368 373 372
3 368 370 373
3 329 380 379
3 329 381 380
3 329 379 382
3 379 383 382
3 379 384 383
3 379 380 384
3 329 382 328
3 380 381 385
3 380 385 386
3 383 384 387
3 388 383 387
3 388 387 389
3 390 388 389
3 385 391 386
3 385 392 391
3 393 391 392
3 386 393 380
3 386 391 393
3 393 392 374
3 366 393 374
3 366 394 393
3 366 395 394
3 394 395 396
3 394 396 397
3 394 397 393
3 366 365 395
3 396 398 397
3 399 398 396
3 399 400 398
3 401 400 399
3 384 397 398
3 384 398 387
3 380 397 384
3 380 393 397
3 387 398 402
3 387 402 403
3 403 402 404
3 398 404 402
3 398 400 404
3 403 404 405
3 389 403 405
3 389 387 403
3 385 407 406
3 385 381 407
3 407 408 406
3 407 409 408
3 410 409 407
3 410 411 409
3 410 412 411
3 410 413 412
3 414 413 410
3 414 415 413
3 414 416 415
3 414 337 416
3 381 410 407
3 381 414 410
3 381 337 414
3 324 337 381
3 324 381 329
3 409 417 408
3 409 418 417
3 411 418 409
3 419 417 418
3 419 420 417
3 392 420 419
3 392 419 374
3 421 419 418
3 421 418 422
3 421 422 423
3 421 423 424
3 425 421 424
3 425 424 426
3 425 426 427
3 425 427 367
3 374 421 425
3 374 419 421
3 374 425 367
3 408 417 420
3 408 420 406
3 412 423 422
3 412 422 411
3 411 422 418
3 428 430 429
3 428 431 430
3 432 429 430
3 432 433 429
3 432 434 433
3 433 434 435
3 433 435 436
3 432 437 434
3 437 438 434
3 437 439 438
3 440 438 439
3 440 439 441
3 442 437 432
3 442 443 437
3 443 442 444
3 443 444 445
3 335 416 337
3 335 446 416
3 334 446 335
3 334 447 446
3 336 447 334
3 336 448 447
3 448 336 449
3 448 449 450
3 449 451 450
3 449 452 451
3 453 451 452
3 450 453 448
3 450 451 453
3 453 452 357
3 357 454 453
3 357 355 454
3 355 455 454
3 355 356 455
3 356 427 455
3 356 367 427
3 456 458 457
3 456 459 458
3 458 459 460
3 458 460 461
3 456 462 459
3 462 463 459
3 464 466 465
3 465 466 467
3 465 467 468
3 465 468 469
3 470 465 469
3 470 469 471
3 468 472 469
3 472 473 469
3 474 471 469
3 474 469 475
3 476 469 473
3 475 469 477
3 477 469 476
3 475 477 478
3 475 478 479
3 480 475 479
3 481 483 482
3 484 486 485
3 484 487 486
3 485 486 488
3 485 488 489
3 336 491 490
3 449 336 490
3 449 490 492
3 336 333 491
3 333 493 491
3 333 345 493
3 492 452 449
3 492 494 452
3 493 494 492
3 494 493 345
3 494 345 495
3 452 494 496
3 452 496 357
3 357 496 497
3 352 495 345
3 352 497 495
3 357 497 352
3 498 500 499
3 498 501 500
3 502 498 499
3 502 503 498
3 501 504 500
3 501 505 504
3 506 504 505
3 506 507 504
3 508 510 509
3 508 511 510
3 512 514 513
3 512 515 514
3 516 512 513
3 516 513 517
3 517 513 514
3 517 514 518
3 518 514 515
3 518 515 519
3 519 512 516
3 519 515 512
3 520 522 521
3 520 523 522
3 522 523 524
3 522 524 525
3 526 528 527
3 526 529 528
3 526 530 529
3 526 531 530
3 532 531 526
3 532 533 531
3 534 533 532
3 534 535 533
3 536 538 537
3 536 539 538
3 540 542 541
3 540 543 542
3 544 546 545
3 544 547 546
3 548 544 545
3 548 547 544
3 548 545 549
3 545 550 549
3 545 546 550
3 548 551 547
3 552 554 553
3 552 555 554
3 555 556 554
3 553 554 556
3 555 557 556
3 553 556 558
3 559 555 552
3 559 557 555
3 557 558 556
3 557 559 558
3 560 562 561
3 560 563 562
3 563 564 562
3 561 562 564
3 563 565 564
3 561 564 566
3 567 563 560
3 567 565 563
3 565 566 564
3 565 567 566
3 568 570 569
3 571 573 572
3 571 574 573
3 574 575 573
3 574 576 575
3 406 392 385
3 406 420 392
3 461 578 577
3 461 460 578
3 577 578 579
3 577 579 580
3 580 579 581
3 580 581 582
3 583 585 584
3 583 586 585
3 587 589 588
3 587 590 589
3 591 590 587
3 591 592 590
3 592 589 590
3 592 593 589
3 593 588 589
3 593 594 588
3 594 587 588
3 594 591 587
3 503 596 595
3 503 502 596
3 596 597 595
3 596 598 597
3 597 598 599
3 597 599 600
3 600 599 601
3 600 601 602
3 260 262 264
3 260 261 262
3 264 262 603
3 264 603 604
3 605 264 604
3 605 604 606
3 262 607 603
3 262 608 607
3 262 263 608
3 265 264 605
3 609 611 610
3 609 612 611
3 612 613 611
3 612 614 613
3 613 614 615
3 613 615 616
3 617 612 609
3 617 618 612
3 618 614 612
3 619 610 611
3 619 620 610
3 618 621 614
3 621 615 614
3 622 611 613
3 622 619 611
3 621 623 615
3 623 616 615
3 623 624 616
3 624 613 616
3 624 622 613
3 624 626 625
3 624 623 626
3 621 626 623
3 621 627 626
3 627 625 626
3 618 627 621
3 618 628 627
3 629 627 628
3 627 629 625
3 629 624 625
3 629 628 630
3 618 631 628
3 630 628 631
3 632 631 618
3 632 618 617
3 617 633 632
3 617 634 633
3 630 631 635
3 619 630 635
3 636 619 635
3 636 631 632
3 636 635 631
3 636 632 633
3 636 620 619
3 620 634 617
3 622 630 619
3 622 629 630
3 620 637 634
3 636 637 620
3 636 638 637
3 636 633 638
3 629 622 624
3 620 617 609
3 620 609 610
3 639 641 640
3 639 642 641
3 643 645 644
3 643 646 645
3 647 646 643
3 647 643 644
3 647 648 646
3 646 649 645
3 646 648 649
3 647 644 650
3 651 653 652
3 651 654 653
3 655 657 656
3 655 658 657
3 656 657 659
3 656 659 660
3 659 661 660
3 659 662 661
3 663 655 656
3 663 656 664
3 664 656 660
3 665 657 658
3 665 658 666
3 664 660 667
3 667 660 661
3 668 657 665
3 668 659 657
3 667 661 669
3 669 661 662
3 669 662 670
3 670 659 668
3 670 662 659
3 670 671 669
3 670 672 671
3 667 669 671
3 667 671 673
3 673 671 672
3 664 667 673
3 664 673 674
3 675 674 673
3 673 672 675
3 675 672 670
3 675 676 674
3 664 674 677
3 676 677 674
3 678 664 677
3 678 663 664
3 663 678 679
3 663 679 680
3 676 681 677
3 665 681 676
3 682 681 665
3 682 677 681
3 682 678 677
3 682 679 678
3 682 665 666
3 666 663 680
3 668 676 675
3 668 665 676
3 666 680 683
3 682 666 683
3 682 683 684
3 682 684 679
3 675 670 668
3 666 655 663
3 666 658 655
3 685 687 686
3 685 688 687
3 689 691 690
3 689 692 691
3 693 689 690
3 693 692 689
3 693 690 694
3 690 695 694
3 690 691 695
3 693 696 692
3 697 699 698
3 697 700 699
3 701 703 702
3 701 704 703
3 705 707 706
3 705 708 707
3 707 708 709
3 709 708 710
3 709 710 711
3 711 710 712
3 711 712 713
3 714 716 715
3 714 717 716
3 715 716 704
3 715 704 701
3 716 717 718
3 716 718 719
3 704 716 719
3 719 718 720
3 719 720 721
3 704 719 721
3 704 721 722
3 703 704 722
3 703 722 723
3 724 726 725
3 724 727 726
3 722 727 724
3 722 721 727
3 721 726 727
3 721 720 726
3 723 724 725
3 723 722 724
3 728 730 729
3 728 731 730
3 732 731 728
3 732 728 733
3 734 736 735
3 734 737 736
3 731 738 730
3 731 732 738
3 730 738 739
3 730 739 729
3 740 742 741
3 740 743 742
3 744 746 745
3 744 747 746
3 746 748 745
3 748 749 745
3 748 750 749
3 750 751 749
3 750 752 751
3 753 755 754
3 753 756 755
3 756 741 755
3 756 740 741
3 755 757 754
3 755 758 757
3 741 758 755
3 758 759 757
3 758 760 759
3 741 760 758
3 741 761 760
3 742 761 741
3 742 762 761
3 763 765 764
3 763 766 765
3 761 763 764
3 761 764 760
3 760 764 765
3 760 765 759
3 762 763 761
3 762 766 763
3 767 769 768
3 767 770 769
3 771 767 768
3 771 772 767
3 773 775 774
3 773 776 775
3 768 777 771
3 768 769 777
3 769 778 777
3 769 770 778
