ply
format ascii 1.0
element vertex 775
property float x
property float y
property float z
property uchar red
property uchar green
property uchar blue
element face 926
property list uchar int vertex_index
end_header
-0.18927 0.6924 1.3242 255 226 108
-0.18927 0.6924 1.49023 255 226 108
0.18822 0.69341 1.49023 255 226 108
0.18822 0.69341 1.3242 255 226 108
-0.18999 1.13875 1.3242 255 226 108
0.1875 1.13975 1.3242 255 226 108
0.21689 1.10908 1.3242 255 226 108
0.21751 0.72423 1.3242 255 226 108
0.21751 0.72423 1.49023 255 226 108
-0.21866 0.72307 1.3242 255 226 108
-0.21928 1.10792 1.3242 255 226 108
-0.21866 0.72307 1.49023 255 226 108
-0.21928 1.10792 1.49023 255 226 108
-0.05106 0.9409 2.16701 252 104 63
-0.03162 0.96584 2.16701 252 104 63
0.02974 0.96606 2.16701 252 104 63
0.04919 0.94112 2.16701 252 104 63
-0.05096 0.89103 2.16701 252 104 63
0.04929 0.89125 2.16701 252 104 63
-0.03151 0.86609 2.16701 252 104 63
0.02985 0.86632 2.16701 252 104 63
-0.18999 1.13875 1.82488 242 100 60
-0.18999 1.13875 1.49023 242 100 60
0.1875 1.13975 1.49023 242 100 60
0.1875 1.13975 1.82488 242 100 60
0.21689 1.10908 1.82488 242 100 60
0.21689 1.10908 1.49023 242 100 60
0.21751 0.72423 1.49023 242 100 60
0.21751 0.72423 1.82488 242 100 60
-0.21928 1.10792 1.49023 242 100 60
-0.21928 1.10792 1.82488 242 100 60
0.21689 1.10908 1.49023 255 226 108
0.1875 1.13975 1.49023 255 226 108
-0.18999 1.13875 1.49023 255 226 108
-0.18927 0.6924 1.82488 252 104 63
-0.09322 0.79305 1.82488 252 104 63
0.0918 0.79361 1.82488 252 104 63
0.18822 0.69341 1.82488 252 104 63
-0.12413 0.8293 1.82488 252 104 63
-0.21866 0.72307 1.82488 252 104 63
0.21751 0.72423 1.82488 252 104 63
0.1226 0.83008 1.82488 252 104 63
-0.12437 1.00207 1.82488 252 104 63
-0.21928 1.10792 1.82488 252 104 63
0.1875 1.13975 1.82488 252 104 63
0.21689 1.10908 1.82488 252 104 63
0.12236 1.00285 1.82488 252 104 63
0.09145 1.0391 1.82488 252 104 63
-0.09358 1.03854 1.82488 252 104 63
-0.18999 1.13875 1.82488 252 104 63
-0.09322 0.79305 1.82488 242 100 60
-0.09322 0.79305 2.00097 242 100 60
0.0918 0.79361 2.00097 242 100 60
0.0918 0.79361 1.82488 242 100 60
-0.12413 0.8293 2.00097 242 100 60
-0.12413 0.8293 1.82488 242 100 60
-0.12437 1.00207 1.82488 242 100 60
-0.12437 1.00207 2.00097 242 100 60
0.1226 0.83008 2.00097 242 100 60
0.1226 0.83008 1.82488 242 100 60
0.12236 1.00285 2.00097 242 100 60
0.09145 1.0391 2.00097 242 100 60
0.09145 1.0391 1.82488 242 100 60
0.12236 1.00285 1.82488 242 100 60
-0.09358 1.03854 2.00097 242 100 60
-0.09358 1.03854 1.82488 242 100 60
-0.18927 0.6924 1.49023 242 100 60
-0.18927 0.6924 1.82488 242 100 60
0.18822 0.69341 1.82488 242 100 60
0.18822 0.69341 1.49023 242 100 60
-0.21866 0.72307 1.82488 242 100 60
-0.21866 0.72307 1.49023 242 100 60
-0.09322 0.79305 2.00097 252 104 63
-0.03857 0.85456 2.00097 252 104 63
0.03694 0.85484 2.00097 252 104 63
0.0918 0.79361 2.00097 252 104 63
-0.06251 0.88525 2.00097 252 104 63
-0.12413 0.8293 2.00097 252 104 63
0.06086 0.88553 2.00097 252 104 63
0.1226 0.83008 2.00097 252 104 63
-0.06263 0.94662 2.00097 252 104 63
-0.12437 1.00207 2.00097 252 104 63
0.06074 0.9469 2.00097 252 104 63
0.0368 0.97759 2.00097 252 104 63
0.09145 1.0391 2.00097 252 104 63
0.12236 1.00285 2.00097 252 104 63
-0.03871 0.97731 2.00097 252 104 63
-0.09358 1.03854 2.00097 252 104 63
-0.03857 0.85456 2.00097 242 100 60
-0.03857 0.85456 2.1507 242 100 60
0.03694 0.85484 2.1507 242 100 60
0.03694 0.85484 2.00097 242 100 60
-0.06251 0.88525 2.1507 242 100 60
-0.06251 0.88525 2.00097 242 100 60
-0.06263 0.94662 2.00097 242 100 60
-0.06263 0.94662 2.1507 242 100 60
0.06086 0.88553 2.1507 242 100 60
0.06086 0.88553 2.00097 242 100 60
0.02985 0.86632 2.16701 242 100 60
-0.03151 0.86609 2.16701 242 100 60
0.04929 0.89125 2.16701 242 100 60
-0.05096 0.89103 2.16701 242 100 60
-0.05106 0.9409 2.16701 242 100 60
0.06074 0.9469 2.1507 242 100 60
0.0368 0.97759 2.1507 242 100 60
0.0368 0.97759 2.00097 242 100 60
0.06074 0.9469 2.00097 242 100 60
-0.03871 0.97731 2.1507 242 100 60
-0.03871 0.97731 2.00097 242 100 60
0.04919 0.94112 2.16701 242 100 60
0.02974 0.96606 2.16701 242 100 60
-0.03162 0.96584 2.16701 242 100 60
-0.21434 1.0531 1.43939 255 226 108
-0.21434 1.0531 1.586 255 226 108
-0.24714 1.05303 1.586 255 226 108
-0.24714 1.05303 1.43939 255 226 108
-0.24684 0.90642 1.586 255 226 108
-0.21404 0.90649 1.586 255 226 108
-0.21404 0.90649 1.43939 255 226 108
-0.24684 0.90642 1.43939 255 226 108
0.17151 0.70976 1.5777 255 226 108
0.17164 0.64199 1.5777 255 226 108
0.02503 0.64166 1.5777 255 226 108
0.0249 0.70943 1.5777 255 226 108
0.02503 0.64166 1.43109 255 226 108
0.17164 0.64199 1.43109 255 226 108
0.0249 0.70943 1.43109 255 226 108
0.17151 0.70976 1.43109 255 226 108
0.24797 0.94103 1.44673 255 226 108
0.24797 0.94103 1.59334 255 226 108
0.20963 0.94096 1.59334 255 226 108
0.20963 0.94096 1.44673 255 226 108
0.20994 0.79435 1.59334 255 226 108
0.24828 0.79443 1.59334 255 226 108
0.24828 0.79443 1.44673 255 226 108
0.20994 0.79435 1.44673 255 226 108
0.13902 1.1763 1.40937 255 226 108
0.13902 1.1763 1.55597 255 226 108
-0.00759 1.17597 1.55597 255 226 108
-0.00759 1.17597 1.40937 255 226 108
-0.00751 1.13183 1.55597 255 226 108
0.1391 1.13216 1.55597 255 226 108
0.1391 1.13216 1.40937 255 226 108
-0.00751 1.13183 1.40937 255 226 108
0.0955 1.16042 1.59949 255 226 108
0.0955 1.16042 1.71657 255 226 108
0.0176 1.16024 1.71657 255 226 108
0.0176 1.16024 1.59949 255 226 108
0.01765 1.13493 1.71657 255 226 108
0.09555 1.13511 1.71657 255 226 108
0.09555 1.13511 1.59949 255 226 108
0.01765 1.13493 1.59949 255 226 108
-0.214 0.94144 1.62975 255 226 108
-0.214 0.94144 1.74683 255 226 108
-0.23241 0.9414 1.74683 255 226 108
-0.23241 0.9414 1.62975 255 226 108
-0.23224 0.86351 1.74683 255 226 108
-0.21384 0.86354 1.74683 255 226 108
-0.21384 0.86354 1.62975 255 226 108
-0.23224 0.86351 1.62975 255 226 108
-0.10627 0.69961 1.53916 255 226 108
-0.10622 0.67553 1.53916 255 226 108
-0.18412 0.67535 1.53916 255 226 108
-0.18417 0.69944 1.53916 255 226 108
-0.18412 0.67535 1.46126 255 226 108
-0.10622 0.67553 1.46126 255 226 108
-0.18417 0.69944 1.46126 255 226 108
-0.10627 0.69961 1.46126 255 226 108
0.23175 1.05774 1.6142 255 226 108
0.23175 1.05774 1.73128 255 226 108
0.21131 1.0577 1.73128 255 226 108
0.21131 1.0577 1.6142 255 226 108
0.21148 0.9798 1.73128 255 226 108
0.23191 0.97984 1.73128 255 226 108
0.23191 0.97984 1.6142 255 226 108
0.21148 0.9798 1.6142 255 226 108
0.25238 1.06174 1.45922 255 226 108
0.25238 1.06174 1.54502 255 226 108
0.2102 1.06165 1.54502 255 226 108
0.2102 1.06165 1.45922 255 226 108
0.21038 0.97585 1.54502 255 226 108
0.25256 0.97593 1.54502 255 226 108
0.25256 0.97593 1.45922 255 226 108
0.21038 0.97585 1.45922 255 226 108
-0.00047 0.69773 1.52427 255 226 108
-0.0004 0.66064 1.52427 255 226 108
-0.0862 0.66044 1.52427 255 226 108
-0.08628 0.69754 1.52427 255 226 108
-0.0862 0.66044 1.43847 255 226 108
-0.0004 0.66064 1.43847 255 226 108
-0.08628 0.69754 1.43847 255 226 108
-0.00047 0.69773 1.43847 255 226 108
-0.2137 0.85204 1.45875 255 226 108
-0.2137 0.85204 1.54973 255 226 108
-0.2329 0.852 1.54973 255 226 108
-0.2329 0.852 1.45875 255 226 108
-0.23271 0.76102 1.54973 255 226 108
-0.21351 0.76106 1.54973 255 226 108
-0.21351 0.76106 1.45875 255 226 108
-0.23271 0.76102 1.45875 255 226 108
-0.10966 1.15788 1.45107 255 226 108
-0.10966 1.15788 1.51872 255 226 108
-0.1773 1.15773 1.51872 255 226 108
-0.1773 1.15773 1.45107 255 226 108
-0.17726 1.13385 1.51872 255 226 108
-0.10961 1.13401 1.51872 255 226 108
-0.10961 1.13401 1.45107 255 226 108
-0.17726 1.13385 1.45107 255 226 108
-0.06938 1.15215 1.55914 255 226 108
-0.06938 1.15215 1.60057 255 226 108
-0.11082 1.15205 1.60057 255 226 108
-0.11082 1.15205 1.55914 255 226 108
-0.11079 1.137 1.60057 255 226 108
-0.06936 1.13709 1.60057 255 226 108
-0.06936 1.13709 1.55914 255 226 108
-0.11079 1.137 1.55914 255 226 108
-0.0608 0.69819 1.72975 255 226 108
-0.06077 0.68028 1.72975 255 226 108
-0.1022 0.68019 1.72975 255 226 108
-0.10223 0.69809 1.72975 255 226 108
-0.1022 0.68019 1.64914 255 226 108
-0.06077 0.68028 1.64914 255 226 108
-0.10223 0.69809 1.64914 255 226 108
-0.0608 0.69819 1.64914 255 226 108
0.23202 -0.42996 1.13193 238 139 119
0.35182 -0.42996 1.35305 238 139 119
0.27624 -0.42996 1.08191 238 139 119
0.27635 -0.42996 0.34156 238 139 119
0.35182 -0.42996 0.34156 238 139 119
0.35182 -0.39139 0.29544 238 139 119
0.4054 -0.39113 0.34155 238 139 119
0.4054 0.27108 0.34155 238 139 119
0.4054 0.27108 1.35305 238 139 119
0.4054 -0.39113 1.35305 238 139 119
0.35182 0.27126 0.29544 238 139 119
0.27637 -0.39139 0.29544 238 139 119
0.25 0.27126 0.29544 238 139 119
-0.35182 -0.42996 1.35305 238 139 119
-0.23202 -0.42996 1.13193 238 139 119
-0.27624 -0.42996 1.08191 238 139 119
-0.27635 -0.42996 0.34156 238 139 119
-0.35182 -0.42996 0.34156 238 139 119
-0.35182 -0.39139 0.29544 238 139 119
-0.4054 -0.39113 0.34155 238 139 119
-0.4054 0.27108 0.34155 238 139 119
-0.4054 0.27108 1.35305 238 139 119
-0.4054 -0.39113 1.35305 238 139 119
-0.35182 0.27126 0.29544 238 139 119
-0.27637 -0.39139 0.29544 238 139 119
-0.25 0.27126 0.29544 238 139 119
0.25 0.30991 0.74991 238 139 119
0.25 0.30991 0.34156 238 139 119
0.35182 0.30991 0.34156 238 139 119
0.35182 0.30991 1.35305 238 139 119
-0.35182 0.30991 1.35305 238 139 119
-0.25 0.30991 0.74991 238 139 119
-0.35182 0.30991 0.34156 238 139 119
-0.25 0.30991 0.34156 238 139 119
-0.25 0.97081 0.29545 238 139 119
0.25 0.97081 0.29545 238 139 119
-0.25 0.64379 0.74927 238 139 119
-0.25 0.71085 0.80001 238 139 119
-0.25 1.02796 0.35206 238 139 119
0.25 0.64379 0.74927 238 139 119
0.25 0.71085 0.80001 238 139 119
0.25 1.02796 0.35206 238 139 119
0.2092 -0.54824 1.8703 36 26 31
0.2092 -0.54824 1.88118 36 26 31
0.27522 -0.54824 1.88118 36 26 31
0.27522 -0.54824 1.8703 36 26 31
0.2092 -0.54824 1.97072 36 26 31
0.27522 -0.54824 1.97072 36 26 31
0.32839 -0.54824 1.83872 72 101 124
0.32839 -0.54824 1.88118 72 101 124
0.32839 -0.53131 1.88118 72 101 124
0.32839 -0.53131 1.83872 72 101 124
0.27522 -0.54824 1.88118 72 101 124
0.27522 -0.54824 1.8703 72 101 124
0.13427 -0.54824 1.83872 72 101 124
0.2092 -0.54824 1.8703 72 101 124
0.13427 -0.54824 1.88118 72 101 124
0.2092 -0.54824 1.88118 72 101 124
0.32839 -0.54824 2.02451 61 86 105
0.27522 -0.54824 1.97072 61 86 105
0.2092 -0.54824 1.97072 61 86 105
0.13427 -0.54824 2.02451 61 86 105
0.2092 -0.54824 1.88118 61 86 105
0.13427 -0.54824 1.88118 61 86 105
0.32839 -0.54824 1.88118 61 86 105
0.32839 -0.53131 1.88118 61 86 105
0.32839 -0.53131 2.02451 61 86 105
0.27522 -0.54824 1.88118 61 86 105
0.25915 -0.55317 1.91589 255 255 255
0.25915 -0.55317 1.99464 255 255 255
0.30279 -0.55317 1.99464 255 255 255
0.30279 -0.55317 1.91589 255 255 255
0.25915 -0.54676 1.91589 255 255 255
0.30279 -0.54676 1.91589 255 255 255
0.30279 -0.54676 1.99464 255 255 255
0.25915 -0.54676 1.99464 255 255 255
0.33217 -0.47695 1.43066 202 153 192
0.33217 -0.62865 1.43066 202 153 192
0.33217 -0.62865 1.54343 202 153 192
0.33217 -0.47695 1.54343 202 153 192
-0.33217 -0.47695 1.54343 202 153 192
-0.33217 -0.62865 1.54343 202 153 192
-0.33217 -0.62865 1.43066 202 153 192
-0.33217 -0.47695 1.43066 202 153 192
0.36818 -0.76541 1.66116 246 246 246
0.36818 -0.76541 1.58508 246 246 246
0.28672 -0.76541 1.58508 246 246 246
0.28672 -0.76541 1.66116 246 246 246
0.28672 -0.69695 1.58508 246 246 246
0.36818 -0.69695 1.58508 246 246 246
0.28672 -0.69695 1.66116 246 246 246
0.36818 -0.69695 1.66116 246 246 246
0.2126 -0.71035 1.43202 246 246 246
0.2126 -0.71035 1.49087 246 246 246
0.27145 -0.71035 1.49087 246 246 246
0.27145 -0.71035 1.43202 246 246 246
0.27145 -0.6515 1.49087 246 246 246
0.2126 -0.6515 1.49087 246 246 246
0.27145 -0.6515 1.43202 246 246 246
0.2126 -0.6515 1.43202 246 246 246
0.44295 -0.56419 2.19563 238 139 119
0.50196 -0.48286 2.19563 238 139 119
0.50196 -0.48286 1.8011 238 139 119
0.44295 -0.56419 1.84466 238 139 119
0.44725 -0.43629 2.2674 238 139 119
0.39769 -0.50948 2.2674 238 139 119
0.44725 0.30075 2.2674 238 139 119
0.50196 0.34732 2.19563 238 139 119
0.44286 -0.70513 1.84466 238 139 119
0.50195 -0.7174 1.8011 238 139 119
0.39756 -0.75402 1.84466 238 139 119
0.42554 -0.81082 1.8011 238 139 119
0.42554 -0.81082 1.65716 238 139 119
0.50195 -0.7174 1.65716 238 139 119
0.125 -0.81082 1.65716 238 139 119
0.50195 -0.48289 1.65716 238 139 119
0.40396 -0.56419 2.07668 238 139 119
0.40396 -0.56419 1.84466 238 139 119
0.40396 -0.53349 2.07668 238 139 119
0.40396 -0.53349 1.84466 238 139 119
0.14071 -0.53349 1.84466 238 139 119
0.14071 -0.56419 1.84466 238 139 119
0 -0.75402 1.84466 238 139 119
0 -0.81082 1.8011 238 139 119
0.07711 -0.56419 1.96725 238 139 119
0.07711 -0.56419 1.84466 238 139 119
0 -0.56419 2.07668 238 139 119
0.05876 -0.56419 1.96725 238 139 119
0.05876 -0.56419 1.84466 238 139 119
0 -0.56419 1.84466 238 139 119
-0.42554 -0.81082 1.8011 238 139 119
-0.39756 -0.75402 1.84466 238 139 119
-0.50195 -0.7174 1.8011 238 139 119
-0.42554 -0.81082 1.65716 238 139 119
-0.50195 -0.7174 1.65716 238 139 119
-0.125 -0.81082 1.65716 238 139 119
-0.44286 -0.70513 1.84466 238 139 119
-0.50196 -0.48286 1.8011 238 139 119
-0.44295 -0.56419 1.84466 238 139 119
-0.44295 -0.56419 2.19563 238 139 119
-0.50196 -0.48286 2.19563 238 139 119
-0.44725 -0.43629 2.2674 238 139 119
-0.39769 -0.50948 2.2674 238 139 119
-0.44725 0.30075 2.2674 238 139 119
-0.50196 0.34732 2.19563 238 139 119
-0.50195 -0.48289 1.65716 238 139 119
-0.40396 -0.56419 2.07668 238 139 119
-0.40396 -0.56419 1.84466 238 139 119
-0.40396 -0.53349 2.07668 238 139 119
-0.40396 -0.53349 1.84466 238 139 119
-0.14071 -0.56419 1.84466 238 139 119
-0.14071 -0.53349 1.84466 238 139 119
-0.50196 0.34732 1.39041 238 139 119
-0.07711 -0.56419 1.96725 238 139 119
-0.07711 -0.56419 1.84466 238 139 119
-0.05876 -0.56419 1.96725 238 139 119
-0.05876 -0.56419 1.84466 238 139 119
0.4075 0.42865 2.19563 238 139 119
0.4075 0.42865 1.39041 238 139 119
0.50196 0.34732 1.39041 238 139 119
0.36224 0.37394 2.2674 238 139 119
0.1751 0.37394 2.2674 238 139 119
0.1751 0.42865 2.19563 238 139 119
0.44725 0.30075 1.31864 238 139 119
0.39178 0.37394 1.31864 238 139 119
0.12225 0.71012 2.62784 238 139 119
0.1751 0.30075 2.2674 238 139 119
0.12225 0.53493 2.75033 238 139 119
0.1751 0.0848 2.2674 238 139 119
-0.39178 0.37394 1.31864 238 139 119
-0.44725 0.30075 1.31864 238 139 119
-0.4075 0.42865 1.39041 238 139 119
-0.4075 0.42865 2.19563 238 139 119
-0.36224 0.37394 2.2674 238 139 119
-0.1751 0.37394 2.2674 238 139 119
-0.1751 0.42865 2.19563 238 139 119
-0.12225 0.71012 2.62784 238 139 119
-0.1751 0.30075 2.2674 238 139 119
-0.12225 0.53493 2.75033 238 139 119
-0.1751 0.0848 2.2674 238 139 119
-0.0978 0.70821 2.66241 238 139 119
0.0978 0.70821 2.66241 238 139 119
-0.0978 0.56806 2.76041 238 139 119
0.0978 0.56806 2.76041 238 139 119
0.44295 -0.60632 1.31855 238 139 119
0.50195 -0.65015 1.39038 238 139 119
0.36546 -0.68621 1.31855 238 139 119
0.42554 -0.74357 1.39038 238 139 119
0.50195 -0.65015 1.43428 238 139 119
0.42554 -0.74357 1.43428 238 139 119
0.50195 -0.48295 1.43428 238 139 119
0.4494 -0.48289 1.65716 238 139 119
0.4494 -0.48295 1.43428 238 139 119
-0.36546 -0.68621 1.31855 238 139 119
-0.42554 -0.74357 1.39038 238 139 119
-0.50195 -0.65015 1.39038 238 139 119
-0.44295 -0.60632 1.31855 238 139 119
-0.50195 -0.65015 1.43428 238 139 119
-0.42554 -0.74357 1.43428 238 139 119
-0.50195 -0.48295 1.43428 238 139 119
-0.4494 -0.48289 1.65716 238 139 119
-0.4494 -0.48295 1.43428 238 139 119
0.36224 0.37394 2.2674 243 142 122
0.44725 0.30075 2.2674 243 142 122
0.1751 0.30075 2.2674 243 142 122
0.1751 0.37394 2.2674 243 142 122
0.1751 0.0848 2.2674 243 142 122
0.44725 -0.43629 2.2674 243 142 122
-0.44725 -0.43629 2.2674 243 142 122
-0.39769 -0.50948 2.2674 243 142 122
0.39769 -0.50948 2.2674 243 142 122
-0.1751 0.0848 2.2674 243 142 122
-0.44725 0.30075 2.2674 243 142 122
-0.1751 0.30075 2.2674 243 142 122
-0.36224 0.37394 2.2674 243 142 122
-0.1751 0.37394 2.2674 243 142 122
0.12225 0.53493 2.75033 243 142 122
-0.12225 0.53493 2.75033 243 142 122
0.0978 0.56806 2.76041 243 142 122
-0.0978 0.56806 2.76041 243 142 122
0.50195 -0.48295 1.43428 243 142 122
0.50195 -0.65015 1.43428 243 142 122
0.4494 -0.62257 1.43428 243 142 122
0.4494 -0.48295 1.43428 243 142 122
0.39829 -0.69066 1.43428 243 142 122
0.42554 -0.74357 1.43428 243 142 122
-0.42554 -0.74357 1.43428 243 142 122
-0.39829 -0.69066 1.43428 243 142 122
-0.50195 -0.65015 1.43428 243 142 122
-0.4494 -0.62257 1.43428 243 142 122
-0.50195 -0.48295 1.43428 243 142 122
-0.4494 -0.48295 1.43428 243 142 122
0.4494 -0.68978 1.65716 238 139 119
0.39829 -0.75788 1.65716 238 139 119
0.125 -0.75788 1.65716 238 139 119
0.10259 -0.81082 1.60053 238 139 119
0.10259 -0.75788 1.60054 238 139 119
-0.10259 -0.75788 1.60054 238 139 119
-0.10259 -0.81082 1.60053 238 139 119
-0.125 -0.75788 1.65716 238 139 119
-0.39829 -0.75788 1.65716 238 139 119
-0.4494 -0.68978 1.65716 238 139 119
0.125 -0.75788 1.65716 162 112 143
0.39829 -0.75788 1.65716 162 112 143
0.4494 -0.68978 1.65716 162 112 143
-0.4494 -0.68978 1.65716 162 112 143
-0.4494 -0.48289 1.65716 162 112 143
0.4494 -0.48289 1.65716 162 112 143
-0.125 -0.75788 1.65716 162 112 143
-0.39829 -0.75788 1.65716 162 112 143
0.44295 -0.56419 1.84466 243 142 122
0.44286 -0.70513 1.84466 243 142 122
0.40396 -0.56419 1.84466 243 142 122
0.14071 -0.56419 1.84466 243 142 122
0.07711 -0.56419 1.84466 243 142 122
0 -0.70513 1.84466 243 142 122
0.39756 -0.75402 1.84466 243 142 122
0 -0.75402 1.84466 243 142 122
0.05876 -0.56419 1.84466 243 142 122
0 -0.56419 1.84466 243 142 122
-0.39756 -0.75402 1.84466 243 142 122
-0.44286 -0.70513 1.84466 243 142 122
-0.05876 -0.56419 1.84466 243 142 122
-0.07711 -0.56419 1.84466 243 142 122
-0.14071 -0.56419 1.84466 243 142 122
-0.40396 -0.56419 1.84466 243 142 122
-0.44295 -0.56419 1.84466 243 142 122
0.40396 -0.53349 1.84466 255 255 255
0.14071 -0.53349 1.84466 255 255 255
0.40396 -0.53349 2.07668 255 255 255
0.06275 -0.81082 1.64903 238 139 119
0.06275 -0.81082 1.6973 238 139 119
0.04095 -0.81082 1.64903 238 139 119
0.04095 -0.81082 1.6973 238 139 119
-0.04095 -0.81082 1.64903 238 139 119
-0.04095 -0.81082 1.6973 238 139 119
-0.06275 -0.81082 1.64903 238 139 119
-0.06275 -0.81082 1.6973 238 139 119
0.27637 -0.39139 0.29544 240 216 199
-0.27637 -0.39139 0.29544 240 216 199
-0.27635 -0.42996 0.34156 240 216 199
0.27635 -0.42996 0.34156 240 216 199
-0.25 0.27126 0.29544 240 216 199
0.25 0.27126 0.29544 240 216 199
-0.27624 -0.42996 1.08191 240 216 199
0.27624 -0.42996 1.08191 240 216 199
0.23202 -0.42996 1.13193 240 216 199
-0.23202 -0.42996 1.13193 240 216 199
0.05876 -0.56419 1.96725 215 126 108
0.07711 -0.56419 1.96725 215 126 108
0.07711 -0.56419 1.84466 215 126 108
0.05876 -0.56419 1.84466 215 126 108
0.04095 -0.80054 1.6973 215 126 108
0.06275 -0.80054 1.6973 215 126 108
0.06275 -0.80054 1.64903 215 126 108
0.04095 -0.80054 1.64903 215 126 108
0.04095 -0.81082 1.6973 215 126 108
0.06275 -0.81082 1.6973 215 126 108
0.06275 -0.81082 1.64903 215 126 108
0.04095 -0.81082 1.64903 215 126 108
-0.2092 -0.54824 1.8703 36 26 31
-0.27522 -0.54824 1.8703 36 26 31
-0.27522 -0.54824 1.88118 36 26 31
-0.2092 -0.54824 1.88118 36 26 31
-0.2092 -0.54824 1.97072 36 26 31
-0.27522 -0.54824 1.97072 36 26 31
-0.32839 -0.54824 1.83872 72 101 124
-0.32839 -0.53131 1.83872 72 101 124
-0.32839 -0.53131 1.88118 72 101 124
-0.32839 -0.54824 1.88118 72 101 124
-0.27522 -0.54824 1.88118 72 101 124
-0.27522 -0.54824 1.8703 72 101 124
-0.13427 -0.54824 1.83872 72 101 124
-0.2092 -0.54824 1.8703 72 101 124
-0.13427 -0.54824 1.88118 72 101 124
-0.2092 -0.54824 1.88118 72 101 124
-0.32839 -0.54824 2.02451 61 86 105
-0.13427 -0.54824 2.02451 61 86 105
-0.2092 -0.54824 1.97072 61 86 105
-0.27522 -0.54824 1.97072 61 86 105
-0.2092 -0.54824 1.88118 61 86 105
-0.13427 -0.54824 1.88118 61 86 105
-0.32839 -0.54824 1.88118 61 86 105
-0.32839 -0.53131 1.88118 61 86 105
-0.32839 -0.53131 2.02451 61 86 105
-0.27522 -0.54824 1.88118 61 86 105
-0.25915 -0.55317 1.91589 255 255 255
-0.30279 -0.55317 1.91589 255 255 255
-0.30279 -0.55317 1.99464 255 255 255
-0.25915 -0.55317 1.99464 255 255 255
-0.25915 -0.54676 1.91589 255 255 255
-0.30279 -0.54676 1.91589 255 255 255
-0.30279 -0.54676 1.99464 255 255 255
-0.25915 -0.54676 1.99464 255 255 255
-0.36818 -0.76541 1.66116 246 246 246
-0.28672 -0.76541 1.66116 246 246 246
-0.28672 -0.76541 1.58508 246 246 246
-0.36818 -0.76541 1.58508 246 246 246
-0.28672 -0.69695 1.58508 246 246 246
-0.36818 -0.69695 1.58508 246 246 246
-0.28672 -0.69695 1.66116 246 246 246
-0.36818 -0.69695 1.66116 246 246 246
-0.2126 -0.71035 1.43202 246 246 246
-0.27145 -0.71035 1.43202 246 246 246
-0.27145 -0.71035 1.49087 246 246 246
-0.2126 -0.71035 1.49087 246 246 246
-0.27145 -0.6515 1.49087 246 246 246
-0.2126 -0.6515 1.49087 246 246 246
-0.27145 -0.6515 1.43202 246 246 246
-0.2126 -0.6515 1.43202 246 246 246
-0.40396 -0.53349 1.84466 255 255 255
-0.40396 -0.53349 2.07668 255 255 255
-0.14071 -0.53349 1.84466 255 255 255
0.4494 -0.48295 1.43428 162 112 143
-0.4494 -0.48295 1.43428 162 112 143
-0.4494 -0.62257 1.43428 162 112 143
0.4494 -0.62257 1.43428 162 112 143
-0.39829 -0.69066 1.43428 162 112 143
0.39829 -0.69066 1.43428 162 112 143
-0.05876 -0.56419 1.96725 215 126 108
-0.05876 -0.56419 1.84466 215 126 108
-0.07711 -0.56419 1.84466 215 126 108
-0.07711 -0.56419 1.96725 215 126 108
-0.04095 -0.80054 1.6973 215 126 108
-0.04095 -0.80054 1.64903 215 126 108
-0.06275 -0.80054 1.64903 215 126 108
-0.06275 -0.80054 1.6973 215 126 108
-0.04095 -0.81082 1.6973 215 126 108
-0.06275 -0.81082 1.6973 215 126 108
-0.06275 -0.81082 1.64903 215 126 108
-0.04095 -0.81082 1.64903 215 126 108
0.25 0.97081 0.29545 240 216 199
-0.25 0.97081 0.29545 240 216 199
0.25 1.02796 0.35206 240 216 199
-0.25 1.02796 0.35206 240 216 199
-0.25 1.02796 0.80074 240 216 199
0.25 1.02796 0.80074 240 216 199
-0.145 1.02796 1.34417 240 216 199
0.14397 1.02796 1.34417 240 216 199
-0.25 0.30991 0.74991 243 142 122
-0.25 0.64379 0.74927 243 142 122
0.25 0.64379 0.74927 243 142 122
0.25 0.30991 0.74991 243 142 122
0.14397 0.79847 1.34417 238 139 119
-0.145 0.79847 1.34417 238 139 119
-0.25 1.02796 0.80074 238 139 119
-0.145 1.02796 1.34417 238 139 119
0.14397 1.02796 1.34417 238 139 119
0.25 1.02796 0.80074 238 139 119
0.26434 0.11891 0.00475 238 139 119
0.51851 0.11866 0.00475 238 139 119
0.51851 0.03949 0.31294 238 139 119
0.26434 0.03976 0.31303 238 139 119
0.51851 0.09447 0.65295 238 139 119
0.26434 0.09447 0.65301 238 139 119
0.28151 0.03936 0.71735 238 139 119
0.4911 0.03918 0.71733 238 139 119
0.20073 0.07306 0.00483 238 139 119
0.20073 -0.00742 0.31292 238 139 119
0.57284 -0.00747 0.31292 238 139 119
0.57284 0.07311 0.00483 238 139 119
0.20073 0.05121 0.65304 238 139 119
0.57284 0.05101 0.65304 238 139 119
0.24747 -0.00059 0.7174 238 139 119
0.52647 -0.00018 0.7174 238 139 119
0.52625 -0.20777 0.7174 238 139 119
0.24759 -0.20786 0.7174 238 139 119
0.20073 -0.25938 0.65304 238 139 119
0.20073 -0.34704 0.35874 238 139 119
0.57284 -0.25957 0.65304 238 139 119
0.57284 -0.34723 0.35874 238 139 119
0.20073 -0.34768 0.25898 238 139 119
0.20073 -0.23744 0.00483 238 139 119
0.28751 -0.17664 0.00483 238 139 119
0.29063 0.03027 0.00483 238 139 119
0.57284 -0.3474 0.25898 238 139 119
0.57284 -0.23771 0.00483 238 139 119
0.49182 0.02906 0.00483 238 139 119
0.49815 -0.17913 0.00483 238 139 119
0.29063 0.03027 0.00483 240 216 199
0.28751 -0.17664 0.00483 240 216 199
0.49815 -0.17913 0.00483 240 216 199
0.49182 0.02906 0.00483 240 216 199
0.26297 -0.30967 0.00845 241 241 241
0.26297 -0.30967 0.06698 241 241 241
0.51192 -0.3095 0.06698 241 241 241
0.51192 -0.3095 0.00845 241 241 241
0.23477 -0.22944 0.00845 241 241 241
0.54651 -0.22937 0.00845 241 241 241
0.54651 -0.22937 0.06698 241 241 241
0.23477 -0.22944 0.06698 241 241 241
0.26297 -0.30967 0.06698 255 255 255
0.23477 -0.22944 0.06698 255 255 255
0.54651 -0.22937 0.06698 255 255 255
0.51192 -0.3095 0.06698 255 255 255
-0.26434 0.11891 0.00475 238 139 119
-0.26434 0.03976 0.31303 238 139 119
-0.51851 0.03949 0.31294 238 139 119
-0.51851 0.11866 0.00475 238 139 119
-0.51851 0.09447 0.65295 238 139 119
-0.26434 0.09447 0.65301 238 139 119
-0.28151 0.03936 0.71735 238 139 119
-0.4911 0.03918 0.71733 238 139 119
-0.20073 0.07306 0.00483 238 139 119
-0.20073 -0.00742 0.31292 238 139 119
-0.57284 -0.00747 0.31292 238 139 119
-0.57284 0.07311 0.00483 238 139 119
-0.20073 0.05121 0.65304 238 139 119
-0.57284 0.05101 0.65304 238 139 119
-0.24747 -0.00059 0.7174 238 139 119
-0.52647 -0.00018 0.7174 238 139 119
-0.24759 -0.20786 0.7174 238 139 119
-0.52625 -0.20777 0.7174 238 139 119
-0.20073 -0.25938 0.65304 238 139 119
-0.20073 -0.34704 0.35874 238 139 119
-0.57284 -0.25957 0.65304 238 139 119
-0.57284 -0.34723 0.35874 238 139 119
-0.20073 -0.34768 0.25898 238 139 119
-0.20073 -0.23744 0.00483 238 139 119
-0.28751 -0.17664 0.00483 238 139 119
-0.29063 0.03027 0.00483 238 139 119
-0.57284 -0.3474 0.25898 238 139 119
-0.57284 -0.23771 0.00483 238 139 119
-0.49182 0.02906 0.00483 238 139 119
-0.49815 -0.17913 0.00483 238 139 119
-0.29063 0.03027 0.00483 240 216 199
-0.49182 0.02906 0.00483 240 216 199
-0.49815 -0.17913 0.00483 240 216 199
-0.28751 -0.17664 0.00483 240 216 199
-0.26297 -0.30967 0.00845 241 241 241
-0.51192 -0.3095 0.00845 241 241 241
-0.51192 -0.3095 0.06698 241 241 241
-0.26297 -0.30967 0.06698 241 241 241
-0.23477 -0.22944 0.00845 241 241 241
-0.54651 -0.22937 0.00845 241 241 241
-0.54651 -0.22937 0.06698 241 241 241
-0.23477 -0.22944 0.06698 241 241 241
-0.26297 -0.30967 0.06698 255 255 255
-0.51192 -0.3095 0.06698 255 255 255
-0.54651 -0.22937 0.06698 255 255 255
-0.23477 -0.22944 0.06698 255 255 255
0.37015 -0.10551 0.85867 238 139 119
0.37014 -0.25406 1.13476 238 139 119
0.4997 -0.25269 1.13549 238 139 119
0.49956 -0.10437 0.85928 238 139 119
0.37014 -0.25406 1.13476 243 142 122
0.36988 0.0146 1.27915 243 142 122
0.71807 0.01468 1.2792 243 142 122
0.4997 -0.25269 1.13549 243 142 122
0.80221 -0.05411 1.24222 243 142 122
0.49928 -0.61577 0.94029 243 142 122
0.80304 -0.61557 0.94039 243 142 122
0.53245 -0.64616 0.88768 243 142 122
0.76409 -0.64608 0.88772 243 142 122
0.36988 0.0146 1.27915 238 139 119
0.36989 0.16295 1.00296 238 139 119
0.71812 0.16324 1.00312 238 139 119
0.71807 0.01468 1.2792 238 139 119
0.80221 -0.05411 1.24222 238 139 119
0.80212 0.09445 0.96614 238 139 119
0.80304 -0.61557 0.94039 238 139 119
0.80303 -0.46707 0.66428 238 139 119
0.49927 -0.46726 0.66418 238 139 119
0.49928 -0.61577 0.94029 238 139 119
0.53234 -0.53328 0.6777 238 139 119
0.53245 -0.64616 0.88768 238 139 119
0.76409 -0.64608 0.88772 238 139 119
0.76415 -0.53344 0.67761 238 139 119
0.53517 -0.68919 0.85135 241 241 241
0.75917 -0.68952 0.85186 241 241 241
0.75933 -0.66348 0.80143 241 241 241
0.53533 -0.66315 0.80092 241 241 241
0.75856 -0.63015 0.88251 241 241 241
0.53456 -0.62982 0.882 241 241 241
0.53458 -0.60291 0.83204 241 241 241
0.75858 -0.60324 0.83255 241 241 241
-0.37015 -0.10551 0.85867 238 139 119
-0.49956 -0.10437 0.85928 238 139 119
-0.4997 -0.25269 1.13549 238 139 119
-0.37014 -0.25406 1.13476 238 139 119
-0.37014 -0.25406 1.13476 243 142 122
-0.4997 -0.25269 1.13549 243 142 122
-0.71807 0.01468 1.2792 243 142 122
-0.36988 0.0146 1.27915 243 142 122
-0.80221 -0.05411 1.24222 243 142 122
-0.49928 -0.61577 0.94029 243 142 122
-0.80304 -0.61557 0.94039 243 142 122
-0.53245 -0.64616 0.88768 243 142 122
-0.76409 -0.64608 0.88772 243 142 122
-0.36988 0.0146 1.27915 238 139 119
-0.71807 0.01468 1.2792 238 139 119
-0.71812 0.16324 1.00312 238 139 119
-0.36989 0.16295 1.00296 238 139 119
-0.80221 -0.05411 1.24222 238 139 119
-0.80212 0.09445 0.96614 238 139 119
-0.80304 -0.61557 0.94039 238 139 119
-0.80303 -0.46707 0.66428 238 139 119
-0.49927 -0.46726 0.66418 238 139 119
-0.49928 -0.61577 0.94029 238 139 119
-0.53234 -0.53328 0.6777 238 139 119
-0.76415 -0.53344 0.67761 238 139 119
-0.76409 -0.64608 0.88772 238 139 119
-0.53245 -0.64616 0.88768 238 139 119
-0.53517 -0.68919 0.85135 241 241 241
-0.53533 -0.66315 0.80092 241 241 241
-0.75933 -0.66348 0.80143 241 241 241
-0.75917 -0.68952 0.85186 241 241 241
-0.75856 -0.63015 0.88251 241 241 241
-0.53456 -0.62982 0.882 241 241 241
-0.53458 -0.60291 0.83204 241 241 241
-0.75858 -0.60324 0.83255 241 241 241
3 0 2 1
3 0 3 2
3 4 3 0
3 4 5 3
3 3 5 6
3 3 6 7
3 2 3 7
3 2 7 8
3 4 0 9
3 4 9 10
3 10 9 11
3 0 11 9
3 0 1 11
3 10 11 12
3 13 15 14
3 13 16 15
3 17 16 13
3 17 18 16
3 19 18 17
3 19 20 18
3 21 23 22
3 21 24 23
3 23 24 25
3 23 25 26
3 27 26 25
3 27 25 28
3 21 22 29
3 21 29 30
3 7 31 8
3 7 6 31
3 5 31 6
3 5 32 31
3 33 32 5
3 33 5 4
3 33 4 10
3 33 10 12
3 34 36 35
3 34 37 36
3 38 34 35
3 38 39 34
3 40 36 37
3 40 41 36
3 42 39 38
3 42 43 39
3 44 46 45
3 44 47 46
3 44 48 47
3 44 49 48
3 45 46 41
3 45 41 40
3 49 42 48
3 49 43 42
3 50 52 51
3 50 53 52
3 54 50 51
3 54 55 50
3 56 55 54
3 56 54 57
3 53 58 52
3 53 59 58
3 60 62 61
3 60 63 62
3 62 64 61
3 62 65 64
3 65 57 64
3 65 56 57
3 63 60 58
3 63 58 59
3 66 68 67
3 66 69 68
3 68 69 27
3 68 27 28
3 66 67 70
3 66 70 71
3 29 71 70
3 29 70 30
3 72 74 73
3 72 75 74
3 76 72 73
3 76 77 72
3 75 78 74
3 75 79 78
3 80 77 76
3 80 81 77
3 82 84 83
3 82 85 84
3 84 86 83
3 84 87 86
3 78 85 82
3 78 79 85
3 87 80 86
3 87 81 80
3 88 90 89
3 88 91 90
3 92 88 89
3 92 93 88
3 94 93 92
3 94 92 95
3 91 96 90
3 91 97 96
3 89 90 98
3 89 98 99
3 92 89 99
3 90 100 98
3 90 96 100
3 95 92 101
3 92 99 101
3 95 101 102
3 103 105 104
3 103 106 105
3 105 107 104
3 105 108 107
3 108 95 107
3 108 94 95
3 106 103 96
3 106 96 97
3 96 103 109
3 96 109 100
3 103 110 109
3 103 104 110
3 104 111 110
3 104 107 111
3 107 102 111
3 107 95 102
3 112 114 113
3 112 115 114
3 113 114 116
3 113 116 117
3 118 115 112
3 118 119 115
3 117 119 118
3 117 116 119
3 115 119 116
3 115 116 114
3 120 122 121
3 120 123 122
3 121 122 124
3 121 124 125
3 125 124 126
3 126 122 123
3 126 124 122
3 125 126 127
3 125 120 121
3 125 127 120
3 128 130 129
3 128 131 130
3 129 130 132
3 129 132 133
3 134 131 128
3 134 129 133
3 134 128 129
3 134 135 131
3 133 135 134
3 133 132 135
3 136 138 137
3 136 139 138
3 137 138 140
3 137 140 141
3 142 139 136
3 142 137 141
3 142 136 137
3 142 143 139
3 139 140 138
3 139 143 140
3 144 146 145
3 144 147 146
3 145 146 148
3 145 148 149
3 150 147 144
3 150 145 149
3 150 144 145
3 150 151 147
3 147 148 146
3 147 151 148
3 152 154 153
3 152 155 154
3 153 154 156
3 153 156 157
3 158 155 152
3 158 159 155
3 157 159 158
3 157 156 159
3 155 159 156
3 155 156 154
3 160 162 161
3 160 163 162
3 161 162 164
3 161 164 165
3 165 164 166
3 166 162 163
3 166 164 162
3 165 166 167
3 165 160 161
3 165 167 160
3 168 170 169
3 168 171 170
3 169 170 172
3 169 172 173
3 174 171 168
3 174 169 173
3 174 168 169
3 174 175 171
3 173 175 174
3 173 172 175
3 176 178 177
3 176 179 178
3 177 178 180
3 177 180 181
3 182 179 176
3 182 177 181
3 182 176 177
3 182 183 179
3 181 183 182
3 181 180 183
3 184 186 185
3 184 187 186
3 185 186 188
3 185 188 189
3 189 188 190
3 190 186 187
3 190 188 186
3 189 190 191
3 189 184 185
3 189 191 184
3 192 194 193
3 192 195 194
3 193 194 196
3 193 196 197
3 198 195 192
3 198 199 195
3 197 199 198
3 197 196 199
3 195 199 196
3 195 196 194
3 200 202 201
3 200 203 202
3 201 202 204
3 201 204 205
3 206 203 200
3 206 201 205
3 206 200 201
3 206 207 203
3 203 204 202
3 203 207 204
3 208 210 209
3 208 211 210
3 209 210 212
3 209 212 213
3 214 211 208
3 214 209 213
3 214 208 209
3 214 215 211
3 211 212 210
3 211 215 212
3 216 218 217
3 216 219 218
3 217 218 220
3 217 220 221
3 221 220 222
3 222 218 219
3 222 220 218
3 221 222 223
3 221 216 217
3 221 223 216
3 224 226 225
3 227 225 226
3 227 228 225
3 229 228 227
3 230 228 229
3 231 230 229
3 232 230 231
3 232 233 230
3 233 228 230
3 233 225 228
3 231 229 234
3 234 229 235
3 229 227 235
3 234 235 236
3 224 225 237
3 224 237 238
3 238 237 239
3 240 239 237
3 240 237 241
3 242 240 241
3 243 242 241
3 244 242 243
3 245 244 243
3 245 243 246
3 246 241 237
3 246 243 241
3 244 247 242
3 247 248 242
3 242 248 240
3 247 249 248
3 250 252 251
3 250 253 252
3 231 252 253
3 231 253 232
3 234 252 231
3 251 252 234
3 251 234 236
3 250 254 253
3 250 255 254
3 255 256 254
3 255 257 256
3 244 254 256
3 244 245 254
3 247 244 256
3 257 247 256
3 257 249 247
3 249 257 258
3 236 259 251
3 260 257 255
3 258 257 260
3 258 260 261
3 258 261 262
3 259 264 263
3 259 265 264
3 251 259 263
3 251 263 250
3 266 268 267
3 266 269 268
3 268 270 267
3 268 271 270
3 272 274 273
3 272 275 274
3 272 273 276
3 272 276 277
3 278 272 277
3 278 277 279
3 280 278 279
3 280 279 281
3 282 284 283
3 282 285 284
3 285 286 284
3 285 287 286
3 288 282 283
3 289 282 288
3 289 290 282
3 288 283 291
3 292 294 293
3 292 295 294
3 296 295 292
3 296 292 293
3 296 297 295
3 295 298 294
3 295 297 298
3 296 293 299
3 300 302 301
3 300 303 302
3 302 303 304
3 302 304 305
3 302 306 301
3 302 305 306
3 307 305 304
3 307 306 305
3 308 310 309
3 308 311 310
3 309 310 312
3 311 312 310
3 309 312 313
3 311 314 312
3 315 309 313
3 315 308 309
3 313 314 315
3 313 312 314
3 316 318 317
3 316 319 318
3 317 318 320
3 319 320 318
3 317 320 321
3 319 322 320
3 323 317 321
3 323 316 317
3 321 322 323
3 321 320 322
3 324 326 325
3 324 327 326
3 324 325 328
3 324 328 329
3 325 330 328
3 325 331 330
3 326 331 325
3 326 327 332
3 326 332 333
3 333 332 334
3 333 334 335
3 333 335 336
3 333 336 337
3 326 333 337
3 335 338 336
3 326 337 339
3 327 324 340
3 327 340 341
3 341 340 342
3 341 342 343
3 340 344 342
3 340 345 344
3 345 343 344
3 345 341 343
3 335 334 346
3 335 346 347
3 345 340 348
3 345 348 349
3 350 348 340
3 324 350 340
3 350 351 348
3 350 352 351
3 350 353 352
3 354 347 346
3 354 346 355
3 356 354 355
3 356 357 354
3 356 358 357
3 354 357 359
3 356 355 360
3 361 356 360
3 361 358 356
3 361 360 362
3 363 361 362
3 363 364 361
3 363 365 364
3 363 366 365
3 364 365 367
3 364 367 368
3 361 364 368
3 361 369 358
3 362 370 363
3 362 371 370
3 371 372 370
3 371 373 372
3 374 373 371
3 374 375 373
3 361 376 369
3 361 368 376
3 329 366 363
3 329 363 324
3 350 363 370
3 324 363 350
3 350 370 377
3 374 377 370
3 374 378 377
3 350 377 379
3 350 379 380
3 350 380 353
3 370 375 374
3 370 372 375
3 331 382 381
3 331 383 382
3 331 381 384
3 381 385 384
3 381 386 385
3 381 382 386
3 331 384 330
3 382 383 387
3 382 387 388
3 385 386 389
3 390 385 389
3 390 389 391
3 392 390 391
3 387 393 388
3 387 394 393
3 395 393 394
3 388 395 382
3 388 393 395
3 395 394 376
3 368 395 376
3 368 396 395
3 368 397 396
3 396 397 398
3 396 398 399
3 396 399 395
3 368 367 397
3 398 400 399
3 401 400 398
3 401 402 400
3 403 402 401
3 386 399 400
3 386 400 389
3 382 399 386
3 382 395 399
3 389 400 404
3 389 404 405
3 405 404 406
3 400 406 404
3 400 402 406
3 405 406 407
3 391 405 407
3 391 389 405
3 387 409 408
3 387 383 409
3 409 410 408
3 409 411 410
3 412 411 409
3 412 413 411
3 383 412 409
3 383 414 412
3 383 339 414
3 414 339 415
3 414 415 416
3 326 339 383
3 326 383 331
3 411 417 410
3 411 418 417
3 413 418 411
3 419 417 418
3 419 420 417
3 410 417 420
3 394 420 419
3 394 419 376
3 421 419 418
3 421 418 422
3 413 422 418
3 376 419 421
3 376 421 423
3 376 423 369
3 423 424 369
3 423 425 424
3 410 420 408
3 426 428 427
3 426 429 428
3 430 427 428
3 430 431 427
3 430 432 431
3 431 432 433
3 431 433 434
3 430 435 432
3 435 436 432
3 435 437 436
3 438 436 437
3 438 437 439
3 440 435 430
3 440 441 435
3 441 440 442
3 441 442 443
3 444 446 445
3 444 447 446
3 445 446 448
3 445 448 449
3 448 450 449
3 448 451 450
3 452 450 451
3 452 451 453
3 454 452 453
3 454 453 455
3 337 415 339
3 337 456 415
3 336 456 337
3 336 457 456
3 338 457 336
3 338 458 457
3 458 338 459
3 458 459 460
3 459 461 460
3 459 462 461
3 463 461 462
3 460 463 458
3 460 461 463
3 463 462 359
3 359 464 463
3 359 357 464
3 357 465 464
3 357 358 465
3 358 424 465
3 358 369 424
3 466 468 467
3 466 469 468
3 468 469 470
3 468 470 471
3 466 472 469
3 472 473 469
3 474 476 475
3 475 476 477
3 475 477 478
3 475 478 479
3 480 475 479
3 480 479 481
3 478 482 479
3 482 483 479
3 484 481 479
3 484 479 485
3 486 479 483
3 485 479 487
3 487 479 486
3 485 487 488
3 485 488 489
3 490 485 489
3 491 493 492
3 338 495 494
3 459 338 494
3 459 494 496
3 338 335 495
3 335 497 495
3 335 347 497
3 496 462 459
3 496 498 462
3 497 498 496
3 498 497 347
3 498 347 499
3 462 498 500
3 462 500 359
3 359 500 501
3 354 499 347
3 354 501 499
3 359 501 354
3 502 504 503
3 502 505 504
3 506 502 503
3 506 507 502
3 505 508 504
3 505 509 508
3 510 508 509
3 510 511 508
3 512 514 513
3 512 515 514
3 516 518 517
3 516 519 518
3 520 516 517
3 520 517 521
3 521 517 518
3 521 518 522
3 522 518 519
3 522 519 523
3 523 516 520
3 523 519 516
3 524 526 525
3 524 527 526
3 526 527 528
3 526 528 529
3 530 532 531
3 530 533 532
3 530 534 533
3 530 535 534
3 536 535 530
3 536 537 535
3 538 537 536
3 538 539 537
3 540 542 541
3 540 543 542
3 541 542 544
3 541 544 545
3 546 543 540
3 547 546 540
3 547 540 548
3 546 549 543
3 550 552 551
3 550 553 552
3 554 550 551
3 554 553 550
3 554 551 555
3 551 556 555
3 551 552 556
3 554 557 553
3 558 560 559
3 558 561 560
3 561 562 560
3 559 560 562
3 561 563 562
3 559 562 564
3 565 561 558
3 565 563 561
3 563 564 562
3 563 565 564
3 566 568 567
3 566 569 568
3 569 570 568
3 567 568 570
3 569 571 570
3 567 570 572
3 573 569 566
3 573 571 569
3 571 572 570
3 571 573 572
3 574 576 575
3 408 394 387
3 408 420 394
3 471 578 577
3 471 470 578
3 577 578 579
3 577 579 580
3 580 579 581
3 580 581 582
3 583 585 584
3 583 586 585
3 587 589 588
3 587 590 589
3 591 590 587
3 591 592 590
3 592 589 590
3 592 593 589
3 593 588 589
3 593 594 588
3 594 587 588
3 594 591 587
3 507 596 595
3 507 506 596
3 596 597 595
3 596 598 597
3 597 598 599
3 597 599 600
3 600 599 601
3 600 601 602
3 603 605 604
3 603 606 605
3 260 264 261
3 260 263 264
3 261 264 607
3 261 607 608
3 609 261 608
3 609 608 610
3 264 611 607
3 264 612 611
3 264 265 612
3 262 261 609
3 613 615 614
3 613 616 615
3 616 617 615
3 616 618 617
3 617 618 619
3 617 619 620
3 621 616 613
3 621 622 616
3 622 618 616
3 623 614 615
3 623 624 614
3 622 625 618
3 625 619 618
3 626 615 617
3 626 623 615
3 625 627 619
3 627 620 619
3 627 628 620
3 628 617 620
3 628 626 617
3 628 630 629
3 628 627 630
3 625 630 627
3 625 631 630
3 631 629 630
3 622 631 625
3 622 632 631
3 633 631 632
3 631 633 629
3 633 628 629
3 633 632 634
3 622 635 632
3 634 632 635
3 636 635 622
3 636 622 621
3 621 637 636
3 621 638 637
3 634 635 639
3 623 634 639
3 640 623 639
3 640 635 636
3 640 639 635
3 640 636 637
3 640 624 623
3 624 638 621
3 626 634 623
3 626 633 634
3 624 641 638
3 640 641 624
3 640 642 641
3 640 637 642
3 633 626 628
3 624 621 613
3 624 613 614
3 643 645 644
3 643 646 645
3 647 649 648
3 647 650 649
3 651 650 647
3 651 647 648
3 651 652 650
3 650 653 649
3 650 652 653
3 651 648 654
3 655 657 656
3 655 658 657
3 659 661 660
3 659 662 661
3 660 661 663
3 660 663 664
3 663 665 664
3 663 666 665
3 667 659 660
3 667 660 668
3 668 660 664
3 669 661 662
3 669 662 670
3 668 664 671
3 671 664 665
3 672 661 669
3 672 663 661
3 671 665 673
3 673 665 666
3 673 666 674
3 674 663 672
3 674 666 663
3 674 675 673
3 674 676 675
3 671 673 675
3 671 675 677
3 677 675 676
3 668 671 677
3 668 677 678
3 679 678 677
3 677 676 679
3 679 676 674
3 679 680 678
3 668 678 681
3 680 681 678
3 682 668 681
3 682 667 668
3 667 682 683
3 667 683 684
3 680 685 681
3 669 685 680
3 686 685 669
3 686 681 685
3 686 682 681
3 686 683 682
3 686 669 670
3 670 667 684
3 672 680 679
3 672 669 680
3 670 684 687
3 686 670 687
3 686 687 688
3 686 688 683
3 679 674 672
3 670 659 667
3 670 662 659
3 689 691 690
3 689 692 691
3 693 695 694
3 693 696 695
3 697 693 694
3 697 696 693
3 697 694 698
3 694 699 698
3 694 695 699
3 697 700 696
3 701 703 702
3 701 704 703
3 705 707 706
3 705 708 707
3 709 711 710
3 709 712 711
3 711 712 713
3 713 712 714
3 713 714 715
3 715 714 716
3 715 716 717
3 718 720 719
3 718 721 720
3 719 720 708
3 719 708 705
3 720 721 722
3 720 722 723
3 708 720 723
3 723 722 724
3 723 724 725
3 708 723 725
3 708 725 726
3 707 708 726
3 707 726 727
3 728 730 729
3 728 731 730
3 726 731 728
3 726 725 731
3 725 730 731
3 725 724 730
3 727 728 729
3 727 726 728
3 732 734 733
3 732 735 734
3 736 732 733
3 736 737 732
3 738 732 737
3 738 735 732
3 735 739 734
3 735 738 739
3 734 739 736
3 734 736 733
3 740 742 741
3 740 743 742
3 744 746 745
3 744 747 746
3 746 748 745
3 748 749 745
3 748 750 749
3 750 751 749
3 750 752 751
3 753 755 754
3 753 756 755
3 756 741 755
3 756 740 741
3 755 757 754
3 755 758 757
3 741 758 755
3 758 759 757
3 758 760 759
3 741 760 758
3 741 761 760
3 742 761 741
3 742 762 761
3 763 765 764
3 763 766 765
3 761 763 764
3 761 764 760
3 760 764 765
3 760 765 759
3 762 763 761
3 762 766 763
3 767 769 768
3 767 770 769
3 771 770 767
3 771 767 772
3 773 767 768
3 773 772 767
3 768 774 773
3 768 769 774
3 769 771 774
3 769 770 771
