ply
format ascii 1.0
element vertex 633
property float x
property float y
property float z
property uchar red
property uchar green
property uchar blue
element face 776
property list uchar int vertex_index
end_header
0.61988 0.08791 1.05028 255 209 77
0.28154 0.0855 1.05043 255 209 77
0.28154 0.08603 0.78761 255 209 77
0.62167 0.08843 0.78747 255 209 77
0.28221 -0.1667 0.78852 255 209 77
0.621 -0.16524 0.78632 255 209 77
0.65484 0.06759 0.81358 255 209 77
0.65651 -0.14384 0.81263 255 209 77
0.65477 -0.14421 1.01722 255 209 77
0.6531 0.06723 1.01818 255 209 77
0.61921 -0.16577 1.04912 255 216 105
0.28221 -0.16722 1.05134 255 216 105
0.28154 0.0855 1.05043 255 216 105
0.61988 0.08791 1.05028 255 216 105
0.65477 -0.14421 1.01722 255 216 105
0.6531 0.06723 1.01818 255 216 105
0.28221 -0.16722 1.05134 255 209 77
0.61921 -0.16577 1.04912 255 209 77
-0.61988 0.08791 1.05028 255 209 77
-0.62167 0.08843 0.78747 255 209 77
-0.28154 0.08603 0.78761 255 209 77
-0.28154 0.0855 1.05043 255 209 77
-0.28221 -0.1667 0.78852 255 209 77
-0.621 -0.16524 0.78632 255 209 77
-0.65484 0.06759 0.81358 255 209 77
-0.65651 -0.14384 0.81263 255 209 77
-0.65477 -0.14421 1.01722 255 209 77
-0.6531 0.06723 1.01818 255 209 77
-0.61921 -0.16577 1.04912 255 216 105
-0.61988 0.08791 1.05028 255 216 105
-0.28154 0.0855 1.05043 255 216 105
-0.28221 -0.16722 1.05134 255 216 105
-0.65477 -0.14421 1.01722 255 216 105
-0.6531 0.06723 1.01818 255 216 105
-0.28221 -0.16722 1.05134 255 209 77
-0.61921 -0.16577 1.04912 255 209 77
0.17996 0.12209 0.26983 255 209 77
0.18145 0.16214 0 255 209 77
0.39747 0.16194 0 255 209 77
0.39605 0.12219 0.27086 255 209 77
0.39575 0.16311 0.50793 255 209 77
0.17993 0.16291 0.50769 255 209 77
0.21387 0.1481 0.56478 255 209 77
0.3676 0.14797 0.56506 255 209 77
0.42891 0.08152 0.27342 255 209 77
0.42868 0.12096 0 255 209 77
0.14966 0.12094 0 255 209 77
0.20421 0.07259 0 255 209 77
0.20539 -0.09041 0 255 209 77
0.14949 -0.1621 0 255 209 77
0.14948 -0.16895 0.0822 255 209 77
0.3707 0.0726 0 255 209 77
0.37108 -0.09005 0 255 209 77
0.4281 -0.16237 0 255 209 77
0.14961 0.12459 0.519 255 209 77
0.14989 0.0815 0.27342 255 209 77
0.1495 -0.14459 0.5689 255 209 77
0.14948 -0.19649 0.32325 255 209 77
0.14947 -0.20098 0.23413 255 209 77
0.19889 -0.09202 0.61056 255 209 77
0.19879 0.11526 0.57158 255 209 77
0.39313 0.11559 0.57191 255 209 77
0.39323 -0.09176 0.61045 255 209 77
0.42854 -0.14439 0.56897 255 209 77
0.4282 0.12684 0.51509 255 209 77
0.42809 -0.19677 0.32325 255 209 77
0.42808 -0.20125 0.23413 255 209 77
0.42809 -0.16923 0.0822 255 209 77
0.40436 -0.20758 0.08222 255 209 77
0.40469 -0.20721 0 255 209 77
0.17311 -0.20708 0 255 209 77
0.17279 -0.20744 0.08218 255 209 77
0.20421 0.07259 0 255 243 156
0.20539 -0.09041 0 255 243 156
0.37108 -0.09005 0 255 243 156
0.3707 0.0726 0 255 243 156
0.42809 -0.16923 0.0822 255 216 105
0.40436 -0.20758 0.08222 255 216 105
0.17279 -0.20744 0.08218 255 216 105
0.14948 -0.16895 0.0822 255 216 105
-0.17996 0.12209 0.26983 255 209 77
-0.39605 0.12219 0.27086 255 209 77
-0.39747 0.16194 0 255 209 77
-0.18145 0.16214 0 255 209 77
-0.39575 0.16311 0.50793 255 209 77
-0.17993 0.16291 0.50769 255 209 77
-0.21387 0.1481 0.56478 255 209 77
-0.3676 0.14797 0.56506 255 209 77
-0.42891 0.08152 0.27342 255 209 77
-0.42868 0.12096 0 255 209 77
-0.14966 0.12094 0 255 209 77
-0.20421 0.07259 0 255 209 77
-0.20539 -0.09041 0 255 209 77
-0.14949 -0.1621 0 255 209 77
-0.14948 -0.16895 0.0822 255 209 77
-0.3707 0.0726 0 255 209 77
-0.37108 -0.09005 0 255 209 77
-0.4281 -0.16237 0 255 209 77
-0.14961 0.12459 0.519 255 209 77
-0.14989 0.0815 0.27342 255 209 77
-0.1495 -0.14459 0.5689 255 209 77
-0.14948 -0.19649 0.32325 255 209 77
-0.14947 -0.20098 0.23413 255 209 77
-0.19889 -0.09202 0.61056 255 209 77
-0.19879 0.11526 0.57158 255 209 77
-0.39313 0.11559 0.57191 255 209 77
-0.39323 -0.09176 0.61045 255 209 77
-0.42854 -0.14439 0.56897 255 209 77
-0.4282 0.12684 0.51509 255 209 77
-0.42809 -0.19677 0.32325 255 209 77
-0.42808 -0.20125 0.23413 255 209 77
-0.42809 -0.16923 0.0822 255 209 77
-0.40436 -0.20758 0.08222 255 209 77
-0.40469 -0.20721 0 255 209 77
-0.17311 -0.20708 0 255 209 77
-0.17279 -0.20744 0.08218 255 209 77
-0.20421 0.07259 0 255 243 156
-0.3707 0.0726 0 255 243 156
-0.37108 -0.09005 0 255 243 156
-0.20539 -0.09041 0 255 243 156
-0.42809 -0.16923 0.0822 255 216 105
-0.14948 -0.16895 0.0822 255 216 105
-0.17279 -0.20744 0.08218 255 216 105
-0.40436 -0.20758 0.08222 255 216 105
0.18823 -0.43522 1.1848 255 255 255
0.18823 -0.43522 1.23082 255 255 255
0.14111 -0.43522 1.23082 255 255 255
0.14111 -0.43522 1.1848 255 255 255
0.14111 -0.47235 1.23082 255 255 255
0.18823 -0.47235 1.23082 255 255 255
0.14111 -0.47235 1.1848 255 255 255
0.18823 -0.47235 1.1848 255 255 255
0.23419 -0.42341 1.3043 255 255 255
0.23419 -0.42341 1.35776 255 255 255
0.17768 -0.42341 1.35776 255 255 255
0.17768 -0.42341 1.3043 255 255 255
0.23419 -0.46758 1.3043 255 255 255
0.17768 -0.46758 1.3043 255 255 255
0.17768 -0.46758 1.35776 255 255 255
0.23419 -0.46758 1.35776 255 255 255
0.21602 -0.41013 1.18497 226 138 128
0.21602 -0.41013 1.27815 226 138 128
0.21602 -0.33243 1.27815 226 138 128
0.21602 -0.33243 1.18497 226 138 128
-0.21602 -0.33243 1.27815 226 138 128
-0.21602 -0.41013 1.27815 226 138 128
-0.21602 -0.41013 1.18497 226 138 128
-0.21602 -0.33243 1.18497 226 138 128
0.28104 -0.36571 1.71258 28 62 61
0.28104 -0.38825 1.71258 28 62 61
0.12892 -0.38825 1.71258 28 62 61
0.12892 -0.36571 1.71258 28 62 61
0.12892 -0.36571 1.54623 28 62 61
0.12892 -0.38825 1.54623 28 62 61
0.28104 -0.38825 1.54623 28 62 61
0.28104 -0.36571 1.54623 28 62 61
0.23578 -0.38825 1.66244 28 62 61
0.17403 -0.38825 1.66244 28 62 61
0.17403 -0.38825 1.54623 28 62 61
0.23578 -0.38825 1.54623 28 62 61
0.12892 -0.36571 1.47877 60 130 135
0.12892 -0.36571 1.54623 60 130 135
0.12892 -0.38825 1.54623 60 130 135
0.12892 -0.38825 1.47877 60 130 135
0.17403 -0.38825 1.54623 60 130 135
0.17403 -0.38825 1.51892 60 130 135
0.23578 -0.38825 1.51892 60 130 135
0.28104 -0.38825 1.47877 60 130 135
0.28104 -0.38825 1.54623 60 130 135
0.28104 -0.36571 1.54623 60 130 135
0.28104 -0.36571 1.47877 60 130 135
0.23578 -0.38825 1.54623 60 130 135
0.32524 0.3547 1.8117 255 209 77
-0.32524 0.3547 1.8117 255 209 77
-0.32524 0.3547 1.14058 255 209 77
0.32524 0.3547 1.14058 255 209 77
0.28916 0.30604 1.8712 255 209 77
-0.28916 0.30604 1.8712 255 209 77
0.38342 0.29084 1.8117 255 209 77
0.38342 0.29084 1.14058 255 209 77
0.34347 0.26236 1.09661 255 209 77
0.30831 0.30643 1.09661 255 209 77
-0.34347 0.26236 1.09661 255 209 77
-0.30831 0.30643 1.09661 255 209 77
0.33591 0.24773 1.8712 255 209 77
-0.3434 -0.38773 1.09657 255 209 77
0.3434 -0.38773 1.09657 255 209 77
0.38342 -0.29212 1.45481 255 209 77
-0.30815 -0.43047 1.09651 255 209 77
0.30815 -0.43047 1.09651 255 209 77
-0.38342 0.29084 1.14058 255 209 77
-0.38342 0.29084 1.8117 255 209 77
-0.33591 0.24773 1.8712 255 209 77
-0.38342 -0.29212 1.45481 255 209 77
0.33591 0.24773 1.8712 255 216 105
-0.33591 0.24773 1.8712 255 216 105
-0.28916 0.30604 1.8712 255 216 105
0.28916 0.30604 1.8712 255 216 105
0.27138 -0.33736 1.18948 187 115 87
-0.27138 -0.33736 1.18948 187 115 87
-0.27138 -0.33736 1.35528 187 115 87
0.27138 -0.33736 1.35528 187 115 87
0.27138 -0.47679 1.35528 187 115 87
0 -0.47679 1.35528 187 115 87
0.27138 -0.47679 1.18948 187 115 87
-0.27138 -0.47679 1.18948 187 115 87
-0.27138 -0.47679 1.35528 187 115 87
0.34143 -0.47679 1.1405 255 209 77
0.34143 -0.47679 1.45481 255 209 77
0.38341 -0.43633 1.45481 255 209 77
0.38341 -0.43622 1.14056 255 209 77
0.27138 -0.47679 1.35528 255 209 77
0.27138 -0.47679 1.18948 255 209 77
-0.34143 -0.47679 1.1405 255 209 77
0.32172 -0.45064 1.48474 255 209 77
0.35274 -0.42105 1.48474 255 209 77
-0.27138 -0.47679 1.18948 255 209 77
0.04775 -0.47679 1.42118 255 209 77
0 -0.47679 1.45481 255 209 77
0.02583 -0.47679 1.42118 255 209 77
0 -0.47679 1.35528 255 209 77
0.02583 -0.47679 1.37827 255 209 77
0.04775 -0.47679 1.37827 255 209 77
-0.27138 -0.47679 1.35528 255 209 77
-0.34143 -0.47679 1.45481 255 209 77
-0.32172 -0.45064 1.48474 255 209 77
-0.04775 -0.47679 1.42118 255 209 77
-0.02583 -0.47679 1.42118 255 209 77
-0.38341 -0.43633 1.45481 255 209 77
-0.38341 -0.43622 1.14056 255 209 77
-0.35274 -0.42105 1.48474 255 209 77
-0.04775 -0.47679 1.37827 255 209 77
-0.02583 -0.47679 1.37827 255 209 77
-0.38342 -0.29212 1.8117 255 209 77
-0.33591 -0.26553 1.8712 255 209 77
-0.35256 -0.37097 1.8117 255 209 77
-0.29729 -0.32053 1.8712 255 209 77
0.35256 -0.37097 1.8117 255 209 77
0.29729 -0.32053 1.8712 255 209 77
0.33591 -0.26553 1.8712 255 209 77
0.38342 -0.29212 1.8117 255 209 77
0.35256 -0.37097 1.48474 255 209 77
-0.35256 -0.37097 1.48474 255 209 77
0.33591 -0.26553 1.8712 255 216 105
-0.33591 -0.26553 1.8712 255 216 105
0.29729 -0.32053 1.8712 255 216 105
-0.29729 -0.32053 1.8712 255 216 105
0.32172 -0.45064 1.48474 255 216 105
-0.32172 -0.45064 1.48474 255 216 105
-0.35274 -0.42105 1.48474 255 216 105
0.35274 -0.42105 1.48474 255 216 105
-0.35256 -0.37097 1.48474 255 216 105
0.35256 -0.37097 1.48474 255 216 105
0.17403 -0.38825 1.51892 16 35 34
0.17403 -0.38825 1.54623 16 35 34
0.23578 -0.38825 1.54623 16 35 34
0.23578 -0.38825 1.51892 16 35 34
0.23578 -0.38825 1.66244 16 35 34
0.17403 -0.38825 1.66244 16 35 34
0.14932 -0.39325 1.6159 255 255 255
0.14932 -0.39325 1.70105 255 255 255
0.20535 -0.39325 1.70105 255 255 255
0.20535 -0.39325 1.6159 255 255 255
0.20535 -0.38638 1.70105 255 255 255
0.14932 -0.38638 1.70105 255 255 255
0.14932 -0.38638 1.6159 255 255 255
0.20535 -0.38638 1.6159 255 255 255
0.26664 0.27857 0.2705 255 209 77
0.30709 0.24214 0.2705 255 209 77
0.30709 0.24214 1.10748 255 209 77
0.2668 0.27857 1.10748 255 209 77
0.30709 -0.25975 0.2705 255 209 77
0.30709 -0.25954 1.10748 255 209 77
0.26664 0.24219 0.23028 255 209 77
0.26664 -0.25992 0.23028 255 209 77
0.15573 0.27857 0.27032 255 209 77
0.15573 0.24219 0.23028 255 209 77
0.15573 0.27857 0.49958 255 209 77
0.26664 -0.29812 0.27046 255 209 77
0.21537 -0.29812 0.27046 255 209 77
0.21531 -0.29812 0.96414 255 209 77
0.2667 -0.29812 1.10748 255 209 77
0.21541 -0.25992 0.23028 255 209 77
0.18682 -0.29812 0.99347 255 209 77
-0.2667 -0.29812 1.10748 255 209 77
-0.18682 -0.29812 0.99347 255 209 77
-0.21531 -0.29812 0.96414 255 209 77
-0.26664 -0.29812 0.27046 255 209 77
-0.21537 -0.29812 0.27046 255 209 77
-0.26664 -0.25992 0.23028 255 209 77
-0.21541 -0.25992 0.23028 255 209 77
-0.26664 0.24219 0.23028 255 209 77
-0.15573 0.24219 0.23028 255 209 77
-0.30709 -0.25954 1.10748 255 209 77
-0.30709 -0.25975 0.2705 255 209 77
-0.30709 0.24214 0.2705 255 209 77
-0.26664 0.27857 0.2705 255 209 77
-0.30709 0.24214 1.10748 255 209 77
-0.2668 0.27857 1.10748 255 209 77
-0.15573 0.27857 0.27032 255 209 77
-0.15573 0.27857 0.49958 255 209 77
-0.15573 0.69705 0.23028 255 209 77
-0.15573 0.48457 0.49958 255 209 77
0.15573 0.48457 0.49958 255 209 77
0.15573 0.69705 0.23028 255 209 77
0.15573 0.51814 0.52812 255 209 77
0.15573 0.7464 0.26868 255 209 77
-0.15573 0.51814 0.52812 255 209 77
0.11088 0.51771 0.82891 255 209 77
-0.11169 0.51771 0.82891 255 209 77
-0.15573 0.7464 0.26868 255 209 77
0.11088 0.74562 0.82891 255 209 77
0.15573 0.74601 0.52812 255 209 77
-0.15573 0.74601 0.52812 255 209 77
-0.11169 0.74562 0.82891 255 209 77
0.21541 -0.25992 0.23028 255 243 156
-0.21541 -0.25992 0.23028 255 243 156
-0.21537 -0.29812 0.27046 255 243 156
0.21537 -0.29812 0.27046 255 243 156
-0.15573 0.24219 0.23028 255 243 156
0.15573 0.24219 0.23028 255 243 156
-0.21531 -0.29812 0.96414 255 243 156
0.21531 -0.29812 0.96414 255 243 156
0.18682 -0.29812 0.99347 255 243 156
-0.18682 -0.29812 0.99347 255 243 156
0.02583 -0.46609 1.37827 229 188 69
0.02583 -0.46609 1.42118 229 188 69
0.04775 -0.46609 1.42118 229 188 69
0.04775 -0.46609 1.37827 229 188 69
0.02583 -0.47679 1.37827 229 188 69
0.04775 -0.47679 1.37827 229 188 69
0.04775 -0.47679 1.42118 229 188 69
0.02583 -0.47679 1.42118 229 188 69
-0.18823 -0.43522 1.1848 255 255 255
-0.14111 -0.43522 1.1848 255 255 255
-0.14111 -0.43522 1.23082 255 255 255
-0.18823 -0.43522 1.23082 255 255 255
-0.14111 -0.47235 1.23082 255 255 255
-0.18823 -0.47235 1.23082 255 255 255
-0.14111 -0.47235 1.1848 255 255 255
-0.18823 -0.47235 1.1848 255 255 255
-0.23419 -0.42341 1.3043 255 255 255
-0.17768 -0.42341 1.3043 255 255 255
-0.17768 -0.42341 1.35776 255 255 255
-0.23419 -0.42341 1.35776 255 255 255
-0.23419 -0.46758 1.3043 255 255 255
-0.17768 -0.46758 1.3043 255 255 255
-0.17768 -0.46758 1.35776 255 255 255
-0.23419 -0.46758 1.35776 255 255 255
-0.28104 -0.36571 1.71258 28 62 61
-0.12892 -0.36571 1.71258 28 62 61
-0.12892 -0.38825 1.71258 28 62 61
-0.28104 -0.38825 1.71258 28 62 61
-0.12892 -0.36571 1.54623 28 62 61
-0.12892 -0.38825 1.54623 28 62 61
-0.28104 -0.38825 1.54623 28 62 61
-0.28104 -0.36571 1.54623 28 62 61
-0.23578 -0.38825 1.66244 28 62 61
-0.17403 -0.38825 1.66244 28 62 61
-0.17403 -0.38825 1.54623 28 62 61
-0.23578 -0.38825 1.54623 28 62 61
-0.12892 -0.36571 1.47877 60 130 135
-0.12892 -0.38825 1.47877 60 130 135
-0.12892 -0.38825 1.54623 60 130 135
-0.12892 -0.36571 1.54623 60 130 135
-0.17403 -0.38825 1.54623 60 130 135
-0.17403 -0.38825 1.51892 60 130 135
-0.23578 -0.38825 1.51892 60 130 135
-0.28104 -0.38825 1.47877 60 130 135
-0.28104 -0.38825 1.54623 60 130 135
-0.28104 -0.36571 1.54623 60 130 135
-0.28104 -0.36571 1.47877 60 130 135
-0.23578 -0.38825 1.54623 60 130 135
-0.17403 -0.38825 1.51892 16 35 34
-0.23578 -0.38825 1.51892 16 35 34
-0.23578 -0.38825 1.54623 16 35 34
-0.17403 -0.38825 1.54623 16 35 34
-0.23578 -0.38825 1.66244 16 35 34
-0.17403 -0.38825 1.66244 16 35 34
-0.14932 -0.39325 1.6159 255 255 255
-0.20535 -0.39325 1.6159 255 255 255
-0.20535 -0.39325 1.70105 255 255 255
-0.14932 -0.39325 1.70105 255 255 255
-0.20535 -0.38638 1.70105 255 255 255
-0.14932 -0.38638 1.70105 255 255 255
-0.14932 -0.38638 1.6159 255 255 255
-0.20535 -0.38638 1.6159 255 255 255
-0.02583 -0.46609 1.37827 229 188 69
-0.04775 -0.46609 1.37827 229 188 69
-0.04775 -0.46609 1.42118 229 188 69
-0.02583 -0.46609 1.42118 229 188 69
-0.02583 -0.47679 1.37827 229 188 69
-0.04775 -0.47679 1.37827 229 188 69
-0.04775 -0.47679 1.42118 229 188 69
-0.02583 -0.47679 1.42118 229 188 69
0.15573 0.69705 0.23028 255 243 156
-0.15573 0.69705 0.23028 255 243 156
0.15573 0.7464 0.26868 255 243 156
-0.15573 0.7464 0.26868 255 243 156
0.15573 0.74601 0.52812 255 243 156
-0.15573 0.74601 0.52812 255 243 156
-0.11169 0.74562 0.82891 255 243 156
0.11088 0.74562 0.82891 255 243 156
-0.15573 0.27857 0.49958 255 216 105
-0.15573 0.48457 0.49958 255 216 105
0.15573 0.48457 0.49958 255 216 105
0.15573 0.27857 0.49958 255 216 105
-0.15573 0.51814 0.52812 255 216 105
0.15573 0.51814 0.52812 255 216 105
0.13473 0.7925 0.80717 255 226 108
0.13473 0.7925 0.92305 255 226 108
-0.13473 0.7925 0.92305 255 226 108
-0.13473 0.7925 0.80717 255 226 108
0.13473 0.47405 0.80717 255 226 108
-0.13473 0.47405 0.80717 255 226 108
-0.15957 0.50062 0.80717 255 226 108
-0.15957 0.76593 0.80717 255 226 108
-0.15957 0.76593 0.92305 255 226 108
0.15957 0.76593 0.80717 255 226 108
0.15957 0.50062 0.80717 255 226 108
0.15957 0.76593 0.92305 255 226 108
0.15957 0.50062 0.92305 255 226 108
0.03588 0.65534 1.28706 254 105 63
0.03588 0.61121 1.28706 254 105 63
-0.03588 0.61121 1.28706 254 105 63
-0.03588 0.65534 1.28706 254 105 63
0.02293 0.66977 1.28706 254 105 63
-0.02293 0.66977 1.28706 254 105 63
-0.02293 0.59679 1.28706 254 105 63
0.02293 0.59679 1.28706 254 105 63
0.13473 0.47405 1.09516 242 100 60
0.13473 0.47405 0.92305 242 100 60
-0.13473 0.47405 0.92305 242 100 60
-0.13473 0.47405 1.09516 242 100 60
-0.15957 0.50062 1.09516 242 100 60
-0.15957 0.50062 0.92305 242 100 60
-0.15957 0.76593 0.92305 242 100 60
-0.15957 0.76593 1.09516 242 100 60
-0.13473 0.7925 1.09516 242 100 60
-0.13473 0.7925 0.92305 242 100 60
0.13473 0.7925 0.92305 242 100 60
0.13473 0.7925 1.09516 242 100 60
0.15957 0.76593 1.09516 242 100 60
0.15957 0.76593 0.92305 242 100 60
0.15957 0.50062 0.92305 242 100 60
0.15957 0.50062 1.09516 242 100 60
-0.15957 0.50062 0.92305 255 226 108
-0.13473 0.47405 0.92305 255 226 108
0.13473 0.47405 0.92305 255 226 108
0.13473 0.7925 1.09516 254 105 63
0.06309 0.72085 1.09516 254 105 63
-0.06309 0.72085 1.09516 254 105 63
-0.13473 0.7925 1.09516 254 105 63
0.0861 0.6934 1.09516 254 105 63
0.15957 0.76593 1.09516 254 105 63
-0.15957 0.76593 1.09516 254 105 63
-0.0861 0.6934 1.09516 254 105 63
0.0861 0.57315 1.09516 254 105 63
0.15957 0.50062 1.09516 254 105 63
-0.13473 0.47405 1.09516 254 105 63
-0.15957 0.50062 1.09516 254 105 63
-0.0861 0.57315 1.09516 254 105 63
-0.06309 0.5457 1.09516 254 105 63
0.06309 0.5457 1.09516 254 105 63
0.13473 0.47405 1.09516 254 105 63
0.06309 0.72085 1.09516 242 100 60
0.06309 0.72085 1.20891 242 100 60
-0.06309 0.72085 1.20891 242 100 60
-0.06309 0.72085 1.09516 242 100 60
0.0861 0.6934 1.20891 242 100 60
0.0861 0.6934 1.09516 242 100 60
-0.0861 0.6934 1.20891 242 100 60
-0.0861 0.6934 1.09516 242 100 60
0.0861 0.57315 1.09516 242 100 60
0.0861 0.57315 1.20891 242 100 60
-0.0861 0.57315 1.20891 242 100 60
-0.06309 0.5457 1.20891 242 100 60
-0.06309 0.5457 1.09516 242 100 60
-0.0861 0.57315 1.09516 242 100 60
0.06309 0.5457 1.20891 242 100 60
0.06309 0.5457 1.09516 242 100 60
0.06309 0.72085 1.20891 254 105 63
0.02752 0.67706 1.20891 254 105 63
-0.02752 0.67706 1.20891 254 105 63
-0.06309 0.72085 1.20891 254 105 63
0.04305 0.65976 1.20891 254 105 63
0.0861 0.6934 1.20891 254 105 63
0.04305 0.6068 1.20891 254 105 63
0.0861 0.57315 1.20891 254 105 63
-0.04305 0.65976 1.20891 254 105 63
-0.0861 0.6934 1.20891 254 105 63
-0.04305 0.6068 1.20891 254 105 63
-0.02752 0.58949 1.20891 254 105 63
-0.06309 0.5457 1.20891 254 105 63
-0.0861 0.57315 1.20891 254 105 63
0.02752 0.58949 1.20891 254 105 63
0.06309 0.5457 1.20891 254 105 63
0.02752 0.67706 1.20891 242 100 60
0.02752 0.67706 1.27549 242 100 60
-0.02752 0.67706 1.27549 242 100 60
-0.02752 0.67706 1.20891 242 100 60
0.04305 0.65976 1.27549 242 100 60
0.04305 0.65976 1.20891 242 100 60
0.04305 0.6068 1.20891 242 100 60
0.04305 0.6068 1.27549 242 100 60
-0.04305 0.65976 1.27549 242 100 60
-0.04305 0.65976 1.20891 242 100 60
-0.02293 0.66977 1.28706 242 100 60
0.02293 0.66977 1.28706 242 100 60
-0.03588 0.65534 1.28706 242 100 60
-0.03588 0.61121 1.28706 242 100 60
-0.04305 0.6068 1.27549 242 100 60
-0.02293 0.59679 1.28706 242 100 60
-0.02752 0.58949 1.27549 242 100 60
-0.02752 0.58949 1.20891 242 100 60
-0.04305 0.6068 1.20891 242 100 60
0.02752 0.58949 1.27549 242 100 60
0.02752 0.58949 1.20891 242 100 60
0.02293 0.59679 1.28706 242 100 60
0.03588 0.61121 1.28706 242 100 60
0.03588 0.65534 1.28706 242 100 60
0.15637 0.53745 0.88757 255 226 108
0.15637 0.53745 0.98989 255 226 108
0.17927 0.53745 0.98989 255 226 108
0.17927 0.53745 0.88757 255 226 108
0.17927 0.63977 0.98989 255 226 108
0.15637 0.63977 0.98989 255 226 108
0.15637 0.63977 0.88757 255 226 108
0.17927 0.63977 0.88757 255 226 108
-0.12004 0.78075 0.9841 255 226 108
-0.12004 0.8291 0.9841 255 226 108
-0.01772 0.8291 0.9841 255 226 108
-0.01772 0.78075 0.9841 255 226 108
-0.01772 0.8291 0.88178 255 226 108
-0.12004 0.8291 0.88178 255 226 108
-0.01772 0.78075 0.88178 255 226 108
-0.12004 0.78075 0.88178 255 226 108
-0.1817 0.61635 0.89269 255 226 108
-0.1817 0.61635 0.99502 255 226 108
-0.15494 0.61635 0.99502 255 226 108
-0.15494 0.61635 0.89269 255 226 108
-0.15494 0.71868 0.99502 255 226 108
-0.1817 0.71868 0.99502 255 226 108
-0.1817 0.71868 0.89269 255 226 108
-0.15494 0.71868 0.89269 255 226 108
-0.09799 0.44785 0.86662 255 226 108
-0.09799 0.44785 0.96894 255 226 108
0.00433 0.44785 0.96894 255 226 108
0.00433 0.44785 0.86662 255 226 108
0.00433 0.47934 0.96894 255 226 108
-0.09799 0.47934 0.96894 255 226 108
-0.09799 0.47934 0.86662 255 226 108
0.00433 0.47934 0.86662 255 226 108
-0.0676 0.45911 0.99931 255 226 108
-0.0676 0.45911 1.05368 255 226 108
-0.01323 0.45911 1.05368 255 226 108
-0.01323 0.45911 0.99931 255 226 108
-0.01323 0.47716 1.05368 255 226 108
-0.0676 0.47716 1.05368 255 226 108
-0.0676 0.47716 0.99931 255 226 108
-0.01323 0.47716 0.99931 255 226 108
0.1563 0.61538 1.02043 255 226 108
0.1563 0.61538 1.07479 255 226 108
0.16914 0.61538 1.07479 255 226 108
0.16914 0.61538 1.02043 255 226 108
0.16914 0.66974 1.07479 255 226 108
0.1563 0.66974 1.07479 255 226 108
0.1563 0.66974 1.02043 255 226 108
0.16914 0.66974 1.02043 255 226 108
0.07607 0.78754 0.9572 255 226 108
0.07607 0.80472 0.9572 255 226 108
0.13044 0.80472 0.9572 255 226 108
0.13044 0.78754 0.9572 255 226 108
0.13044 0.80472 0.90283 255 226 108
0.07607 0.80472 0.90283 255 226 108
0.13044 0.78754 0.90283 255 226 108
0.07607 0.78754 0.90283 255 226 108
-0.17055 0.53488 1.00957 255 226 108
-0.17055 0.53488 1.06394 255 226 108
-0.15629 0.53488 1.06394 255 226 108
-0.15629 0.53488 1.00957 255 226 108
-0.15629 0.58924 1.06394 255 226 108
-0.17055 0.58924 1.06394 255 226 108
-0.17055 0.58924 1.00957 255 226 108
-0.15629 0.58924 1.00957 255 226 108
-0.18495 0.53212 0.90141 242 100 60
-0.18495 0.53212 0.9613 242 100 60
-0.15551 0.53212 0.9613 242 100 60
-0.15551 0.53212 0.90141 242 100 60
-0.15551 0.592 0.9613 242 100 60
-0.18495 0.592 0.9613 242 100 60
-0.18495 0.592 0.90141 242 100 60
-0.15551 0.592 0.90141 242 100 60
2.59399E-06 0.78905 0.94681 242 100 60
2.59399E-06 0.81552 0.94681 242 100 60
0.05989 0.81552 0.94681 242 100 60
0.05989 0.78905 0.94681 242 100 60
0.05989 0.81552 0.88693 242 100 60
2.59399E-06 0.81552 0.88693 242 100 60
0.05989 0.78905 0.88693 242 100 60
2.59399E-06 0.78905 0.88693 242 100 60
0.15622 0.67777 0.90108 242 100 60
0.15622 0.67777 0.96458 242 100 60
0.16962 0.67777 0.96458 242 100 60
0.16962 0.67777 0.90108 242 100 60
0.16962 0.74127 0.96458 242 100 60
0.15622 0.74127 0.96458 242 100 60
0.15622 0.74127 0.90108 242 100 60
0.16962 0.74127 0.90108 242 100 60
0.07559 0.46059 0.89572 242 100 60
0.07559 0.46059 0.94294 242 100 60
0.1228 0.46059 0.94294 242 100 60
0.1228 0.46059 0.89572 242 100 60
0.1228 0.47762 0.94294 242 100 60
0.07559 0.47762 0.94294 242 100 60
0.07559 0.47762 0.89572 242 100 60
0.1228 0.47762 0.89572 242 100 60
0.04749 0.46474 0.97115 255 226 108
0.04749 0.46474 1.00006 255 226 108
0.07641 0.46474 1.00006 255 226 108
0.07641 0.46474 0.97115 255 226 108
0.07641 0.47548 1.00006 255 226 108
0.04749 0.47548 1.00006 255 226 108
0.04749 0.47548 0.97115 255 226 108
0.07641 0.47548 0.97115 255 226 108
0.04211 0.78863 1.06288 255 226 108
0.04211 0.80141 1.06288 255 226 108
0.07103 0.80141 1.06288 255 226 108
0.07103 0.78863 1.06288 255 226 108
0.07103 0.80141 1.03396 255 226 108
0.04211 0.80141 1.03396 255 226 108
0.07103 0.78863 1.03396 255 226 108
0.04211 0.78863 1.03396 255 226 108
3 0 2 1
3 0 3 2
3 3 4 2
3 3 5 4
3 5 3 6
3 5 6 7
3 8 7 6
3 8 6 9
3 3 9 6
3 3 0 9
3 10 12 11
3 10 13 12
3 13 10 14
3 13 14 15
3 16 5 17
3 16 4 5
3 17 5 7
3 17 7 8
3 18 20 19
3 18 21 20
3 19 20 22
3 19 22 23
3 23 24 19
3 23 25 24
3 26 24 25
3 26 27 24
3 19 27 18
3 19 24 27
3 28 30 29
3 28 31 30
3 29 32 28
3 29 33 32
3 34 23 22
3 34 35 23
3 35 25 23
3 35 26 25
3 36 38 37
3 36 39 38
3 36 40 39
3 36 41 40
3 40 41 42
3 40 42 43
3 44 38 39
3 44 45 38
3 45 37 38
3 45 46 37
3 46 36 37
3 45 47 46
3 46 47 48
3 46 48 49
3 46 49 50
3 45 51 47
3 49 48 52
3 53 52 51
3 53 51 45
3 49 52 53
3 54 42 41
3 55 54 41
3 55 56 54
3 55 57 56
3 55 58 57
3 46 58 55
3 46 50 58
3 54 56 59
3 54 59 60
3 61 60 59
3 61 59 62
3 63 61 62
3 63 64 61
3 55 41 36
3 46 55 36
3 54 60 42
3 60 43 42
3 60 61 43
3 61 40 43
3 61 64 40
3 64 39 40
3 64 44 39
3 63 57 65
3 63 56 57
3 65 57 58
3 65 58 66
3 44 65 66
3 44 66 67
3 44 67 45
3 64 65 44
3 64 63 65
3 50 66 58
3 50 67 66
3 56 63 62
3 56 62 59
3 45 67 53
3 53 67 68
3 53 68 69
3 70 69 68
3 70 68 71
3 50 70 71
3 49 69 70
3 49 53 69
3 50 49 70
3 72 74 73
3 72 75 74
3 76 78 77
3 76 79 78
3 80 82 81
3 80 83 82
3 80 81 84
3 80 84 85
3 84 86 85
3 84 87 86
3 88 81 82
3 88 82 89
3 89 82 83
3 89 83 90
3 90 83 80
3 89 90 91
3 90 92 91
3 90 93 92
3 90 94 93
3 89 91 95
3 93 96 92
3 97 95 96
3 97 89 95
3 93 97 96
3 98 85 86
3 99 85 98
3 99 98 100
3 99 100 101
3 99 101 102
3 90 102 94
3 90 99 102
3 98 103 100
3 98 104 103
3 105 103 104
3 105 106 103
3 107 106 105
3 107 105 108
3 99 80 85
3 90 80 99
3 98 86 104
3 104 87 105
3 104 86 87
3 105 84 108
3 105 87 84
3 108 84 81
3 108 81 88
3 107 101 100
3 107 109 101
3 109 102 101
3 109 110 102
3 88 110 109
3 88 111 110
3 88 89 111
3 108 109 107
3 108 88 109
3 94 110 111
3 94 102 110
3 100 106 107
3 100 103 106
3 89 97 111
3 97 112 111
3 97 113 112
3 114 112 113
3 114 115 112
3 94 115 114
3 93 113 97
3 93 114 113
3 94 114 93
3 116 118 117
3 116 119 118
3 120 122 121
3 120 123 122
3 124 126 125
3 124 127 126
3 125 126 128
3 127 128 126
3 125 128 129
3 127 130 128
3 131 125 129
3 131 124 125
3 129 130 131
3 129 128 130
3 132 134 133
3 132 135 134
3 136 135 132
3 136 132 133
3 136 137 135
3 135 138 134
3 135 137 138
3 136 133 139
3 139 137 136
3 139 138 137
3 140 142 141
3 140 143 142
3 141 142 144
3 141 144 145
3 146 141 145
3 146 140 141
3 146 145 144
3 146 144 147
3 148 150 149
3 148 151 150
3 152 150 151
3 152 153 150
3 154 148 149
3 154 155 148
3 156 149 150
3 156 150 157
3 150 158 157
3 150 153 158
3 149 159 154
3 149 156 159
3 160 162 161
3 160 163 162
3 163 164 162
3 163 165 164
3 163 166 165
3 163 167 166
3 168 166 167
3 167 169 168
3 167 170 169
3 168 171 166
3 172 174 173
3 172 175 174
3 176 172 173
3 176 173 177
3 175 172 178
3 175 178 179
3 175 179 180
3 175 180 181
3 181 180 182
3 181 182 183
3 175 183 174
3 175 181 183
3 174 183 182
3 184 172 176
3 184 178 172
3 180 185 182
3 180 186 185
3 179 178 187
3 186 188 185
3 186 189 188
3 174 182 190
3 174 190 191
3 174 191 173
3 192 173 191
3 192 177 173
3 190 193 191
3 194 196 195
3 194 197 196
3 198 200 199
3 198 201 200
3 198 202 201
3 201 202 203
3 201 203 200
3 198 204 202
3 204 198 199
3 204 199 205
3 199 206 205
3 199 200 206
3 200 203 206
3 207 209 208
3 207 210 209
3 211 207 208
3 211 212 207
3 186 210 207
3 180 210 186
3 180 179 210
3 186 207 189
3 189 207 213
3 189 213 188
3 209 214 208
3 209 215 214
3 187 209 210
3 187 210 179
3 207 216 213
3 207 212 216
3 211 208 217
3 217 208 218
3 218 208 214
3 217 218 219
3 220 219 218
3 220 221 219
3 211 221 220
3 211 222 221
3 211 217 222
3 223 213 216
3 223 224 213
3 218 225 224
3 218 214 225
3 226 218 224
3 223 226 224
3 226 227 218
3 220 218 227
3 228 224 225
3 213 224 228
3 213 228 229
3 185 213 229
3 182 185 229
3 182 229 190
3 185 188 213
3 228 225 230
3 193 229 228
3 193 190 229
3 223 231 226
3 223 232 231
3 220 227 232
3 223 220 232
3 193 233 191
3 234 191 233
3 235 234 233
3 235 236 234
3 237 236 235
3 237 238 236
3 237 239 238
3 237 240 239
3 239 240 178
3 187 178 240
3 239 178 184
3 241 240 237
3 241 187 240
3 241 237 235
3 241 235 242
3 242 235 233
3 234 192 191
3 242 233 193
3 243 195 244
3 243 194 195
3 245 243 244
3 245 244 246
3 247 249 248
3 247 250 249
3 250 251 249
3 250 252 251
3 187 215 209
3 187 241 215
3 253 255 254
3 253 256 255
3 257 254 255
3 257 258 254
3 259 261 260
3 259 262 261
3 260 261 263
3 262 263 261
3 260 263 264
3 265 262 259
3 265 260 264
3 265 259 260
3 265 266 262
3 262 266 263
3 267 269 268
3 267 270 269
3 269 271 268
3 269 272 271
3 273 267 268
3 268 274 273
3 268 271 274
3 275 267 273
3 275 273 276
3 277 267 275
3 277 270 267
3 271 278 274
3 274 278 279
3 278 280 279
3 278 281 280
3 274 279 282
3 273 274 282
3 273 282 276
3 272 278 271
3 272 281 278
3 280 281 283
3 283 281 284
3 283 284 285
3 286 285 284
3 287 286 284
3 287 288 286
3 289 288 287
3 289 290 288
3 291 290 289
3 291 292 290
3 293 287 284
3 293 294 287
3 294 289 287
3 295 289 294
3 295 291 289
3 291 295 296
3 296 295 297
3 296 297 298
3 297 295 294
3 297 294 293
3 299 291 296
3 299 292 291
3 300 296 298
3 300 299 296
3 277 300 298
3 277 298 270
3 301 292 299
3 301 299 300
3 301 300 302
3 277 304 303
3 277 275 304
3 304 275 276
3 304 305 303
3 304 306 305
3 307 305 308
3 307 308 309
3 301 307 310
3 301 302 307
3 305 311 308
3 305 312 311
3 313 309 314
3 313 307 309
3 306 312 305
3 310 307 313
3 315 317 316
3 315 318 317
3 319 315 316
3 319 320 315
3 318 321 317
3 318 322 321
3 321 322 323
3 321 323 324
3 325 327 326
3 325 328 327
3 329 328 325
3 329 330 328
3 330 327 328
3 330 331 327
3 331 326 327
3 331 332 326
3 332 325 326
3 332 329 325
3 333 335 334
3 333 336 335
3 336 337 335
3 334 335 337
3 336 338 337
3 334 337 339
3 340 336 333
3 340 338 336
3 338 339 337
3 338 340 339
3 341 343 342
3 341 344 343
3 345 341 342
3 345 344 341
3 345 342 346
3 342 347 346
3 342 343 347
3 345 348 344
3 348 346 347
3 348 345 346
3 349 351 350
3 349 352 351
3 353 350 351
3 353 351 354
3 355 352 349
3 355 349 356
3 357 351 352
3 357 358 351
3 351 359 354
3 351 358 359
3 352 360 357
3 352 355 360
3 361 363 362
3 361 364 363
3 362 363 365
3 362 365 366
3 362 366 367
3 362 367 368
3 369 368 367
3 368 369 370
3 368 370 371
3 369 367 372
3 193 230 242
3 193 228 230
3 373 375 374
3 373 376 375
3 377 375 376
3 377 376 378
3 379 381 380
3 379 382 381
3 382 383 381
3 380 381 383
3 382 384 383
3 385 379 380
3 385 382 379
3 385 384 382
3 385 380 386
3 380 383 386
3 387 389 388
3 387 390 389
3 391 387 388
3 391 388 392
3 392 388 389
3 392 389 393
3 393 389 390
3 393 390 394
3 394 387 391
3 394 390 387
3 320 396 395
3 320 319 396
3 397 395 396
3 397 396 398
3 398 399 397
3 398 400 399
3 399 400 401
3 399 401 402
3 403 405 404
3 403 406 405
3 404 408 407
3 404 405 408
3 409 411 410
3 409 412 411
3 413 412 409
3 413 414 412
3 412 414 415
3 412 415 416
3 411 412 416
3 411 416 417
3 413 409 418
3 413 418 419
3 419 418 420
3 409 420 418
3 409 410 420
3 419 420 421
3 422 424 423
3 422 425 424
3 426 425 422
3 426 427 425
3 423 424 428
3 423 428 429
3 430 432 431
3 430 433 432
3 432 433 434
3 432 434 435
3 436 435 434
3 436 434 437
3 438 436 437
3 438 439 436
3 440 439 438
3 440 438 441
3 440 441 442
3 440 442 443
3 444 443 442
3 430 431 444
3 444 442 445
3 430 444 445
3 416 446 417
3 416 415 446
3 414 446 415
3 414 447 446
3 448 447 414
3 448 414 413
3 448 413 419
3 448 419 421
3 449 451 450
3 449 452 451
3 453 449 450
3 453 454 449
3 455 451 452
3 455 456 451
3 457 454 453
3 457 458 454
3 459 461 460
3 459 462 461
3 459 463 462
3 459 464 463
3 460 461 456
3 460 456 455
3 464 457 463
3 464 458 457
3 465 467 466
3 465 468 467
3 469 465 466
3 469 470 465
3 468 471 467
3 468 472 471
3 473 470 469
3 473 469 474
3 475 477 476
3 475 478 477
3 477 479 476
3 477 480 479
3 478 475 471
3 478 471 472
3 480 474 479
3 480 473 474
3 481 483 482
3 481 484 483
3 485 481 482
3 485 486 481
3 487 486 485
3 487 488 486
3 484 489 483
3 484 490 489
3 491 493 492
3 491 494 493
3 493 495 492
3 493 496 495
3 496 487 495
3 496 488 487
3 489 494 491
3 489 490 494
3 497 499 498
3 497 500 499
3 501 497 498
3 501 502 497
3 503 502 501
3 503 501 504
3 500 505 499
3 500 506 505
3 498 499 507
3 498 507 508
3 501 498 508
3 499 509 507
3 499 505 509
3 505 510 509
3 505 511 510
3 511 512 510
3 511 513 512
3 511 514 513
3 511 515 514
3 514 516 513
3 514 517 516
3 517 504 516
3 517 503 504
3 515 511 505
3 515 505 506
3 513 518 512
3 513 516 518
3 516 519 518
3 516 504 519
3 504 520 519
3 504 501 520
3 501 508 520
3 521 523 522
3 521 524 523
3 522 523 525
3 524 525 523
3 522 525 526
3 527 524 521
3 527 528 524
3 524 528 525
3 526 528 527
3 526 525 528
3 529 531 530
3 529 532 531
3 530 531 533
3 530 533 534
3 534 529 530
3 534 533 535
3 535 531 532
3 535 533 531
3 534 535 536
3 534 536 529
3 537 539 538
3 537 540 539
3 538 539 541
3 538 541 542
3 543 540 537
3 543 538 542
3 543 537 538
3 543 544 540
3 542 544 543
3 542 541 544
3 545 547 546
3 545 548 547
3 546 547 549
3 548 549 547
3 546 549 550
3 551 548 545
3 551 546 550
3 551 545 546
3 551 552 548
3 548 552 549
3 553 555 554
3 553 556 555
3 554 555 557
3 556 557 555
3 554 557 558
3 559 556 553
3 559 554 558
3 559 553 554
3 559 560 556
3 556 560 557
3 561 563 562
3 561 564 563
3 562 563 565
3 564 565 563
3 562 565 566
3 567 564 561
3 567 568 564
3 564 568 565
3 566 568 567
3 566 565 568
3 569 571 570
3 569 572 571
3 570 571 573
3 570 573 574
3 574 569 570
3 574 573 575
3 575 571 572
3 575 573 571
3 574 575 576
3 574 576 569
3 577 579 578
3 577 580 579
3 578 579 581
3 578 581 582
3 583 580 577
3 583 578 582
3 583 577 578
3 583 584 580
3 582 584 583
3 582 581 584
3 585 587 586
3 585 588 587
3 586 587 589
3 586 589 590
3 591 588 585
3 591 586 590
3 591 585 586
3 591 592 588
3 590 592 591
3 590 589 592
3 593 595 594
3 593 596 595
3 594 595 597
3 594 597 598
3 598 593 594
3 598 597 599
3 599 595 596
3 599 597 595
3 598 599 600
3 598 600 593
3 601 603 602
3 601 604 603
3 602 603 605
3 604 605 603
3 602 605 606
3 607 604 601
3 607 608 604
3 604 608 605
3 606 608 607
3 606 605 608
3 609 611 610
3 609 612 611
3 610 611 613
3 612 613 611
3 610 613 614
3 615 612 609
3 615 610 614
3 615 609 610
3 615 616 612
3 612 616 613
3 617 619 618
3 617 620 619
3 618 619 621
3 620 621 619
3 618 621 622
3 623 620 617
3 623 618 622
3 623 617 618
3 623 624 620
3 620 624 621
3 625 627 626
3 625 628 627
3 626 627 629
3 626 629 630
3 630 625 626
3 630 629 631
3 631 627 628
3 631 629 627
3 630 631 632
3 630 632 625
