ply
format ascii 1.0
element vertex 470
property float x
property float y
property float z
property uchar red
property uchar green
property uchar blue
element face 640
property list uchar int vertex_index
end_header
0.49839 -0.94702 0.06237 172 183 141
0.49839 -0.94702 0.48226 172 183 141
0.89215 -0.94702 0.48226 172 183 141
0.89215 -0.94702 0.06237 172 183 141
0.95588 -0.89236 0.48226 172 183 141
0.95588 -0.89236 0.06237 172 183 141
0.95588 -0.17537 0.06237 172 183 141
0.95588 -0.17537 0.48226 172 183 141
0.89215 -0.12047 0.06237 172 183 141
0.89215 -0.12047 0.48226 172 183 141
0.43466 -0.89236 0.48226 172 183 141
0.43466 -0.89236 0.06237 172 183 141
0.43466 -0.17537 0.48226 172 183 141
0.43466 -0.17537 0.06237 172 183 141
0.49839 -0.12047 0.06237 172 183 141
0.49839 -0.12047 0.48226 172 183 141
0.86037 -0.90631 0.53578 172 183 141
0.53017 -0.90631 0.53578 172 183 141
0.91154 -0.85962 0.53578 172 183 141
0.47899 -0.85962 0.53578 172 183 141
0.47899 -0.20905 0.53578 172 183 141
0.53017 -0.161 0.53578 172 183 141
0.86037 -0.161 0.53578 172 183 141
0.91154 -0.20905 0.53578 172 183 141
0.86178 -0.16058 0.01622 172 183 141
0.52876 -0.16058 0.01622 172 183 141
0.47703 -0.2087 0.01622 172 183 141
0.47703 -0.85996 0.01622 172 183 141
0.9135 -0.2087 0.01622 172 183 141
0.9135 -0.85996 0.01622 172 183 141
0.86178 -0.90673 0.01622 172 183 141
0.52876 -0.90673 0.01622 172 183 141
0.47899 -0.85962 0.53578 177 188 145
0.91154 -0.85962 0.53578 177 188 145
0.86037 -0.90631 0.53578 177 188 145
0.53017 -0.90631 0.53578 177 188 145
0.91154 -0.20905 0.53578 177 188 145
0.47899 -0.20905 0.53578 177 188 145
0.86037 -0.161 0.53578 177 188 145
0.53017 -0.161 0.53578 177 188 145
-0.49839 -0.94702 0.06237 172 183 141
-0.89215 -0.94702 0.06237 172 183 141
-0.89215 -0.94702 0.48226 172 183 141
-0.49839 -0.94702 0.48226 172 183 141
-0.95588 -0.89236 0.48226 172 183 141
-0.95588 -0.89236 0.06237 172 183 141
-0.95588 -0.17537 0.06237 172 183 141
-0.95588 -0.17537 0.48226 172 183 141
-0.89215 -0.12047 0.06237 172 183 141
-0.89215 -0.12047 0.48226 172 183 141
-0.43466 -0.89236 0.48226 172 183 141
-0.43466 -0.89236 0.06237 172 183 141
-0.43466 -0.17537 0.48226 172 183 141
-0.43466 -0.17537 0.06237 172 183 141
-0.49839 -0.12047 0.06237 172 183 141
-0.49839 -0.12047 0.48226 172 183 141
-0.86037 -0.90631 0.53578 172 183 141
-0.53017 -0.90631 0.53578 172 183 141
-0.47899 -0.85962 0.53578 172 183 141
-0.47899 -0.20905 0.53578 172 183 141
-0.53017 -0.161 0.53578 172 183 141
-0.86037 -0.161 0.53578 172 183 141
-0.91154 -0.20905 0.53578 172 183 141
-0.91154 -0.85962 0.53578 172 183 141
-0.86178 -0.16058 0.01622 172 183 141
-0.52876 -0.16058 0.01622 172 183 141
-0.47703 -0.2087 0.01622 172 183 141
-0.47703 -0.85996 0.01622 172 183 141
-0.9135 -0.2087 0.01622 172 183 141
-0.9135 -0.85996 0.01622 172 183 141
-0.86178 -0.90673 0.01622 172 183 141
-0.52876 -0.90673 0.01622 172 183 141
-0.47899 -0.85962 0.53578 177 188 145
-0.53017 -0.90631 0.53578 177 188 145
-0.86037 -0.90631 0.53578 177 188 145
-0.91154 -0.85962 0.53578 177 188 145
-0.91154 -0.20905 0.53578 177 188 145
-0.47899 -0.20905 0.53578 177 188 145
-0.86037 -0.161 0.53578 177 188 145
-0.53017 -0.161 0.53578 177 188 145
0.53372 -0.87171 0.6966 172 183 141
0.53372 -0.87171 0.98696 172 183 141
0.85452 -0.87171 0.98696 172 183 141
0.85452 -0.87171 0.6966 172 183 141
0.90757 -0.81535 0.98696 172 183 141
0.90757 -0.81535 0.6966 172 183 141
0.90757 -0.37085 0.6966 172 183 141
0.90757 -0.37085 0.98696 172 183 141
0.85452 -0.32589 0.6966 172 183 141
0.85452 -0.32589 0.98696 172 183 141
0.48067 -0.81535 0.98696 172 183 141
0.48067 -0.81535 0.6966 172 183 141
0.48067 -0.37085 0.98696 172 183 141
0.48067 -0.37085 0.6966 172 183 141
0.53372 -0.32589 0.6966 172 183 141
0.53372 -0.32589 0.98696 172 183 141
0.82047 -0.831 1.04048 172 183 141
0.56776 -0.831 1.04048 172 183 141
0.86323 -0.77851 1.04048 172 183 141
0.52501 -0.77851 1.04048 172 183 141
0.52501 -0.40875 1.04048 172 183 141
0.56776 -0.36642 1.04048 172 183 141
0.82047 -0.36642 1.04048 172 183 141
0.86323 -0.40875 1.04048 172 183 141
0.82198 -0.366 0.65045 172 183 141
0.56626 -0.366 0.65045 172 183 141
0.86519 -0.40836 0.65045 172 183 141
0.52305 -0.40836 0.65045 172 183 141
0.52305 -0.77889 0.65045 172 183 141
0.86519 -0.77889 0.65045 172 183 141
0.82198 -0.83141 0.65045 172 183 141
0.56626 -0.83141 0.65045 172 183 141
0.52501 -0.77851 1.04048 177 188 145
0.86323 -0.77851 1.04048 177 188 145
0.82047 -0.831 1.04048 177 188 145
0.56776 -0.831 1.04048 177 188 145
0.86323 -0.40875 1.04048 177 188 145
0.52501 -0.40875 1.04048 177 188 145
0.82047 -0.36642 1.04048 177 188 145
0.56776 -0.36642 1.04048 177 188 145
-0.53372 -0.87171 0.6966 172 183 141
-0.85452 -0.87171 0.6966 172 183 141
-0.85452 -0.87171 0.98696 172 183 141
-0.53372 -0.87171 0.98696 172 183 141
-0.90757 -0.81535 0.98696 172 183 141
-0.90757 -0.81535 0.6966 172 183 141
-0.90757 -0.37085 0.6966 172 183 141
-0.90757 -0.37085 0.98696 172 183 141
-0.85452 -0.32589 0.6966 172 183 141
-0.85452 -0.32589 0.98696 172 183 141
-0.48067 -0.81535 0.98696 172 183 141
-0.48067 -0.81535 0.6966 172 183 141
-0.48067 -0.37085 0.98696 172 183 141
-0.48067 -0.37085 0.6966 172 183 141
-0.53372 -0.32589 0.6966 172 183 141
-0.53372 -0.32589 0.98696 172 183 141
-0.82047 -0.831 1.04048 172 183 141
-0.56776 -0.831 1.04048 172 183 141
-0.52501 -0.77851 1.04048 172 183 141
-0.52501 -0.40875 1.04048 172 183 141
-0.56776 -0.36642 1.04048 172 183 141
-0.82047 -0.36642 1.04048 172 183 141
-0.86323 -0.40875 1.04048 172 183 141
-0.86323 -0.77851 1.04048 172 183 141
-0.82198 -0.366 0.65045 172 183 141
-0.56626 -0.366 0.65045 172 183 141
-0.86519 -0.40836 0.65045 172 183 141
-0.52305 -0.40836 0.65045 172 183 141
-0.52305 -0.77889 0.65045 172 183 141
-0.86519 -0.77889 0.65045 172 183 141
-0.82198 -0.83141 0.65045 172 183 141
-0.56626 -0.83141 0.65045 172 183 141
-0.52501 -0.77851 1.04048 177 188 145
-0.56776 -0.831 1.04048 177 188 145
-0.82047 -0.831 1.04048 177 188 145
-0.86323 -0.77851 1.04048 177 188 145
-0.86323 -0.40875 1.04048 177 188 145
-0.52501 -0.40875 1.04048 177 188 145
-0.82047 -0.36642 1.04048 177 188 145
-0.56776 -0.36642 1.04048 177 188 145
0.74605 -0.53405 1.33325 214 209 203
0.74605 -0.53405 1.60871 214 209 203
0.76497 -0.53405 1.60871 214 209 203
0.76497 -0.53405 1.33325 214 209 203
0.76497 -0.25859 1.60871 214 209 203
0.74605 -0.25859 1.60871 214 209 203
0.76497 -0.25859 1.33325 214 209 203
0.74605 -0.25859 1.33325 214 209 203
-0.74605 -0.53405 1.33325 214 209 203
-0.76497 -0.53405 1.33325 214 209 203
-0.76497 -0.53405 1.60871 214 209 203
-0.74605 -0.53405 1.60871 214 209 203
-0.76497 -0.25859 1.60871 214 209 203
-0.74605 -0.25859 1.60871 214 209 203
-0.76497 -0.25859 1.33325 214 209 203
-0.74605 -0.25859 1.33325 214 209 203
-0.17778 0.81776 0.88365 172 183 141
-0.14306 0.86212 0.88365 172 183 141
-0.14306 0.86212 1.12578 172 183 141
-0.17778 0.81776 1.12578 172 183 141
-0.14015 0.78909 0.84416 172 183 141
-0.1128 0.82608 0.84416 172 183 141
-0.17778 0.6457 0.8837 172 183 141
-0.17778 0.6457 1.12578 172 183 141
-0.14015 0.78913 1.15726 172 183 141
-0.11274 0.826 1.15726 172 183 141
-0.14015 0.6457 0.84416 172 183 141
0.14306 0.86212 1.12578 172 183 141
0.14306 0.86212 0.88365 172 183 141
0.1128 0.82608 0.84416 172 183 141
0.11274 0.826 1.15726 172 183 141
0.14015 0.78909 0.84416 172 183 141
0.17778 0.81776 0.88365 172 183 141
0.17778 0.81776 1.12578 172 183 141
0.17778 0.6457 0.8837 172 183 141
0.17778 0.6457 1.12578 172 183 141
0.14015 0.78913 1.15726 172 183 141
0.14015 0.6457 0.84416 172 183 141
0.14015 0.6457 1.15726 172 183 141
-0.14015 0.6457 1.15726 172 183 141
0.14015 0.78913 1.15726 177 188 145
0.14015 0.6457 1.15726 177 188 145
-0.14015 0.6457 1.15726 177 188 145
-0.14015 0.78913 1.15726 177 188 145
-0.11274 0.826 1.15726 177 188 145
0.11274 0.826 1.15726 177 188 145
-0.17778 0.81776 1.36461 172 183 141
-0.14306 0.86212 1.36461 172 183 141
-0.14306 0.86212 1.60674 172 183 141
-0.17778 0.81776 1.60674 172 183 141
-0.14015 0.78909 1.32512 172 183 141
-0.1128 0.82608 1.32512 172 183 141
-0.17778 0.6457 1.36466 172 183 141
-0.17778 0.6457 1.60674 172 183 141
-0.14015 0.78913 1.63822 172 183 141
-0.11274 0.826 1.63822 172 183 141
-0.14015 0.6457 1.32512 172 183 141
0.14306 0.86212 1.60674 172 183 141
0.14306 0.86212 1.36461 172 183 141
0.1128 0.82608 1.32512 172 183 141
0.11274 0.826 1.63822 172 183 141
0.14015 0.78909 1.32512 172 183 141
0.17778 0.81776 1.36461 172 183 141
0.17778 0.81776 1.60674 172 183 141
0.17778 0.6457 1.36466 172 183 141
0.17778 0.6457 1.60674 172 183 141
0.14015 0.78913 1.63822 172 183 141
0.14015 0.6457 1.32512 172 183 141
0.14015 0.6457 1.63822 172 183 141
-0.14015 0.6457 1.63822 172 183 141
0.14015 0.78913 1.63822 177 188 145
0.14015 0.6457 1.63822 177 188 145
-0.14015 0.6457 1.63822 177 188 145
-0.14015 0.78913 1.63822 177 188 145
-0.11274 0.826 1.63822 177 188 145
0.11274 0.826 1.63822 177 188 145
0.75097 -0.51591 0.06153 172 183 141
0.63084 -0.62022 0.06153 172 183 141
0.63084 -0.62022 1.12397 172 183 141
0.75097 -0.51591 1.12397 172 183 141
0.75097 0.55007 0.06153 172 183 141
0.63149 -0.91972 1.12397 172 183 141
0.75119 -0.82387 1.12397 172 183 141
0.63149 -0.9882 1.20122 172 183 141
0.75119 -0.89235 1.20122 172 183 141
0.63149 -0.9882 1.43168 172 183 141
0.75119 -0.89235 1.43168 172 183 141
0.75108 -0.63366 1.43168 172 183 141
0.43379 -0.62022 0.06153 172 183 141
0.43379 -0.62022 0.83836 172 183 141
0.36319 -0.62022 0.90245 172 183 141
0.75097 0.55007 1.99244 172 183 141
0.75108 -0.63366 1.49 172 183 141
0.7511 -0.3111 1.99244 172 183 141
0.75119 -0.89235 1.99244 172 183 141
0.75119 -0.89235 1.49 172 183 141
0.7024 -0.34843 2.06582 172 183 141
0.7025 -0.84137 2.06582 172 183 141
0.58279 -0.93119 2.06582 172 183 141
0.63149 -0.9882 1.99244 172 183 141
0.70278 -0.3484 2.23624 172 183 141
0.7509 -0.31106 2.23624 172 183 141
0.75102 -0.09701 1.99244 172 183 141
0.70232 -0.0597 2.06582 172 183 141
0.70227 0.49955 2.06582 172 183 141
0.63084 0.65439 1.99244 172 183 141
0.63084 0.65439 0.06153 172 183 141
0.56653 0.58145 0 172 183 141
0.67441 0.48777 0 172 183 141
0.67441 -0.45361 0 172 183 141
0.56653 -0.54729 0 172 183 141
0.22798 0.58145 0 172 183 141
0.28919 0.65439 0.06153 172 183 141
0.58215 0.59731 2.06582 172 183 141
-0.63084 0.65439 1.99244 172 183 141
-0.58215 0.59731 2.06582 172 183 141
0.43379 -0.54729 0 172 183 141
0.43379 -0.25389 0 172 183 141
0.35585 -0.18416 0 172 183 141
0.28919 0.91258 0.06145 172 183 141
0.28919 0.91258 0.4382 172 183 141
0.23271 0.9816 0.4382 172 183 141
0.23271 0.9816 0.06145 172 183 141
0.22798 0.86797 0 172 183 141
0.1835 0.92552 0 172 183 141
0.28919 0.65439 0.4382 172 183 141
0.22798 0.86803 0.48718 172 183 141
0.18339 0.92539 0.48718 172 183 141
-0.22798 0.86797 0 172 183 141
-0.1835 0.92552 0 172 183 141
-0.23271 0.9816 0.06145 172 183 141
-0.28919 0.91258 0.06145 172 183 141
-0.23271 0.9816 0.4382 172 183 141
-0.28919 0.91258 0.4382 172 183 141
-0.28919 0.65439 0.06153 172 183 141
-0.28919 0.65439 0.4382 172 183 141
-0.22798 0.86803 0.48718 172 183 141
-0.18339 0.92539 0.48718 172 183 141
-0.22798 0.58145 0 172 183 141
-0.63084 0.65439 0.06153 172 183 141
-0.56653 0.58145 0 172 183 141
-0.35585 -0.18416 0 172 183 141
-0.75097 0.55007 0.06153 172 183 141
-0.75097 0.55007 1.99244 172 183 141
-0.67441 0.48777 0 172 183 141
-0.75097 -0.51591 0.06153 172 183 141
-0.67441 -0.45361 0 172 183 141
-0.63084 -0.62022 0.06153 172 183 141
-0.56653 -0.54729 0 172 183 141
-0.70227 0.49955 2.06582 172 183 141
-0.70232 -0.0597 2.06582 172 183 141
-0.75102 -0.09701 1.99244 172 183 141
-0.43379 -0.54729 0 172 183 141
-0.43379 -0.62022 0.06153 172 183 141
-0.43379 -0.25389 0 172 183 141
-0.75083 -0.09697 2.23624 172 183 141
-0.70278 -0.05967 2.23624 172 183 141
-0.7509 -0.31106 2.23624 172 183 141
-0.7511 -0.3111 1.99244 172 183 141
-0.70278 -0.3484 2.23624 172 183 141
-0.7024 -0.34843 2.06582 172 183 141
-0.75119 -0.89235 1.99244 172 183 141
-0.75108 -0.63366 1.49 172 183 141
-0.75119 -0.89235 1.49 172 183 141
-0.7025 -0.84137 2.06582 172 183 141
-0.58279 -0.93119 2.06582 172 183 141
-0.63149 -0.9882 1.99244 172 183 141
-0.36883 -0.34841 2.23624 172 183 141
-0.36883 -0.34843 2.06582 172 183 141
-0.33039 -0.3111 2.06582 172 183 141
-0.33039 -0.3111 2.23624 172 183 141
-0.33035 -0.09701 2.23624 172 183 141
-0.33035 -0.09701 2.06582 172 183 141
-0.36883 -0.05969 2.23624 172 183 141
-0.36883 -0.0597 2.06582 172 183 141
-0.68042 -0.07864 2.27624 172 183 141
-0.38871 -0.07865 2.27624 172 183 141
-0.72064 -0.11104 2.27624 172 183 141
-0.72071 -0.297 2.27624 172 183 141
-0.68042 -0.32943 2.27624 172 183 141
-0.38871 -0.32944 2.27624 172 183 141
-0.35653 -0.29704 2.27624 172 183 141
-0.3565 -0.11108 2.27624 172 183 141
-0.36883 -0.34843 2.06582 177 188 145
-0.33039 -0.3111 2.06582 177 188 145
0.33039 -0.3111 2.06582 177 188 145
0.36883 -0.34843 2.06582 177 188 145
-0.33035 -0.09701 2.06582 177 188 145
0.33035 -0.09701 2.06582 177 188 145
-0.36883 -0.0597 2.06582 177 188 145
0.36883 -0.0597 2.06582 177 188 145
0.70232 -0.0597 2.06582 177 188 145
0.58215 0.59731 2.06582 177 188 145
0.70227 0.49955 2.06582 177 188 145
-0.58215 0.59731 2.06582 177 188 145
0.58279 -0.93119 2.06582 177 188 145
0.7024 -0.34843 2.06582 177 188 145
0.7025 -0.84137 2.06582 177 188 145
-0.58279 -0.93119 2.06582 177 188 145
-0.70232 -0.0597 2.06582 177 188 145
-0.70227 0.49955 2.06582 177 188 145
-0.43379 -0.25389 0 214 209 203
-0.43379 -0.54729 0 214 209 203
0.43379 -0.54729 0 214 209 203
0.43379 -0.25389 0 214 209 203
-0.43379 -0.62022 0.06153 214 209 203
0.43379 -0.62022 0.06153 214 209 203
0.35585 -0.18416 0 214 209 203
-0.35585 -0.18416 0 214 209 203
-0.43379 -0.62022 0.83836 214 209 203
-0.36319 -0.62022 0.90245 214 209 203
0.36319 -0.62022 0.90245 214 209 203
0.43379 -0.62022 0.83836 214 209 203
0.63149 -0.9882 1.49 172 183 141
0.63149 -0.9882 1.7348 172 183 141
0.63149 -0.9882 1.79912 172 183 141
0.29498 -0.9882 1.79912 172 183 141
-0.29498 -0.9882 1.79912 172 183 141
-0.29498 -0.9882 1.64457 172 183 141
0.29498 -0.9882 1.64457 172 183 141
0 -0.9882 1.49 172 183 141
-0.63149 -0.9882 1.79912 172 183 141
-0.63149 -0.9882 1.7348 172 183 141
-0.63149 -0.9882 1.49 172 183 141
-0.34703 -0.9882 1.64457 172 183 141
-0.34703 -0.9882 1.7348 172 183 141
0.34703 -0.9882 1.64457 172 183 141
0.34703 -0.9882 1.7348 172 183 141
0.75119 -0.89235 1.49 76 78 68
0.75108 -0.63366 1.49 76 78 68
0.75108 -0.63366 1.43168 76 78 68
0.75119 -0.89235 1.43168 76 78 68
0.63149 -0.9882 1.49 76 78 68
0.63149 -0.9882 1.43168 76 78 68
0 -0.9882 1.43168 76 78 68
0 -0.9882 1.49 76 78 68
-0.63149 -0.9882 1.49 76 78 68
-0.63149 -0.9882 1.43168 76 78 68
-0.75119 -0.89235 1.43168 76 78 68
-0.75119 -0.89235 1.49 76 78 68
-0.75108 -0.63366 1.43168 76 78 68
-0.75108 -0.63366 1.49 76 78 68
0.22798 0.65439 0.48718 172 183 141
-0.22798 0.65439 0.48718 172 183 141
0.35653 -0.29704 2.27624 177 188 145
0.72071 -0.297 2.27624 177 188 145
0.68042 -0.32943 2.27624 177 188 145
0.38871 -0.32944 2.27624 177 188 145
0.3565 -0.11108 2.27624 177 188 145
0.72064 -0.11104 2.27624 177 188 145
0.38871 -0.07865 2.27624 177 188 145
0.68042 -0.07864 2.27624 177 188 145
0.75083 -0.09697 2.23624 172 183 141
0.70278 -0.05967 2.23624 172 183 141
0.36883 -0.05969 2.23624 172 183 141
0.36883 -0.0597 2.06582 172 183 141
0.33035 -0.09701 2.06582 172 183 141
0.33035 -0.09701 2.23624 172 183 141
0.33039 -0.3111 2.06582 172 183 141
0.33039 -0.3111 2.23624 172 183 141
0.36883 -0.34841 2.23624 172 183 141
0.36883 -0.34843 2.06582 172 183 141
0.68042 -0.07864 2.27624 172 183 141
0.38871 -0.07865 2.27624 172 183 141
0.72064 -0.11104 2.27624 172 183 141
0.72071 -0.297 2.27624 172 183 141
0.68042 -0.32943 2.27624 172 183 141
0.38871 -0.32944 2.27624 172 183 141
0.35653 -0.29704 2.27624 172 183 141
0.3565 -0.11108 2.27624 172 183 141
0.63149 -0.9882 1.7348 76 78 68
0.34703 -0.9882 1.7348 76 78 68
0.29498 -0.9882 1.79912 76 78 68
0.63149 -0.9882 1.79912 76 78 68
0.29498 -0.9882 1.64457 76 78 68
0.34703 -0.9882 1.64457 76 78 68
-0.75097 -0.51591 1.12397 172 183 141
-0.63084 -0.62022 1.12397 172 183 141
-0.63149 -0.91972 1.12397 172 183 141
-0.75119 -0.82387 1.12397 172 183 141
-0.63149 -0.9882 1.20122 172 183 141
-0.75119 -0.89235 1.20122 172 183 141
-0.63149 -0.9882 1.43168 172 183 141
-0.75119 -0.89235 1.43168 172 183 141
-0.75108 -0.63366 1.43168 172 183 141
-0.43379 -0.62022 0.83836 172 183 141
-0.36319 -0.62022 0.90245 172 183 141
0 -0.9882 1.43168 172 183 141
0.22798 0.86803 0.48718 177 188 145
0.22798 0.65439 0.48718 177 188 145
-0.22798 0.65439 0.48718 177 188 145
-0.22798 0.86803 0.48718 177 188 145
0.18339 0.92539 0.48718 177 188 145
-0.18339 0.92539 0.48718 177 188 145
-0.35653 -0.29704 2.27624 177 188 145
-0.38871 -0.32944 2.27624 177 188 145
-0.68042 -0.32943 2.27624 177 188 145
-0.72071 -0.297 2.27624 177 188 145
-0.3565 -0.11108 2.27624 177 188 145
-0.72064 -0.11104 2.27624 177 188 145
-0.38871 -0.07865 2.27624 177 188 145
-0.68042 -0.07864 2.27624 177 188 145
-0.7025 -0.84137 2.06582 177 188 145
-0.7024 -0.34843 2.06582 177 188 145
-0.63149 -0.9882 1.7348 76 78 68
-0.63149 -0.9882 1.79912 76 78 68
-0.29498 -0.9882 1.79912 76 78 68
-0.34703 -0.9882 1.7348 76 78 68
-0.29498 -0.9882 1.64457 76 78 68
-0.34703 -0.9882 1.64457 76 78 68
3 0 2 1
3 0 3 2
3 3 4 2
3 3 5 4
3 4 5 6
3 4 6 7
3 7 6 8
3 7 8 9
3 10 0 1
3 10 11 0
3 12 11 10
3 12 13 11
3 14 13 12
3 14 12 15
3 1 2 16
3 1 16 17
3 2 18 16
3 10 17 19
3 10 1 17
3 12 10 19
3 12 19 20
3 15 12 20
3 15 20 21
3 9 15 21
3 15 9 8
3 15 8 14
3 9 21 22
3 7 9 22
3 7 22 23
3 4 23 18
3 4 7 23
3 2 4 18
3 14 8 24
3 14 24 25
3 13 14 25
3 13 25 26
3 11 13 26
3 11 26 27
3 27 26 28
3 8 28 24
3 28 25 24
3 28 26 25
3 27 28 29
3 8 6 28
3 6 29 28
3 6 5 29
3 5 30 29
3 27 29 30
3 5 3 30
3 3 31 30
3 27 30 31
3 3 0 31
3 0 27 31
3 0 11 27
3 32 34 33
3 32 35 34
3 32 33 36
3 32 36 37
3 37 36 38
3 37 38 39
3 40 42 41
3 40 43 42
3 41 42 44
3 41 44 45
3 44 46 45
3 44 47 46
3 47 48 46
3 47 49 48
3 50 43 40
3 50 40 51
3 52 50 51
3 52 51 53
3 54 52 53
3 54 55 52
3 43 56 42
3 43 57 56
3 50 57 43
3 50 58 57
3 52 58 50
3 52 59 58
3 55 59 52
3 55 60 59
3 49 60 55
3 55 48 49
3 55 54 48
3 49 61 60
3 47 61 49
3 47 62 61
3 44 62 47
3 44 63 62
3 42 63 44
3 42 56 63
3 54 64 48
3 54 65 64
3 53 65 54
3 53 66 65
3 51 66 53
3 51 67 66
3 67 68 66
3 48 64 68
3 68 65 66
3 68 64 65
3 67 69 68
3 46 68 69
3 48 68 46
3 46 69 45
3 45 69 70
3 67 70 69
3 45 70 41
3 41 70 71
3 67 71 70
3 41 71 40
3 40 67 51
3 40 71 67
3 72 74 73
3 72 75 74
3 72 76 75
3 72 77 76
3 77 78 76
3 77 79 78
3 80 82 81
3 80 83 82
3 83 84 82
3 83 85 84
3 84 85 86
3 84 86 87
3 87 86 88
3 87 88 89
3 90 80 81
3 90 91 80
3 92 91 90
3 92 93 91
3 94 93 92
3 94 92 95
3 81 82 96
3 81 96 97
3 82 98 96
3 90 97 99
3 90 81 97
3 92 90 99
3 92 99 100
3 95 92 100
3 95 100 101
3 89 95 101
3 95 89 88
3 95 88 94
3 89 101 102
3 87 89 102
3 87 102 103
3 84 103 98
3 84 87 103
3 82 84 98
3 94 88 104
3 94 104 105
3 106 105 104
3 88 106 104
3 106 107 105
3 93 105 107
3 93 94 105
3 91 93 107
3 91 107 108
3 108 107 106
3 88 86 106
3 86 109 106
3 108 106 109
3 86 85 109
3 85 110 109
3 108 109 110
3 85 83 110
3 83 111 110
3 108 110 111
3 83 80 111
3 80 108 111
3 80 91 108
3 112 114 113
3 112 115 114
3 112 113 116
3 112 116 117
3 117 116 118
3 117 118 119
3 120 122 121
3 120 123 122
3 121 122 124
3 121 124 125
3 124 126 125
3 124 127 126
3 127 128 126
3 127 129 128
3 130 123 120
3 130 120 131
3 132 130 131
3 132 131 133
3 134 132 133
3 134 135 132
3 123 136 122
3 123 137 136
3 130 137 123
3 130 138 137
3 132 138 130
3 132 139 138
3 135 139 132
3 135 140 139
3 129 140 135
3 135 128 129
3 135 134 128
3 129 141 140
3 127 141 129
3 127 142 141
3 124 142 127
3 124 143 142
3 122 143 124
3 122 136 143
3 134 144 128
3 134 145 144
3 146 144 145
3 128 144 146
3 146 145 147
3 133 145 134
3 133 147 145
3 131 147 133
3 131 148 147
3 148 146 147
3 128 146 126
3 126 146 149
3 148 149 146
3 126 149 125
3 125 149 150
3 148 150 149
3 125 150 121
3 121 150 151
3 148 151 150
3 121 151 120
3 120 148 131
3 120 151 148
3 152 154 153
3 152 155 154
3 152 156 155
3 152 157 156
3 157 158 156
3 157 159 158
3 160 162 161
3 160 163 162
3 161 162 164
3 161 164 165
3 165 164 166
3 165 166 167
3 167 166 163
3 167 163 160
3 163 164 162
3 163 166 164
3 168 170 169
3 168 171 170
3 171 172 170
3 171 173 172
3 173 174 172
3 173 175 174
3 175 169 174
3 175 168 169
3 169 170 172
3 169 172 174
3 176 178 177
3 176 179 178
3 180 176 177
3 180 177 181
3 182 179 176
3 182 183 179
3 178 179 184
3 178 184 185
3 186 176 180
3 186 182 176
3 177 178 187
3 177 187 188
3 181 177 188
3 181 188 189
3 178 190 187
3 178 185 190
3 191 189 188
3 181 191 180
3 181 189 191
3 191 188 192
3 192 188 187
3 192 187 193
3 194 192 193
3 194 193 195
3 187 196 193
3 187 190 196
3 197 192 194
3 197 191 192
3 180 197 186
3 180 191 197
3 195 196 198
3 195 193 196
3 183 184 179
3 183 199 184
3 200 202 201
3 200 203 202
3 204 203 200
3 204 200 205
3 206 208 207
3 206 209 208
3 210 206 207
3 210 207 211
3 212 209 206
3 212 213 209
3 208 209 214
3 208 214 215
3 216 206 210
3 216 212 206
3 207 208 217
3 207 217 218
3 211 207 218
3 211 218 219
3 208 220 217
3 208 215 220
3 221 219 218
3 211 221 210
3 211 219 221
3 221 218 222
3 222 218 217
3 222 217 223
3 224 222 223
3 224 223 225
3 217 226 223
3 217 220 226
3 227 222 224
3 227 221 222
3 210 227 216
3 210 221 227
3 225 226 228
3 225 223 226
3 213 214 209
3 213 229 214
3 230 232 231
3 230 233 232
3 234 233 230
3 234 230 235
3 236 238 237
3 236 239 238
3 240 239 236
3 239 241 238
3 239 242 241
3 242 243 241
3 242 244 243
3 244 242 239
3 244 245 243
3 244 246 245
3 247 246 244
3 244 239 247
3 238 248 237
3 238 249 248
3 238 250 249
3 239 240 251
3 239 252 247
3 239 251 252
3 251 253 252
3 253 254 252
3 254 255 252
3 256 254 253
3 256 257 254
3 254 257 258
3 254 258 259
3 253 260 256
3 253 261 260
3 262 261 253
3 251 262 253
3 251 263 262
3 251 264 263
3 265 264 251
3 266 265 251
3 266 251 240
3 240 267 266
3 240 268 267
3 236 268 240
3 236 269 268
3 237 269 236
3 237 270 269
3 266 267 271
3 266 271 272
3 265 273 264
3 273 265 274
3 273 274 275
3 276 270 237
3 276 237 248
3 270 276 277
3 268 269 277
3 267 268 277
3 277 269 270
3 267 277 278
3 271 267 278
3 271 279 272
3 272 279 280
3 279 281 280
3 279 282 281
3 283 282 279
3 271 283 279
3 283 284 282
3 272 280 285
3 281 286 280
3 281 287 286
3 284 283 288
3 284 288 289
3 288 290 289
3 284 290 282
3 284 289 290
3 288 291 290
3 291 292 290
3 291 293 292
3 294 293 291
3 294 295 293
3 292 293 296
3 292 296 297
3 298 291 288
3 298 294 291
3 299 294 298
3 299 295 294
3 299 298 300
3 298 301 300
3 302 299 300
3 299 302 303
3 299 303 274
3 299 274 295
3 302 300 304
3 305 302 304
3 305 304 306
3 307 305 306
3 307 306 308
3 274 303 309
3 274 309 275
3 303 310 309
3 303 311 310
3 312 307 308
3 312 313 307
3 308 314 312
3 306 314 308
3 304 314 306
3 300 314 304
3 300 301 314
3 310 311 315
3 310 315 316
3 311 317 315
3 311 318 317
3 318 319 317
3 318 320 319
3 320 318 321
3 318 322 321
3 321 322 323
3 320 321 324
3 321 325 324
3 321 326 325
3 320 327 319
3 320 328 327
3 327 328 329
3 327 329 330
3 329 331 330
3 329 332 331
3 332 333 331
3 332 334 333
3 333 334 310
3 333 310 316
3 333 316 335
3 333 335 336
3 331 333 336
3 316 337 335
3 316 315 337
3 315 338 337
3 315 317 338
3 317 339 338
3 317 319 339
3 319 340 339
3 319 327 340
3 327 341 340
3 327 330 341
3 330 342 341
3 330 331 342
3 331 336 342
3 343 345 344
3 343 346 345
3 345 347 344
3 345 348 347
3 348 349 347
3 348 350 349
3 351 352 350
3 351 353 352
3 349 350 352
3 349 352 354
3 355 356 346
3 355 357 356
3 355 346 343
3 355 343 358
3 359 349 354
3 359 354 360
3 361 363 362
3 361 364 363
3 363 365 362
3 363 366 365
3 367 364 361
3 367 361 368
3 369 371 370
3 369 372 371
3 366 372 369
3 366 369 365
3 255 374 373
3 255 375 374
3 255 254 375
3 254 259 375
3 259 376 375
3 259 377 376
3 376 377 378
3 376 378 379
3 379 378 380
3 379 380 373
3 259 326 377
3 258 326 259
3 258 325 326
3 377 326 381
3 321 381 326
3 323 381 321
3 323 382 381
3 323 383 382
3 380 384 383
3 380 378 384
3 384 382 383
3 384 385 382
3 379 373 386
3 386 373 374
3 386 374 387
3 388 390 389
3 388 391 390
3 391 388 392
3 391 392 393
3 392 394 393
3 392 395 394
3 394 395 396
3 394 396 397
3 398 397 396
3 398 396 399
3 399 400 398
3 399 401 400
3 285 286 402
3 285 280 286
3 266 272 285
3 266 285 265
3 285 402 265
3 402 274 265
3 402 403 274
3 404 406 405
3 404 407 406
3 408 404 405
3 408 405 409
3 410 408 409
3 410 409 411
3 263 412 262
3 263 413 412
3 262 412 261
3 414 413 263
3 414 263 415
3 416 414 415
3 416 417 414
3 418 417 416
3 418 419 417
3 420 419 418
3 420 418 421
3 256 420 421
3 256 260 420
3 414 422 413
3 414 423 422
3 417 423 414
3 413 424 412
3 413 422 424
3 412 425 261
3 412 424 425
3 261 426 260
3 261 425 426
3 260 427 420
3 260 426 427
3 420 428 419
3 420 427 428
3 419 429 417
3 419 428 429
3 417 429 423
3 430 432 431
3 430 433 432
3 431 432 434
3 431 434 435
3 305 437 436
3 305 307 437
3 302 305 436
3 436 437 438
3 436 438 439
3 439 438 440
3 439 440 441
3 441 436 439
3 243 440 438
3 243 438 241
3 241 438 437
3 241 437 238
3 441 440 442
3 441 442 443
3 444 441 443
3 441 444 436
3 437 307 313
3 437 313 445
3 437 445 446
3 440 447 442
3 243 447 440
3 245 447 243
3 238 446 250
3 238 437 446
3 436 444 322
3 436 322 303
3 436 303 302
3 303 322 318
3 303 318 311
3 282 292 281
3 282 290 292
3 281 292 297
3 281 297 287
3 295 296 293
3 295 403 296
3 295 274 403
3 448 450 449
3 448 451 450
3 452 451 448
3 452 453 451
3 454 456 455
3 454 457 456
3 458 457 454
3 458 459 457
3 460 459 458
3 460 461 459
3 358 463 462
3 358 343 463
3 464 466 465
3 464 467 466
3 467 468 466
3 467 469 468
3 271 301 298
3 271 278 301
3 288 271 298
3 288 283 271
